<?xml version="1.0" encoding="utf-8"?>
<!-- Generator: Adobe Illustrator 16.0.0, SVG Export Plug-In . SVG Version: 6.00 Build 0)  -->
<!DOCTYPE svg PUBLIC "-//W3C//DTD SVG 1.1//EN" "http://www.w3.org/Graphics/SVG/1.1/DTD/svg11.dtd">
<svg version="1.1" xmlns="http://www.w3.org/2000/svg" xmlns:xlink="http://www.w3.org/1999/xlink" x="0px" y="0px"
	 width="456.081px" height="466.823px" viewBox="0 0 456.081 466.823" enable-background="new 0 0 456.081 466.823"
	 xml:space="preserve">
<g id="Layer_1">
	<rect x="3.774" y="140.714" fill="#999999" stroke="#999999" stroke-miterlimit="10" width="450.429" height="189.535"/>
</g>
<g id="Layer_5">
	<path stroke="#000000" stroke-miterlimit="10" d="M112.416,359.318h245.077c-8.659-9.114-17.561-18.224-25.936-27.906H130.512
		C125.736,341.258,119.139,350.546,112.416,359.318z"/>
	
		<line fill="none" stroke="#333333" stroke-width="3" stroke-miterlimit="10" x1="122.458" y1="345.365" x2="343.371" y2="345.365"/>
</g>
<g id="Layer_2">
	<rect x="131.973" y="140.714" fill="#666766" stroke="#666766" stroke-miterlimit="10" width="197.522" height="189.535"/>
</g>
<g id="Layer_3">
	<path fill="#666766" stroke="#666766" stroke-miterlimit="10" d="M430.196,116.417c-1.577-1.358-2.746-2.995-3.567-4.773H29.733
		c-0.317,0.436-0.649,0.865-1,1.285c-8.466,10.113-18.088,19.099-28.233,27.549v0.236h455.081v-6.644
		C446.634,128.919,438.08,123.201,430.196,116.417z"/>
	<rect x="142.15" y="140.714" fill="#FFFFFF" stroke="#FFFFFF" stroke-miterlimit="10" width="8.774" height="189.535"/>
	<rect x="192.576" y="140.714" fill="#FFFFFF" stroke="#FFFFFF" stroke-miterlimit="10" width="8.775" height="189.535"/>
	<rect x="254.917" y="140.714" fill="#FFFFFF" stroke="#FFFFFF" stroke-miterlimit="10" width="8.775" height="189.535"/>
	<rect x="309.304" y="140.713" fill="#FFFFFF" stroke="#FFFFFF" stroke-miterlimit="10" width="8.775" height="189.535"/>
	<g>
		<g>
			<path fill="#FFFFFF" d="M143.79,148.636c1.818-0.775,4.078,0.288,5.813,0.763c5.244,1.435,7.471-6.986,2.225-8.068
				c-3.902-0.805-8.176-0.991-11.871,0.748c-1.873,0.881-2.337,3.53-1.362,5.195C139.738,149.225,141.886,149.448,143.79,148.636
				L143.79,148.636z"/>
		</g>
	</g>
	<g>
		<g>
			<path fill="#FFFFFF" d="M188.64,146.975c2.122,2.338,3.993,2.584,7.068,2.366c3.883-0.275,7.802,0.606,11.652,0.138
				c4.214-0.513,6.089-7.218,1.098-8.112c-4.605-0.825-10.642-1.23-15.235-0.097C191.755,141.632,186.497,144.615,188.64,146.975
				L188.64,146.975z"/>
		</g>
	</g>
	<g>
		<g>
			<path fill="#FFFFFF" d="M249.552,147.547c0.926-0.111,2.51,1.004,3.609,1.109c1.681,0.161,3.367,0.157,5.054,0.244
				c2.813,0.145,5.963,0.195,8.765,0.001c4.19-0.289,5.117-6.035,0.994-7.345c-2.977-0.946-6.443-0.731-9.503-0.249
				c-1.689,0.267-3.272,0.783-4.896,1.311c-1.695,0.552-2.771,2.505-4.294,2.926C248.205,145.842,248.384,147.688,249.552,147.547
				L249.552,147.547z"/>
		</g>
	</g>
	<g>
		<g>
			<path fill="#FFFFFF" d="M303.905,146.45c3.449,0.53,6.593,2.033,10.183,2.282c3.517,0.243,8.268,1.105,11.25-1.029
				c1.731-1.239,1.731-3.436,0-4.675c-2.816-2.016-6.574-1.156-9.879-1.066c-1.681,0.045-3.271,0.188-4.924,0.485
				c-2.237,0.403-4.429,1.496-6.63,1.834C302.826,144.446,302.826,146.284,303.905,146.45L303.905,146.45z"/>
		</g>
	</g>
	<g>
		<g>
			<path fill="#FFFFFF" d="M308.126,331.462c2.326,0.698,4.621,0.82,7.039,0.833c2.938,0.016,5.994,0.554,8.223-1.745
				c1.426-1.47,1.426-3.784,0-5.254c-2.046-2.111-4.571-1.765-7.281-1.75c-2.732,0.014-5.345,0.047-7.98,0.838
				C304.625,325.435,304.625,330.412,308.126,331.462L308.126,331.462z"/>
		</g>
	</g>
	<g>
		<g>
			<path fill="#FFFFFF" d="M250.715,332.748c2.421-0.199,4.666,0.74,7.069,0.87c2.444,0.132,5.005,0.866,7.435,0.735
				c3.021-0.163,4.369-4.198,1.576-5.822c-2.405-1.398-5.395-1.246-8.086-1.115c-3.18,0.155-5.461,1.588-8.35,2.708
				C249.059,330.628,249.1,332.88,250.715,332.748L250.715,332.748z"/>
		</g>
	</g>
	<g>
		<g>
			<path fill="#FFFFFF" d="M187.428,331.098c2.351,1.255,4.258,1.384,6.9,1.288c1.721-0.063,3.427-0.281,5.154-0.302
				c1.538-0.019,2.988,0.277,4.497-0.13c2.756-0.746,3.149-4.485,0.775-5.933c-2.842-1.732-7.299-0.862-10.427-0.446
				c-3.157,0.419-5.814,1.406-7.254,4.176C186.835,330.213,186.938,330.837,187.428,331.098L187.428,331.098z"/>
		</g>
	</g>
	<g>
		<g>
			<path fill="#FFFFFF" d="M137.521,329.49c2.391,1.967,5.567,1.959,8.542,2.134c3.971,0.233,9.26,0.987,11.823-2.598
				c0.414-0.577,0.414-1.628,0-2.205c-2.563-3.585-7.853-2.831-11.823-2.598c-2.975,0.175-6.151,0.167-8.542,2.134
				C136.651,327.074,136.651,328.773,137.521,329.49L137.521,329.49z"/>
		</g>
	</g>
</g>
<g id="Layer_6">
	
		<rect x="156.007" y="166.412" fill="#414042" stroke="#FFFFFF" stroke-width="4" stroke-miterlimit="10" width="30.232" height="31.396"/>
	
		<line fill="none" stroke="#FFFFFF" stroke-width="4" stroke-miterlimit="10" x1="171.123" y1="166.412" x2="171.123" y2="197.807"/>
	
		<line fill="none" stroke="#FFFFFF" stroke-width="4" stroke-miterlimit="10" x1="156.007" y1="182.109" x2="186.239" y2="182.109"/>
	
		<rect x="212.924" y="165.132" fill="#414042" stroke="#FFFFFF" stroke-width="4" stroke-miterlimit="10" width="30.232" height="31.396"/>
	
		<line fill="none" stroke="#FFFFFF" stroke-width="4" stroke-miterlimit="10" x1="228.041" y1="165.132" x2="228.041" y2="196.528"/>
	<line fill="none" stroke="#FFFFFF" stroke-width="4" stroke-miterlimit="10" x1="212.924" y1="180.83" x2="243.157" y2="180.83"/>
	
		<rect x="272.313" y="166.412" fill="#414042" stroke="#FFFFFF" stroke-width="4" stroke-miterlimit="10" width="30.232" height="31.396"/>
	
		<line fill="none" stroke="#FFFFFF" stroke-width="4" stroke-miterlimit="10" x1="287.429" y1="166.412" x2="287.429" y2="197.807"/>
	
		<line fill="none" stroke="#FFFFFF" stroke-width="4" stroke-miterlimit="10" x1="272.313" y1="182.109" x2="302.545" y2="182.109"/>
	
		<rect x="343.371" y="166.412" fill="#414042" stroke="#FFFFFF" stroke-width="4" stroke-miterlimit="10" width="30.232" height="31.396"/>
	
		<line fill="none" stroke="#FFFFFF" stroke-width="4" stroke-miterlimit="10" x1="358.487" y1="166.412" x2="358.487" y2="197.807"/>
	
		<line fill="none" stroke="#FFFFFF" stroke-width="4" stroke-miterlimit="10" x1="343.371" y1="182.109" x2="373.603" y2="182.109"/>
	<rect x="398.39" y="166.412" fill="#414042" stroke="#FFFFFF" stroke-miterlimit="10" width="30.232" height="31.396"/>
	
		<line fill="none" stroke="#FFFFFF" stroke-width="4" stroke-miterlimit="10" x1="413.506" y1="166.412" x2="413.506" y2="197.807"/>
	<line fill="none" stroke="#FFFFFF" stroke-width="4" stroke-miterlimit="10" x1="398.39" y1="182.109" x2="428.623" y2="182.109"/>
	
		<rect x="85.599" y="166.412" fill="#414042" stroke="#FFFFFF" stroke-width="4" stroke-miterlimit="10" width="30.232" height="31.396"/>
	
		<line fill="none" stroke="#FFFFFF" stroke-width="4" stroke-miterlimit="10" x1="100.715" y1="166.412" x2="100.715" y2="197.807"/>
	<line fill="none" stroke="#FFFFFF" stroke-width="4" stroke-miterlimit="10" x1="85.599" y1="182.109" x2="115.832" y2="182.109"/>
	
		<rect x="25.134" y="165.132" fill="#414042" stroke="#FFFFFF" stroke-width="4" stroke-miterlimit="10" width="30.232" height="31.396"/>
	<line fill="none" stroke="#FFFFFF" stroke-width="4" stroke-miterlimit="10" x1="40.25" y1="165.132" x2="40.25" y2="196.528"/>
	<line fill="none" stroke="#FFFFFF" stroke-width="4" stroke-miterlimit="10" x1="25.134" y1="180.83" x2="55.367" y2="180.83"/>
	
		<rect x="212.924" y="261.077" fill="#333333" stroke="#333333" stroke-width="3" stroke-miterlimit="10" width="30.232" height="69.171"/>
	
		<rect x="272.313" y="245.365" fill="#666766" stroke="#FFFFFF" stroke-width="2" stroke-miterlimit="10" width="30.232" height="50.298"/>
	
		<rect x="156.529" y="245.365" fill="#666766" stroke="#FFFFFF" stroke-width="2" stroke-miterlimit="10" width="31.396" height="50.298"/>
	
		<line fill="none" stroke="#FFFFFF" stroke-width="2" stroke-miterlimit="10" x1="156.529" y1="270.513" x2="186.239" y2="270.513"/>
	
		<line fill="none" stroke="#FFFFFF" stroke-width="2" stroke-miterlimit="10" x1="272.313" y1="270.513" x2="302.545" y2="270.513"/>
	
		<rect x="40.25" y="255.83" fill="#414042" stroke="#FFFFFF" stroke-width="2" stroke-miterlimit="10" width="60.465" height="52.326"/>
	
		<rect x="356.53" y="255.83" fill="#414042" stroke="#FFFFFF" stroke-width="2" stroke-miterlimit="10" width="63.953" height="52.326"/>
	<line fill="none" stroke="#FFFFFF" stroke-width="2" stroke-miterlimit="10" x1="55.367" y1="255.83" x2="55.367" y2="308.156"/>
	<line fill="none" stroke="#FFFFFF" stroke-width="2" stroke-miterlimit="10" x1="85.599" y1="255.83" x2="85.599" y2="308.156"/>
	<line fill="none" stroke="#FFFFFF" stroke-width="2" stroke-miterlimit="10" x1="373.603" y1="255.83" x2="373.603" y2="308.156"/>
	<line fill="none" stroke="#FFFFFF" stroke-width="2" stroke-miterlimit="10" x1="407.692" y1="255.83" x2="407.692" y2="308.156"/>
</g>
<g id="Layer_4">
	
		<rect x="119.32" y="126.179" fill="#FFFFFF" stroke="#000000" stroke-width="2" stroke-miterlimit="10" width="218.604" height="14.535"/>
	
		<rect x="110.018" y="111.644" fill="#FFFFFF" stroke="#000000" stroke-width="2" stroke-miterlimit="10" width="240.698" height="14.535"/>
	<line fill="none" stroke="#000000" stroke-width="2" stroke-miterlimit="10" x1="100.715" y1="111.644" x2="356.53" y2="111.644"/>
	<line fill="none" stroke="#000000" stroke-width="2" stroke-miterlimit="10" x1="358.487" y1="111.644" x2="232.324" y2="55.83"/>
	<line fill="none" stroke="#000000" stroke-width="2" stroke-miterlimit="10" x1="232.324" y1="55.83" x2="102.672" y2="111.644"/>
	<g>
		<g>
			<path fill="#FFFFFF" d="M376.296,466.823c0.68,0,0.68-1.055,0-1.055S375.617,466.823,376.296,466.823L376.296,466.823z"/>
		</g>
	</g>
</g>
<g id="Layer_7">
	<line fill="none" stroke="#000000" stroke-width="3" stroke-miterlimit="10" x1="232.324" y1="55.83" x2="232.915" y2="0.016"/>
</g>
</svg>
