<?xml version="1.0" encoding="utf-8"?>
<!-- Generator: Adobe Illustrator 16.0.0, SVG Export Plug-In . SVG Version: 6.00 Build 0)  -->
<!DOCTYPE svg PUBLIC "-//W3C//DTD SVG 1.1//EN" "http://www.w3.org/Graphics/SVG/1.1/DTD/svg11.dtd">
<svg version="1.1" id="Layer_1" xmlns="http://www.w3.org/2000/svg" xmlns:xlink="http://www.w3.org/1999/xlink" x="0px" y="0px"
	 width="93.759px" height="78.587px" viewBox="0 0 93.759 78.587" enable-background="new 0 0 93.759 78.587" xml:space="preserve">
<g>
	<g>
		<path fill="#653614" d="M76.76,21.445c0.299-0.022,0.598-0.045,0.896-0.068c1.639-0.124,3.061-0.57,4.252-1.761
			c1.123-1.123,1.762-2.664,1.762-4.253s-0.639-3.13-1.762-4.253c-1.191-1.191-2.613-1.637-4.252-1.761
			c-0.299-0.023-0.598-0.045-0.896-0.068c-1.545-0.117-3.235,0.716-4.301,1.781c-1.136,1.136-1.781,2.694-1.781,4.301
			s0.646,3.165,1.781,4.301C73.524,20.729,75.215,21.562,76.76,21.445L76.76,21.445z"/>
	</g>
</g>
<g>
	<g>
		<path fill="#653614" d="M78.854,8.448c1.78-0.618,4.439,0.361,2.708-0.206c-1.604-0.525-3.782-0.279-5.197,0.615
			c-0.492,0.305-0.954,0.655-1.385,1.049c-0.319,0.413-0.638,0.826-0.957,1.239c0.678-0.924,0.768-1.065,0.27-0.422
			c-1.165,1.474-1.896,2.933-2.635,4.657c-2.931,6.844,6.014,12.569,10.205,5.966c0.496-0.781,0.971-1.574,1.47-2.352
			c-0.863,1.346,1.357-1.328,1.541-1.517c-3.241-1.887-6.482-3.773-9.724-5.66c-0.296,0.93-0.592,1.86-0.9,2.786
			c-0.477,1.427,0.473-0.63,0.65-0.849c-1.016,1.251-2.088,2.436-3.062,3.733c3.473,0.454,6.945,0.908,10.419,1.361
			c-0.144-0.862-0.297-1.721-0.463-2.58c-0.08-0.395-0.157-0.791-0.231-1.187c0.072,0.751,0.097,0.854,0.073,0.306
			c0.072,3.489-3.706,4.456-0.871,3.114c0.936-0.442,1.87-0.883,2.794-1.35c-2.716-2.087-5.431-4.174-8.146-6.262
			c-0.632,1.66-0.749,2.12-1.101,2.725c-0.617,1.063-1.513,2.023-2.24,3.009c3.125,1.827,6.25,3.653,9.375,5.479
			c1.926-3.313,1.253-8.428-1.049-11.451c-0.643,2.45-1.285,4.9-1.927,7.35c1.331-0.669,2.663-1.339,3.994-2.009
			c-2.445-2.445-4.891-4.891-7.336-7.336c-0.481,0.844-0.974,1.682-1.471,2.517c-0.34,0.572-0.69,1.138-1.044,1.702
			c-0.941,1.507-0.594,0.461,0.486-0.032c2.617,1.065,5.235,2.13,7.853,3.194c-0.578-1.389-1.142-2.497-2.497-3.291
			c-3.507-2.055,1.187,2.275-0.088-0.079c-1.777-3.283-7.563-3.684-9.219,0c-0.738,1.642-1.254,3.372-1.989,5.006
			c-1.479,3.288-0.287,6.574,3.183,7.824c6.744,2.43,16.526-1.596,17.577-9.318c1.263-9.29-9.652-14.023-17.145-10.206
			c-3.41,1.737-5.839,4.65-6.938,8.307c-1.276,4.249,0.833,8.122,3.382,11.331c3.029,3.814,8.353,5.91,13.061,4.212
			c8.011-2.891,13.509-14.271,10.354-22.344c-4.748-12.157-23.522-8.14-27.791,2.364c-3.065,7.542,3.195,15.552,9.571,18.881
			c8.51,4.445,17.895,1.297,20.726-8.162c2.856-9.549-4.594-17.368-13.881-17.817c-9.831-0.476-18.645,11.21-12.629,20.029
			c2.313,3.389,7.489,2.993,8.739-1.142c0.523-1.732,0.804-3.294,0.883-5.111c0.021-0.457,0.146-0.799,0.642-1.611
			c-0.572,0.937,0.28-0.219,0.45-0.376c-0.873,0.809,0.269-0.074,0.486-0.19c-1.103,0.584,0.232-0.012,0.484-0.078
			c0.665-0.127,0.647-0.133-0.054-0.017c0.332-0.024,0.665-0.031,0.998-0.023c1.602,0.002-1.112-0.269,0.458,0.037
			c0.49,0.095,0.963,0.259,1.433,0.423c-0.66-0.23,0.922,0.776,0.733,0.597c0.33,0.313,0.278,0.343,0.403,0.791
			c-0.331-1.185-0.012,0.213-0.016,0.556c0.014-0.977-0.314,1.174-0.414,1.506c-0.054,0.179-0.791,1.185-0.782,1.176
			c0.856-0.843-0.049-0.029-0.363,0.137c1.181-0.623,0.01-0.104-0.337-0.029c1.404-0.301,0.049-0.086-0.306-0.094
			c-1.542-0.035,1.173,0.262-0.371-0.076c-0.488-0.107-0.962-0.276-1.433-0.441c1.165,0.41-0.719-0.405-0.949-0.536
			c-1.462-0.83-0.799-0.433-1.766-1.308c-0.384-0.348-0.732-0.731-1.079-1.115c-1.094-1.209,0.571,0.882-0.309-0.446
			c-0.267-0.404-0.482-0.837-0.694-1.271c0.578,1.181,0.042-0.121-0.025-0.382c0.334,1.308,0.031,0.167,0.032-0.251
			c-0.002,1.654,0.512-0.997-0.094,0.283c0.604-1.275-0.734,0.672,0.282-0.464c0.972-1.087-0.677,0.33,0.666-0.584
			c1.024-0.697,2.084-1.068,3.263-1.395c1.326-0.368,0.98-0.322,2.504-0.291c1.522,0.032-1.038-0.259,0.31,0.084
			c0.442,0.113,0.023-0.032-0.389-0.352c0.286,0.222,0.975,1.133,0.107-0.045c0.2,0.271,0.688,1.364,0.12-0.013
			c0.145,0.351,0.232,0.723,0.321,1.09c0.313,1.296-0.084-1.24,0.006,0.131c0.027,0.416,0.007,0.833-0.011,1.249
			c-0.063,1.433,0.227-1.166-0.021,0.278c-0.178,1.031-0.504,2.032-0.876,3.006c0.399-1.047-0.65,1.129-0.89,1.51
			c-0.11,0.175-0.995,1.301-0.196,0.32c-0.265,0.326-0.563,0.624-0.86,0.92c-0.193,0.192-1.253,0.952-0.172,0.184
			c-0.315,0.224-0.659,0.401-1.002,0.576c1.182-0.603,0.208-0.136-0.145-0.049c1.675-0.412-1.054-0.242,0.573,0.02
			c-0.266-0.043-1.412-0.505-0.286,0.003c-0.418-0.189-0.798-0.455-1.173-0.713c0.434,0.298-0.994-1.153-1.252-1.52
			c-1.025-1.459,1.325-3.623,2.903-2.93c1.319,0.58,0.378,0.505,0.591-0.791c0.055-0.337-0.235,0.496-0.401,0.623
			c-1.396,1.068-2.598,1.172-4.179,0.594c1.061,2.608,2.122,5.216,3.183,7.824c0.746-1.637,1.269-3.363,2.011-4.994
			c-3.073,0-6.146,0-9.219,0c1.177,2.197,2.848,3.631,5.188,4.46c-1.244-1.245-2.489-2.489-3.733-3.733
			c0.014,0.032,0.026,0.064,0.04,0.097c1.4,3.41,4.439,4.731,7.852,3.194c2.699-1.216,4.486-5.564,5.893-8.006
			c2.81-4.875-2.652-9.665-7.336-7.336c-1.335,0.664-2.67,1.328-4.006,1.991c-2.404,1.196-3.61,5.118-1.927,7.35
			c0.82,1.088,0.083,1.95,0.951,0.549c-3.195,5.152,4.686,11.489,8.525,6.578c2.436-3.115,3.987-5.688,5.509-9.364
			c2.071-5.005-4.334-8.056-8.146-6.262c-2.607,1.228-4.979,1.951-6.68,4.451c-1.885,2.771-0.429,6.855-0.019,9.853
			c0.56,4.082,7.019,5.667,9.528,2.515c1.057-1.328,2.354-2.473,3.311-3.877c1.102-1.616,1.628-3.776,2.269-5.607
			c1.995-5.706-5.751-9.527-9.724-5.66c-1.952,1.9-3.468,3.878-4.989,6.131c3.401,1.989,6.804,3.977,10.205,5.966
			c0.316-0.719,0.656-1.426,1.021-2.122c0.938-1.854-0.312-0.046,0.423-0.661c-1.938,0.512-3.877,1.025-5.815,1.537
			c-0.376-0.161-0.751-0.321-1.127-0.481c-0.745-0.745-1.49-1.491-2.235-2.236c-0.604-0.982-1.162-4.955-0.454-0.523
			c0.219,1.365,1.091,2.596,2.014,3.574c3.734,3.96,10.587,1.925,11.987-3.165C89.053,12.264,84.125,6.617,78.854,8.448
			L78.854,8.448z"/>
	</g>
</g>
<g>
	<g>
		<path fill="#653614" d="M13.965,62.245c0.452,0.161,0.858,0.396,1.221,0.705c-0.066-0.059,0.338-0.662-0.212-0.053
			c-1.068,1.183-2.951,1.688-4.401,2.164c1.83,1.038,3.659,2.077,5.488,3.116c-0.814-3.873-1.023-4.423,2.999-5.097
			c-2.006-1.139-4.013-2.278-6.019-3.417c0.952,3.592,0.903,4.737-2.588,5.961c2.015,1.144,4.03,2.288,6.044,3.432
			c-0.838-2.356-0.947-3.75-0.199-4.963c-0.479,0.777,0.318-0.255,0.438-0.364c-0.747,0.683,0.271-0.073,0.448-0.164
			c-0.982,0.504,0.143,0.051,0.385-0.001c-0.669,0.086-0.717,0.117-0.141,0.094c-0.691-0.128-0.755-0.132-0.192-0.012
			c1.17,0.267-0.843-0.512,0.163,0.121c-0.239-0.15-1.054-1.238-0.532-0.369c-0.641-1.067,0.021,0.686-0.094-0.367
			c-0.007-0.064-0.082,1.557,0.016,0.962c-0.128,0.777-0.762,1.758-1.106,1.988c-0.147,0.1-0.13,0.004,0.262,0.33
			c-1.059-0.881-0.734-3.381-0.436-4.271c-0.426,1.269,0.74-0.599-0.243,0.528c0.891-1.021-0.943,0.532,0.189-0.139
			c-1.114,0.66-0.271,0.122,0.187,0.009c-1.802,0.446,1.252,0.241-0.572-0.029c0.41,0.061,0.805,0.2,1.197,0.331
			c-1.333-0.444-0.234-0.034,0.099,0.182c-1.37-0.891,0.359,0.714-0.589-0.576c0.797,1.084-0.279-1.115,0.159,0.211
			c0.444,1.343,0.014-1.134,0.024,0.389c-0.007-1.163-0.121,0.461-0.188,0.701c-0.227,0.813-1.518,1.873-0.533,1.475
			c-1.295,0.524,0.793,0.096-0.56,0.05c0.388,0.013,1.366,0.488,0.356-0.052c-1.278-0.683,0.477,0.548-0.574-0.496
			c0.647,0.644-0.378-0.614-0.436-0.714c0.457,0.805-0.18-0.751-0.202-0.844c0.244,1.043,0.196-0.944,0.029,0.015
			c0.164-0.938,0.76-1.594,1.909-2.28c0.788-0.472,0.629-0.225,1.226-0.039c-0.392-0.122-0.953-0.669-0.141,0.106
			c-0.615-0.588,0.405,0.698,0.458,0.797c-0.157-0.294,0.084,1.087,0.059,1.226c-0.153,0.836-0.517,1.819-1.504,2.168
			c-1.687,0.595-2.991-0.556-3.399-2.141c-0.144-0.559,0.542-1.684,0.991-2.15c0.152-0.158,1.084-0.64,0.729-0.511
			c1.127-0.409-0.251-0.237,0.799,0.059c0.083,0.023,0.652,0.618,1.021,1.227c0.237,0.392,0.562,1.486,0.469,2.128
			c-0.199,1.371-0.646,2.074-1.612,2.992c-0.293,0.279-1.312,0.296-0.899,0.356c-1.123-0.163-0.791-0.168-1.394-0.525
			c0.345,0.296,0.26,0.206-0.256-0.271c0.515,0.495-0.557-0.909-0.57-0.934c-0.399-0.735-0.16-2.503,0.149-3.83
			c0.164-0.703,0.37-1.395,0.586-2.083c0.523-1.659-0.262,0.301,0.426-1.091c0.215-0.436,0.475-0.844,0.747-1.244
			c-1.198,1.761,1.265-0.803-0.647,0.609c1.098-0.812-1.086,0.317-0.292,0.049c0.54-0.183-1.692-0.018-0.18,0.069
			c-1.903-0.109-0.981-0.146-0.381,0.059c-1.846-0.626-0.509-0.197,0.006,0.133c0.784,0.501-1.163-1.003-0.031-0.017
			c0.391,0.34,0.747,0.719,1.095,1.1c0.259,0.284,1.217,1.537,0.152,0.129c0.349,0.461,0.667,0.944,0.978,1.432
			c0.578,0.904,1.077,1.858,1.538,2.827c0.692,1.454-0.235-0.637,0.13,0.29c0.214,0.543,0.399,1.096,0.574,1.652
			c0.197,0.626,0.752,3.699,0.491,1.673c0.093,0.72-0.148,3.415,0.179,1.259c-0.048,0.313-0.146,0.617-0.251,0.915
			c0.448-0.99,0.544-1.239,0.287-0.748c-0.437,0.81,0.994-1.14,0.377-0.477c-0.405,0.371-0.185,0.206,0.662-0.494
			c-0.482,0.274-0.222,0.18,0.778-0.283c-1.208,0.501,1.509,0.002,0.073,0.028c-1.483,0.027,1.059,0.233,0.005,0.01
			c-0.618-0.131-1.215-0.355-1.801-0.585c-2.031-0.795-2.045-0.739-3.949-1.892c-5.956-3.604-10.841,5.273-5.358,9.168
			c3.376,2.398,7.261,4.992,11.624,4.6c4.09-0.368,7.396-2.915,8.354-7.011c1.466-6.271-1.456-13.724-5.239-18.663
			c-2.147-2.804-4.744-5.461-8.308-6.326c-4.532-1.1-8.188,1.17-10.841,4.664c-3.218,4.24-4.188,10.838-3.422,15.884
			c1.01,6.647,7.954,11.91,14.578,11.106c7.887-0.956,13.535-8.195,12.89-16.109c-0.583-7.156-6.71-14.276-14.408-13.301
			C4.774,49.873-1.159,59.119,1.952,67.335c3.159,8.342,12.153,10.729,19.838,7.329c7.149-3.163,8.259-13.139,5.097-19.302
			c-3.541-6.9-12.446-7.804-18.307-3.529c-5.948,4.339-7.95,12.479-3.677,18.735c3.954,5.79,11.638,7.747,17.285,3.155
			c8.897-7.234,5.33-22.614-6.834-22.628C2.017,51.081,0.151,71.4,11.602,75.977c12.006,4.798,21.617-14.596,10.593-21.165
			c-4.116-2.452-9.09-0.998-12.508,1.868c-4.29,3.598-4.404,10.147-2.666,14.99c0.853,2.376,3.379,4.374,6.044,3.432
			c3.623-1.28,6.898-2.992,8.928-6.389c2.092-3.499,1.481-7.927,0.483-11.65c-0.741-2.766-3.406-3.861-6.019-3.417
			c-3.771,0.642-7.422,2.359-9.226,5.916c-2,3.945-0.962,8.213,0.674,12.054c0.947,2.223,4.217,2.732,6.104,1.601
			c3.322-1.994,7.224-5.255,7.366-9.494c0.13-3.87-2.409-6.012-5.824-7.24C11.877,55.159,10.469,60.841,13.965,62.245L13.965,62.245
			z"/>
	</g>
</g>
<g>
	<g>
		<path fill="#653614" d="M19.255,61.16c5.149-1.892,9.149-5.476,13.44-8.785c4.96-3.825,9.962-7.602,15.006-11.316
			c5.131-3.778,10.356-7.452,15.681-10.952c4.342-2.855,12.361-5.536,14.533-10.484c0.611-1.393,0.225-3.282-1.491-3.667
			c-5.023-1.126-10.077,2.984-14.154,5.491c-5.914,3.636-11.566,7.667-17.068,11.896c-5.256,4.04-10.365,8.25-15.414,12.545
			c-4.517,3.843-9.47,7.434-12.637,12.534C16.33,59.745,17.696,61.732,19.255,61.16L19.255,61.16z"/>
	</g>
</g>
<g>
	<g>
		<path fill="#653614" d="M71.273,21.601c-4.683,1.038-8.633,1.777-12.919,4.227c-5.624,3.215-10.801,6.807-15.923,10.781
			c-4.968,3.855-9.808,7.838-14.533,11.987c-3.955,3.474-9.642,7.239-11.604,12.24c-1.316,3.354,2.687,7.239,6,6.001
			c4.375-1.636,7.657-6.15,10.969-9.341c4.444-4.28,8.965-8.527,13.618-12.581c4.321-3.764,8.744-7.754,13.347-11.138
			c2.145-1.577,4.295-3.158,6.474-4.688c1.757-1.233,3.56-3.177,5.544-3.964C74.401,24.271,73.621,21.08,71.273,21.601
			L71.273,21.601z"/>
	</g>
</g>
<g>
	<g>
		<path fill="#653614" d="M21.221,61.152c5.193-3.958,11.093-6.94,16.379-10.762c5.429-3.924,11.04-7.588,16.632-11.27
			c5.581-3.673,11.297-7.146,16.991-10.639c4.974-3.051,12.238-5.81,14.902-11.32c0.559-1.155-0.14-2.238-1.366-2.38
			c-5.624-0.651-11.168,3.536-15.806,6.241c-6.306,3.676-12.396,7.66-18.398,11.807c-5.26,3.633-10.31,7.56-15.287,11.567
			c-5.647,4.547-10.141,10.142-15.156,15.32C19.416,60.438,20.372,61.8,21.221,61.152L21.221,61.152z"/>
	</g>
</g>
<g>
	<g>
		<path fill="#2F1010" d="M4.167,55.924c-1.963,4.88-2.27,10.702,0.901,15.161c2.682,3.771,8.794,7.624,13.42,5.522
			c0.796-0.361,0.976-1.713,0.292-2.264c-2.952-2.376-6.805-2.476-9.598-5.332c-3.312-3.387-3.228-8-1.828-12.209
			C8.039,54.74,4.941,53.999,4.167,55.924L4.167,55.924z"/>
	</g>
</g>
<g>
	<g>
		<path fill="#2F1010" d="M4.318,53.922c-3.774,3.679-3.835,9.609-2.656,14.429c1.101,4.501,5.641,9.224,10.622,7.911
			c1.488-0.393,1.843-2.219,0.869-3.291c-2.194-2.414-4.847-3.753-6.088-7.005c-1.275-3.339,0.067-6.749,0.663-10.061
			C8.075,53.966,5.868,52.41,4.318,53.922L4.318,53.922z"/>
	</g>
</g>
<g>
	<g>
		<path fill="#2F1010" d="M4.149,60.195c-1.146,5.804,0.931,10.856,6.024,13.953c4.387,2.667,12.179,4.662,16.531,1.159
			c0.678-0.545,0.419-1.704-0.271-2.098c-3.419-1.951-7.772-1.438-11.489-2.667c-4.756-1.572-8.274-5.607-9.575-10.348
			C5.211,59.618,4.274,59.563,4.149,60.195L4.149,60.195z"/>
	</g>
</g>
<g>
	<g>
		<path fill="#2F1010" d="M69.678,18.363c0.338-2.846-0.033-5.38,0.855-8.208c0.663-2.107,2.072-3.811,2.927-5.798
			c0.688-1.602-0.415-3.248-2.224-2.892c-6.51,1.282-9.575,12.229-7.29,17.674C65.24,22.225,69.278,21.726,69.678,18.363
			L69.678,18.363z"/>
	</g>
</g>
<g>
	<g>
		<path fill="#2F1010" d="M75.465,28.579c5.289,2.427,10.944,1.571,15.488-2.022c1.146-0.906,0.202-2.988-1.193-2.881
			c-3.835,0.294-7.973,2.145-11.705,0.472C75.069,22.808,72.45,27.196,75.465,28.579L75.465,28.579z"/>
	</g>
</g>
</svg>
