<?xml version="1.0" encoding="utf-8"?>
<!-- Generator: Adobe Illustrator 16.0.0, SVG Export Plug-In . SVG Version: 6.00 Build 0)  -->
<!DOCTYPE svg PUBLIC "-//W3C//DTD SVG 1.1//EN" "http://www.w3.org/Graphics/SVG/1.1/DTD/svg11.dtd">
<svg version="1.1" xmlns="http://www.w3.org/2000/svg" xmlns:xlink="http://www.w3.org/1999/xlink" x="0px" y="0px"
	 width="309.272px" height="275.561px" viewBox="0 0 309.272 275.561" enable-background="new 0 0 309.272 275.561"
	 xml:space="preserve">
<g id="Layer_2">
	<path fill="#653614" stroke="#653614" stroke-miterlimit="10" d="M256.75,119.549C243.44,57.639,194.693,13.333,139.371,7.077
		c-1.522,0.519-3.047,1.03-4.591,1.469c-6.563,1.867-13.4,2.63-20.146,3.526c-1.822,0.242-3.645,0.478-5.467,0.714
		c-0.344,0.045-0.623,0.081-0.871,0.114c-2.976,0.43-5.959,0.862-8.903,1.478C93.207,15.67,87.15,17.4,81.098,19.202
		c-5.561,1.656-11.196,3.008-16.864,4.22C16.691,51.983-9.312,112.202,3.951,173.896c9.799,45.584,38.814,81.617,75.517,99.954
		c10.196-0.084,20.381,0.157,30.657,0.367c9.204,0.188,18.414,0.05,27.608-0.421c4.858-0.248,9.714-0.545,14.563-0.94
		c0.596-0.049,6.863-0.706,4.465-0.315c1.626-0.25,3.25-0.507,4.863-0.827c15.443-3.063,30.408-8.06,46.105-9.356
		C248.01,231.556,268.922,176.176,256.75,119.549z"/>
	<g>
		<g>
			<path fill="#653614" d="M119.579,273.522c8.879,0.175,17.584,2.349,26.5,2c1.285-0.051,1.29-2.051,0-2
				c-8.916,0.349-17.621-1.825-26.5-2C118.289,271.497,118.291,273.497,119.579,273.522L119.579,273.522z"/>
		</g>
	</g>
</g>
<g id="Layer_3">
	<path stroke="#000000" stroke-miterlimit="10" d="M182.309,267.717c9.639-2.754,18.852-6.875,28.532-9.45
		c2.115-0.563,4.389-1.112,6.742-1.571c44.264-27.624,68.293-84.338,55.807-142.428C257.8,41.75,191.212-5.437,124.66,8.87
		C58.107,23.177,16.793,93.561,32.383,166.078c13.594,63.235,65.972,107.205,123.286,107.938
		C164.626,272.249,173.527,270.227,182.309,267.717z"/>
</g>
<g id="Layer_4">
	
		<ellipse transform="matrix(0.9777 -0.2102 0.2102 0.9777 -24.5135 38.057)" fill="#EADBCA" stroke="#F4EDE4" stroke-miterlimit="10" cx="166.793" cy="134.359" rx="123.256" ry="134.302"/>
</g>
<g id="Layer_1">
	
		<ellipse transform="matrix(0.9777 -0.2102 0.2102 0.9777 -24.1073 41.8794)" fill="#FDCC9A" stroke="#FDCC9A" stroke-miterlimit="10" cx="184.98" cy="134.359" rx="123.256" ry="134.302"/>
</g>
<g id="Layer_5">
	<g>
		<g>
			<path fill="#2F1010" d="M80.079,45.022c3.224,0,3.224-5,0-5S76.854,45.022,80.079,45.022L80.079,45.022z"/>
		</g>
	</g>
	<g>
		<g>
			<path fill="#2F1010" d="M67.579,70.522c0-0.333,0-0.667,0-1c0-1.363-1.137-2.5-2.5-2.5s-2.5,1.137-2.5,2.5c0,0.333,0,0.667,0,1
				c0,1.363,1.137,2.5,2.5,2.5S67.579,71.885,67.579,70.522L67.579,70.522z"/>
		</g>
	</g>
	<g>
		<g>
			<path fill="#2F1010" d="M53.079,107.022c0.787,0,1.475-0.108,2.193-0.435c0.604-0.275,1.109-0.832,1.574-1.297
				c0.964-0.963,0.963-2.572,0-3.535c-0.963-0.964-2.572-0.963-3.535,0c-0.152,0.151-0.304,0.303-0.458,0.452
				c-0.058,0.056-0.117,0.11-0.177,0.163c-0.323,0.291,0.535-0.375,0.21-0.168c-0.216,0.115-0.085,0.062,0.391-0.158
				c-0.193,0.071-0.587,0.062,0.353-0.033c-0.182,0.018-0.368,0.012-0.55,0.012c-1.363,0.001-2.5,1.136-2.5,2.5
				C50.579,105.885,51.716,107.023,53.079,107.022L53.079,107.022z"/>
		</g>
	</g>
	<g>
		<g>
			<path fill="#2F1010" d="M49.079,139.022c0.333,0,0.667,0,1,0c1.363,0,2.5-1.137,2.5-2.5s-1.137-2.5-2.5-2.5c-0.333,0-0.667,0-1,0
				c-1.363,0-2.5,1.137-2.5,2.5S47.716,139.022,49.079,139.022L49.079,139.022z"/>
		</g>
	</g>
	<g>
		<g>
			<path fill="#2F1010" d="M56.079,170.022c3.224,0,3.224-5,0-5S52.854,170.022,56.079,170.022L56.079,170.022z"/>
		</g>
	</g>
	<g>
		<g>
			<path fill="#2F1010" d="M65.079,196.022c-0.25,0-0.5,0-0.75,0c-3.224,0-3.224,5,0,5c0.25,0,0.5,0,0.75,0
				C68.303,201.022,68.303,196.022,65.079,196.022c-0.25,0-0.5,0-0.75,0c-3.224,0-3.224,5,0,5c0.25,0,0.5,0,0.75,0
				C68.303,201.022,68.303,196.022,65.079,196.022L65.079,196.022z"/>
		</g>
	</g>
	<g>
		<g>
			<path fill="#2F1010" d="M83.079,225.022c0.333,0,0.667,0,1,0c1.363,0,2.5-1.137,2.5-2.5s-1.137-2.5-2.5-2.5c-0.333,0-0.667,0-1,0
				c-1.363,0-2.5,1.137-2.5,2.5S81.716,225.022,83.079,225.022L83.079,225.022z"/>
		</g>
	</g>
	<g>
		<g>
			<path fill="#2F1010" d="M107.079,248.022c3.224,0,3.224-5,0-5S103.854,248.022,107.079,248.022L107.079,248.022z"/>
		</g>
	</g>
	<g>
		<g>
			<path fill="#2F1010" d="M101.579,19.522c0,0.093,0,0.187,0,0.28c0,1.363,1.137,2.5,2.5,2.5s2.5-1.137,2.5-2.5
				c0-0.426,0-0.853,0-1.28c0-1.363-1.137-2.5-2.5-2.5s-2.5,1.137-2.5,2.5c0,0.427,0,0.854,0,1.28c0,1.363,1.137,2.5,2.5,2.5
				s2.5-1.137,2.5-2.5c0-0.093,0-0.187,0-0.28c0-1.363-1.137-2.5-2.5-2.5S101.579,18.16,101.579,19.522L101.579,19.522z"/>
		</g>
	</g>
</g>
</svg>
