<?xml version="1.0" encoding="utf-8"?>
<!-- Generator: Adobe Illustrator 16.0.0, SVG Export Plug-In . SVG Version: 6.00 Build 0)  -->
<!DOCTYPE svg PUBLIC "-//W3C//DTD SVG 1.1//EN" "http://www.w3.org/Graphics/SVG/1.1/DTD/svg11.dtd">
<svg version="1.1" xmlns="http://www.w3.org/2000/svg" xmlns:xlink="http://www.w3.org/1999/xlink" x="0px" y="0px"
	 width="410.242px" height="439.15px" viewBox="0 0 410.242 439.15" enable-background="new 0 0 410.242 439.15"
	 xml:space="preserve">
<g id="Layer_1">
</g>
<g id="brigid">
	<g>
		<g>
			<path fill="#7F4E2A" d="M191.702,1.055c-0.676,20.774,1.013,41.697,0.929,62.512c-0.087,21.49-0.058,43.007-0.958,64.481
				c-0.894,21.323-3.025,42.584-4.584,63.863c-0.751,10.247-1.416,20.501-1.944,30.763c-0.53,10.278-2.027,21.348,0.246,31.461
				c0.612,2.72,4.851,2.709,5.47,0c2.178-9.539,1.302-19.796,1.628-29.541c0.365-10.901,0.954-21.794,1.584-32.683
				c1.232-21.281,2.319-42.564,3.169-63.863c0.857-21.474,0.669-42.994,0.692-64.481c0.022-20.682,0.832-42.595-4.122-62.797
				C193.516-0.439,191.741-0.133,191.702,1.055L191.702,1.055z"/>
		</g>
	</g>
	<g>
		<g>
			<path fill="#C49A6C" d="M189.971,195.818c3.757,1.229,7.978,1.032,11.906,1.311c4.453,0.316,8.904,0.645,13.353,1.025
				c8.925,0.764,17.844,1.649,26.754,2.572c18.506,1.917,36.946,4.397,55.465,6.243c17.743,1.769,35.478,3.011,53.314,3.236
				c8.823,0.111,17.648-0.095,26.459-0.58c7.677-0.422,18.054-0.704,24.324-5.615c1.197-0.938,0.897-3.383-0.514-3.981
				c-6.963-2.954-16.42-1.345-23.811-0.851c-8.806,0.588-17.636,0.764-26.459,0.744c-17.787-0.04-35.574-1.228-53.314-2.417
				c-17.855-1.197-35.703-2.672-53.553-3.966c-8.912-0.646-17.826-1.194-26.757-1.516c-4.45-0.161-8.902-0.263-13.355-0.334
				c-4.493-0.072-9.467-0.597-13.813,0.649C188.204,192.844,188.297,195.27,189.971,195.818L189.971,195.818z"/>
		</g>
	</g>
	<g>
		<g>
			<path fill="#C49A6C" d="M0.664,241.501c7.211,2.315,13.96,5.009,21.521,6.129c8.124,1.204,16.27,2.237,24.453,2.934
				c16.793,1.431,33.655,2.032,50.506,1.881c16.838-0.151,33.669-0.992,50.45-2.377c7.8-0.644,15.594-1.414,23.357-2.411
				c7.302-0.937,16.117-1.071,22.549-5.002c2.668-1.631,2.346-6.061-0.893-6.833c-6.947-1.655-14.694,0.391-21.656,1.224
				c-7.776,0.931-15.559,1.799-23.357,2.528c-16.773,1.567-33.608,2.463-50.45,2.799c-16.266,0.325-32.551,0.191-48.8-0.641
				c-7.836-0.401-15.673-0.891-23.491-1.553c-8.022-0.679-15.932-0.208-23.938-0.535C-0.188,239.599-0.322,241.184,0.664,241.501
				L0.664,241.501z"/>
		</g>
	</g>
	<g>
		<g>
			<path fill="#7F4E2A" d="M185.422,209.398c8.878,2.025,17.569,1.968,26.65,2.125c9.512,0.164,19.023,0.373,28.534,0.615
				c19.164,0.488,38.332,1.034,57.492,1.678c18.931,0.636,37.854,1.288,56.77,2.297c9.612,0.513,19.221,1.12,28.831,1.666
				c4.392,0.25,8.785,0.443,13.181,0.598c4.239,0.15,8.317,0.585,12.205-1.327c1.55-0.762,1.537-3.315,0-4.081
				c-3.346-1.668-6.664-1.553-10.349-1.61c-5.015-0.078-10.026-0.265-15.037-0.477c-9.626-0.408-19.222-1.189-28.831-1.858
				c-18.902-1.316-37.834-2.421-56.77-3.121c-19.163-0.708-38.316-1.081-57.492-1.174c-9.512-0.046-19.022-0.043-28.534-0.01
				c-9.089,0.031-17.764-0.076-26.65,1.947C184.065,206.973,184.065,209.089,185.422,209.398L185.422,209.398z"/>
		</g>
	</g>
	<g>
		<g>
			<path fill="#7F4E2A" d="M14.869,229.907c7.234-0.159,14.134,0.592,21.31,1.2c6.967,0.59,14.126,0.104,21.125,0.312
				c13.969,0.415,27.932,1.479,41.874,2.408c13.889,0.925,27.766,2.024,41.661,2.861c6.949,0.419,13.899,0.759,20.86,0.897
				c5.782,0.114,14.046,1.682,18.734-2.362c0.895-0.772,0.888-2.448,0-3.221c-4.297-3.742-11.467-2.644-16.834-2.894
				c-6.958-0.323-13.915-0.728-20.866-1.17c-14.53-0.926-29.036-2.2-43.555-3.285c-13.951-1.043-27.882-1.602-41.874-1.576
				c-6.646,0.012-13.624-0.268-20.216,0.636c-7.522,1.032-14.982,2.984-22.471,4.337C13.555,228.242,13.82,229.93,14.869,229.907
				L14.869,229.907z"/>
		</g>
	</g>
	<g>
		<g>
			<path fill="#7F4E2A" d="M177.974,16.171c-0.695,19.393,0.288,38.792-0.157,58.188c-0.449,19.554-1.479,39.173-2.574,58.707
				c-1.102,19.663-2.561,39.304-3.991,58.945c-1.466,20.134-2.334,39.96-7.61,59.552c-1.847,6.859,8.765,9.767,10.607,2.924
				c5.021-18.648,6.187-37.393,7.573-56.564c1.468-20.304,2.988-40.604,4.194-60.925c1.199-20.216,2.05-40.482,2.746-60.717
				c0.688-20.031-0.506-40.076,0.211-60.109C189.228,9.074,178.227,9.099,177.974,16.171L177.974,16.171z"/>
		</g>
	</g>
	<g>
		<g>
			<path fill="#C49A6C" d="M197.938,19.36c-6.105,39.303-8.824,78.984-12.156,118.589c-1.615,19.194-4.35,38.233-6.155,57.399
				c-1.69,17.938,1.554,37.858-5.786,54.804c-2.789,6.438,6.685,12.046,9.498,5.552c7.309-16.873,5.767-34.843,6.717-52.768
				c1.048-19.765,4.509-39.4,6.225-59.122c3.53-40.563,6.01-81.262,12.265-121.531C209.622,15.347,199.024,12.367,197.938,19.36
				L197.938,19.36z"/>
		</g>
	</g>
	<g>
		<g>
			<path fill="#F2D6BB" d="M192.084,198.651c2.723,6.173,3.276,14.114,3.76,20.772c0.629,8.657,0.051,17.352-0.571,25.989
				c-1.209,16.793-4.084,33.418-5.303,50.208c-1.663,22.895-1.894,45.894-3.632,68.803c-0.933,12.295-2.056,24.574-3.323,36.839
				c-0.598,5.795-1.287,11.579-1.821,17.38c-0.546,5.923-1.778,12.122,0.001,17.925c0.604,1.968,3.234,2.331,4.319,0.564
				c2.859-4.65,3.284-10.105,4.019-15.409c0.854-6.163,1.532-12.335,2.155-18.525c1.234-12.262,2.273-24.542,3.173-36.833
				c1.751-23.919,1.862-47.915,3.467-71.822c1.167-17.374,4.067-34.585,5.137-51.975c0.964-15.668,0.847-32.448-7.67-46.083
				C194.293,194.08,190.988,196.167,192.084,198.651L192.084,198.651z"/>
		</g>
	</g>
	<g>
		<g>
			<path fill="#F2D6BB" d="M174.725,225.149c66.339-0.1,133.216-8.864,199.147,2.14c6.937,1.158,9.909-9.441,2.924-10.607
				c-67.017-11.185-134.645-2.634-202.071-2.532C167.632,214.16,167.631,225.16,174.725,225.149L174.725,225.149z"/>
		</g>
	</g>
	<g>
		<g>
			<path fill="#C49A6C" d="M217.318,202.773c-4.92,7.496-6.301,18-7.976,26.646c-1.858,9.595-2.763,19.452-3.729,29.167
				c-2.001,20.116-3.219,40.286-5.537,60.373c-4.525,39.211-0.592,80.034-15.103,117.595c-0.842,2.18,2.777,3.692,3.77,1.589
				c16.891-35.782,13.261-75.85,16.761-114.271c1.819-19.965,3.929-39.92,5.785-59.888c0.969-10.429,2.095-20.837,3.718-31.188
				c0.813-5.183,1.632-10.354,2.545-15.521c0.8-4.528,2.047-9.286,2.009-13.895C219.55,202.144,217.964,201.791,217.318,202.773
				L217.318,202.773z"/>
		</g>
	</g>
	<g>
		<g>
			<path fill="#C49A6C" d="M221.846,223.461c-20.365-0.543-40.703-1.703-61.022-3.157c-7.082-0.507-7.033,10.497,0,11
				c20.319,1.454,40.657,2.614,61.022,3.157C228.943,234.651,228.925,223.65,221.846,223.461L221.846,223.461z"/>
		</g>
	</g>
	<g>
		<g>
			<path fill="#7F4E2A" d="M224.461,194.368c-8.973,10.103-9.159,26.179-9.672,39.018c-0.624,15.602,0.559,31.187-0.589,46.772
				c-1.736,23.568-3.206,47.143-6.248,70.591c-1.585,12.217-4.081,24.385-5.914,36.58c-1.797,11.96-4.295,23.744-6.479,35.625
				c-0.142,0.771,0.929,1.342,1.335,0.563c5.033-9.642,7.336-20.588,9.004-31.262c1.842-11.787,3.44-23.583,5.497-35.337
				c3.906-22.315,7.637-44.567,9.487-67.174c1.327-16.221,1.186-32.14,1.28-48.391c0.081-13.895-0.598-31.103,6.82-43.497
				C230.642,195.085,226.662,191.89,224.461,194.368L224.461,194.368z"/>
		</g>
	</g>
	<g>
		<g>
			<path fill="#7F4E2A" d="M200.589,201.486c-6.399,31.805-8.858,64.68-10.957,96.998c-1.052,16.204-0.769,32.416-1.408,48.623
				c-0.662,16.775-1.39,33.688-0.486,50.459c0.027,0.499,0.746,0.498,0.773,0c0.899-16.151,0.916-32.35,1.654-48.515
				c0.742-16.245,2.743-32.458,4.546-48.624c1.8-16.137,3.49-32.283,5.322-48.417c1.884-16.598,4.468-33.156,5.958-49.792
				C206.268,199.125,201.198,198.462,200.589,201.486L200.589,201.486z"/>
		</g>
	</g>
	<g>
		<g>
			<path fill="#7F4E2A" d="M208.685,198.306c-2.859,7.692-2.447,17.24-3.248,25.344c-0.922,9.332-2.076,18.642-3.326,27.935
				c-2.358,17.532-4.901,35.036-7.163,52.58c-2.302,17.857-4.225,35.741-5.8,53.678c-1.543,17.575-3.28,36.399-0.813,53.939
				c0.165,1.173,1.858,0.771,1.941-0.263c0.717-8.908,0.435-17.903,0.863-26.839c0.43-8.957,1.15-17.909,1.972-26.838
				c1.69-18.375,4.663-36.637,7.567-54.853c2.785-17.467,5.542-34.948,7.733-52.502c1.115-8.93,2.094-17.877,2.92-26.838
				c0.742-8.049,2.485-17.412,0.42-25.344C211.328,196.68,209.206,196.907,208.685,198.306L208.685,198.306z"/>
		</g>
	</g>
	<g>
		<g>
			<path fill="#7F4E2A" d="M207.028,26.919c-9.487,26.367-8.767,55.774-8.697,83.395c0.037,14.754-1.66,28.921-4.393,43.409
				c-1.363,7.225-3.027,14.333-3.937,21.636c-0.735,5.91-2.992,15.512,0.636,20.648c1.638,2.319,5.022,2.603,6.604,0
				c1.583-2.604,1.443-4.539,1.415-7.545c-0.036-3.749,0.211-7.497,0.509-11.231c0.622-7.781,1.466-15.583,2.651-23.296
				c2.148-13.981,4.048-27.682,3.986-41.859c-0.123-28.312,0.28-55.861,7.606-83.398C214.52,24.501,208.454,22.956,207.028,26.919
				L207.028,26.919z"/>
		</g>
	</g>
	<g>
		<g>
			<path fill="#C49A6C" d="M171.286,207.736c2.403,0.999,4.166,0.312,6.592-0.308c2.793-0.714,5.667-1.041,8.533-1.288
				c7.33-0.631,14.742-0.353,22.075,0.051c14.768,0.813,29.369,3.16,44.104,4.342c18.676,1.499,37.411,1.675,56.13,2.148
				c10.495,0.266,20.986,0.688,31.456,1.478c10.018,0.756,20.461,2.883,30.509,1.704c2.879-0.338,4.668-4.282,1.604-5.925
				c-8.611-4.622-18.898-5.437-28.452-6.29c-10.442-0.932-20.929-1.339-31.405-1.64c-19.947-0.573-39.919-0.518-59.842-1.791
				c-15.614-0.997-31.222-2.173-46.876-2.417c-7.159-0.112-14.353,0.078-21.455,1.033c-4.825,0.649-12.591,0.99-14.442,6.313
				C169.404,206.329,170.284,207.319,171.286,207.736L171.286,207.736z"/>
		</g>
	</g>
	<g>
		<g>
			<path fill="#7F4E2A" d="M174.171,205.787c14.401-1.016,28.496-2.189,42.962-1.649c15.681,0.585,31.356,1.151,47.037,1.659
				c19.784,0.64,39.557,1.616,59.303,2.996c9.889,0.691,19.775,1.452,29.651,2.293c8.181,0.698,19.247,3.811,26.955,0.261
				c1.356-0.625,1.711-2.974,0.505-3.914c-6.553-5.107-17.547-4.521-25.483-5.343c-9.87-1.022-19.752-1.886-29.651-2.578
				c-20.401-1.427-40.838-2.334-61.279-2.957c-15.655-0.477-31.376-1.391-47.037-1.457c-14.342-0.06-31.177-0.752-44.177,6.206
				C170.901,202.403,171.769,205.956,174.171,205.787L174.171,205.787z"/>
		</g>
	</g>
	<g>
		<g>
			<path fill="#7F4E2A" d="M14.674,245.575c7.07,3.609,13.29,6.987,21.151,8.569c7.85,1.58,16.105,1.796,24.086,2.069
				c16.864,0.577,33.748-0.251,50.618-0.06c17.921,0.205,35.832,0.29,53.744-0.425c8.996-0.359,17.983-0.951,26.942-1.846
				c8.666-0.866,19.125-0.761,26.877-5.116c2.81-1.579,2.662-6.97-0.975-7.461c-7.91-1.069-16.123,1.368-23.984,2.319
				c-8.927,1.081-17.951,1.573-26.933,1.912c-17.914,0.677-35.849,0.29-53.77,0.414c-16.329,0.113-32.637,1.066-48.966,1.096
				c-8.269,0.015-16.532-0.339-24.757-1.194c-7.971-0.829-15.93,0.053-23.838-0.997C14.483,244.803,14.348,245.408,14.674,245.575
				L14.674,245.575z"/>
		</g>
	</g>
	<g>
		<g>
			<path fill="#7F4E2A" d="M15.34,233.534c3.188,4.458,8.458,5.75,13.58,6.944c6.443,1.501,13.235,2.141,19.835,2.328
				c14.248,0.404,28.379-0.063,42.62,0.795c19.185,1.155,38.641-0.155,57.615-3.019c9.797-1.479,19.835-1.299,29.711-2.361
				c4.887-0.525,9.784-0.196,14.688-0.681c4.651-0.46,8.169-2.055,12.295-4.065c2.217-1.08,1.213-4.954-1.279-4.724
				c-8.321,0.768-17.337,1.736-25.704,1.453c-9.705-0.328-19.259,2.695-28.848,2.364c-9.083-0.314-18.179,0.585-27.241,1.054
				c-9.747,0.504-19.514,0.59-29.27,0.357c-13.504-0.322-26.827-0.199-40.338-0.004c-6.426,0.093-12.887,0.111-19.294-0.436
				c-5.677-0.484-10.904-2.624-16.515-3.238C15.628,230.129,14.44,232.276,15.34,233.534L15.34,233.534z"/>
		</g>
	</g>
	<g>
		<g>
			<path fill="#F2D6BB" d="M184.951,26.636c-1.601,38.176-4.629,76.268-7.276,114.38c-1.315,18.928-2.508,37.866-3.389,56.82
				c-0.824,17.717,0.866,36.336-3.155,53.708c-1.597,6.903,9.008,9.834,10.607,2.924c3.983-17.21,2.625-35.204,3.373-52.729
				c0.837-19.6,2.083-39.181,3.427-58.751c2.663-38.772,5.784-77.517,7.413-116.352C196.248,19.54,185.247,19.569,184.951,26.636
				L184.951,26.636z"/>
		</g>
	</g>
	<g>
		<g>
			<path fill="#F2D6BB" d="M199.024,51.488c-3.38,3.772-4.002,9.584-4.823,14.419c-1.087,6.396-0.758,13.208-0.642,19.667
				c0.238,13.225,0.171,26.251-1.412,39.404c-1.563,12.984-4.033,25.84-5.583,38.828c-0.805,6.741-1.233,13.513-1.205,20.302
				c0.023,5.313,0.031,11.897,3.573,16.14c1.159,1.389,3.035,0.377,3.591-0.948c2.087-4.978,0.663-11.714,0.662-17.03
				c0-6.172,0.579-12.339,1.289-18.464c1.436-12.382,3.855-24.637,5.513-36.99c1.669-12.441,1.738-24.927,1.336-37.45
				c-0.202-6.27-0.419-12.547-0.382-18.82c0.035-5.856,1.363-12.95-0.193-18.603C200.55,51.226,199.55,50.901,199.024,51.488
				L199.024,51.488z"/>
		</g>
	</g>
	<g>
		<g>
			<path fill="#F2D6BB" d="M182.037,204.375c30.175,9.405,61.44,10.792,92.861,11.087c16.539,0.156,33.083-0.147,49.618-0.464
				c8.009-0.153,16.017-0.313,24.023-0.501c6.952-0.164,14.733,0.279,20.967-3.336c1.431-0.83,1.53-3.128,0-3.933
				c-5.916-3.11-12.826-2.58-19.284-2.403c-7.989,0.219-15.977,0.564-23.964,0.846c-16.521,0.583-33.044,0.999-49.576,1.034
				c-31.403,0.067-63.116-1.378-94.372-4.355C181.109,202.235,180.971,204.042,182.037,204.375L182.037,204.375z"/>
		</g>
	</g>
	<g>
		<g>
			<path fill="#F2D6BB" d="M198.121,207.077c-12.888,26.221-7.073,57.005-10.418,85.104c-2.167,18.2-2.954,36.539-3.851,54.834
				c-0.448,9.143-0.886,18.284-1.5,27.418c-0.564,8.39-2.808,17.92,0.172,26.042c0.666,1.814,2.9,2.153,4.005,0.523
				c4.419-6.521,4.328-15.077,4.928-22.648c0.724-9.127,1.209-18.273,1.65-27.418c0.85-17.642,1.505-35.287,3.189-52.876
				c1.431-14.946,1.767-29.523,1.594-44.537c-0.173-15.049-0.502-30.341,3.687-44.986
				C202.156,206.505,199.08,205.125,198.121,207.077L198.121,207.077z"/>
		</g>
	</g>
	<g>
		<g>
			<path fill="#F2D6BB" d="M34.123,228.5c14.102,3.589,28.845,3.8,43.341,4.177c15.032,0.39,30.073,0.395,45.109,0.278
				c15.113-0.117,30.225-0.398,45.337-0.633c7.901-0.123,15.803-0.229,23.706-0.303c7.079-0.066,14.326,0.838,20.763-2.514
				c1.287-0.67,1.29-2.744,0-3.413c-5.942-3.084-12.247-2.383-18.787-2.311c-7.903,0.087-15.805,0.223-23.707,0.368
				c-15.115,0.276-30.228,0.603-45.344,0.795c-15.04,0.192-30.082,0.215-45.121-0.066c-14.911-0.279-29.921-1.546-44.782-0.176
				C32.563,224.894,31.885,227.931,34.123,228.5L34.123,228.5z"/>
		</g>
	</g>
	<g>
		<g>
			<path fill="#F2D6BB" d="M55.567,244.507c9.546,0.388,19.046,0.94,28.578,1.58c10.264,0.689,20.88-0.206,31.16-0.446
				c10.313-0.241,20.632-0.158,30.929,0.499c9.279,0.592,19.547,3.384,28.759,2.084c2.84-0.401,2.763-4.383,0.739-5.655
				c-7.596-4.775-19.007-4.843-27.709-5.29c-10.284-0.527-20.602-0.261-30.882,0.204c-10.417,0.47-20.81,1.466-31.177,2.563
				c-10.192,1.078-20.113,3.127-30.398,3.601C55.014,243.673,55.013,244.485,55.567,244.507L55.567,244.507z"/>
		</g>
	</g>
	<g>
		<g>
			<path fill="#7F4E2A" d="M197.938,192.616c-7.544,18.594-12.147,38.093-15.052,57.913c-1.016,6.936,9.582,9.921,10.607,2.924
				c2.904-19.82,7.507-39.319,15.052-57.913C211.213,188.963,200.568,186.132,197.938,192.616L197.938,192.616z"/>
		</g>
	</g>
	<g>
		<g>
			<path fill="#7F4E2A" d="M178.354,221.358c12.267,2.343,24.633,2.868,37.096,2.617c12.221-0.246,24.8-0.181,36.844-2.366
				c0.78-0.141,0.786-1.438,0-1.574c-11.497-1.998-23.32-0.46-34.917-0.093c-12.728,0.403-25.514,0.19-38.087-1.981
				C177.079,217.578,176.113,220.93,178.354,221.358L178.354,221.358z"/>
		</g>
	</g>
	<g>
		<g>
			<path fill="#7F4E2A" d="M196.759,305.315c-3.5,7.796-4.408,16.742-5.522,25.201c-1.226,9.305-1.816,18.425-0.494,27.756
				c0.123,0.868,1.61,0.861,1.74,0c1.302-8.613,1.952-17.253,2.738-25.922c0.806-8.885,3.048-17.764,2.979-26.645
				C198.195,304.987,197.089,304.582,196.759,305.315L196.759,305.315z"/>
		</g>
	</g>
	<g>
		<g>
			<path fill="#7F4E2A" d="M190.15,382.45c0.029,1.938,0.057,3.876,0.086,5.814c0.004,0.277,0.426,0.277,0.43,0
				c0.029-1.938,0.057-3.876,0.086-5.814C190.757,382.062,190.144,382.062,190.15,382.45L190.15,382.45z"/>
		</g>
	</g>
	<g>
		<g>
			<path fill="#7F4E2A" d="M191.948,351.989c-2.752,10.146-3.449,20.718-3.795,31.188c-0.343,10.384-1.726,21.831,0.348,32.049
				c0.158,0.781,1.418,0.783,1.574,0c1.946-9.747,0.147-20.266,0.307-30.175c0.176-10.978,1.26-21.803,3.224-32.604
				C193.8,351.372,192.242,350.904,191.948,351.989L191.948,351.989z"/>
		</g>
	</g>
	<g>
		<g>
			<path fill="#7F4E2A" d="M190.774,247.817c-3.326-1.41-7.264-0.565-10.759-0.259c-4.474,0.392-8.917,0.685-13.187,2.171
				c-1.295,0.451-1.322,2.211,0,2.651c3.903,1.301,8.01,1.217,12.073,1.104c3.667-0.101,8.57,0.442,11.872-1.438
				C192.225,251.22,192.517,248.555,190.774,247.817L190.774,247.817z"/>
		</g>
	</g>
	<g>
		<g>
			<path fill="#7F4E2A" d="M170.478,225.89c-2.315,0.416-2.394,3.265-2.79,5.129c-0.521,2.454-1.931,5.201-0.946,7.69
				c0.382,0.966,1.464,1.625,2.461,1.001c1.841-1.15,2.421-3.031,2.883-5.055c0.538-2.351,1.103-4.835,0.576-7.222
				c-0.152-0.689-0.792-1.307-1.471-1.471C170.934,225.901,170.739,225.843,170.478,225.89L170.478,225.89z"/>
		</g>
	</g>
	<g>
		<g>
			<path fill="#7F4E2A" d="M169.654,225.473c-0.14,2.462-2.228,5.163-1.173,7.584c0.218,0.5,0.879,0.663,1.359,0.553
				c1.443-0.333,2.237-1.874,3.018-3.019c0.927-1.358,1.158-3.524,1.179-5.118C174.074,222.629,169.813,222.672,169.654,225.473
				L169.654,225.473z"/>
		</g>
	</g>
	<g>
		<g>
			<path fill="#101010" d="M179.854,42.366c5.865,0.603,11.737,1.308,17.57,2.164c4.762,0.699,10.895,3.116,15.542,1.388
				c1.083-0.403,1.775-1.906,0.74-2.801c-3.689-3.188-9.211-2.681-13.854-2.934c-6.678-0.365-13.354,0.085-19.998,0.722
				C178.911,40.995,178.917,42.27,179.854,42.366L179.854,42.366z"/>
		</g>
	</g>
	<g>
		<g>
			<path fill="#101010" d="M181.058,55.583c4.909-1.074,9.972-0.859,14.945-0.318c4.792,0.521,9.718,2.203,14.537,1.523
				c2.053-0.29,2.296-3.041,1.137-4.309c-7.263-7.949-23.074-3.853-31.693-0.791C177.541,52.556,178.495,56.143,181.058,55.583
				L181.058,55.583z"/>
		</g>
	</g>
	<g>
		<g>
			<path fill="#101010" d="M368.953,196.302c-0.518,6.231-1.649,12.418-2.788,18.563c-0.393,2.117-1.484,7.737,2.355,7.737
				c4.166,0,4.041-5.827,4.372-8.622c0.696-5.897,0.885-11.75,0.529-17.678C373.248,193.404,369.19,193.444,368.953,196.302
				L368.953,196.302z"/>
		</g>
	</g>
	<g>
		<g>
			<path fill="#101010" d="M379.06,198.969c-0.833,6.492-6.251,14.572-3.74,20.998c0.398,1.022,1.633,1.232,2.277,0.298
				c1.986-2.882,2.372-6.342,3.201-9.686c0.964-3.882,1.462-7.599,1.184-11.609C381.848,197.047,379.295,197.133,379.06,198.969
				L379.06,198.969z"/>
		</g>
	</g>
	<g>
		<g>
			<path fill="#101010" d="M182.224,392.712c4.236,0.913,8.312,1.215,12.63,1.521c4.531,0.32,8.367,0.896,12.722-0.522
				c1.125-0.367,1.543-2.066,0.349-2.671c-7.366-3.729-17.836-2.175-25.701-0.482C181.154,390.789,181.154,392.482,182.224,392.712
				L182.224,392.712z"/>
		</g>
	</g>
	<g>
		<g>
			<path fill="#101010" d="M181.16,402.823c3.332,1.618,6.337,2.114,10.027,2.326c3.235,0.186,7.419,1.222,10.287-0.548
				c1-0.617,1.303-2.125,0.383-2.97c-2.235-2.05-5.051-1.692-7.96-1.688c-4.044,0.008-8.013,0.066-12.043,0.316
				C180.596,400.338,179.84,402.181,181.16,402.823L181.16,402.823z"/>
		</g>
	</g>
	<g>
		<g>
			<path fill="#101010" d="M31.168,223.635c0.081,5.554-0.356,11.009-1.206,16.498c-0.619,3.996-2.259,8.034-0.481,11.833
				c0.525,1.122,2.307,1.3,3.104,0.4c2.744-3.1,2.382-7.542,2.714-11.511c0.481-5.748,0.457-11.479-0.092-17.22
				C34.964,221.092,31.129,220.988,31.168,223.635L31.168,223.635z"/>
		</g>
	</g>
	<g>
		<g>
			<path fill="#101010" d="M42.113,227.635c-0.508,5.865-2.04,11.484-3.356,17.199c-1.096,4.758-2.963,10.487-1.062,15.212
				c0.435,1.081,2.21,1.74,2.827,0.37c2.197-4.878,1.935-10.982,2.69-16.222c0.792-5.495,1.307-11.004,1.049-16.559
				C44.197,226.236,42.232,226.268,42.113,227.635L42.113,227.635z"/>
		</g>
	</g>
	<g>
		<g>
			<path fill="#7F4E2A" d="M189.986,73.304c-4.411,11.058-4.372,24.071-5.216,35.852c-0.956,13.317-1.075,26.701-1.285,40.046
				c-0.209,13.257-0.36,26.515-0.81,39.767c-0.208,6.112-0.688,12.237-1.167,18.333c-0.485,6.174-2.216,12.684-0.521,18.756
				c0.387,1.385,2.157,1.498,2.906,0.379c3.078-4.594,3.136-10.078,3.652-15.437c0.591-6.124,0.939-12.271,1.287-18.413
				c0.746-13.167,0.758-26.385,0.953-39.568c0.198-13.364,0.602-26.711,1.037-40.069c0.205-6.301,0.508-12.596,0.927-18.886
				c0.459-6.896,1.389-13.532,0.684-20.43C192.287,72.203,190.514,71.979,189.986,73.304L189.986,73.304z"/>
		</g>
	</g>
</g>
</svg>
