<?xml version="1.0" encoding="utf-8"?>
<!-- Generator: Adobe Illustrator 16.0.0, SVG Export Plug-In . SVG Version: 6.00 Build 0)  -->
<!DOCTYPE svg PUBLIC "-//W3C//DTD SVG 1.1//EN" "http://www.w3.org/Graphics/SVG/1.1/DTD/svg11.dtd">
<svg version="1.1" id="Layer_1" xmlns="http://www.w3.org/2000/svg" xmlns:xlink="http://www.w3.org/1999/xlink" x="0px" y="0px"
	 width="156.29px" height="628.025px" viewBox="0 0 156.29 628.025" enable-background="new 0 0 156.29 628.025"
	 xml:space="preserve">
<rect x="3.354" y="77.525" fill="#999999" stroke="#333333" stroke-miterlimit="10" width="150" height="550"/>
<g id="XMLID_1_">
	<g>
		<path fill="#333333" d="M155.354,78.525c-43,4-86,7-129,5c-6.2,0-20.26-1.57-24.77-3.32c11.01-15.87,28.86-29.79,41.77-45.68
			c12-14,26-25,41-34C112.354,5.525,140.354,58.525,155.354,78.525z"/>
	</g>
	<g>
		<path fill="none" stroke="#333333" stroke-miterlimit="10" d="M1.583,80.206c-0.58-0.22-1-0.45-1.23-0.68"/>
		<path fill="none" stroke="#333333" stroke-miterlimit="10" d="M1.583,80.206c11.01-15.87,28.86-29.79,41.77-45.68
			c12-14,26-25,41-34c28,5,56,58,71,78c-43,4-86,7-129,5C20.153,83.525,6.094,81.956,1.583,80.206z"/>
		<path fill="none" stroke="#333333" stroke-miterlimit="10" d="M1.354,80.525c0.07-0.11,0.15-0.21,0.23-0.32"/>
	</g>
</g>
<g>
	<g>
		<path fill="#333333" d="M69.854,132.525c-0.088,14.032-1.913,28.151,1.268,41.994c2.166,9.426,16.627,5.428,14.464-3.987
			c-2.844-12.375-0.812-25.447-0.732-38.006C84.914,122.85,69.915,122.855,69.854,132.525L69.854,132.525z"/>
	</g>
</g>
<g>
	<g>
		<path fill="#333333" d="M69.027,260.492c-0.088,14.032-1.913,28.151,1.268,41.994c2.166,9.426,16.628,5.428,14.464-3.987
			c-2.844-12.375-0.812-25.447-0.731-38.006C84.088,250.816,69.088,250.822,69.027,260.492L69.027,260.492z"/>
	</g>
</g>
<g>
	<g>
		<path fill="#333333" d="M69.854,380.468c-0.088,14.032-1.913,28.151,1.268,41.994c2.166,9.426,16.627,5.428,14.464-3.988
			c-2.844-12.374-0.812-25.446-0.732-38.006C84.914,370.792,69.915,370.798,69.854,380.468L69.854,380.468z"/>
	</g>
</g>
<rect x="35.367" y="197.192" fill="#666766" stroke="#666766" stroke-miterlimit="10" width="32" height="15"/>
<rect x="51.367" y="214.47" fill="#666766" stroke="#666766" stroke-miterlimit="10" width="32" height="15"/>
<rect x="95.021" y="433.525" fill="#666766" stroke="#666766" stroke-miterlimit="10" width="32" height="15"/>
<rect x="79.021" y="452.858" fill="#666766" stroke="#666766" stroke-miterlimit="10" width="32" height="15"/>
</svg>
