<?xml version="1.0" encoding="utf-8"?>
<!-- Generator: Adobe Illustrator 16.0.0, SVG Export Plug-In . SVG Version: 6.00 Build 0)  -->
<!DOCTYPE svg PUBLIC "-//W3C//DTD SVG 1.1//EN" "http://www.w3.org/Graphics/SVG/1.1/DTD/svg11.dtd">
<svg version="1.1" id="Layer_1" xmlns="http://www.w3.org/2000/svg" xmlns:xlink="http://www.w3.org/1999/xlink" x="0px" y="0px"
	 width="145.27px" height="262.961px" viewBox="0 0 145.27 262.961" enable-background="new 0 0 145.27 262.961"
	 xml:space="preserve">
<g id="XMLID_2_">
	<g>
		<path fill="#666766" d="M113.25,64.086c26,21,27,60,26,91c-2,35-5,70-3,106c-44.67,3.97-90.32-1.91-135-1.99v-0.01
			c11-57-5-136,36-183C56.25,54.086,89.25,44.086,113.25,64.086z"/>
	</g>
	<g>
		<path fill="none" stroke="#999999" stroke-miterlimit="10" d="M1.25,259.086c11-57-5-136,36-183c19-22,52-32,76-12
			c26,21,27,60,26,91c-2,35-5,70-3,106c-44.67,3.97-90.32-1.91-135-1.99c-0.33-0.01-0.67-0.01-1-0.01"/>
	</g>
</g>
<rect x="78.179" fill="#666766" width="13.38" height="53.293"/>
<rect x="57.56" y="10.55" fill="#666766" width="53" height="12.278"/>
<g>
	<g>
		<path fill="#FFFFFF" d="M50.25,102.086c20.026,0.095,39.96,2.875,60,2c5.138-0.225,5.16-8.226,0-8c-20.04,0.875-39.974-1.906-60-2
			C45.09,94.062,45.092,102.062,50.25,102.086L50.25,102.086z"/>
	</g>
</g>
<g>
	<g>
		<path fill="#FFFFFF" d="M42.25,126.086c24.004,0.026,47.996,0.974,72,1c5.159,0.006,5.159-7.994,0-8
			c-24.004-0.026-47.996-0.974-72-1C37.091,118.08,37.091,126.08,42.25,126.086L42.25,126.086z"/>
	</g>
</g>
<g>
	<g>
		<path fill="#333333" d="M106.137,63.199c20.416,23.492,27.362,55.647,28.561,85.998c0.619,15.682-0.32,31.39-2.076,46.973
			c-2.107,18.7-5.532,37.013-5.594,55.916c-0.026,8.026,12.419,8.024,12.445,0c0.115-35.441,7.573-70.368,5.4-105.86
			c-1.969-32.14-11.225-63.999-34.51-87.253C107.607,56.22,103.634,60.318,106.137,63.199L106.137,63.199z"/>
	</g>
</g>
</svg>
