<?xml version="1.0" encoding="utf-8"?>
<!-- Generator: Adobe Illustrator 16.0.0, SVG Export Plug-In . SVG Version: 6.00 Build 0)  -->
<!DOCTYPE svg PUBLIC "-//W3C//DTD SVG 1.1//EN" "http://www.w3.org/Graphics/SVG/1.1/DTD/svg11.dtd">
<svg version="1.1" id="Layer_3" xmlns="http://www.w3.org/2000/svg" xmlns:xlink="http://www.w3.org/1999/xlink" x="0px" y="0px"
	 width="427.133px" height="638.313px" viewBox="0 0 427.133 638.313" enable-background="new 0 0 427.133 638.313"
	 xml:space="preserve">
<g>
	<g>
		<path fill="#CB6828" d="M264.207,426.308c-17.434,29.017-33.337,51.387-60.032,73.475c-0.37,0.307-4.568,3.612-1.295,1.094
			c-1.689,1.3-3.419,2.544-5.155,3.78c-3.45,2.455-7.027,4.725-10.662,6.895c-3.591,2.145-7.329,4.027-11.113,5.803
			c-1.072,0.494-2.149,0.975-3.233,1.441c1.707-0.728,1.55-0.68-0.472,0.145c-2.175,0.865-4.381,1.65-6.588,2.429
			c-16.506,5.817-33.715,9.363-50.415,14.555c-9.622,2.99-15.662,12.794-12.921,22.757c2.607,9.478,13.128,15.914,22.757,12.921
			c17.266-5.367,35-9.121,52.069-15.137c18.791-6.624,35.078-16.265,50.686-28.5c28.242-22.141,49.988-52.466,68.323-82.982
			c5.196-8.648,1.978-20.265-6.638-25.312C280.74,414.528,269.392,417.679,264.207,426.308L264.207,426.308z"/>
	</g>
</g>
<g>
	<g>
		<path fill="#CB6828" d="M287.139,384.034c-1.646,3.302-3.312,6.594-5.002,9.874c-4.619,8.964-2.399,20.018,6.638,25.312
			c8.348,4.89,20.696,2.319,25.312-6.638c1.689-3.279,3.355-6.571,5.002-9.874c2.274-4.565,3.251-9.214,1.864-14.255
			c-1.271-4.624-4.366-8.634-8.502-11.057C304.191,372.559,291.634,375.014,287.139,384.034L287.139,384.034z"/>
	</g>
</g>
<g>
	<g>
		<path fill="#CB6828" d="M116.596,553.363c10.132,12.53,26.063,16.833,41.501,17.574c5.823,0.279,11.648-0.266,17.473-0.113
			c1.014,0.027,5.627,0.563,0.493-0.16c1.334,0.188,2.632,0.533,3.927,0.891c4.299,1.187-3.438-1.883,0.522,0.271
			c1.678,1.105,1.563,0.972-0.342-0.402c0.745,0.673,1.441,1.393,2.088,2.159c0-8.721,0-17.441,0-26.162
			c-3.435,3.184,3.128-1.732-0.81,0.356c2.359-0.97,2.564-1.17,0.615-0.601c2.727-0.298,3.042-0.403,0.945-0.318
			c-4.452,0.056,3.948,0.947-0.388-0.183c-1.936-0.669-1.728-0.55,0.625,0.356c-0.814-0.413-1.601-0.874-2.36-1.382
			c-4.752,11.271-9.503,22.543-14.255,33.813c18.655,3.091,36.371-0.466,52.358-10.712c15.271-9.786,27.197-23.753,37.338-38.597
			c5.696-8.339,1.601-20.485-6.638-25.312c-9.163-5.367-19.635-1.672-25.312,6.638c-0.884,1.294-1.78,2.579-2.689,3.856
			c-0.314,0.441-3.467,4.613-0.879,1.277c-2.235,2.881-4.627,5.635-7.091,8.321c-2.08,2.268-4.291,4.409-6.552,6.494
			c-1.113,1.026-2.272,2-3.432,2.972c-1.625,1.305-1.555,1.262,0.211-0.131c-0.792,0.587-1.596,1.158-2.41,1.715
			c-2.386,1.665-4.911,3.116-7.482,4.471c-0.732,0.386-5.148,2.293-0.772,0.493c-1.741,0.717-3.541,1.275-5.345,1.806
			c-1.35,0.397-2.729,0.681-4.106,0.963c-4.694,0.961,4.115-0.34-0.681,0.063c-1.426,0.119-2.86,0.107-4.289,0.095
			c-1.035-0.009-7.24-0.893-2.393-0.09c-8.313-1.377-16.374,0.787-20.892,8.502c-5.214,8.9-1.893,19.969,6.637,25.312
			c14.839,9.294,33.35,7.902,46.21-4.017c7.666-7.104,6.56-18.911,0-26.162c-11.093-12.264-26.823-13.969-42.383-13.488
			c-2.649,0.082-5.293,0.089-7.942,0.005c-1.356-0.043-2.708-0.154-4.06-0.271c-2.094-0.232-1.81-0.191,0.855,0.122
			c-0.899-0.154-1.794-0.335-2.683-0.542c-1.338-0.291-2.641-0.71-3.941-1.135c-4.375-1.429,3.502,1.787-0.591-0.354
			c-0.805-0.42-4.376-3.109-0.859-0.277c-1.539-1.238-2.824-2.752-4.06-4.279c-6.35-7.853-19.598-6.565-26.163,0
			C108.907,534.89,110.261,545.53,116.596,553.363L116.596,553.363z"/>
	</g>
</g>
<g>
	<g>
		<path fill="#CB6828" d="M235.746,474.223c-9.275,8.378-17.941,17.629-24.023,28.64c11.271,4.751,22.542,9.503,33.813,14.255
			c0.414-2.992,1.101-5.869,2.041-8.739c0.317-0.971,2.045-4.987,0.007-0.306c0.679-1.56,1.464-3.072,2.252-4.579
			c2.984-5.706,6.637-11.051,10.004-16.533c7.923-12.9,14.043-27.859,12.052-43.282c-0.867-6.714-2.982-12.354-9.163-15.975
			c-5.674-3.323-13.004-3.374-18.674,0c-23.89,14.218-31.882,45.09-40.859,69.469c-2.835,7.701,1.8,16.966,8.502,20.893
			c7.626,4.467,16.008,2.537,22.418-2.894c1.633-1.371,1.676-1.418,0.13-0.138c0.892-0.619,1.804-1.206,2.735-1.763
			c0.925-0.553,1.865-1.076,2.822-1.571c0.521-0.28,5.358-2.378,1.376-0.757c-7.586-7.585-15.172-15.171-22.757-22.757
			c-0.375,1.466-0.803,2.887-1.295,4.316c-1.613,4.692,1.638-3.418-0.501,1.052c-1.502,3.139-3.258,6.159-4.895,9.229
			c-4.539,8.509-7.239,16.702-8.245,26.267c-1.081,10.279,9.242,18.194,18.5,18.5c7.188,0.237,13.163-0.465,19.805-3.648
			c-8.437-8.438-16.874-16.875-25.312-25.312c-1.906,3.751-3.827,7.487-5.958,11.118c-0.956,1.628-2.007,3.195-3.085,4.744
			c2.682-3.849-1.579,1.619-2.488,2.503c-1.536,1.329-1.323,1.21,0.64-0.357c-0.724,0.511-1.473,0.98-2.247,1.411
			c-1.819,0.908-1.567,0.83,0.757-0.237c0.739-0.277,7.042,0.932,3.477-0.086c-1.891-0.712-1.63-0.576,0.782,0.406
			c-1.87-0.804-3.746-1.592-5.63-2.363c-3.085-1.271-6.607-1.588-9.89-1.734c-11.306-0.505-22.578,7.937-30.091,15.483
			c-5.806,5.833-10.464,12.688-16.649,18.164c-7.554,6.687-6.803,19.359,0,26.162c7.452,7.452,18.619,6.679,26.163,0
			c6.171-5.463,10.966-12.228,16.649-18.163c1.259-1.315,2.608-2.534,3.986-3.723c-3.654,3.15,1.687-0.866,2.918-1.498
			c-2.396,0.95-2.622,1.088-0.679,0.41c-0.772,0.254-6.987-0.872-3.461,0.134c1.891,0.712,1.63,0.576-0.782-0.406
			c2.272,0.972,4.528,1.962,6.848,2.807c12.406,4.514,25.639-2.716,34.343-11.189c7.14-6.951,11.889-16.134,16.349-24.911
			c8.683-17.088-8.512-33.363-25.312-25.312c5.469-0.976,6.615-1.376,3.439-1.201c-1.514,0.031-3.057-0.151-4.57-0.201
			c6.167,6.167,12.333,12.333,18.5,18.5c-0.478,4.541,0.207-0.241,0.422-1.076c0.369-1.441,0.917-2.836,1.45-4.223
			c-1.627,4.23,0.292-0.292,0.634-0.972c0.669-1.332,1.391-2.64,2.1-3.95c3.593-6.64,7.128-13.456,9.008-20.807
			c1.645-6.431-0.027-13.27-4.758-17.999c-4.245-4.246-12.087-7.166-17.999-4.758c-8.794,3.581-16.103,7.571-23.39,13.744
			c10.307,5.999,20.614,11.999,30.92,17.999c1.927-5.23,3.789-10.485,5.715-15.716c2.135-5.798,3.558-9.242,5.143-12.681
			c2.013-4.366,4.276-8.606,6.853-12.667c0.577-0.89,1.179-1.764,1.803-2.622c-2.377,3.361,0.644-0.566,1.08-1.04
			c0.699-0.729,1.429-1.428,2.188-2.095c-3.058,2.805,0.256-0.048,1.074-0.535c-9.278-5.325-18.558-10.649-27.837-15.975
			c0.407,3.151,0.483,6.236,0.208,9.402c0.452-5.193,0.057-1.066-0.204,0.104c-0.364,1.638-0.898,3.233-1.445,4.816
			c-1.433,4.145,1.753-3.776-0.056,0.23c-0.695,1.54-1.49,3.033-2.288,4.521c-1.413,2.637-2.991,5.185-4.568,7.725
			c-7.091,11.419-14.799,23.201-16.68,36.804c-1.158,8.38,0.645,16.289,8.502,20.893c8.538,5.001,20.441,2.178,25.312-6.638
			c1.088-1.971,2.246-3.875,3.491-5.751c0.624-0.915,1.27-1.815,1.937-2.699c-2.349,3.191,1.006-1.023,1.287-1.347
			c3.544-4.064,7.525-7.744,11.521-11.354c7.486-6.761,6.856-19.306,0-26.162C254.511,466.824,243.223,467.469,235.746,474.223
			L235.746,474.223z"/>
	</g>
</g>
<g>
	<g>
		<path fill="#CB6828" d="M271.058,419.652c-2.866,4.047,2.441-2.875-0.686,0.921c-0.924,1.122-1.902,2.201-2.87,3.285
			c-2.227,2.493-4.495,4.939-6.623,7.52c-5.466,6.628-9.817,13.571-12.003,21.984c-4.724,18.18,17.489,30.7,30.92,17.999
			c7.553-7.141,8.93-21.373,0.742-28.688c-9.018-8.057-22.506-6.772-29.056,3.744c-1.346,2.16-2.082,4.511-2.606,6.945
			c-3.402,15.779,12.477,29.046,27.176,20.893c1.339-0.743,2.646-1.515,3.944-2.325c8.538-5.331,11.846-16.42,6.638-25.312
			c-4.982-8.505-16.751-11.982-25.312-6.638c-1.299,0.811-2.606,1.583-3.944,2.325c9.059,6.965,18.117,13.929,27.176,20.893
			c0.651-2.575,0.277-1.943-1.123,1.894c-9.686,1.248-19.37,2.496-29.056,3.744c0.037,0.033,0.073,0.065,0.11,0.099
			c-1.807-4.36-3.612-8.721-5.419-13.082c0.262,4.337,1.784,0.785,4.567-10.653c10.307,5.999,20.613,11.999,30.92,17.999
			c0.213-0.817,1.895-5.371,0.045-1.117c0.564-1.298,1.307-2.513,2.036-3.721c0.426-0.707,3.267-4.442,0.407-0.819
			c0.881-1.116,1.829-2.179,2.766-3.247c4.581-5.22,9.169-10.278,13.199-15.968c5.839-8.244,1.49-20.55-6.638-25.312
			C287.095,407.582,276.874,411.44,271.058,419.652L271.058,419.652z"/>
	</g>
</g>
<g>
	<g>
		<path fill="#CB6828" d="M289.056,390.497c-1.813,1.661-3.742,3.534-4.737,5.782c-1.673,3.782-2.736,5.957-2.659,10.266
			c0.039,2.174,0.428,4.415,0.954,6.546c2.418,9.787,13.233,15.541,22.757,12.921c4.624-1.271,8.634-4.366,11.057-8.502
			c2.556-4.363,3.066-9.391,1.864-14.255c-0.102-0.411-0.193-0.82-0.257-1.239c0.221,1.64,0.44,3.278,0.661,4.918
			c-0.034-0.3-0.048-0.588-0.016-0.889c-0.22,1.64-0.44,3.279-0.66,4.918c0.027-0.148,0.063-0.285,0.112-0.428
			c-0.621,1.473-1.243,2.946-1.864,4.419c0.082-0.188,0.181-0.353,0.3-0.519c-0.965,1.248-1.929,2.496-2.893,3.744
			c0.45-0.565,1.013-1.033,1.543-1.521c3.527-3.232,5.419-8.374,5.419-13.081c0-4.887-1.965-9.628-5.419-13.081
			c-3.453-3.454-8.194-5.419-13.081-5.419C297.07,385.078,292.729,387.13,289.056,390.497L289.056,390.497z"/>
	</g>
</g>
<g>
	<g>
		<path fill="#CB6828" d="M304.233,366.563c-8.62,4.811-14.083,14.366-14.035,24.207c0.05,10.084,8.378,18.5,18.5,18.5
			c10.047,0,18.55-8.415,18.5-18.5c-0.002-0.473,0.021-0.928,0.073-1.397c-0.221,1.64-0.44,3.278-0.661,4.918
			c0.131-0.79,0.337-1.526,0.631-2.271c-0.622,1.473-1.243,2.946-1.865,4.419c0.336-0.738,0.729-1.41,1.207-2.065
			c-0.964,1.248-1.929,2.496-2.893,3.744c0.519-0.639,1.074-1.193,1.716-1.708c-1.248,0.964-2.496,1.928-3.744,2.893
			c0.405-0.29,0.811-0.548,1.245-0.79c8.794-4.907,11.655-16.745,6.638-25.312C324.377,364.378,313.041,361.647,304.233,366.563
			L304.233,366.563z"/>
	</g>
</g>
<g>
	<g>
		<path fill="#CB6828" d="M307.373,354.327c-2.28,2.566-4.616,5.243-6.244,8.274c-1.984,3.694-3.051,7.082-3.111,11.302
			c-0.1,6.847,3.88,13.802,9.908,17.085c8.857,4.823,20.104,2.251,25.312-6.638c4.979-8.498,2.208-20.494-6.638-25.311
			c-0.134-0.06-0.255-0.138-0.364-0.235c1.248,0.964,2.496,1.928,3.744,2.893c-0.045-0.049-0.089-0.097-0.134-0.145
			c0.964,1.248,1.929,2.496,2.893,3.744c-0.078-0.103-0.138-0.215-0.178-0.337c0.621,1.473,1.243,2.945,1.864,4.419
			c-0.016-0.063-0.031-0.127-0.047-0.19c0.221,1.64,0.44,3.278,0.661,4.918c-0.023-0.224-0.019-0.421,0.008-0.645
			c-0.221,1.639-0.44,3.278-0.661,4.918c0.069-0.346,0.174-0.664,0.305-0.991c-0.622,1.473-1.243,2.946-1.865,4.419
			c0.479-1.064,1.138-2.021,1.84-2.948c-0.964,1.248-1.928,2.496-2.893,3.744c0.563-0.726,1.153-1.427,1.763-2.113
			c3.333-3.751,5.419-7.952,5.419-13.081c0-4.887-1.965-9.628-5.419-13.082C326.723,347.514,314.073,346.785,307.373,354.327
			L307.373,354.327z"/>
	</g>
</g>
<g>
	<g>
		<path fill="#CB6828" d="M316.656,333.237c-1.844,2.338-3.778,4.637-5.251,7.236c-1.492,2.635-2.654,5.523-3.527,8.421
			c-2.972,9.861,3.466,19.861,12.921,22.757c0.319,0.095,0.638,0.195,0.953,0.302c9.586,3.135,20.18-3.549,22.757-12.921
			c1.313-4.775,0.638-9.982-1.864-14.255c-2.518-4.298-6.396-6.978-11.057-8.502c-0.315-0.106-0.634-0.207-0.953-0.302
			c4.307,7.586,8.614,15.172,12.921,22.757c0.212-0.701,0.451-1.383,0.725-2.063c-0.621,1.473-1.243,2.946-1.864,4.419
			c0.785-1.804,1.787-3.456,2.974-5.023c-0.964,1.248-1.929,2.496-2.893,3.744c0.107-0.136,0.215-0.272,0.321-0.408
			c0.965-1.248,1.929-2.496,2.894-3.744c1.673-2.886,2.515-5.998,2.525-9.337c0-4.887-1.965-9.627-5.419-13.082
			c-3.453-3.454-8.194-5.418-13.081-5.418C325.336,327.819,319.513,329.613,316.656,333.237L316.656,333.237z"/>
	</g>
</g>
<g>
	<g>
		<path fill="#CB6828" d="M331.938,291.655c-6.478,5.013-11.643,12.139-13.591,20.17c-2.894,11.921,5.594,23.04,17.839,23.418
			c0.853,0.026,1.687,0.09,2.534,0.188c-1.64-0.22-3.279-0.44-4.918-0.661c0.842,0.121,1.68,0.258,2.518,0.405
			c5.082,0.892,9.657,0.828,14.255-1.865c4.136-2.422,7.23-6.432,8.502-11.056c1.313-4.775,0.639-9.982-1.864-14.255
			c-2.232-3.81-6.546-7.71-11.057-8.502c-3.294-0.578-6.623-1.149-9.97-1.253c5.946,7.806,11.893,15.612,17.839,23.418
			c0.254-1.047,0.579-2.031,0.997-3.024c-0.622,1.473-1.243,2.946-1.865,4.419c0.563-1.173,1.214-2.251,1.974-3.307
			c-0.964,1.248-1.929,2.496-2.893,3.744c1.692-2.174,3.689-3.993,5.862-5.675c3.634-2.813,5.419-8.717,5.419-13.082
			c0-4.887-1.965-9.627-5.419-13.082c-3.453-3.454-8.194-5.418-13.081-5.418C339.619,286.237,336.021,288.495,331.938,291.655
			L331.938,291.655z"/>
	</g>
</g>
<g>
	<g>
		<path fill="#CB6828" d="M335.588,277.859c-2.112,1.683-4.063,3.532-5.822,5.583c-2.293,2.309-3.879,5.029-4.758,8.164
			c-0.882,3.279-0.882,6.557,0,9.836c2.231,8.114,9.579,13.338,17.839,13.582c0.774,0.023,1.536,0.093,2.304,0.196
			c-1.64-0.22-3.278-0.44-4.918-0.661c0.612,0.093,1.222,0.2,1.83,0.314c1.64,0.22,3.278,0.44,4.918,0.661
			c3.34-0.01,6.452-0.852,9.337-2.526c4.136-2.422,7.23-6.432,8.502-11.056c1.313-4.775,0.638-9.982-1.864-14.255
			c-2.256-3.851-6.529-7.651-11.057-8.502c-2.982-0.56-6.015-1.081-9.052-1.171c4.36,10.527,8.721,21.054,13.081,31.582
			c1.76-2.05,3.711-3.899,5.822-5.583c0.965-1.248,1.929-2.496,2.894-3.744c1.673-2.886,2.515-5.998,2.525-9.337
			c0-4.887-1.965-9.627-5.419-13.082c-3.453-3.454-8.194-5.418-13.081-5.418c-1.64,0.22-3.278,0.44-4.918,0.661
			C340.617,273.98,337.896,275.566,335.588,277.859L335.588,277.859z"/>
	</g>
</g>
<g>
	<g>
		<path fill="#CB6828" d="M351.098,227.404c-16.258,13.858-25.105,41.163-17.133,61.463c3.683,9.378,12.256,15.81,22.757,12.921
			c8.949-2.462,16.612-13.357,12.921-22.757c-0.495-1.262-0.91-2.51-1.273-3.817c-0.412-2.055-0.428-1.752-0.047,0.909
			c-0.098-0.913-0.157-1.829-0.178-2.747c-0.048-1.096,0.58-7.206-0.161-2.072c0.271-1.883,0.764-3.729,1.276-5.557
			c0.27-0.965,2.669-6.664,0.669-2.232c0.766-1.696,1.704-3.307,2.666-4.897c0.48-0.768,0.985-1.519,1.514-2.254
			c-1.566,1.965-1.71,2.186-0.43,0.66c1.083-1.264,2.318-2.38,3.581-3.457c7.682-6.547,6.703-19.46,0-26.163
			C369.709,219.853,358.764,220.869,351.098,227.404L351.098,227.404z"/>
	</g>
</g>
<g>
	<g>
		<path fill="#CB6828" d="M346.241,244.072c-4.882,4.188-8.542,10.946-9.813,17.204c-1.017,5-0.775,9.748,1.864,14.255
			c1.646,2.78,3.857,4.992,6.638,6.637c2.885,1.673,5.997,2.516,9.337,2.526c2.361-0.304,4.757-0.465,7.061-1.086
			c9.73-2.625,15.584-13.076,12.921-22.757c-2.683-9.753-13.026-15.546-22.757-12.921c-0.533,0.144-1.059,0.261-1.603,0.356
			c1.64-0.22,3.279-0.44,4.918-0.661c-0.18,0.023-0.36,0.046-0.54,0.069c5.946,7.806,11.893,15.612,17.839,23.418
			c0.231-1.14,0.546-2.233,0.962-3.319c-0.621,1.473-1.243,2.946-1.864,4.419c0.582-1.375,1.299-2.631,2.212-3.813
			c-0.965,1.248-1.929,2.496-2.893,3.745c0.58-0.693,1.195-1.32,1.881-1.909c3.574-3.066,5.419-8.51,5.419-13.082
			c0-4.887-1.965-9.627-5.419-13.082c-3.453-3.454-8.194-5.418-13.081-5.418C354.123,238.654,350.078,240.78,346.241,244.072
			L346.241,244.072z"/>
	</g>
</g>
<g>
	<g>
		<path fill="#CB6828" d="M346.332,244.641c-0.25,0.201-0.501,0.399-0.754,0.596c1.248-0.964,2.496-1.928,3.744-2.893
			c-0.506,0.389-1.019,0.767-1.538,1.136c-2.78,1.645-4.992,3.857-6.638,6.637c-2.502,4.273-3.178,9.48-1.864,14.255
			c2.176,7.91,9.616,13.618,17.839,13.582c0.395-0.002,0.788-0.012,1.182-0.032c1.64-0.22,3.278-0.44,4.918-0.661
			c3.134-0.879,5.855-2.465,8.163-4.758c3.454-3.454,5.419-8.195,5.419-13.082s-1.965-9.627-5.419-13.082
			c-1.248-0.964-2.496-1.928-3.744-2.893c-2.885-1.674-5.997-2.516-9.337-2.526c-0.394,0.02-0.787,0.03-1.182,0.032
			c3.112,11.491,6.225,22.983,9.337,34.474c2.068-1.465,4.064-3.035,6.036-4.624c0.965-1.248,1.929-2.496,2.894-3.744
			c1.673-2.886,2.515-5.998,2.525-9.337c0-4.887-1.965-9.628-5.419-13.082c-3.453-3.454-8.194-5.418-13.081-5.418
			c-1.64,0.22-3.278,0.44-4.918,0.661C351.361,240.763,348.64,242.348,346.332,244.641L346.332,244.641z"/>
	</g>
</g>
<g>
	<g>
		<path fill="#CB6828" d="M363.018,208.315c-7.636,1.124-15.261,7.985-16.695,15.676c-0.919,4.924-0.736,7.428,0.188,12.427
			c0.24,1.299,0.582,2.572,0.773,3.881c-0.221-1.64-0.44-3.279-0.661-4.918c0.018,0.148,0.034,0.297,0.052,0.445
			c0.221,1.639,0.44,3.279,0.661,4.918c0.879,3.134,2.465,5.855,4.758,8.164c3.453,3.454,8.194,5.418,13.081,5.418
			s9.628-1.965,13.081-5.418c3.128-3.127,5.951-8.489,5.419-13.082c-0.399-3.449-1.083-6.657-1.623-10.038
			c0.221,1.639,0.441,3.278,0.661,4.918c-0.076-0.606-0.111-1.188-0.051-1.797c-0.221,1.639-0.44,3.279-0.661,4.918
			c0.062-0.326,0.142-0.609,0.27-0.915c-0.621,1.473-1.243,2.946-1.865,4.419c0.094-0.19,0.209-0.367,0.347-0.528
			c-0.964,1.248-1.928,2.496-2.893,3.744c0.149-0.172,0.317-0.324,0.504-0.455c-1.248,0.964-2.496,1.929-3.744,2.893
			c0.214-0.148,0.44-0.273,0.681-0.375c-1.473,0.622-2.946,1.243-4.419,1.865c0.649-0.244,1.287-0.381,1.974-0.481
			c4.469-0.658,8.879-4.786,11.057-8.502c2.502-4.273,3.178-9.48,1.864-14.255c-1.271-4.625-4.366-8.634-8.502-11.056
			c-1.473-0.622-2.946-1.243-4.419-1.865C369.575,207.435,366.296,207.435,363.018,208.315L363.018,208.315z"/>
	</g>
</g>
<g>
	<g>
		<path fill="#CB6828" d="M362.361,194.645c-6.489,4.257-12.818,9.093-16.456,16.156c-3.072,5.967-3.48,12.732,0,18.675
			c3.366,5.745,9.4,8.982,15.975,9.163c0.797,0.022,1.575,0.079,2.367,0.171c-1.64-0.22-3.278-0.44-4.918-0.661
			c1.585,0.248,3.117,0.627,4.651,1.093c9.648,2.927,20.137-3.394,22.757-12.921c2.727-9.912-3.278-19.832-12.921-22.757
			c-3.851-1.168-7.918-1.814-11.937-1.925c5.325,9.279,10.649,18.558,15.975,27.837c0.528-1.028,1.127-1.975,1.824-2.896
			c-0.964,1.248-1.928,2.496-2.893,3.744c1.126-1.374,2.389-2.564,3.772-3.674c-1.248,0.964-2.496,1.929-3.744,2.893
			c1.363-1.048,2.784-2.006,4.221-2.949c8.415-5.52,11.933-16.271,6.638-25.312C382.776,192.923,370.803,189.107,362.361,194.645
			L362.361,194.645z"/>
	</g>
</g>
<g>
	<g>
		<path fill="#CB6828" d="M364.151,181.983c-3.523,1.85-6.74,4.399-9.643,7.101c-6.052,5.632-6.982,15.438-2.894,22.419
			c1.646,2.78,3.857,4.992,6.638,6.637c4.479,2.624,9.28,2.918,14.255,1.865c0.426-0.09,0.848-0.164,1.279-0.223
			c-1.64,0.22-3.278,0.44-4.918,0.661c1.154-0.118,2.29-0.102,3.443,0.014c1.64-0.22,3.278-0.44,4.918-0.661
			c3.134-0.879,5.855-2.465,8.163-4.758c3.454-3.454,5.419-8.195,5.419-13.082s-1.965-9.628-5.419-13.082
			c-1.248-0.964-2.496-1.928-3.744-2.893c-2.885-1.673-5.997-2.516-9.337-2.526c-3.217-0.323-6.501,0.204-9.641,0.869
			c6,10.307,12,20.614,17.999,30.921c0.7-0.651,1.425-1.268,2.181-1.854c-1.248,0.964-2.496,1.929-3.744,2.893
			c1.18-0.884,2.413-1.669,3.718-2.355c8.92-4.684,11.558-16.913,6.638-25.312c-2.423-4.135-6.433-7.23-11.057-8.502
			C373.448,178.754,368.626,179.633,364.151,181.983L364.151,181.983z"/>
	</g>
</g>
<g>
	<g>
		<path fill="#CB6828" d="M393.444,156.243c-10.713-1.643-19.433-0.197-29.148,4.604c-7.178,3.546-13.434,9.392-19.304,14.757
			c-7.018,6.414-7.438,19.822,0,26.163c5.848,4.986,12.617,8.045,20.431,5.896c9.059-2.492,13.581-10.376,14.338-19.166
			c0.551-6.399-4.145-14.572-10.001-17.207c-8.91-4.009-17.814-2.826-24.768,4.313c-6.61,6.787-7.751,19.553,0,26.163
			c9.845,8.396,21.888,10.644,34.239,6.733c9.605-3.042,15.672-12.756,12.921-22.757c-2.597-9.44-13.143-15.965-22.757-12.921
			c-0.88,0.305-1.773,0.561-2.681,0.769c2.563-0.218,2.777-0.255,0.641-0.111c-2.141-0.081-1.921-0.019,0.658,0.185
			c1.218,0.375,2.265,1.021,3.141,1.94c0,8.721,0,17.442,0,26.163c-3.577,1.333-7.154,2.665-10.731,3.998
			c-3.112-0.842-6.225-1.684-9.337-2.526c-2.071-7.651-4.143-15.301-6.213-22.952c2.212-2.212,4.425-4.425,6.637-6.637
			c-0.114,0.067-0.229,0.133-0.343,0.2c3.112-0.842,6.225-1.684,9.337-2.525c3.551,1.426,7.101,2.853,10.65,4.279
			c0,8.721,0,17.442,0,26.163c1.602-1.463,3.215-2.908,4.855-4.326c0.84-0.718,1.692-1.42,2.558-2.107
			c-3.056,2.473,1.243-0.691,1.612-0.932c0.814-0.529,6.689-3.104,2.684-1.61c0.967-0.332,1.952-0.6,2.953-0.806
			c-4.979,1.188,2.654,0.682-2.208-0.063c9.959,1.527,19.853-2.361,22.757-12.921C408.802,170.145,403.428,157.774,393.444,156.243
			L393.444,156.243z"/>
	</g>
</g>
<g>
	<g>
		<path fill="#CB6828" d="M301.48,347.073c-0.134,1.155-0.316,2.302-0.547,3.441c-0.769,1.811-0.482,2.073,0.858,0.787
			c2.295-0.195,1.706-0.09-1.769,0.315c-0.912,0.385-1.824,0.77-2.736,1.155c2.048-0.946,1.272-0.634-2.325,0.935
			c-5.36,3.14-8.754,10.257-11.385,13.862c-5.601,7.673-11.159,15.766-16.21,23.816c-5.184,8.262-8.914,17.559-13.293,26.261
			c-2.147,4.267-4.449,8.438-6.826,12.581c-1.247,2.174-2.526,4.316-3.892,6.419c-0.527,0.798-1.07,1.586-1.628,2.362
			c-2.652,3.772,2.059-2.408-0.837,0.985c-5.771,6.767-6.664,16.433,0,23.098c6.165,6.165,16.976,6.462,23.098,0
			c13.873-14.645,20.94-33.517,30.022-51.159c4.313-8.382,9.816-16.176,14.378-24.438c2.679-4.854,4.62-9.869,6.067-15.208
			c1.235-4.555,2.009-9.361-0.654-13.638c0.643,1.902,0.361,1.313-0.844-1.766c-1.125-1.922-2.503-3.079-4.355-4.268
			c1.186,1.186,2.371,2.371,3.557,3.557c-0.566-0.932-1.208-1.811-1.925-2.636c0.544,1.91,0.843,1.841,0.896-0.207
			c0.363-2.066,0.573-4.165,0.755-6.253C312.475,340.307,302.273,340.563,301.48,347.073L301.48,347.073z"/>
	</g>
</g>
<g>
	<g>
		<path fill="#CB6828" d="M318.557,325.481c-3.561,6.327-5.677,13.275-9.036,19.666c-3.54,6.734-6.995,13.816-11.159,20.175
			c-3.858,5.893-7.788,10.238-12.092,16.235c-5.152,7.179-11.128,16.896-8.281,25.938c3.146,9.988,14.683,12.563,22.325,5.895
			c3.577-3.122,4.688-7.313,6.282-11.568c-0.775,2.071,1.326-2.485,1.207-2.255c0.958-1.848,2.059-3.62,3.154-5.388
			c3.533-5.694,7.544-11.063,10.833-16.911c3.908-6.947,5.267-14.611,6.614-22.345c1.204-6.906,3.319-13.63,6.377-19.958
			C339.991,324.182,324.564,314.808,318.557,325.481L318.557,325.481z"/>
	</g>
</g>
<g>
	<g>
		<path fill="#CB6828" d="M319.151,322.595c-9.265,0.376-15.532,8.415-20.447,15.447c-4.044,5.784-6.953,12.121-10.056,18.442
			c-3.154,6.428-5.971,12.973-8.934,19.488c-4.034,8.868-7.25,21.459,0.712,29.269c-1.24-2.994-2.48-5.988-3.721-8.982
			c-0.172,10.708,9.866,16.863,19.113,10.968c-3.263,0.427-6.525,0.854-9.788,1.281c19.924,4.5,29.103-22.478,34.613-36.617
			c2.535-6.503,5.404-12.944,7.344-19.65c2.181-7.54,5.077-16.733,0.98-24.014C327.074,324.859,323.057,322.436,319.151,322.595
			L319.151,322.595z"/>
	</g>
</g>
<g>
	<g>
		<path fill="#CB6828" d="M372.38,206.731c-1.444,2.059-2.772,4.219-4.378,6.131c-2.977,3.547-4.492,7.243-6.279,11.441
			c-3.315,7.782-6.735,15.532-9.803,23.416c-5.636,14.487-11.344,28.946-17.302,43.304c-0.122,0.294-2.616,6.231-0.927,2.234
			c-1.207,2.856-2.438,5.701-3.629,8.564c-1.497,3.602-2.9,7.243-4.36,10.859c-0.73,1.811-1.474,3.616-2.217,5.421
			c-0.188,0.459-2.694,6.43-0.827,2.017c-1.445,3.415-2.966,6.792-4.528,10.153c-5.969,12.84-12.966,25.046-19.983,37.324
			c-13.831,24.2-30.085,46.931-46.758,69.23c-8.172,10.93-16.289,21.836-23.607,33.367c-7.993,12.591-16.021,26.083-20.601,40.317
			c-3.177,9.873,1.983,21.159,10.685,26.257c9.846,5.767,19.82,2.911,28.176-3.636c11.56-9.057,20.713-20.773,29.224-32.636
			c4.262-5.939,8.347-12.032,12.293-18.185c1.519-2.369,2.493-4.983,3.405-7.638c-1.469,4.271,2.187-11.86,0.61-4.698
			c1.102-5.006,3.115-9.874,1.15-14.999c-2.114-5.519-6.856-10.664-13.39-10.194c-3.117,0.224-5.735,0.514-8.495,2.13
			c2.279-1.335-6.831,5.495-3.32,2.816c-3.349,2.556-6.954,4.337-10.21,7.146c-1.757,1.516-3.576,4.667-5.095,6.714
			c-0.365,0.492-3.792,4.975-0.956,1.312c-2.075,2.681-4.229,5.28-6.475,7.819c-4.435,5.012-9.133,9.784-14.065,14.306
			c-1.199,1.1-2.436,2.159-3.672,3.217c-0.857,0.734-5.216,4.16-0.406,0.46c-2.799,2.153-5.748,4.097-8.774,5.913
			c10.604,10.604,21.208,21.207,31.812,31.812c7.221-11.523,12.678-24.129,19.891-35.722c7.227-11.614,15.38-22.56,23.465-33.577
			c16.473-22.448,32.275-45.401,45.914-69.7c14.982-26.693,25.971-56.37,34.364-85.73c4.247-14.857,8.172-29.806,12.046-44.765
			c1.929-7.445,3.547-14.958,5.229-22.461c0.991-4.419,2.123-8.755,2.288-13.307c0.13-3.597-0.109-7.272-0.025-10.89
			C393.118,200.607,378.306,198.282,372.38,206.731L372.38,206.731z"/>
	</g>
</g>
<g>
	<g>
		<path fill="#CB6828" d="M194.32,611.131c2.979-10.488,6.128-20.686,3.457-31.605c-0.623-2.546-3.178-3.559-5.536-3.143
			c-10.593,1.866-17.619,10.73-23.625,18.917c2.742,1.156,5.483,2.312,8.225,3.468c1.986-6.547,5.276-12.36,9.063-18.021
			c1.923-2.875-0.624-6.795-3.886-6.771c-5.527,0.04-9.041,1.537-13.219,5.08c-4.323,3.666-7.839,8.504-13.672,9.685
			c1.845,1.047,3.69,2.095,5.536,3.143c-1.064-7.65,0.312-18.883-8.388-22.526c-6.344-2.657-10.231,7.338-14.4,9.727
			c2.204,1.694,4.407,3.388,6.611,5.082c2.142-7.688,7.542-13.945,10.468-21.343c1.157-2.925-1.712-5.488-4.339-5.696
			c-9.803-0.776-13.934,8.474-22.132,11.395c1.694,2.203,3.388,4.406,5.082,6.61c2.475-5.516,5.865-10.465,10.757-14.112
			c4.529-3.377,0.495-10.919-4.543-7.771c-4.918,3.073-8.84,6.923-12.083,11.725c-2.745,4.065,2.428,7.933,6.157,6.157
			c4.648-2.213,8.841-4.728,12.331-8.567c3.928-4.321-2.004-10.168-6.364-6.363c-3,2.616-5.128,5.911-7.613,8.986
			c-3.048,3.771,0.786,9.884,5.453,7.067c2.445-1.476,4.667-3.107,6.621-5.197c4.065-4.347-1.907-9.873-6.364-6.363
			c-3.261,2.567-7.434,3.363-11.337,4.459c1.694,2.203,3.388,4.406,5.082,6.61c2.832-3.809,3.829-8.549,6.662-12.356
			c2.421-3.255-1.558-7.676-5.082-6.61c-4.986,1.507-9.347,3.475-13.406,6.774c2.122,2.121,4.243,4.242,6.364,6.363
			c3.363-2.952,5.769-6.653,8.565-10.11c2.843-3.516,0.234-8.433-4.378-7.521c-6.414,1.268-11.105,3.468-15.061,8.808
			c-3.258,4.398,3.427,8.473,7.068,5.453c3.89-3.226,9.063-7.6,7.822-13.225c-2.11-9.562-17.423-2.246-21.84,0.54
			c2.203,1.694,4.407,3.388,6.61,5.082c2.231-5.506,3.845-11.216,5.71-16.85c1.295-3.912-3.318-6.879-6.61-5.082
			c-2.762,1.508-5.32,2.974-7.573,5.197c2.356,1.817,4.712,3.635,7.068,5.453c2.175-3.771,4.486-7.461,6.662-11.232
			c2.726-4.727-3.25-8.476-7.068-5.453c-3.065,2.427-5.964,4.936-8.565,7.863c2.122,2.121,4.243,4.242,6.364,6.363
			c2.855-3.37,5.71-6.74,8.565-10.11c3.345-3.948-0.772-9.327-5.453-7.067c-3.075,1.484-5.372,3.75-7.573,6.321
			c-3.729,4.356,2.2,10.512,6.364,6.363c1.548-1.542,3.21-2.951,4.758-4.494c3.382-3.369-0.129-8.325-4.378-7.521
			c-0.3,0.057-0.6,0.113-0.9,0.17c1.694,0.689,3.388,1.379,5.082,2.068c0.134,0.35,0.268,0.7,0.402,1.051
			c1.479-5.009-5.565-7.727-8.225-3.468c-2.414,3.865-5.62,7.102-7.613,11.233c2.59,1.515,5.181,3.028,7.771,4.543
			c0.906-1.898,1.949-3.72,2.855-5.617c2.472-5.178-4.735-9.574-7.771-4.543c-2.088,3.461-4.573,6.65-6.661,10.11
			c-3.006,4.983,4.778,9.504,7.771,4.543c2.088-3.461,4.573-6.65,6.661-10.11c-2.59-1.515-5.181-3.028-7.771-4.543
			c-0.906,1.898-1.948,3.72-2.855,5.617c-2.486,5.205,5.248,9.774,7.771,4.543c1.99-4.126,5.202-7.372,7.613-11.233
			c-2.742-1.156-5.483-2.312-8.225-3.468c-0.591,2-0.847,4.128,0.505,5.884c1.335,1.733,2.871,2.486,5.082,2.068
			c0.3-0.057,0.6-0.113,0.9-0.171c-1.459-2.507-2.919-5.014-4.378-7.521c-1.548,1.542-3.21,2.952-4.758,4.494
			c2.122,2.121,4.243,4.242,6.364,6.363c1.729-2.019,3.325-3.742,5.75-4.913c-1.817-2.356-3.635-4.712-5.453-7.067
			c-2.855,3.37-5.71,6.74-8.565,10.11c-3.71,4.379,2.48,10.735,6.364,6.363c2.601-2.927,5.5-5.437,8.565-7.863
			c-2.356-1.817-4.712-3.635-7.068-5.453c-2.175,3.771-4.486,7.461-6.662,11.232c-2.567,4.452,3.417,9.058,7.068,5.453
			c1.708-1.686,3.669-2.653,5.75-3.789c-2.203-1.694-4.407-3.388-6.61-5.082c-1.865,5.634-3.478,11.344-5.71,16.85
			c-1.518,3.744,3.497,7.046,6.61,5.082c1.758-1.108,3.541-2.168,5.465-2.97c0.949-0.369,1.921-0.66,2.916-0.873
			c0.571-0.019,1.142-0.037,1.713-0.057c-0.536-3.199-1.202-3.965-1.997-2.296c-1.199,1.84-3.307,3.353-4.985,4.745
			c2.356,1.817,4.712,3.635,7.068,5.453c2.423-3.271,5.913-3.928,9.682-4.673c-1.459-2.507-2.919-5.014-4.378-7.521
			c-2.79,3.449-5.211,7.166-8.565,10.11c-4.416,3.877,1.942,9.96,6.364,6.363c2.798-2.275,6.027-3.43,9.434-4.46
			c-1.694-2.203-3.388-4.406-5.082-6.61c-2.833,3.809-3.829,8.548-6.662,12.356c-2.454,3.301,1.573,7.596,5.082,6.61
			c5.624-1.577,10.663-3.114,15.309-6.773c-2.122-2.121-4.243-4.242-6.364-6.363c-1.457,1.558-2.98,2.692-4.799,3.789
			c1.817,2.356,3.635,4.712,5.453,7.067c2.479-3.067,4.623-6.377,7.613-8.986c-2.122-2.121-4.243-4.242-6.364-6.363
			c-2.996,3.296-6.53,5.265-10.509,7.159c2.052,2.053,4.104,4.104,6.157,6.157c2.375-3.519,5.259-6.25,8.854-8.496
			c-1.515-2.591-3.028-5.181-4.543-7.771c-6.157,4.591-10.835,10.318-13.986,17.341c-1.447,3.227,0.954,8.081,5.082,6.61
			c3.518-1.253,6.325-3.247,9.209-5.577c3.155-2.549,6.174-5.84,10.53-5.495c-1.446-1.898-2.893-3.798-4.339-5.696
			c-2.947,7.448-8.286,13.515-10.468,21.343c-1.069,3.838,3.2,7.036,6.611,5.082c3.602-2.064,5.731-5.667,8.604-8.539
			c0.88-0.88-2.598-1.885-1.438,0.186c0.882,1.574,1.239,3.15,1.456,4.932c0.438,3.606,0.444,7.235,0.946,10.843
			c0.354,2.547,3.384,3.578,5.536,3.143c4.432-0.896,7.935-3.289,11.333-6.167c4.269-3.614,7.157-8.231,13.166-8.275
			c-1.295-2.257-2.59-4.514-3.886-6.771c-4.216,6.303-7.762,12.893-9.97,20.172c-1.582,5.215,5.375,7.352,8.225,3.468
			c4.673-6.37,10.023-13.333,18.247-14.782c-1.845-1.047-3.69-2.095-5.536-3.143c2.248,9.191-0.961,18.034-3.457,26.82
			C184.052,614.333,192.736,616.704,194.32,611.131L194.32,611.131z"/>
	</g>
</g>
<g>
	<g>
		<path fill="#CB6828" d="M192.905,561.553c-3.978,11.146-11.229,20.725-13.323,32.575c-0.821,4.65,6.02,8.458,8.225,3.468
			c2.945-6.667,6.853-12.786,10.468-19.096c2.529-4.415-3.466-9.165-7.068-5.453c-6.861,7.071-12.69,14.985-17.833,23.376
			c-3.043,4.966,4.719,9.46,7.771,4.543c2.909-4.688,5.416-9.544,7.613-14.603c1.83-4.213-1.88-8.112-6.157-6.157
			c-3.763,1.72-6.757,4.358-9.476,7.443c2.122,2.121,4.243,4.242,6.364,6.363c3.368-3.858,7.095-7.378,10.468-11.232
			c-2.356-1.817-4.712-3.635-7.068-5.453c-3.211,6.153-7.018,11.956-10.468,17.973c-2.966,5.173,4.374,9.052,7.771,4.543
			c7.464-9.905,15.069-19.69,24.039-28.296c-2.122-2.121-4.243-4.242-6.364-6.363c-7.959,8.34-14.28,17.728-17.335,28.944
			c-1.122,4.12,4.518,7.953,7.521,4.378c7.255-8.634,13.976-17.688,20.688-26.746c3.178-4.289-3.469-8.728-7.068-5.453
			c-9.457,8.603-16.486,19.322-21.142,31.191c-1.751,4.465,4.49,7.197,7.521,4.378c9.099-8.46,17.069-17.926,24.495-27.869
			c2.92-3.91-2.525-8.011-6.157-6.157c-11.925,6.089-18.459,19.039-23.502,30.82c-2.221,5.189,4.703,9.659,7.771,4.543
			c6.331-10.557,13.645-20.316,23.087-28.296c4.01-3.388-1.124-9.51-5.453-7.067c-11.281,6.366-18.1,18.361-23.502,29.697
			c-2.5,5.246,4.459,9.333,7.771,4.543c7.064-10.216,15.989-18.888,24.039-28.297c3.2-3.739-0.866-9.851-5.453-7.067
			c-13.156,7.982-25.233,20.588-26.972,36.462c-0.479,4.366,6.602,6.286,8.386,2.271c3.685-8.295,9.223-15.359,16.467-20.852
			c4.485-3.401,0.496-10.946-4.543-7.771c-9.192,5.793-14.85,15.021-18.246,25.155c-1.397,4.17,4.608,7.817,7.521,4.378
			c5.515-6.51,10.959-13.065,15.93-20.006c2.571-3.591-2.563-8.809-6.157-6.157c-7.635,5.633-10.736,14.21-15.889,21.834
			c2.59,1.515,5.181,3.028,7.771,4.543c4.83-7.591,12.011-13.043,18.329-19.31c3.068-3.042-0.013-9.06-4.378-7.521
			c-10.514,3.707-14.587,14.526-19.819,23.41c-3.006,5.104,4.434,9.142,7.771,4.543c4.68-6.449,10.203-12.209,14.275-19.097
			c2.544-4.306-3.748-9.467-7.068-5.453c-3.94,4.765-7.479,9.84-11.42,14.604c2.122,2.121,4.243,4.242,6.364,6.363
			c12.292-14.967,15.985-35.447,29.501-49.426c-2.355-1.817-4.711-3.635-7.067-5.453c-9.5,13.873-16.998,28.923-24.743,43.809
			c-2.723,5.233,4.411,9.183,7.771,4.543c5.055-6.979,10.572-13.173,13.776-21.294c1.682-4.262-4.599-7.548-7.521-4.378
			c-9.892,10.73-17.194,23.357-24.765,35.747c-3.035,4.967,4.751,9.485,7.771,4.543c7.165-11.727,13.995-23.77,23.357-33.927
			c-2.507-1.459-5.014-2.919-7.521-4.378c-2.852,7.228-8.373,12.936-12.87,19.144c2.59,1.515,5.181,3.028,7.771,4.543
			c7.745-14.886,15.243-29.936,24.743-43.809c2.929-4.277-3.566-9.074-7.067-5.453c-13.678,14.146-17.186,34.429-29.502,49.426
			c-3.648,4.441,2.657,10.845,6.364,6.363c3.941-4.764,7.479-9.839,11.42-14.604c-2.356-1.817-4.712-3.635-7.068-5.453
			c-4.063,6.875-9.6,12.654-14.275,19.097c2.59,1.515,5.181,3.028,7.771,4.543c3.658-6.211,7.021-16.659,14.44-19.275
			c-1.459-2.507-2.919-5.014-4.378-7.521c-6.904,6.847-14.456,12.832-19.736,21.13c-3.142,4.937,4.553,9.305,7.771,4.543
			c4.079-6.036,6.632-14.158,12.66-18.605c-2.052-2.053-4.104-4.104-6.157-6.157c-4.524,6.317-9.503,12.261-14.522,18.186
			c2.507,1.459,5.014,2.919,7.521,4.378c2.63-7.848,6.969-15.276,14.11-19.776c-1.515-2.591-3.028-5.181-4.543-7.771
			c-8.479,6.43-15.349,14.299-19.695,24.08c2.795,0.758,5.59,1.515,8.386,2.271c1.358-12.402,12.433-22.574,22.515-28.69
			c-1.818-2.356-3.636-4.712-5.454-7.067c-8.558,10.002-17.935,19.255-25.447,30.117c2.59,1.515,5.181,3.028,7.771,4.543
			c4.718-9.9,10.381-20.887,20.273-26.469c-1.818-2.356-3.636-4.712-5.454-7.067c-9.985,8.437-17.801,18.955-24.495,30.116
			c2.59,1.515,5.181,3.028,7.771,4.543c4.419-10.324,9.777-22.233,20.273-27.592c-2.053-2.053-4.105-4.104-6.157-6.157
			c-6.962,9.324-14.559,18.119-23.087,26.049c2.507,1.459,5.014,2.919,7.521,4.378c4.083-10.411,10.564-19.703,18.827-27.221
			c-2.356-1.817-4.712-3.635-7.068-5.453c-6.257,8.443-12.518,16.877-19.281,24.926c2.507,1.459,5.014,2.919,7.521,4.378
			c2.655-9.748,8.106-17.729,15.021-24.974c4.009-4.2-2.171-10.386-6.364-6.363c-9.521,9.133-17.525,19.605-25.446,30.116
			c2.59,1.515,5.181,3.028,7.771,4.543c3.45-6.018,7.256-11.82,10.468-17.973c2.274-4.357-3.563-9.459-7.068-5.453
			c-3.373,3.854-7.1,7.373-10.468,11.232c-3.794,4.348,2.515,10.73,6.364,6.363c2.256-2.56,4.525-4.605,7.654-6.035
			c-2.053-2.053-4.105-4.104-6.157-6.157c-2.197,5.059-4.704,9.916-7.613,14.603c2.59,1.515,5.181,3.028,7.771,4.543
			c4.756-7.761,10.08-15.015,16.426-21.556c-2.356-1.817-4.712-3.635-7.068-5.453c-3.615,6.31-7.522,12.43-10.468,19.096
			c2.742,1.156,5.483,2.312,8.225,3.468c2.079-11.771,9.357-21.461,13.323-32.575C203.539,558.465,194.841,556.128,192.905,561.553
			L192.905,561.553z"/>
	</g>
</g>
<g>
	<g>
		<path fill="#CB6828" d="M85.413,125.133c-8.735,1.747-15.06,12.632-14.864,21.02c0.221,9.478,11.378,14.504,19.668,12.049
			c16.764-4.963,6.658-39.477-7.881-30.266c-1.242,0.787-0.658,2.495,0.71,2.621c5.777,0.531,8.951,3.089,10.396,8.828
			c1.149,4.564,0.538,12.028-4.535,14.065c-6.374,2.56-13.88-2.245-13.698-8.964c0.196-7.22,6.009-12.478,11.619-15.996
			C88.643,127.351,87.435,124.729,85.413,125.133L85.413,125.133z"/>
	</g>
</g>
<g>
	<g>
		<path fill="#F89838" d="M203.127,609.482c-4.003-2.348-9.709-1.193-14.027-0.607c-6.903,0.937-13.667,2.844-20.299,4.926
			c-6.73,2.112-13.324,4.647-19.792,7.459c-4.848,2.106-11.264,4.337-14.49,8.734c-1.092,1.488,0.698,3.324,2.25,2.927
			c4.445-1.137,8.605-4.196,12.762-6.14c6.29-2.94,12.815-5.38,19.397-7.576c6.321-2.109,12.772-3.847,19.311-5.137
			c4.818-0.95,9.671-0.635,14.467-1.373C204.279,612.453,204.33,610.188,203.127,609.482L203.127,609.482z"/>
	</g>
</g>
<g>
	<g>
		<path fill="#F89838" d="M221.442,599.734c0.788-0.188,2.08,0.708,2.763,1.036c0.163-1.249,0.327-2.498,0.49-3.748
			c-6.902,1.234-13.678,3.984-20.109,6.703c-6.326,2.674-12.985,5.158-19.057,8.368c-3.031,1.603-0.935,6.455,2.315,5.492
			c5.807-1.722,11.315-5.225,16.733-7.877c6.917-3.386,13.856-6.43,21.208-8.731c2.815-0.882,1.132-5.05-1.58-3.748
			c-0.683,0.328-1.975,1.225-2.763,1.036C220.215,597.972,220.215,600.028,221.442,599.734L221.442,599.734z"/>
	</g>
</g>
<g id="XMLID_3_">
	<g>
		<path fill="#F89838" d="M191.207,613.472c2.865-1.797,5.701-3.65,8.537-5.526c-2.417,1.842-4.873,3.605-7.385,5.257
			C191.978,613.292,191.587,613.382,191.207,613.472z"/>
		<path fill="#F89838" d="M135.326,635.938c4.416-0.449,8.784-1.281,13.104-2.427c-2.417,0.888-4.825,1.786-7.185,2.854
			c-1.123,0.505-2.236,1.022-3.35,1.55C137.039,637.264,136.182,636.612,135.326,635.938z"/>
		<path fill="#F89838" d="M148.43,633.512c-4.321,1.146-8.689,1.978-13.104,2.427c-18.576-14.345-36.029-30.622-51.712-49.808
			C57.31,552.971,36.64,513.16,22.508,470.385c-3.807-25.78-2.636-51.673,0.6-78.385l0.038-0.057
			c18.471,14.098,31.813,30.476,40.864,53.976c19.984,49.426,26.646,102.222,68.519,133.686
			c26.494,20.545,54.796,21.904,82.508,11.424c-0.933,2.066-2.046,4.662-3.312,7.616c-1.408,0.752-2.75,1.662-4.016,2.763
			c-2.589,2.27-5.225,4.438-7.918,6.504c-0.019,0.012-0.028,0.022-0.047,0.034c-2.836,1.876-5.672,3.729-8.537,5.526
			c-0.009,0-0.009,0-0.019,0.012c-6.633,1.617-12.847,4.481-18.947,7.818c-3.702,0.651-7.394,2.999-10.621,6.1
			c-1.903,1.111-3.816,2.213-5.748,3.302c-2.446,1.012-4.939,1.898-7.423,2.798C148.439,633.512,148.439,633.512,148.43,633.512z"/>
		<path fill="#F89838" d="M215.036,591.028c-27.712,10.48-56.014,9.121-82.508-11.424c-41.873-31.464-48.534-84.26-68.519-133.686
			c-9.05-23.5-22.393-39.878-40.864-53.976L23.107,392c-3.236,26.712-4.406,52.604-0.6,78.385
			C6.453,421.868-1.208,369.533,0.82,318.782c2.854-90.876,41.768-158.218,92.11-222.168c6.481,11.02,24.448,24.556,35.411,26.712
			c1.903,1.123,0,1.123-0.952,3.37l0.085,0.09C85.583,179.649,65.37,234.995,57.918,307.549
			c-8.565,87.619,16.178,184.223,71.374,246.005c22.269,25.185,54.491,46.111,86.077,36.732
			C215.265,590.522,215.15,590.77,215.036,591.028z"/>
		<path fill="#F89838" d="M135.326,635.938c-5.605,0.584-11.287,0.562-17.054-0.18c-56.147-5.617-80.89-96.605-93.261-151.636
			c-1.009-4.572-1.837-9.155-2.503-13.738C36.64,513.16,57.31,552.971,83.613,586.131
			C99.296,605.316,116.75,621.594,135.326,635.938z"/>
	</g>
	<g>
		<path fill="none" stroke="#F89838" stroke-miterlimit="10" d="M130.244,123.326c-0.933,1.157-1.856,2.303-2.77,3.459
			C85.583,179.649,65.37,234.995,57.918,307.549c-8.565,87.619,16.178,184.223,71.374,246.005
			c22.269,25.185,54.491,46.111,86.077,36.732c0.809-0.247,1.618-0.506,2.427-0.786"/>
		<path fill="none" stroke="#F89838" stroke-miterlimit="10" d="M93.129,96.367c-0.066,0.079-0.133,0.168-0.2,0.247
			C42.587,160.564,3.674,227.906,0.82,318.782c-2.027,50.751,5.633,103.086,21.688,151.603
			C36.64,513.16,57.31,552.971,83.613,586.131c15.683,19.186,33.136,35.463,51.712,49.808c0.856,0.674,1.713,1.325,2.569,1.977"/>
		<path fill="none" stroke="#F89838" stroke-miterlimit="10" d="M216.844,587.254c-0.399,0.753-0.903,1.774-1.475,3.033
			c-0.104,0.235-0.219,0.482-0.333,0.741c-0.933,2.066-2.046,4.662-3.312,7.616"/>
		<path fill="none" stroke="#F89838" stroke-miterlimit="10" d="M92.178,95.243c0.229,0.449,0.485,0.91,0.752,1.371
			c6.481,11.02,24.448,24.556,35.411,26.712c1.903,1.123,0,1.123-0.952,3.37"/>
		<path fill="none" stroke="#F89838" stroke-miterlimit="10" d="M238.18,581.84c-12.542,7.976-25.304,17.354-38.389,26.071
			c-0.019,0.012-0.028,0.022-0.047,0.034c-2.836,1.876-5.672,3.729-8.537,5.526c-0.009,0-0.009,0-0.019,0.012
			c-13.818,8.694-28.026,16.164-42.738,20.018c-0.01,0.011-0.01,0.011-0.019,0.011c-4.321,1.146-8.689,1.978-13.104,2.427
			c-5.605,0.584-11.287,0.562-17.054-0.18c-56.147-5.617-80.89-96.605-93.261-151.636c-1.009-4.572-1.837-9.155-2.503-13.738
			c-3.807-25.78-2.636-51.673,0.6-78.385"/>
		<path fill="none" stroke="#F89838" stroke-miterlimit="10" d="M236.258,580.716c-7.004,4.134-14.094,7.616-21.222,10.313
			c-27.712,10.48-56.014,9.121-82.508-11.424c-41.873-31.464-48.534-84.26-68.519-133.686c-9.05-23.5-22.393-39.878-40.864-53.976
			c-0.952-0.729-1.922-1.46-2.912-2.179"/>
	</g>
</g>
<g>
	<g>
		<path fill="#F89838" d="M39.297,518.611c3.902-21.334-10.947-39.342-16.232-58.988c-6.017-22.363-7.951-45.721-9.601-68.741
			c-0.437-6.099-8.56-5.852-9.291,0c-2.378,19.023,0.686,37.795,4.999,56.313c4.251,18.252,8.218,36.611,12.697,54.805
			c4.024,16.346,9.614,32.156,17.112,47.238c3.923,7.89,8.243,15.797,13.273,23.034c4.816,6.931,10.07,14.824,16.39,20.419
			c2.536,2.245,7.478,0.951,7.202-2.983c-0.546-7.795-5.448-13.718-9.875-19.847c-5.212-7.215-9.759-14.675-14.043-22.48
			c-8.128-14.811-13.877-30.683-18.396-46.926c-4.845-17.414-8.78-35.089-13.479-52.551c-5.037-18.716-8.679-37.577-6.589-57.022
			c-3.097,0-6.194,0-9.291,0c2.015,22.111,4.55,44.308,10.036,65.863c5.316,20.888,18.687,38.966,19.219,61.071
			C33.506,521.074,38.671,522.033,39.297,518.611L39.297,518.611z"/>
	</g>
</g>
<g>
	<g>
		<path fill="#F89838" d="M7.374,376.278c0.734,6.986-0.717,14.906,1.65,21.55c0.298,0.838,1.446,0.672,1.519-0.206
			c0.579-6.942-1.131-14.578-2.202-21.475C8.256,375.601,7.316,375.729,7.374,376.278L7.374,376.278z"/>
	</g>
</g>
<g>
	<g>
		<path fill="#F89838" d="M10.759,365.046c-0.33,14.253-3.697,28.416-3.721,42.686c2.412-0.326,4.824-0.653,7.236-0.979
			c-2.605-9.684-2.701-19.415-1.91-29.35c0.366-4.593-6.631-4.478-7.091,0c-0.807,7.849-0.818,15.707-0.754,23.589
			c2.08-0.563,4.16-1.127,6.239-1.689c-4.571-10.342-1.619-22.299-1.232-33.133c-2.375,0-4.75,0-7.124,0
			c-0.04,2.621-0.08,5.242-0.12,7.863c2.411-0.326,4.821-0.652,7.232-0.979c-1.594-6.993-1.424-14.249-0.711-21.347
			c0.734-7.308,3.707-13.78,5.074-20.876c0.333-1.727-1.588-3.912-3.357-2.581c-6.211,4.677-7.465,13.915-8.519,21.135
			c-1.222,8.37-1.609,17.342,0.412,25.625c0.99,4.059,7.295,3.163,7.232-0.979c-0.04-2.621-0.08-5.242-0.12-7.863
			c-0.07-4.59-7.188-4.597-7.124,0c0.168,12.242-2.342,24.871,2.574,36.512c1.362,3.226,6.213,1.384,6.239-1.689
			c0.068-7.887,0.211-15.749,1.149-23.589c-2.364,0-4.727,0-7.091,0c-1.018,10.559-0.793,21.002,1.896,31.309
			c1.062,4.068,7.198,3.156,7.236-0.979c0.134-14.374,0.104-28.698-1.851-42.929C12.41,363.75,10.782,364.055,10.759,365.046
			L10.759,365.046z"/>
	</g>
</g>
<g id="XMLID_2_">
	<g>
		<path fill="#FFCD33" d="M334.653,154.93l-1.323,0.056c-19.033,10.11-44.728,3.37-63.761,1.124
			c-47.582-4.493-96.116-4.493-139.892-30.33c-17.13-10.11-35.211-22.466-47.583-41.563c-4.758-5.617-6.662-13.479-12.372-17.973
			l-0.286,0.157c-0.542-1.337-0.723-2.865-0.409-4.393c0.676-3.291,4.283-4.931,6.595-6.841c6.1-5.043,12.029-10.379,17.796-15.951
			c11.629-11.233,22.754-23.41,32.451-37.001l0.076,0.022c-1.247,5.751,1.751,13.581,3.521,18.444
			c2.579,7.077,5.862,13.761,9.583,20.085c7.565,12.828,16.882,24.14,26.789,34.463c35.211,34.823,79.938,35.946,123.715,26.959
			c0.618-0.135,1.246-0.292,1.894-0.449c4.948-0.394,9.896-0.809,14.836-1.27c15.046-1.416,29.806-4.257,44.537-7.987
			c10.668-2.696,21.051-6.706,31.785-9.031c2.693-0.247,5.367-0.326,8.061-0.18c1.228,0.337,2.445,0.719,3.654,1.168
			c3.873,2.336,7.604,5.033,11.163,7.987c3.407,3.438,6.576,7.145,9.497,11.155c2.855,4.864,5.349,9.986,7.519,15.333
			c1.608,5.133,2.931,10.368,4.016,15.682c0.552,23.14-0.818,47.347-4.521,70.813c0,0.022-0.01,0.034-0.01,0.056
			c-4.349,21.376-10.277,42.292-16.968,62.838c-0.009,0.022-0.009,0.034-0.019,0.045c-2.493,7.661-5.092,15.277-7.756,22.837
			c-11.145,30.869-22.992,61.355-35.764,91.337c-6.823,16.029-13.761,31.991-20.45,48.1c-6.434,15.491-12.191,31.329-18.443,46.921
			c-11.41,28.387-25.761,54.964-39.712,81.665c-5.282,10.099-10.411,20.242-15.341,30.498c-2.75,3.078-5.653,5.673-8.727,7.481
			h-0.01c-3.769-0.326-7.623-0.742-11.115-0.742l-0.048,0.81c-12.542-1.225-44.118-3.797-48.486-12.042l-0.076-0.225
			c21.488-9.807,49.296-56.009,60.981-76.161c7.033-12.109,14.246-24.656,21.365-37.484c5.558-8.672,10.981-17.445,16.396-26.229
			c15.55-25.207,30.196-51.269,42.511-78.891c12.352-27.712,20.593-57.289,29.529-86.674c9.336-30.734,18.024-61.76,21.679-94.235
			c0.01-0.067,0.019-0.146,0.019-0.213c0.562-2.202,1.104-4.415,1.637-6.639c1.523-6.335-4.996-13.356-10.001-9.077
			c-2.246,1.921-3.389,3.718-4.416,6.189c-0.314,0.371-0.609,0.764-0.885,1.191c-7.956,12.177-12.753,26.993-17.092,41.36
			c-4.673,15.445-8.365,31.284-13.19,46.663c-5.081,16.187-10.972,32.205-16.529,48.179c-5.844,16.793-12.534,33.374-21.708,48.021
			c-1.065,1.707-1.218,3.864-0.761,5.863c-3.273,4.505-6.519,9.065-9.536,13.918c-22.839,35.946-48.534,64.029-74.229,96.605
			c-14.274,16.85-24.743,33.699-41.873,48.302c-7.137,5.617-14.512,11.233-21.65,17.131c-7.137,5.897-14.037,12.075-20.223,18.815
			c0.485-0.854,0.724-1.55,0.809-2.134l-0.809-0.113c-11.419-8.986-19.033-22.466-28.549-33.699
			c0.333-1.572,0.552-2.179,0.685-2.313l-0.581-0.888c15.788-14.479,30.719-33.059,47.478-47.348
			c25.694-22.466,50.438-42.686,72.325-70.769c41.873-51.672,69.471-108.961,90.407-175.237
			C330.361,206.996,342.476,178.329,334.653,154.93z"/>
	</g>
	<g>
		<path fill="none" stroke="#FFCD33" stroke-miterlimit="10" d="M69.723,66.245c5.71,4.493,7.613,12.356,12.372,17.973
			c12.371,19.096,30.453,31.453,47.583,41.563c43.776,25.836,92.31,25.836,139.892,30.33c19.033,2.247,44.728,8.986,63.761-1.124"/>
		<path fill="none" stroke="#FFCD33" stroke-miterlimit="10" d="M111.596,523.433c0.352-0.314,0.704-0.641,1.056-0.955
			c15.788-14.479,30.719-33.059,47.478-47.348c25.694-22.466,50.438-42.686,72.325-70.769
			c41.873-51.672,69.471-108.961,90.407-175.237c7.499-22.129,19.613-50.796,11.791-74.195c-0.114-0.359-0.238-0.708-0.371-1.067"/>
		<path fill="none" stroke="#FFCD33" stroke-miterlimit="10" d="M113.499,524.556c0,0,0-1.427-0.267-1.19
			c-0.133,0.135-0.352,0.741-0.685,2.313c9.517,11.233,17.13,24.713,28.549,33.699"/>
		<path fill="none" stroke="#FFCD33" stroke-miterlimit="10" d="M141.097,557.132c0,0,1.066,0.629,0.809,2.359
			c-0.085,0.584-0.324,1.28-0.809,2.134c6.186-6.74,13.085-12.918,20.223-18.815c7.138-5.897,14.513-11.514,21.65-17.131
			c17.13-14.603,27.598-31.452,41.873-48.302c25.694-32.576,51.39-60.659,74.229-96.605c3.018-4.853,6.263-9.413,9.536-13.918"/>
		<path fill="none" stroke="#FFCD33" stroke-miterlimit="10" d="M195.341,586.338c1.218-0.314,2.465-0.764,3.73-1.348
			c21.488-9.807,49.296-56.009,60.981-76.161c7.033-12.109,14.246-24.656,21.365-37.484"/>
		<path fill="none" stroke="#FFCD33" stroke-miterlimit="10" d="M199.147,585.215c4.368,8.245,35.944,10.817,48.486,12.042
			c1.133,0.123,2.113,0.225,2.902,0.314"/>
		<path fill="none" stroke="#FFCD33" stroke-miterlimit="10" d="M258.807,597.189c3.073-1.809,5.977-4.403,8.727-7.481"/>
		<path fill="none" stroke="#FFCD33" stroke-miterlimit="10" d="M258.149,597.571c0.22-0.124,0.438-0.247,0.647-0.382"/>
		<path fill="none" stroke="#FFCD33" stroke-miterlimit="10" d="M247.682,596.447c3.492,0,7.347,0.416,11.115,0.742h0.01
			c1.703,0.157,3.388,0.28,5.015,0.348"/>
		<path fill="none" stroke="#FFCD33" stroke-miterlimit="10" d="M421.995,205.412c3.702-23.466,5.072-47.673,4.521-70.813"/>
		<path fill="none" stroke="#FFCD33" stroke-miterlimit="10" d="M405.018,268.306c0.01-0.011,0.01-0.034,0.02-0.045"/>
		<path fill="none" stroke="#FFCD33" stroke-miterlimit="10" d="M399.945,279.674c1.789-3.673,3.464-7.47,5.054-11.323"/>
		<path fill="none" stroke="#FFCD33" stroke-miterlimit="10" d="M291.448,101.741c-0.647,0.157-1.275,0.314-1.894,0.449
			c-43.776,8.986-88.504,7.863-123.715-26.959c-9.907-10.323-19.224-21.635-26.789-34.463c-3.721-6.324-7.004-13.008-9.583-20.085
			c-1.77-4.864-4.768-12.693-3.521-18.444c0.143-0.697,0.352-1.359,0.637-1.988"/>
		<path fill="none" stroke="#FFCD33" stroke-miterlimit="10" d="M72.816,70.176c-1.484-0.696-2.712-2.089-3.378-3.774
			c-0.542-1.337-0.723-2.865-0.409-4.393c0.676-3.291,4.283-4.931,6.595-6.841c6.1-5.043,12.029-10.379,17.796-15.951
			c11.629-11.233,22.754-23.41,32.451-37.001"/>
		<path fill="none" stroke="#FFCD33" stroke-miterlimit="10" d="M405.018,268.306c-0.009,0.022-0.009,0.034-0.019,0.045"/>
		<path fill="none" stroke="#FFCD33" stroke-miterlimit="10" d="M421.995,205.412c0,0.022-0.01,0.034-0.01,0.056"/>
	</g>
</g>
<g>
	<g>
		<path fill="#FFCD33" d="M307.833,332.059c1.42-1.141-3.471,1.086-3.348,1.015c-1.25,0.732-2.5,1.907-3.693,2.754
			c-3.67,2.607-6.842,5.361-10.071,8.483c-2.894,2.796-5.218,6.508-7.82,9.595c-2.886,3.424-6.604,6.6-8.557,10.657
			c-2.82,5.861-2.582,12.52,2.237,17.34c5.547,5.546,14.679,5.466,20.236,0c3.537-3.48,6.582-7.446,9.4-11.522
			c3.503-5.064,7.054-9.066,6.258-15.698c-0.422,1.561-0.844,3.121-1.266,4.682c7.436-10.318,14.578-22.497,17.596-34.933
			c2.454-10.113-11.753-16.604-17.024-7.177c-6.006,10.74-9.806,22.358-16.59,32.748c1.849-1.421,3.696-2.842,5.544-4.263
			c-5.808,1.147-8.729,4.863-12.755,8.729c-1.653,1.587-5.831,3.621-8.503,4.962c4.814,8.237,9.629,16.473,14.443,24.71
			c7.387-5.302,13.951-15.32,17.774-23.646c2.146-4.673,3.608-9.381,3.918-14.53c0.128-2.131,0.137-4.268,0.181-6.402
			c0.04-1.9-1.43-3.307-1.546-4.847C313.987,331.272,310.429,329.974,307.833,332.059L307.833,332.059z"/>
	</g>
</g>
<g>
	<g>
		<path fill="#FFCD33" d="M374.251,173.838c2.278-0.12,5.532-1.182,7.525,0.407c2.37,1.889,2.718,5.749,3.011,8.52
			c1.149,10.873-0.89,22.314-2.734,32.995c-2.091,12.114-4.897,24.085-7.785,36.029c-1.67,6.902-4.332,13.996-4.205,21.146
			c0.037,2.086,3.323,3.367,4.259,1.153c3.093-7.322,4.906-15.795,6.771-23.841c3.096-13.354,5.898-26.802,7.768-40.387
			c1.433-10.406,3.268-22.538-0.073-32.774c-2.153-6.599-9.741-11.181-15.157-4.748
			C373.174,172.879,373.421,173.882,374.251,173.838L374.251,173.838z"/>
	</g>
</g>
<g>
	<g>
		<path fill="#FFCD33" d="M377.866,164.806c6.042,3.838,8.686,8.707,10.925,15.374c1.629,4.848,2.728,12.66,7.561,15.387
			c0.985,0.556,2.173-0.151,2.204-1.265c0.093-3.253-1.718-6.219-2.789-9.229c-1.308-3.672-2.364-7.419-3.813-11.043
			c-2.356-5.897-6.237-11.092-12.342-13.366C377.111,159.734,375.785,163.484,377.866,164.806L377.866,164.806z"/>
	</g>
</g>
<g>
	<g>
		<path fill="#FFCD33" d="M383.07,163.042c3.222,7.771,4.243,15.427,4.942,23.776c0.547,6.519,0.076,15.386,4.401,20.711
			c0.75,0.923,2.014,0.071,2.101-0.87c0.354-3.811-0.882-7.748-1.367-11.526c-0.565-4.409-0.814-8.857-1.311-13.275
			c-0.771-6.863-3.134-14.115-7.559-19.52C383.833,161.794,382.796,162.379,383.07,163.042L383.07,163.042z"/>
	</g>
</g>
<g>
	<g>
		<path fill="#FFCD33" d="M349.197,222.759c5.585-8.7,7.74-19.168,15.602-26.422c7.896-7.285,15.924-0.806,17.573,7.778
			c3.44,17.901-5.762,36.015-8.147,53.421c-0.506,3.691,4.839,5.442,5.764,1.589c2.446-10.199,5.123-20.37,6.984-30.697
			c1.841-10.208,3.274-21.576-0.92-31.394c-3.87-9.061-14.823-11.357-22.605-5.914c-8.88,6.211-15.277,20.622-15.633,31.264
			C347.789,223.154,348.815,223.355,349.197,222.759L349.197,222.759z"/>
	</g>
</g>
<g>
	<g>
		<path fill="#FFCD33" d="M355.707,223.644c2.142-7.799,7.508-20.338,15.835-23.152c8.656-2.925,7.711,14.253,7.544,18.371
			c-0.396,9.747-1.893,19.419-2.471,29.156c-0.306,5.149-1.754,19.274,4.642,21.503c1.229,0.428,2.429-0.48,2.811-1.596
			c0.607-1.769-0.107-3.269-0.575-4.971c-0.659-2.4-0.789-4.917-0.881-7.391c-0.21-5.623,0.273-11.283,0.744-16.88
			c0.896-10.687,3.061-22.314,0.689-32.941c-1.789-8.021-9.18-13.009-16.836-8.646c-8.29,4.723-14.442,17.218-12.48,26.549
			C354.834,224.147,355.579,224.11,355.707,223.644L355.707,223.644z"/>
	</g>
</g>
<g>
	<g>
		<path fill="#FFCD33" d="M375.257,175.432c-3.404,3.677-6,7.902-8.133,12.426c-0.732,1.554,0.723,2.914,2.245,2.245
			c2.714-1.194,5.165-2.338,7.328-4.416c-1.106-0.854-2.213-1.707-3.318-2.561c-2.353,3.071-3.944,6.683-5.729,10.098
			c-0.915,1.75,0.568,3.467,2.411,3.138c2.634-0.47,3.982-3.264,5.53-5.213c1.494-1.882-1.113-4.578-2.68-2.68
			c-1.649,2-3.001,4.031-5.306,5.355c0.907,0.698,1.815,1.396,2.724,2.094c2.423-6.951,9.271-10.92,15.887-13.119
			c-0.665-1.143-1.33-2.285-1.995-3.428c-2.649,2.765-5.747,4.639-8.979,6.63c0.824,0.824,1.648,1.648,2.473,2.473
			c2.405-3.269,4.285-7.004,7.35-9.725c1.168-1.037,0.275-3.236-1.297-3.131c-2.913,0.194-5.706,0.9-8.021,2.721
			c1.007,0.777,2.014,1.554,3.021,2.331c1.182-2.344,0.821-3.184,3.156-4.858c-0.98-0.754-1.962-1.508-2.942-2.262
			c-0.783,3.569-1.746,6.445-3.71,9.57c1.224,0.715,2.446,1.43,3.67,2.146c1.166-2.058,2.864-3.462,4.48-5.132
			c1.729-1.787-0.489-4.758-2.669-3.458c-10.16,6.054-1.075,14.44,5.115,19.334c2.008,1.587,5.362-0.423,3.789-2.924
			c-0.047-0.075-0.094-0.149-0.141-0.224c-0.868-1.381-2.597-1.524-3.79-0.488c-0.914,0.795-1.541,1.917-2.142,2.958
			c0.695-0.399,1.391-0.798,2.086-1.197c-0.317,0-0.634,0-0.951,0c0.776,0.591,1.554,1.183,2.33,1.774
			c-1.132-4.358-3.499-8.08-4.893-12.319c-1.388,0.585-2.775,1.17-4.163,1.755c3.606,6.936,4.399,14.788,5.285,22.44
			c0.345,2.982,4.879,3.152,4.783,0c-0.119-3.932-1.506-7.357-1.875-11.233c-0.182-1.909-2.709-1.867-2.936,0
			c-0.846,6.954-0.772,13.87-0.27,20.904c0.452,6.32,0.863,13.656,4.263,19.161c0.733,1.189,2.87,0.789,2.766-0.749
			c-0.419-6.171-1.996-12.218-2.483-18.412c-0.551-6.988-0.496-13.984-1.34-20.904c-0.979,0-1.957,0-2.936,0
			c-0.096,3.787-0.123,7.452,0.027,11.233c1.595,0,3.188,0,4.783,0c-1.063-8.496-2.057-17.071-6.135-24.739
			c-1.205-2.266-4.996-0.702-4.163,1.755c1.42,4.187,3.502,8.105,4.625,12.394c0.271,1.038,1.266,1.775,2.33,1.774
			c0.317,0,0.634,0,0.951,0c0.847-0.001,1.662-0.46,2.086-1.197c0.4-0.696,0.769-1.448,1.383-1.983
			c-1.264-0.163-2.526-0.325-3.79-0.488c0.047,0.075,0.094,0.149,0.142,0.224c1.263-0.975,2.526-1.949,3.789-2.924
			c-3.176-2.501-12.229-8.425-6.305-12.119c-0.89-1.153-1.779-2.306-2.669-3.458c-1.835,1.975-3.746,3.699-5.035,6.101
			c-1.296,2.414,2.262,4.503,3.67,2.146c2.09-3.496,3.123-6.672,3.903-10.65c0.298-1.518-1.395-3.425-2.942-2.262
			c-2.998,2.251-3.018,3.355-4.457,6.375c-0.961,2.019,1.319,3.731,3.021,2.331c1.372-1.13,3.576-1.607,5.301-1.772
			c-0.433-1.043-0.864-2.087-1.297-3.131c-3.119,2.935-4.86,6.872-7.595,10.129c-1.3,1.548,0.313,3.844,2.19,2.838
			c3.713-1.989,7.227-3.652,10.055-6.851c1.239-1.402,0.076-4.209-1.995-3.428c-8.052,3.039-14.469,7.737-18.187,15.645
			c-0.823,1.752,0.815,3.301,2.537,2.537c3.075-1.364,4.433-3.66,6.41-6.262c-1.091-0.637-2.181-1.275-3.271-1.912
			c-0.59,0.877-1.627,3.555-2.555,3.39c0.426,1.046,0.852,2.092,1.276,3.138c1.912-3.368,3.354-7.011,5.69-10.122
			c1.457-1.94-1.703-4.284-3.318-2.561c-1.762,1.881-3.888,3.133-5.996,4.571c0.748,0.748,1.496,1.496,2.245,2.245
			c1.935-4.519,4.448-8.549,7.292-12.544C378.094,175.785,376.225,174.386,375.257,175.432L375.257,175.432z"/>
	</g>
</g>
<g>
	<g>
		<path fill="#FFCD33" d="M382.101,202.363c1.693,8.112,0.721,16.588,0.574,24.801c-0.113,6.297-0.521,13.86,2.97,19.383
			c0.617,0.977,2.047,0.551,2.111-0.572c0.417-7.329-0.911-14.997-1.058-22.377c-0.146-7.403-1.232-14.496-3.166-21.629
			C383.28,201.038,381.906,201.433,382.101,202.363L382.101,202.363z"/>
	</g>
</g>
<g>
	<g>
		<path fill="#FFCD33" d="M382.251,207.626c-1.544,4.854-2.455,9.678-2.812,14.759c-0.326,4.653-0.81,10.869,1.784,14.978
			c0.316,0.501,1.232,0.491,1.356-0.177c0.78-4.22-0.275-8.818-0.243-13.116c0.04-5.421,0.563-10.894,1.065-16.288
			C383.466,207.097,382.443,207.022,382.251,207.626L382.251,207.626z"/>
	</g>
</g>
<g>
	<g>
		<path fill="#FFCD33" d="M389.375,172.959c-0.299,9.121-3.594,20.8-0.132,29.533c0.492,1.24,2.397,1.144,2.417-0.327
			c0.063-4.718-0.658-9.428-0.563-14.182c0.101-5.013,0.441-10.007,0.388-15.024C391.47,171.596,389.419,171.603,389.375,172.959
			L389.375,172.959z"/>
	</g>
</g>
<g>
	<g>
		<path fill="#FFCD33" d="M390.014,170.713c-0.519,10.64-1.597,26.348,4.995,35.483c0.862,1.195,2.709,0.492,2.392-1.008
			c-1.189-5.625-3.002-10.877-3.703-16.642c-0.72-5.916-0.656-11.89-0.949-17.833C392.661,168.951,390.1,168.951,390.014,170.713
			L390.014,170.713z"/>
	</g>
</g>
<g>
	<g>
		<path fill="#FFCD33" d="M391.033,182.931c-6.159,1.003-11.471,1.091-17.455,3.314c-2.59,0.962-2.324,4.965,0.673,4.972
			c2.221,0.006,4.441,0.012,6.662,0.018c-0.226-1.669-0.452-3.338-0.678-5.006c-3.228,0.982-6.38,2.121-9.523,3.345
			c-2.596,1.011-2.392,5.05,0.685,5.058c0.635,0.001,1.269,0.004,1.903,0c-0.229-1.686-0.456-3.371-0.685-5.056
			c-2.784,1.124-5.562,2.235-8.196,3.683c-2.289,1.258-1.13,4.565,1.268,4.681c2.886,0.14,5.687,0.862,8.564,1.059
			c0-1.632,0-3.264,0-4.896c-2.565,0.255-5.035,0.964-7.613,1.147c0.808,0.808,1.616,1.616,2.425,2.424
			c0.005-0.375-0.002-0.75-0.021-1.124c-0.396,0.691-0.794,1.383-1.19,2.075c6.957-5.152,15.802-4.976,23.092-9.062
			c0.734-0.412,0.632-1.679-0.243-1.856c-8.535-1.728-17.118,3.38-24.7,6.525c-1.035,0.43-1.723,1.139-1.765,2.317
			c-0.02,0.374-0.026,0.749-0.021,1.124c-0.003,1.256,1.107,2.511,2.425,2.424c2.58-0.17,5.048-0.875,7.613-1.1
			c3.146-0.276,3.156-4.632,0-4.896c-2.879-0.24-5.672-1.004-8.564-1.187c0.423,1.56,0.845,3.121,1.268,4.681
			c2.27-1.204,4.638-2.132,7.03-3.057c2.607-1.008,2.382-5.033-0.685-5.056c-0.635-0.004-1.269-0.002-1.903,0
			c0.229,1.686,0.456,3.372,0.685,5.058c3.138-1.241,6.286-2.396,9.51-3.396c2.721-0.843,2.255-5.014-0.678-5.006
			c-2.221,0.006-4.441,0.012-6.662,0.018c0.225,1.657,0.448,3.315,0.673,4.972c5.369-2.026,11.231-4.376,16.805-5.672
			C393.4,185.065,392.663,182.665,391.033,182.931L391.033,182.931z"/>
	</g>
</g>
<g>
	<g>
		<path fill="#FFCD33" d="M332.918,275.719c5.341-5.364,8.119-14.15,11.488-20.804c3.844-7.59,7.976-15.903,13.892-22.119
			c1.11-1.166,3.11-3.31,4.806-2.245c2.803,1.762,3.439,8.031,3.977,10.848c3.32,17.391,0.761,35.245,3.898,52.656
			c0.581,3.226,6.011,3.28,6.545,0c0.303-1.861,1.052-3.48,1.092-5.396c0.03-1.456-1.627-2.991-3.115-2.373
			c-2.701,1.122-4.056,3.025-4.521,5.964c2.182,0,4.363,0,6.545,0c-3.458-18.759-0.462-38.167-5.626-56.748
			c-1.828-6.578-6.851-14.29-14.354-9.372c-7.275,4.768-11.348,14.608-14.997,22.088c-2.354,4.825-4.523,9.738-6.681,14.653
			c-1.663,3.789-3.591,7.997-4.221,12.105C331.535,275.688,332.333,276.306,332.918,275.719L332.918,275.719z"/>
	</g>
</g>
<g>
	<g>
		<path fill="#FFCD33" d="M355.812,226.349c3.355-3.758,6.185-7.6,8.247-12.233c0.62-1.395-1.033-2.964-2.232-1.722
			c-1.704,1.765-3.402,3.507-5.036,5.339c-1.123,1.26-0.284,2.917,1.283,3.097c3.396,0.39,5.808,2.67,8.972,3.533
			c0.182-1.343,0.363-2.686,0.545-4.028c-2.538-0.04-5.075-0.08-7.613-0.12c-2.806-0.044-2.791,4.255,0,4.342
			c4.766,0.149,7.424,1.63,11.187,4.349c0.603-1.43,1.206-2.86,1.809-4.29c-2.737-1.004-5.401-1.75-7.977-3.181
			c-0.403,1.492-0.808,2.983-1.212,4.476c8.021,0.467,8.544,11.348,9.913,17.372c1.553-0.655,3.106-1.31,4.659-1.964
			c-0.791-1.445-1.083-3.055-1.878-4.508c-1.253-2.288-4.79-1.212-4.805,1.301c-0.029,4.868-0.058,9.735-0.087,14.603
			c-0.018,2.946,4.662,3.715,5.234,0.708c2.614-13.727-2.472-26.469-3.642-40.024c-0.189-2.193-2.147-3.236-4.114-2.361
			c-5.693,2.531-8.117,4.239-9.773,10.633c-0.872,3.366,4.141,4.718,5.178,1.428c1.815-5.754,2.79-11.53,2.878-17.563
			c0.044-2.994-4.309-3.499-5.132-0.694c-0.789,2.69-1.742,5.285-2.82,7.873c-0.979,2.353,2.732,4.467,4.308,2.507
			c3.041-3.786,5.177-7.643,6.32-12.384c0.647-2.685-3.335-4.613-4.611-1.944c-2.574,5.384-4.22,10.714-2.096,16.53
			c0.608,1.666,2.744,2.514,4.109,1.085c5.256-5.497,7.11-12.862,8.197-20.194c0.449-3.031-4.171-4.349-4.645-1.28
			c-0.946,6.132-2.7,11.837-5.435,17.417c-1.333,2.719,2.539,5.06,4.094,2.393c2.598-4.455,4.006-9.297,5.93-14.051
			c0.759-1.875-1.848-3.816-3.453-2.655c-5.08,3.674-8.499,7.833-10.697,13.733c-0.895,2.401,2.449,4.01,4.104,2.389
			c5.068-4.968,8.122-10.912,9.271-17.913c0.442-2.698-3.111-4.603-4.629-1.952c-2.925,5.105-3.839,10.906-5.953,16.334
			c-1.002,2.572,2.493,3.915,4.211,2.452c4.091-3.486,6.629-5.916,8.262-11.222c0.96-3.12-3.865-4.415-4.859-1.34
			c-1.97,6.095-2.861,12.245-2.944,18.643c-0.031,2.434,3.539,3.54,4.695,1.271c2.643-5.185,4.897-9.97,5.102-15.875
			c0.106-3.074-3.94-3.113-4.949-0.67c-1.995,4.832-3.714,9.771-5.71,14.603c-1.122,2.718,3.175,4.294,4.605,1.941
			c2.702-4.443,4.138-8.967,5.069-14.066c0.59-3.225-4.193-4.643-4.973-1.371c-1.813,7.605-2.954,15.326-3.054,23.152
			c-0.037,2.922,3.494,3.325,5.002,1.354c4.654-6.08,4.96-14.251,4.215-21.574c-0.349-3.432-5.383-3.581-5.451,0
			c-0.159,8.268-1.848,16.432-1.951,24.712c1.849,0,3.698,0,5.547,0c0.042-12.014,0.967-23.975,1.887-35.946
			c-1.838,0-3.676,0-5.514,0c0.06,11.265,0.965,22.481,1.918,33.699c0.306,3.588,5.042,3.464,5.484,0
			c0.951-7.456,0.943-14.962,0.941-22.466c0-3.082-4.571-3.725-5.365-0.726c-2.884,10.881-2.94,22.12-2.938,33.302
			c1.812,0,3.622,0,5.434,0c-0.046-12.849-0.979-25.826,0.838-38.598c-1.735,0-3.47,0-5.205,0
			c2.071,13.859,2.733,27.967,2.777,41.968c1.786,0,3.573,0,5.359,0c-0.134-3.023-0.82-5.966-0.955-8.986
			c-0.128-2.868-4.803-3.824-5.256-0.711c-2.351,16.156-3.191,31.906-9.517,47.179c-1.16,2.801,3.611,4.792,4.891,2.062
			c3.512-7.499,3.181-14.388,3.154-22.413c-0.011-3.366-5.231-3.367-5.221,0c0.025,7.738-1.038,16.218-2.721,23.75
			c1.682,0.228,3.363,0.455,5.045,0.683c-0.784-9.377,0.021-18.384,2.79-27.393c-1.7-0.23-3.4-0.46-5.101-0.69
			c-0.135,5.331-0.913,11.123-2.809,16.147c1.731,0.234,3.464,0.469,5.196,0.703c0.025-8.986,0.051-17.973,0.077-26.959
			c0.01-3.528-5.276-3.487-5.445,0c-2.215,45.941-11.021,92.46-30.243,134.452c-1.538,3.36,3.327,6.326,5.025,2.938
			c10.43-20.803,16.938-43.443,21.78-66.135c4.996-23.417,7.865-47.341,8.883-71.255c-1.815,0-3.63,0-5.445,0
			c0.026,8.986,0.052,17.973,0.077,26.959c0.009,3.131,4.192,3.412,5.196,0.703c2.018-5.438,2.788-11.783,2.9-17.553
			c0.059-2.991-4.267-3.458-5.101-0.69c-2.837,9.417-3.726,18.979-2.919,28.773c0.226,2.74,4.372,3.675,5.045,0.683
			c1.798-7.996,2.962-16.922,2.988-25.115c0.011-3.367-5.21-3.366-5.221,0c-0.023,6.953,0.51,13.169-2.555,19.711
			c1.63,0.688,3.261,1.375,4.891,2.062c6.337-15.301,7.163-31,9.517-47.179c-1.752-0.237-3.504-0.474-5.256-0.711
			c0.131,3.023,0.815,5.966,0.947,8.986c0.149,3.438,5.367,3.471,5.359,0c-0.032-14.499-0.799-29.053-2.932-43.404
			c-0.384-2.583-4.834-2.594-5.205,0c-1.902,13.289-1.103,26.662-1.066,40.034c0.009,3.504,5.432,3.504,5.434,0
			c0.008-10.699,0.004-21.437,2.772-31.85c-1.788-0.242-3.577-0.484-5.365-0.726c-0.006,7.504-0.004,15.011-0.963,22.466
			c1.828,0,3.656,0,5.484,0c-0.944-11.218-1.839-22.435-1.889-33.699c-0.016-3.597-5.241-3.501-5.514,0
			c-0.931,11.971-1.866,23.932-1.92,35.946c-0.016,3.579,5.501,3.574,5.547,0c0.106-8.277,1.729-16.447,1.855-24.712
			c-1.817,0-3.634,0-5.451,0c0.685,6.478,0.711,13.452-3.398,18.865c1.667,0.451,3.334,0.903,5.002,1.354
			c0.064-7.368,1.025-14.6,2.657-21.781c-1.657-0.457-3.315-0.914-4.973-1.371c-0.806,4.683-1.959,8.802-4.448,12.894
			c1.535,0.647,3.07,1.294,4.605,1.941c1.995-4.832,3.714-9.771,5.71-14.603c-1.649-0.223-3.3-0.447-4.949-0.67
			c-0.172,4.976-2.194,8.977-4.414,13.332c1.565,0.424,3.13,0.848,4.695,1.271c0.077-5.959,0.931-11.63,2.765-17.303
			c-1.62-0.447-3.239-0.893-4.859-1.34c-1.37,4.456-3.594,6.125-6.965,8.998c1.403,0.817,2.807,1.634,4.211,2.452
			c1.951-5.011,2.761-10.415,5.467-15.118c-1.543-0.65-3.086-1.301-4.629-1.952c-1.023,6.166-3.431,11.332-7.858,15.787
			c1.368,0.796,2.736,1.593,4.104,2.389c1.667-4.659,4.388-8.044,8.336-10.979c-1.151-0.885-2.302-1.77-3.453-2.655
			c-1.733,4.376-3.091,8.829-5.49,12.908c1.364,0.797,2.729,1.595,4.094,2.393c2.934-5.925,4.949-11.989,5.985-18.529
			c-1.548-0.427-3.097-0.854-4.645-1.28c-0.977,6.415-2.354,13.189-7.029,17.998c1.369,0.361,2.739,0.723,4.109,1.085
			c-1.63-4.581-0.355-8.446,1.711-12.676c-1.537-0.648-3.074-1.296-4.611-1.944c-0.963,3.846-2.593,7.015-5.1,10.082
			c1.35,1.041,2.698,2.082,4.048,3.123c1.187-2.784,2.271-5.57,3.148-8.47c-1.711-0.231-3.422-0.463-5.132-0.694
			c-0.129,5.583-1.11,10.836-2.831,16.136c1.726,0.476,3.452,0.952,5.178,1.428c1.337-4.989,3.031-5.417,7.355-7.339
			c-1.371-0.787-2.743-1.574-4.114-2.361c1.111,12.875,6.29,25.6,3.972,38.607c1.744,0.236,3.489,0.472,5.234,0.708
			c-0.029-4.868-0.058-9.735-0.087-14.603c-1.602,0.434-3.203,0.868-4.805,1.301c0.809,1.435,1.118,3.038,1.929,4.479
			c1.45,2.578,5.323,0.805,4.659-1.964c-2.102-8.768-3.65-20.301-14.829-20.82c-2.386-0.11-3.284,3.355-1.212,4.476
			c2.96,1.601,6.003,2.446,9.152,3.56c2.67,0.943,3.85-2.851,1.809-4.29c-4.517-3.184-7.96-4.64-13.556-4.638
			c0,1.447,0,2.895,0,4.342c2.538-0.04,5.075-0.08,7.613-0.12c2.278-0.036,2.841-3.479,0.545-4.028
			c-3.515-0.84-6.279-2.967-10.062-3.206c0.428,1.032,0.855,2.064,1.283,3.097c1.628-2.025,3.154-4.094,4.702-6.182
			c-0.866-0.365-1.732-0.73-2.598-1.095c-1.405,4.73-3.791,8.326-6.837,12.141C353.964,225.988,355.077,227.171,355.812,226.349
			L355.812,226.349z"/>
	</g>
</g>
<rect x="134.436" y="114.896" fill="#333333" stroke="#CB6828" stroke-miterlimit="10" width="6.662" height="417.59"/>
<rect x="155.848" y="127.262" fill="#333333" stroke="#CB6828" stroke-miterlimit="10" width="6.662" height="384.938"/>
<rect x="178.354" y="129.508" fill="#333333" stroke="#CB6828" stroke-miterlimit="10" width="6.662" height="365.195"/>
<rect x="203.16" y="135.687" fill="#333333" stroke="#CB6828" stroke-miterlimit="10" width="6.662" height="328.553"/>
<rect x="226.27" y="135.687" fill="#333333" stroke="#CB6828" stroke-miterlimit="10" width="6.662" height="299.958"/>
<rect x="249.109" y="143.358" fill="#333333" stroke="#CB6828" stroke-miterlimit="10" width="6.661" height="262.127"/>
<rect x="273.543" y="140.741" fill="#333333" stroke="#CB6828" stroke-miterlimit="10" width="6.661" height="234.271"/>
<rect x="294.781" y="140.741" fill="#333333" stroke="#CB6828" stroke-miterlimit="10" width="6.661" height="209.476"/>
<g>
	<g>
		<path fill="#CB6828" d="M106.69,85.341c0.251,7.969,8.522,15.958,14.003,21.229c6.587,6.335,14.361,11.47,22.48,15.611
			c17.734,9.045,37.489,13.727,57.061,16.688c19.205,2.906,38.627,3.928,58.03,4.244c21.841,0.355,45.039,2,66.207-4.056
			c4.069-1.164,7.963-2.564,11.217-5.302c2.808-2.361-0.292-6.103-3.245-5.576c-6.867,1.225-13.331,4.346-20.312,5.559
			c-7.092,1.232-14.378,1.411-21.56,1.52c-9.043,0.138-18.102,0.069-27.145-0.011c-18.733-0.166-37.469-1.002-56.076-3.256
			c-19.535-2.366-39.337-6.579-57.315-14.773c-8.146-3.713-15.959-8.344-22.798-14.14c-3.289-2.787-6.279-5.907-9.028-9.223
			c-2.919-3.521-4.741-7.587-8.436-10.286C108.509,82.645,106.644,83.89,106.69,85.341L106.69,85.341z"/>
	</g>
</g>
<g>
	<g>
		<path fill="#CB6828" d="M138.242,534.354c2.892,0,5.305-2.413,5.305-5.305s-2.413-5.305-5.305-5.305s-5.305,2.413-5.305,5.305
			S135.351,534.354,138.242,534.354L138.242,534.354z"/>
	</g>
</g>
<g>
	<g>
		<path fill="#CB6828" d="M158.961,517.193c0.196-0.034,0.392-0.069,0.588-0.104c1.057-0.297,1.974-0.831,2.752-1.604
			c1.165-1.165,1.827-2.763,1.827-4.41c-0.003-1.126-0.287-2.175-0.852-3.147c-0.753-1.285-2.206-2.599-3.727-2.866
			c-0.196-0.034-0.392-0.069-0.588-0.104c-0.562-0.075-1.125-0.151-1.687-0.227c-1.145,0.004-2.212,0.292-3.202,0.866
			c-1.929,1.13-3.142,3.24-3.142,5.478c0,1.676,0.674,3.302,1.858,4.485c0.792,0.786,1.725,1.33,2.799,1.632
			C156.713,517.495,157.837,517.495,158.961,517.193L158.961,517.193z"/>
	</g>
</g>
<g>
	<g>
		<path fill="#CB6828" d="M180.115,498.93c0.664-0.044,1.418-0.048,2.043-0.22c0.597-0.165,1.149-0.484,1.691-0.78
			c2.79-1.521,2.79-5.885,0-7.406c-0.192-0.105-0.382-0.218-0.581-0.312c-0.905-0.43-1.561-0.582-2.559-0.648
			c-0.198-0.014-0.396-0.026-0.594-0.04c-2.561-0.171-4.703,2.269-4.703,4.703S177.554,499.101,180.115,498.93L180.115,498.93z"/>
	</g>
</g>
<g>
	<g>
		<path fill="#CB6828" d="M211.929,465.322c0.022-0.086,0.051-0.17,0.086-0.25c-0.183,0.432-0.365,0.863-0.547,1.296
			c0.03-0.068,0.067-0.132,0.11-0.192c-0.286,0.37-0.572,0.74-0.857,1.109c0.038-0.053,0.083-0.101,0.132-0.143
			c-1.305,0.54-2.61,1.081-3.915,1.621c0.043,0.004,0.085,0.008,0.128,0.012c-0.504-0.067-1.008-0.135-1.513-0.203
			c0.018,0.007,0.036,0.014,0.053,0.021c1.023,0.274,2.046,0.274,3.069,0c0.459-0.194,0.919-0.388,1.379-0.582
			c0.867-0.513,1.558-1.203,2.071-2.07c0.017-0.022,0.034-0.046,0.052-0.068c-0.299,0.388-0.598,0.774-0.897,1.161
			c0.064-0.068,0.129-0.128,0.203-0.186c-0.38,0.293-0.76,0.587-1.14,0.88c0.028-0.019,0.056-0.038,0.084-0.058
			c0.84-0.497,1.509-1.166,2.006-2.006c0.757-1.292,0.961-2.866,0.564-4.311c-0.266-0.947-0.745-1.77-1.438-2.468
			c-0.377-0.291-0.754-0.583-1.132-0.874c-0.872-0.506-1.813-0.761-2.823-0.764c-0.663-0.082-1.36,0.089-1.998,0.213
			c-0.978,0.274-1.827,0.77-2.547,1.484c-0.975,0.976-1.857,2.649-1.69,4.082c0.065,0.559,0.119,1.12,0.23,1.672
			c0-0.981,0-1.963,0-2.943c-0.368,1.201-0.271,2.362-0.007,3.566c0.508,2.312,2.88,3.935,5.168,3.935
			C209.188,469.257,211.239,467.613,211.929,465.322L211.929,465.322z"/>
	</g>
</g>
<g>
	<g>
		<path fill="#CB6828" d="M231.754,442.241c3.554,0,6.52-2.965,6.52-6.52c0-3.554-2.966-6.519-6.52-6.519s-6.52,2.965-6.52,6.519
			C225.234,439.276,228.2,442.241,231.754,442.241L231.754,442.241z"/>
	</g>
</g>
<g>
	<g>
		<path fill="#CB6828" d="M250.537,410.462c2.713,0,4.977-2.264,4.977-4.977s-2.264-4.977-4.977-4.977s-4.977,2.264-4.977,4.977
			S247.824,410.462,250.537,410.462L250.537,410.462z"/>
	</g>
</g>
<g>
	<g>
		<path fill="#CB6828" d="M277.183,381.827c8.604,0,8.604-13.344,0-13.344S268.578,381.827,277.183,381.827L277.183,381.827z"/>
	</g>
</g>
<g>
	<g>
		<path fill="#CB6828" d="M295.635,354.692c1.303,0.678,2.533,1.158,4.021,0.961c0.941-0.003,1.817-0.24,2.631-0.711
			c1.238-0.726,1.921-1.797,2.395-3.114c0.307-0.852,0.307-1.919,0-2.771c-0.248-0.883-0.694-1.649-1.34-2.299
			c-0.352-0.272-0.703-0.543-1.055-0.815c-0.813-0.471-1.689-0.708-2.631-0.711c-1.488-0.197-2.719,0.283-4.021,0.961
			C292.428,347.862,292.428,353.022,295.635,354.692L295.635,354.692z"/>
	</g>
</g>
<g>
	<g>
		<path fill="#CB6828" d="M133.484,70.855c-15.839-0.13-5.548,32.19,10.096,24.749c7.962-3.787,8.854-11.657,2.884-17.841
			c-4.915-5.092-16.813-9.711-22.567-3.554c-0.873,0.934-0.252,2.422,1.022,2.467c5.526,0.196,10.016,0.012,15.003,2.927
			c4.38,2.561,7.248,6.871,2.892,10.783c-4.203,3.775-9.207-1.239-11.24-4.814c-1.065-1.872-1.562-3.982-1.455-6.123
			c0.137-2.742,2.528-3.379,4.439-4.626C136.302,73.684,135.668,70.874,133.484,70.855L133.484,70.855z"/>
	</g>
</g>
<g>
	<g>
		<path fill="#CB6828" d="M294.115,111.584c-0.19-0.031-0.381-0.063-0.571-0.094c-0.76-0.285-1.51,0.201-1.933,0.787
			c-2.901,4.02,2.814,8.824,5.823,10.594c6.086,3.58,13.063,1.892,17.216-3.635c0.507-0.675,0.485-1.959,0-2.638
			c-4.317-6.032-11.557-8.659-18.772-6.645c-1.228,0.343-1.195,2.09,0,2.448c5.357,1.604,10.663,1.946,14.259,6.834
			c0-0.879,0-1.758,0-2.638c-2.913,3.984-6.88,4.684-11.172,2.366c-1.557-0.841-2.953-2.071-3.894-3.572
			c-0.497-0.795-0.45-2.416-0.384-2.451C295.438,112.551,294.916,111.34,294.115,111.584L294.115,111.584z"/>
	</g>
</g>
<g>
	<g>
		<path fill="#CB6828" d="M381.297,98.55c-15.3-2.816-21.861,11.861-17.535,24.563c1.767,5.189,5.332,10.1,10.603,12.053
			c6.939,2.571,11.607-3.398,15.902-7.646c1.706-1.688-0.011-4.89-2.395-4.113c-29.096,9.479,4.33,54.09,19.875,28.309
			c1.094-1.813-0.7-4.151-2.736-3.559c-28.063,8.168-0.679,55.159,15.956,35.948c1.048-1.211-0.291-3.216-1.775-2.3
			c-7.805,4.816-14.804-0.317-18.632-7.498c-1.921-3.603-2.883-8.024-2.267-12.083c0.766-5.05,4.238-7.631,8.585-9.639
			c-1.104-1.104-2.21-2.209-3.314-3.314c-4.216,9.815-13.353,5.946-18.432-0.94c-5.361-7.27-5.63-16.907,4.049-20.177
			c-1.009-1.009-2.019-2.018-3.027-3.027c-1.651,4.079-6.742,7.897-11.188,5.89c-3.773-1.704-6.038-5.943-7.336-9.66
			c-1.433-4.1-1.828-8.991-0.075-13.058c2.422-5.617,7.865-6.48,13.359-6.91C382.439,101.27,382.998,98.863,381.297,98.55
			L381.297,98.55z"/>
	</g>
</g>
<g>
	<g>
		<path fill="#CB6828" d="M108.382,534.682c12.771,15.256,21.473,33.956,37.626,46.203c8.056,6.107,18.608,9.453,28.144,12.404
			c10.282,3.181,20.818,5.457,31.225,8.177c6.5,1.698,9.258-8.357,2.767-10.035c-18.949-4.896-38.863-8.367-55.951-18.409
			c-8.021-4.715-14.206-13.153-19.764-20.407c-5.994-7.822-12.142-15.88-19.523-22.458
			C109.793,527.383,105.75,531.537,108.382,534.682L108.382,534.682z"/>
	</g>
</g>
<g>
	<g>
		<path fill="#CB6828" d="M220.914,598.847c0.146,0.114,0.112,0.049-0.104-0.194c-0.27-0.373-0.572-0.591-0.942-0.854
			c-0.561-0.399-1.104-0.702-1.729-0.989c-1.431-0.654-2.883-1.191-4.312-1.812c-1.063-0.461-2.129,0.485-1.588,1.588
			c0.73,1.487,1.644,2.526,3.11,3.337c0.752,0.415,1.532,0.799,2.345,1.076c0.719,0.245,1.51,0.103,2.191,0.289
			C221.441,601.715,222.071,599.709,220.914,598.847L220.914,598.847z"/>
	</g>
</g>
<g>
	<g>
		<path fill="#CB6828" d="M224.24,597.434c-1.264,0.033-2.517,0.013-3.779-0.041c-1.405-0.061-2.806-0.369-4.221-0.447
			c-0.837-0.046-1.264,0.92-0.911,1.587c1.784,3.372,5.465,3.938,8.911,4.034C227.55,602.658,227.551,597.347,224.24,597.434
			L224.24,597.434z"/>
	</g>
</g>
<g>
	<g>
		<path fill="#CB6828" d="M62.11,505.392c-14.394,0.678-12.779,22.219-7.13,30.568c5.849,8.645,18.883,9.383,25.255,1.169
			c5.719-7.373,6.691-18.553,3.021-27c-3.748-8.626-17.696-11.7-23.515-3.251c-0.686,0.995,0.216,2.553,1.417,2.469
			c3.875-0.272,7.106-2.707,11.127-2.513c3.106,0.149,5.28,2.598,6.613,5.158c3.029,5.821,2.237,14.031-0.564,19.752
			c-3.469,7.082-10.8,8.574-17.32,4.323c-8.758-5.712-8.643-24.393,1.414-28.336C63.597,507.272,63.55,505.324,62.11,505.392
			L62.11,505.392z"/>
	</g>
</g>
<g>
	<g>
		<path fill="#CB6828" d="M96.079,544.844c-5.58,1.375-10.213,5.438-14.513,9.065c-2.793,2.356-5.478,4.842-8.226,7.251
			c-2.361,2.069-5.136,3.764-6.853,6.427c-0.751,1.164,0.48,2.606,1.743,2.267c4.961-1.336,9.022-6.582,12.603-10.035
			c5.062-4.883,10.377-8.914,16.089-12.976C97.91,546.14,97.334,544.534,96.079,544.844L96.079,544.844z"/>
	</g>
</g>
<g>
	<g>
		<path fill="#CB6828" d="M106.009,555.715c-7.057,3.096-13.033,8.66-18.708,13.75c-2.912,2.612-5.773,5.281-8.681,7.897
			c-2.511,2.258-6.168,4.188-7.06,7.572c-0.169,0.644,0.322,1.36,1.017,1.335c2.86-0.104,4.363-1.913,6.493-3.771
			c2.938-2.562,5.768-5.247,8.622-7.9c6.333-5.887,12.916-11.069,19.973-16.05C109.417,557.313,107.936,554.87,106.009,555.715
			L106.009,555.715z"/>
	</g>
</g>
<g>
	<g>
		<path fill="#CB6828" d="M121.24,577.887c-2.623-0.314-5.243,1.758-7.471,2.959c-3.928,2.117-7.644,4.621-11.3,7.172
			c-6.505,4.538-14.773,10.084-18.848,17.036c-1.129,1.927,1.373,3.604,2.945,2.272c2.987-2.529,5.518-5.643,8.457-8.265
			c3.406-3.038,7.076-5.771,10.803-8.396c3.224-2.271,6.583-4.339,9.917-6.442c2.169-1.369,5.177-2.351,6.459-4.661
			C122.647,578.76,122.063,577.985,121.24,577.887L121.24,577.887z"/>
	</g>
</g>
<g>
	<g>
		<path fill="#CB6828" d="M136.944,584.927c-8.638,2.544-16.449,7.921-23.708,13.089c-3.441,2.45-6.734,5.095-9.964,7.813
			c-2.941,2.477-6.862,5.088-8.011,8.901c-0.223,0.74,0.516,1.46,1.25,1.249c2.891-0.833,4.827-3.138,7.018-5.127
			c3.713-3.372,7.637-6.518,11.627-9.553c7.172-5.454,14.965-9.695,22.647-14.339C138.872,586.314,138.175,584.564,136.944,584.927
			L136.944,584.927z"/>
	</g>
</g>
<g>
	<g>
		<path fill="#CB6828" d="M150.772,600.089c-6.439-2.766-14.592,2.391-20.061,5.549c-4.327,2.499-8.447,5.376-12.458,8.349
			c-2.863,2.122-6.171,4.314-8.059,7.402c-0.547,0.894,0.353,2.094,1.367,1.779c6.408-1.987,12.175-8.09,17.726-11.75
			c6.786-4.475,13.599-6.988,21.232-9.401C151.299,601.771,151.673,600.476,150.772,600.089L150.772,600.089z"/>
	</g>
</g>
<g>
	<g>
		<path fill="#CB6828" d="M92.807,123.771c-11.933-2.75-16.671,14.014-12.812,22.591c3.461,7.692,12.873,12.646,20.114,6.693
			c6.067-4.987,8.362-13.656,6.807-21.166c-0.832-4.015-3.375-7.449-6.785-9.643c-3.471-2.234-9.952-3.708-13.362-0.873
			c-0.764,0.635-0.431,1.824,0.296,2.3c2.557,1.677,6.25,1.167,9.109,2.438c2.559,1.137,4.396,3.278,5.334,5.884
			c1.728,4.792,0.458,10.792-2.273,14.963c-3.284,5.016-8.315,4.851-12.511,1.093c-7.827-7.009-2.628-19.578,6.083-22.512
			C93.622,125.268,93.743,123.987,92.807,123.771L92.807,123.771z"/>
	</g>
</g>
<g>
	<g>
		<path fill="#CB6828" d="M56.573,166.798c-1.759-0.583-1.258-1.26-0.658,0.232c0.389,0.968,0.691,1.973,1.002,2.968
			c0.838,2.683,1.532,5.415,2.215,8.14c1.404,5.604,3.073,11.486,3.208,17.287c0.349-0.843,0.698-1.686,1.047-2.529
			c-11.492,10.307-25.854,18.302-35.016,30.938c-0.744,1.026-0.687,2.807,0,3.84c8.595,12.914,11.272,28.709,19.876,41.626
			c0.47-1.792,0.94-3.585,1.41-5.377c-16.462,12.393-26.945,30.198-37.624,47.436c-1.003,1.619-0.519,3.473,0.624,4.835
			c11.042,13.165,19.731,27.954,27.95,42.988c0.207-1.6,0.413-3.201,0.62-4.801c-10.799,11.769-19.475,25.221-29.159,37.877
			c-1.299,1.697-0.284,4.439,1.417,5.403c7.966,4.514,15.236,9.746,21.44,16.518c6.576,7.177,11.216,15.95,15.196,24.759
			c0.207-1.602,0.413-3.203,0.62-4.804c-9.316,10.947-18.928,21.626-27.155,33.443c-0.904,1.299-0.645,3.632,0.6,4.647
			c5.314,4.337,11.24,7.924,16.913,11.761c3.048,2.062,6.094,4.151,8.981,6.435c1.117,0.883,2.201,1.797,3.238,2.771
			c0.722,0.679,1.113,1.838,1.175,1.034c-0.381,4.901,7.239,4.864,7.617,0c0.456-5.857-8.442-10.865-12.365-13.65
			c-6.596-4.683-13.897-8.616-20.136-13.774c0.2,1.549,0.4,3.099,0.6,4.647c7.925-11.228,17.253-21.257,26.138-31.709
			c1.262-1.483,1.414-3.049,0.62-4.804c-8.674-19.174-21.124-33.696-39.496-44.095c0.473,1.801,0.945,3.603,1.417,5.403
			c9.27-12.128,17.584-24.998,27.941-36.261c1.24-1.348,1.503-3.18,0.62-4.801c-8.541-15.664-17.67-30.916-29.15-44.631
			c0.208,1.612,0.416,3.223,0.624,4.835c9.877-15.905,19.532-33.146,34.702-44.676c1.616-1.228,2.711-3.443,1.41-5.377
			c-8.655-12.866-11.43-28.631-20.093-41.499c0,1.28,0,2.56,0,3.84c5.591-7.786,13.678-13.211,21.225-18.919
			c3.543-2.679,6.986-5.467,10.209-8.526c3.14-2.98,3.312-4.79,2.208-8.719c-1.789-6.368-2.807-12.964-4.645-19.344
			c-0.897-3.116-2.068-9.912-5.81-11.019C54.483,160.069,53.013,165.619,56.573,166.798L56.573,166.798z"/>
	</g>
</g>
<g>
	<g>
		<path fill="#CB6828" d="M83.344,168.34c-15.922,5.185-34.523,10.018-47.169,21.572c-1.536,1.403-0.917,3.701,0.613,4.762
			c10.871,7.534,15.631,21.879,18.15,34.255c1.122-1.473,2.244-2.945,3.365-4.417c-18.8,1.729-27.242,22.743-40.828,32.969
			c-1.485,1.118-2.463,3.143-1.287,4.907c5.487,8.23,11.727,15.937,17.23,24.162c3.051,4.56,5.89,9.264,8.317,14.187
			c1.618,3.282,4.221,8.44,3.213,12.195c-0.927,3.452-3.476,6.655-5.52,9.506c-3.224,4.497-6.833,8.728-10.461,12.899
			c-6.088,6.997-12.516,13.686-18.964,20.349c-1.478,1.527-1.341,3.697,0,5.24c5.257,6.051,11.6,11.183,17.41,16.683
			c6.027,5.706,13.879,12.418,16.53,20.567c2.424,7.453-5.956,17.048-10.097,22.365c-5.524,7.093-12.019,13.621-16.725,21.316
			c-0.944,1.544-0.476,4.139,1.294,4.935c12.511,5.629,22.749,15.958,32.615,25.235c0-1.676,0-3.352,0-5.027
			c-9.45,9.73-24.36,18.12-27.759,32.105c-0.745,3.063,3.413,4.849,5.069,2.137c7.269-11.899,18.146-19.421,27.717-29.215
			c1.325-1.356,1.419-3.685,0-5.027c-10.229-9.679-21.002-20.551-34.001-26.437c0.432,1.645,0.863,3.29,1.294,4.935
			c5.25-8.537,12.637-15.742,18.66-23.734c5.221-6.929,10.948-15.667,9.219-24.76c-1.622-8.529-9.94-16.097-15.787-21.895
			c-6.611-6.555-14.093-12.379-20.2-19.424c0,1.747,0,3.494,0,5.24c6.742-6.95,13.426-13.949,19.792-21.247
			c6.344-7.273,13.893-15.441,16.914-24.817c2.945-9.139-5.614-21.464-10.156-28.663c-5.988-9.491-13.183-18.116-19.413-27.431
			c-0.429,1.636-0.857,3.271-1.287,4.907c6.477-4.889,11.542-11.19,16.858-17.258c5.302-6.051,11.829-13.865,20.35-14.925
			c2.274-0.283,3.937-2.008,3.365-4.417c-3.317-13.979-9.436-29.338-21.819-37.636c0.204,1.587,0.409,3.175,0.613,4.762
			c12.208-11.495,29.935-14.626,44.777-21.362C87.794,171.679,85.97,167.485,83.344,168.34L83.344,168.34z"/>
	</g>
</g>
<g>
	<g>
		<path fill="#CB6828" d="M225.381,573.397c4.166-5.386,9.157-10.983,16.068-12.462c-0.661-0.376-1.323-0.752-1.985-1.127
			c1.37,5.751,0.139,10.568-3.617,15.053c-1.319,1.574,0.419,4.375,2.344,3.037c6.045-4.203,11.161-10.533,19.008-10.876
			c-0.651-0.855-1.304-1.711-1.955-2.566c-1.926,6.091-4.856,11.646-7.563,17.397c-1.194,2.538,2.43,4.759,3.811,2.229
			c3.225-5.905,5.836-12.077,7.663-18.548c0.346-1.224-0.634-2.632-1.955-2.566c-8.92,0.436-14.141,6.729-20.961,11.591
			c0.883,0.882,1.765,1.764,2.646,2.646c4.139-5.497,5.297-11.585,3.693-18.256c-0.214-0.89-1.148-1.308-1.985-1.127
			c-7.913,1.709-13.294,7.449-16.408,14.651C223.873,573.192,224.805,574.141,225.381,573.397L225.381,573.397z"/>
	</g>
</g>
<g>
	<g>
		<path fill="#CB6828" d="M251.549,535.258c2.95-5.84,7.734-8.948,13.791-11.032c-0.814-0.814-1.63-1.63-2.444-2.444
			c-1.091,5.341-2.903,10.354-6.363,14.637c-1.816,2.249,1.244,5.475,3.236,3.236c3.892-4.374,8.441-8.067,14.229-9.476
			c-0.986-0.751-1.972-1.502-2.958-2.253c0.279,2.831,0.034,5.37-0.797,8.091c-0.572,1.876-2.595,7.147-4.548,8.053
			c1.128,0.296,2.256,0.591,3.384,0.887c0.785,1.313,0.483,0.235,0.915-0.925c0.451-1.214-1.083-2.204-2.095-1.61
			c-1.314,0.771-2.897,1.565-3.34,3.126c-0.477,1.683,1.237,3.733,3.041,3.042c3.182-1.22,4.58-5.104,5.961-8.015
			c1.892-3.991,2.595-8.274,2.152-12.648c-0.154-1.521-1.373-2.644-2.958-2.253c-6.531,1.607-11.853,5.759-16.223,10.745
			c1.079,1.079,2.157,2.157,3.236,3.236c3.914-5.044,5.913-10.552,6.959-16.816c0.226-1.354-0.877-3.007-2.444-2.444
			c-6.873,2.467-13.578,6.172-14.876,13.961C249.203,535.577,250.906,536.529,251.549,535.258L251.549,535.258z"/>
	</g>
</g>
<g>
	<g>
		<path fill="#CB6828" d="M271.635,502.74c4.872-6.394,7.689-13.041,16.531-14.511c-0.794-0.794-1.587-1.587-2.381-2.381
			c-1.196,4.408-2.269,10.148-4.91,13.939c-1.732,2.485,2.308,4.784,4.035,2.357c3.639-5.108,7.35-10.016,13.765-11.521
			c-0.882-0.671-1.764-1.343-2.646-2.015c-0.114,5.95-2.256,12.298-5.928,17.056c-1.578,2.045-4.04,4.559-4.278,7.235
			c-0.21,2.375,3.531,3.395,4.542,1.23c0.405-0.867,0.439-1.722,0.658-2.65c0.284-1.207-1.072-2.526-2.237-1.721
			c0.327-0.227-1.995,1.111-1.173,0.79c0.79,1.358,1.581,2.716,2.371,4.074c2.13-1.867,3.903-5.585,5.104-8.139
			c2.766-5.887,4.877-11.294,5.121-17.876c0.053-1.432-1.367-2.278-2.646-2.015c-7.418,1.525-12.617,7.118-16.688,13.192
			c1.345,0.786,2.69,1.571,4.035,2.357c2.658-4.278,3.732-10.39,4.607-15.268c0.273-1.525-0.862-2.645-2.381-2.381
			c-8.596,1.496-17.118,8.41-17.904,17.593C269.11,503.519,270.95,503.639,271.635,502.74L271.635,502.74z"/>
	</g>
</g>
<g>
	<g>
		<path fill="#CB6828" d="M290.904,468.056c3.591-5.631,6.739-9.735,12.913-12.662c-0.911-0.7-1.822-1.4-2.733-2.102
			c-0.798,3.635-0.982,7.424-2.597,10.831c1.083,0.457,2.167,0.913,3.25,1.37c2.044-5.268,6.632-8.829,12.035-10.157
			c-0.658-0.658-1.317-1.317-1.976-1.976c-1.949,7.034-3.667,14.099-4.98,21.281c-0.48,2.628,3.295,3.14,3.606,0.488
			c0.833-7.079,2.55-14.061,4.472-20.916c0.341-1.213-0.802-2.255-1.976-1.976c-6.72,1.596-12.014,5.883-14.611,12.31
			c-0.757,1.872,2.375,3.169,3.25,1.37c1.811-3.721,2.066-7.69,3.114-11.636c0.337-1.267-0.915-2.813-2.289-2.289
			c-6.559,2.499-12.334,8.027-14.335,14.858C287.536,468.599,289.969,469.521,290.904,468.056L290.904,468.056z"/>
	</g>
</g>
<g>
	<g>
		<path fill="#CB6828" d="M319.081,416.916c-1.812,2.084-3.162,3.693-4.089,6.425c-1.235,3.638-0.22,7.681,2.566,10.276
			c4.049,3.771,9.288,2.772,12.084-1.823c2.531-4.162,2.794-10.206,0.946-14.655c-1.901-4.58-9.343-9.93-13.77-5.075
			c-0.76,0.832-0.708,2.28,0.367,2.853c3.072,1.636,6.26,0.36,8.179,3.915c1.415,2.62,1.053,6.117,0.162,8.83
			c-0.692,2.111-1.874,3.597-3.87,2.336c-2.364-1.491-1.942-4.477-1.462-6.819c0.312-1.522,0.474-3.566,1.073-4.988
			C321.781,416.974,319.906,415.969,319.081,416.916L319.081,416.916z"/>
	</g>
</g>
<g>
	<g>
		<path fill="#CB6828" d="M385.163,251.956c-2.556-1.359-4.179-2.39-7.113-0.971c-3.336,1.612-5.626,4.436-7.414,7.611
			c-3.707,6.582-4.229,15.736,0.903,21.715c6.71,7.815,16.102,7.589,22.645-0.281c5.922-7.122,9.342-17.827,7.523-27.018
			c-2.206-11.157-14.389-10.117-21.554-4.428c-0.889,0.706,0.082,2.04,1.045,1.795c5.7-1.446,13.161-3.903,15.193,3.561
			c1.706,6.267-0.917,13.839-3.993,19.248c-2.749,4.833-7.824,10.167-13.666,6.853c-5.213-2.957-6.883-8.93-5.961-14.561
			c0.769-4.698,5.534-13.622,11.715-11.919C385.437,253.824,386.055,252.43,385.163,251.956L385.163,251.956z"/>
	</g>
</g>
<g>
	<g>
		<path fill="#CB6828" d="M385.384,265.071c0.056-0.639,0.359-1.309-0.167-1.854c-0.229-0.238-0.527-0.377-0.861-0.377
			c-0.128,0.007-0.254,0.028-0.377,0.063c-0.901,0.227,0.771-0.205-0.253,0.077c-1.831,0.504-2.741,3.894-2.842,5.462
			c-0.068,1.077,0.933,1.9,1.933,1.933c1.299,0.042,2.996-0.134,4.163,0.223c1.485,0.454,2.713-0.759,2.83-2.156
			c0.126-1.5,0.137-2.989,0.146-4.493c0.006-1.12-0.744-1.934-1.748-2.295c-2.324-0.837-4.727-0.409-7.084-0.955
			c-0.785-0.182-1.78-0.041-2.333,0.617c-0.448,0.533-0.709,0.978-0.702,1.696c0.01,1.103,0.73,1.982,1.761,2.312
			c2.33,0.748,4.788,0.122,7.093,0.921c-0.583-0.765-1.165-1.53-1.748-2.295c0.009,1.504,0.02,2.994,0.146,4.493
			c0.547-0.719,1.094-1.437,1.641-2.156c-1.167,0.357-2.864,0.182-4.163,0.223c0.645,0.645,1.288,1.289,1.933,1.933
			c-0.001-0.895,0.043-1.842,0.215-2.72c0.082-0.415,0.19-0.828,0.262-1.243c0.194-0.737-0.242-0.667-1.31,0.211
			c0.162,0.149,0.135,0.345,0.163,0.558C384.188,266.039,385.323,265.761,385.384,265.071L385.384,265.071z"/>
	</g>
</g>
<g>
	<g>
		<path fill="#CB6828" d="M371.338,263.347c2.78-4.378,1.102-11.689,0.302-16.474c-1.123-6.724-3.059-13.172-5.896-19.381
			c-4.455-9.745-12.898-20.462-24.8-19.4c0.271,2.004,0.542,4.008,0.813,6.013c12.558-4.297,25.284-2.897,35.578,5.844
			c5.044,4.283,8.887,9.764,12.114,15.488c1.733,3.074,3.203,6.301,4.524,9.571c1.278,3.166,1.776,6.956,4.37,9.31
			c1.209,1.097,3.374,0.736,3.786-1c0.924-3.888-1.258-7.76-2.718-11.32c-1.534-3.739-3.322-7.349-5.346-10.847
			c-3.723-6.438-8.567-12.267-14.397-16.889c-11.484-9.105-25.842-10.66-39.539-6.061c-3.116,1.046-2.793,6.314,0.813,6.013
			c10.708-0.895,16.932,9.999,20.688,18.456c2.358,5.309,4.103,11.06,5.271,16.745c0.899,4.381,0.541,9.965,2.649,13.933
			C369.93,264.06,370.939,263.976,371.338,263.347L371.338,263.347z"/>
	</g>
</g>
<g>
	<g>
		<path fill="#CB6828" d="M382.599,264.868c-0.03-0.125-0.061-0.249-0.091-0.374c-0.085-0.356,0.043-0.677-0.106-0.309
			c0.296-0.729-0.069-1.657-0.578-2.185c-0.16-0.167-0.433-0.62-0.009,0.041c-0.118,0.917-0.237,1.835-0.355,2.753
			c0.005-0.004,0.009-0.007,0.013-0.011c-0.918,0.119-1.836,0.237-2.754,0.355c-0.192-0.115,0.334,0.263,0.561,0.444
			c0.183,0.146,0.34,0.411,0.487,0.588c0.463,0.561,0.917,1.131,1.396,1.677c1.097,1.251,3.622,0.676,3.91-1.032
			c-0.065,0.391-0.073,0.091,0.164-0.203c0.431-0.536,0.736-1.126,0.736-1.833c0-1.326-0.983-2.153-2.001-2.809
			c-2.321-1.498-4.354,1.71-2.774,3.596c1.141,1.362,1.131,3.625,3.147,4.208c2.932,0.847,4.152-4.136,4.995-5.919
			c-1.271-0.344-2.54-0.688-3.811-1.032c-0.008,0.081-0.016,0.161-0.023,0.242c0.199-0.481,0.398-0.962,0.598-1.444
			c-0.023,0.024-0.047,0.049-0.071,0.074c0.824-0.106,1.648-0.212,2.473-0.319c0.738,0.416,0.066-0.238-0.137-0.696
			c-0.765-1.719-3.206-1.013-3.694,0.483c-0.605,1.856-0.852,3.862-1.397,5.755c-0.261,0.905,0.473,1.939,1.443,1.895
			c1-0.046,2.005-0.128,3.005-0.13c1.763-0.002,1.764-2.736,0-2.733c-0.05,0-0.101,0-0.15,0c0.121,0.895,0.242,1.79,0.363,2.685
			c2.485-0.664,1.944-6.138,1.944-8.058c0.001-1.098-1.134-1.595-2.04-1.17c-1.417,0.664-3.099,1.16-4.313,2.183
			c-1.208,1.017-2.041,2.586-2.853,3.91c-0.877,1.43,1.011,2.587,2.162,1.668c1.847-1.475,5.775-6.441,1.662-7.931
			c-4.186-1.516-6.066,5.051-6.566,7.784c-0.14,0.761,0.502,1.688,1.373,1.374c1.57-0.568,3.569-0.807,4.909-1.858
			c1.426-1.12,1.97-4.08,2.623-5.636c0.469-1.119-1.268-2.07-2.024-1.178c-1.646,1.94-3.304,4.05-5.427,5.493
			c-0.913,0.621-0.604,2.101,0.573,2.116c1.052,0.014,2.098,0.063,3.15,0.048c1.488-0.021,2.977,0.412,4.463,0.548
			c0.346,0.032,0.589-0.302,0.608-0.608c0.095-1.494,0.201-2.995,0.149-4.493c-0.023-0.664-0.807-0.998-1.294-0.536
			c-2.242,2.128-3.78,4.562-5.483,7.094c-0.16,0.237,0.055,0.53,0.31,0.54c4.559,0.182,3.815-5.072,5.022-8.149
			c0.118-0.302-0.338-0.457-0.5-0.211c-1.814,2.767-0.222,7.146-4.522,7.642c0.104,0.18,0.207,0.36,0.31,0.54
			c0.571-1.222,1.311-2.389,2.189-3.417c1.084-1.268,2.49-1.931,3.747-2.968c-0.432-0.178-0.862-0.357-1.294-0.536
			c-0.052,1.498,0.055,3,0.149,4.493c0.203-0.203,0.405-0.406,0.608-0.608c-1.657,0.057-3.116-0.142-4.635-0.853
			c-0.963-0.451-1.916-0.723-2.979-0.797c0.191,0.705,0.382,1.41,0.573,2.116c2.416-1.446,4.192-3.618,5.993-5.741
			c-0.675-0.393-1.35-0.786-2.024-1.178c-0.545,1.298-0.972,3.425-1.897,4.471c-0.657,0.742-2.926,1.117-3.893,1.514
			c0.458,0.458,0.916,0.916,1.373,1.374c0.293-1.575,1.204-5.751,3.424-5.936c0.179-0.015,0.219-0.015,0.142,0.398
			c-0.23,1.243-1.534,2.236-2.481,2.929c0.627,0.627,1.255,1.255,1.883,1.883c0.669-1.021,1.265-2.56,2.279-3.306
			c1.117-0.822,2.632-1.255,3.879-1.835c-0.681-0.39-1.36-0.78-2.04-1.17c-0.003,0.815-0.03,1.63-0.068,2.444
			c-0.034,0.738-0.095,1.473-0.177,2.207c-0.033,0.295-0.099,0.586-0.164,0.875c-0.134,0.597-0.169,0.059,0.449-0.104
			c-1.502,0.396-1.177,2.682,0.363,2.685c0.05,0,0.101,0,0.15,0c1.764,0.003,1.763-2.731,0-2.733c-1-0.002-2.005-0.084-3.005-0.13
			c0.481,0.631,0.962,1.263,1.443,1.895c0.728-1.864,1.75-3.603,2.409-5.477c-1.3,0-2.599,0-3.898,0
			c0.412,0.985,0.808,2.089,1.771,2.663c0.791,0.471,1.824,0.322,2.473-0.319c0.524-0.518,0.616-1.06,0.701-1.758
			c0.246-2.026-2.943-2.787-3.811-1.032c-0.568,1.15-1.096,2.315-1.75,3.42c-0.189,0.32-0.389,0.633-0.605,0.936
			c0.619-0.981,1.689-0.905,3.212,0.228c-0.1-0.185-0.084-0.131,0.046,0.159c-0.643-1.542-1.238-2.877-2.275-4.207
			c-0.925,1.199-1.85,2.397-2.774,3.596c-1.2-0.834,0.94-3.278-0.271-1.984c-0.434,0.462-0.704,1.016-0.829,1.632
			c1.303-0.344,2.606-0.688,3.91-1.032c-0.968-1.184-2.029-2.666-3.459-3.325c-0.94-0.435-1.978-0.418-2.754,0.355
			c-0.004,0.004-0.007,0.008-0.011,0.012c-0.95,0.947-0.771,2.247,0,3.213c0.114,0.144,0.265,0.26,0.4,0.382
			c0.8,0.72,1.766,0.816,2.722,0.351c-1.145,0.557-0.699,0.147-0.011,0.239c0.168,0.022,0.337,0.044,0.506,0.065
			C382.376,265.897,382.704,265.3,382.599,264.868L382.599,264.868z"/>
	</g>
</g>
<g>
	<g>
		<path fill="#CB6828" d="M370.372,129.15c0.011-5.669-7,0.111-8.268,1.69c-4.287,5.338-7.253,12.056-8.814,18.692
			c-1.299,5.518-1.611,13.065,3.68,16.682c2.752,1.881,6.114,2.179,9.354,1.896c2.377-0.208,4.703-0.794,6.983-1.472
			c1.494-0.444,2.972-0.936,4.448-1.431c1.44-0.482,1.948-2.065,3.256-2.76c-1.135-0.298-2.271-0.595-3.405-0.893
			c0.067,0.103,0.134,0.205,0.201,0.308c1.34,2.044,4.616,1.298,4.646-1.258c0.019-1.498,0.036-2.996,0.055-4.494
			c0.029-2.428-2.709-3.098-4.35-1.802c-8.142,6.431-18.423,19.248-6.617,27.532c8.621,6.05,26.506,3.257,32.93-4.963
			c1.659-2.123-0.341-4.876-2.863-3.711c-4.501,2.077-7.999,4.822-13.001,5.949c-4.004,0.903-8.258,0.685-12.132-0.636
			c-11.996-4.091,0.252-16.39,5.287-20.567c-1.45-0.601-2.899-1.201-4.35-1.802c0.019,1.498,0.036,2.996,0.055,4.494
			c1.549-0.419,3.098-0.839,4.646-1.258c-0.07-0.102-0.14-0.203-0.21-0.304c-0.779-1.129-2.155-1.597-3.405-0.893
			c-1.985,1.119-3.104,2.864-5.363,3.726c-1.855,0.709-3.813,1.172-5.76,1.548c-2.548,0.492-5.44,0.539-7.738-0.799
			c-3.793-2.208-2.877-8.448-2.159-11.936c1.064-5.163,3.252-10.125,6.001-14.603c1.276-2.079,4.398-6.114,6.014-6.056
			C369.973,130.046,370.371,129.616,370.372,129.15L370.372,129.15z"/>
	</g>
</g>
</svg>
