<?xml version="1.0" encoding="utf-8"?>
<!-- Generator: Adobe Illustrator 16.0.0, SVG Export Plug-In . SVG Version: 6.00 Build 0)  -->
<!DOCTYPE svg PUBLIC "-//W3C//DTD SVG 1.1//EN" "http://www.w3.org/Graphics/SVG/1.1/DTD/svg11.dtd">
<svg version="1.1" id="Layer_1" xmlns="http://www.w3.org/2000/svg" xmlns:xlink="http://www.w3.org/1999/xlink" x="0px" y="0px"
	 width="521.07px" height="508.11px" viewBox="0 0 521.07 508.11" enable-background="new 0 0 521.07 508.11" xml:space="preserve">
<g id="XMLID_1_">
	<g>
		<path fill="#016699" d="M520.376,120.438c1.52,43.03-5.87,86.27-21.87,126.25c-15.62,39.03-38.88,74.7-65.851,106.819
			c-27.31,32.521-58.529,61.95-91.779,88.33c-32.59,25.851-68.71,48.24-109.22,59.091c-40.29,10.79-82.74,8.84-121.01-8.25
			c-35.42-15.811-65.81-42.98-85.92-76.11c-19.8-32.64-31.5-75.49-19.17-112.89c11.36-34.45,43.45-51.881,77.27-58.371
			c43.63-8.38,88.48-1.29,132.29-8.16c40.08-6.28,77.47-23.3,105.03-53.59c15.94-17.53,27.99-38.24,37.181-60.01
			c4.529-10.75,8.39-21.79,11.75-32.97c3-9.99,4.399-21.64,9.56-30.84c6.08-10.86,11.6-20.29,19.86-29.8
			c12.22-14.07,28.47-28.16,47.949-29.36c15.54-0.96,29.391,7.05,39.74,18.08C511.355,45.448,519.126,84.938,520.376,120.438z"/>
	</g>
	<g>
		<path fill="none" stroke="#016699" stroke-miterlimit="10" d="M398.496,29.938c-8.261,9.51-13.78,18.94-19.86,29.8
			c-5.16,9.2-6.56,20.85-9.56,30.84c-3.36,11.18-7.221,22.22-11.75,32.97c-9.19,21.77-21.24,42.48-37.181,60.01
			c-27.56,30.29-64.95,47.31-105.03,53.59c-43.81,6.87-88.66-0.22-132.29,8.16c-33.82,6.49-65.91,23.92-77.27,58.371
			c-12.33,37.399-0.63,80.25,19.17,112.89c20.11,33.13,50.5,60.3,85.92,76.11c38.27,17.09,80.72,19.04,121.01,8.25
			c40.51-10.851,76.63-33.24,109.22-59.091c33.25-26.38,64.47-55.81,91.779-88.33c26.971-32.119,50.23-67.789,65.851-106.819
			c16-39.98,23.39-83.22,21.87-126.25c-1.25-35.5-9.021-74.99-34.19-101.78c-10.35-11.03-24.2-19.04-39.74-18.08
			C426.966,1.778,410.716,15.868,398.496,29.938z"/>
	</g>
</g>
</svg>
