<?xml version="1.0" encoding="utf-8"?>
<!-- Generator: Adobe Illustrator 16.0.0, SVG Export Plug-In . SVG Version: 6.00 Build 0)  -->
<!DOCTYPE svg PUBLIC "-//W3C//DTD SVG 1.1//EN" "http://www.w3.org/Graphics/SVG/1.1/DTD/svg11.dtd">
<svg version="1.1" xmlns="http://www.w3.org/2000/svg" xmlns:xlink="http://www.w3.org/1999/xlink" x="0px" y="0px"
	 width="168.864px" height="154.427px" viewBox="0 0 168.864 154.427" enable-background="new 0 0 168.864 154.427"
	 xml:space="preserve">
<g id="Layer_1">
	<g>
		<g>
			<path d="M94.208,6.628c-3.71,26.016-14.787,49.707-28.2,72.055c-6.834,11.387-14.338,22.353-21.736,33.376
				c-3.646,5.433-7.375,10.816-10.897,16.33c-2.738,4.284-7.767,9.888-7.817,15.136c-0.015,1.594,1.659,2.318,2.962,1.7
				c4.664-2.21,7.868-9.253,10.768-13.38c3.766-5.357,7.423-10.794,11.122-16.199c7.497-10.956,14.757-22.077,21.532-33.495
				c13.511-22.77,24.672-47.425,28.437-73.823C100.953,4.295,94.789,2.557,94.208,6.628L94.208,6.628z"/>
		</g>
	</g>
	<g>
		<g>
			<path d="M161.108,11.13c-1.156,5.181-1.159,10.653-2.146,15.9c-1.171,6.228-2.985,12.326-5.05,18.309
				c-4.363,12.638-10.476,24.679-17.197,36.211c-6.743,11.57-14.503,22.479-22.911,32.89c-3.665,4.538-7.527,8.941-11.445,13.262
				c-3.571,3.939-7.917,7.681-10.71,12.237c-1.082,1.765,0.722,4.45,2.819,3.667c10.268-3.837,18.868-14.671,25.754-22.748
				c9.166-10.751,17.206-22.543,24.386-34.695c7.202-12.188,13.256-25.073,17.844-38.47c2.054-5.997,3.667-12.139,4.844-18.366
				c1.089-5.768,2.261-12.38,1.066-18.198C167.616,7.493,161.903,7.564,161.108,11.13L161.108,11.13z"/>
		</g>
	</g>
	<g>
		<g>
			<path d="M90.778,6.1c-4.352,1.342-6.101,7.204-0.672,8.697c3.167,0.871,7.08,0.801,10.36,1.217
				c4.399,0.559,8.806,0.635,13.233,0.508c9.041-0.258,18.171-1.656,26.998-3.567c7.823-1.693,18.301-3.147,24.64-8.361
				c1.448-1.191,0.623-3.775-1.102-4.172c-5.502-1.266-12.183,0.625-17.644,1.677c-7.376,1.422-14.724,2.954-22.162,4.035
				c-7.389,1.074-14.911,1.361-22.354,0.811C97.74,6.624,91.259,4.546,87.647,8.019c1.179-0.312,2.357-0.623,3.536-0.935
				c-0.057-0.018-0.114-0.035-0.171-0.053c0.852,1.119,1.704,2.238,2.555,3.356c-0.219,1.967,0.421-0.923,0.454-1.044
				C94.521,7.452,92.732,5.497,90.778,6.1L90.778,6.1z"/>
		</g>
	</g>
	<g>
		<g>
			<path d="M83.652,59.401c5.417,1.996,12.27,1.5,17.961,1.255c6.95-0.299,13.863-1.099,20.751-2.046
				c6.57-0.903,13.09-2.149,19.568-3.56c5.855-1.275,13.613-2.629,17.914-7.111c1.482-1.545,0.92-4.417-1.303-4.936
				c-5.654-1.319-11.916,1.063-17.437,2.303c-6.467,1.452-12.893,2.935-19.429,4.062c-6.645,1.146-13.342,1.903-20.065,2.386
				c-5.831,0.418-12.313-0.064-17.961,1.478C80.41,54.116,80.804,58.352,83.652,59.401L83.652,59.401z"/>
		</g>
	</g>
	<g>
		<g>
			<path d="M31.778,132.004c-1.189-0.696-2.708-1.033-4.072-0.853c-0.41,0.028-0.82,0.053-1.23,0.073
				c-0.681,0.092-1.363,0.183-2.044,0.275c0.905-0.114,0.877-0.139-0.081-0.074c-1.053,0.057-2.099,0.181-3.138,0.372
				c2.006-0.36-0.474-0.045-0.833-0.05c2.545,0.036-1.294-0.632,1.081,0.403c-1.682-0.733,0.274,0.376,0.682,0.956
				c0.789,1.828,0.983,3.689,0.583,5.584c0.498-1.875,0.355-2.658,0.37-4.22c-0.03,3.125-0.284,1.831,0.093,0.624
				c-0.948,3.037-0.468,1.108,0.014,0.243c0.253-0.432,0.524-0.854,0.811-1.265c-1.743,2.604-0.366,0.498,0.139-0.066
				c0.541-0.604,1.139-1.154,1.734-1.703c2.067-1.908-2.13,1.47,0.139-0.143c0.764-0.543,4.677-2.417,1.2-0.978
				c0.659-0.272,1.348-0.451,2.038-0.622c-3.173,0.788-1.832,0.171-0.62,0.187c-2.194-0.387-2.671-0.421-1.431-0.103
				c-0.419-0.118-3.7-2.443-2.319-1.135c-3.853-3.648-2.731-8.526-0.171-11.745c-0.271,0.315-0.562,0.612-0.869,0.892
				c-1.771,1.711,2.469-1.708,0.297-0.272c-0.628,0.415-1.3,0.763-1.965,1.112c-2.454,1.287,2.724-1.026,0.131-0.013
				c-1.178,0.46-2.4,0.795-3.63,1.086c-0.234,0.047-0.468,0.095-0.702,0.143c3.11-0.393,2.659-0.326-1.353,0.202
				c-1.48,0.216-2.787,0.966-4.136,1.59c-3.834,1.774-6.109,6.629-6.109,10.65c0,5.712,3.809,10.14,9.055,11.893
				c6.169,2.062,13.908-1.168,19.32-4.036c6.686-3.543,11.372-9.292,12.228-16.87c0.916-8.104-6.553-15.343-13.888-17.135
				c-6.644-1.623-13.734,0.577-19.126,4.538c-4.735,3.479-9.162,7.844-11.558,13.306c-1.449,3.303-2.548,6.52-2.402,10.206
				c0.181,4.578,2.405,7.818,5.449,10.918c6.001,6.111,14.679,5.892,21.914,2.533C32.388,146.181,38.486,135.931,31.778,132.004
				L31.778,132.004z"/>
		</g>
	</g>
	<g>
		<g>
			<path d="M91.04,131.602c-1.239-0.504-2.386-0.468-3.697-0.234c-0.816,0.137-0.735,0.135,0.243-0.008
				c-0.806-0.004-1.581,0.13-2.324,0.402c0.392-0.127-4.589,1.94-1.639,0.787c-1.884,0.736,1.716,0.133-0.01,0.062
				c1.841,0.763,3.683,1.525,5.524,2.288c0.534,0.6,1.672,2.722,1.735,2.957c-0.274-0.8-0.606-1.573-0.996-2.32
				c-0.415-0.775-0.191-0.242,0.669,1.6c-0.411-1.276,0.239,2.995,0.242,1.626c0.005-1.565-0.249-2.297-0.636-3.52
				c-0.254-0.802-0.304-2.374,0.122,1.375c-0.055-0.487-0.039-0.981-0.017-1.47c0.073-1.626-0.585,3.103-0.066,0.734
				c0.122-0.555,0.307-1.094,0.5-1.627c-1.256,3.484-0.022,0.292,0.671-0.683c-1.983,2.786-0.738,1.011-0.066,0.373
				c1.225-1.163-2.408,1.57-0.173,0.211c0.708-0.431,2.403-0.968-0.682,0.212c0.678-0.259,1.393-0.405,2.104-0.536
				c-3.457,0.638-0.819,0.204,0.157,0.239c1.761,0.064-2.537-0.556,0.543,0.153c-2.656-3.489-5.312-6.978-7.968-10.466
				c-0.117,2.292,0.529-2.73,0.073-0.361c-0.176,0.918-0.477,1.811-0.78,2.693c-0.835,2.43,1.065-2.258-0.055,0.106
				c-0.435,0.917-0.949,1.795-1.471,2.665c-0.39,0.648-0.825,1.269-1.259,1.887c1.83-2.603-0.038-0.033-0.536,0.506
				c-0.45,0.486-0.942,0.928-1.437,1.367c2.49-2.207,0.784-0.617-0.096-0.149c3.112-1.652,7.613-0.935,10.489,3.044
				c-2.606-3.605-5.934-6.808-10.766-6.725c-7.751,0.134-13.145,8.273-10.296,15.604c2.23,5.741,7.917,10.723,14.512,9.953
				c5.248-0.612,9.409-2.821,13.071-6.656c5.932-6.212,10.229-15.265,10.257-23.934c0.014-4.483-3.286-9.635-7.968-10.466
				c-6.394-1.134-12.872-0.892-18.526,2.672c-4.819,3.038-8.154,7.811-9.747,13.239c-1.442,4.914-0.858,9.782,1.215,14.375
				c1.759,3.896,6.089,5.126,9.867,5.603c3.71,0.468,6.502-2.177,8.534-4.813c-1.557,1.197-3.113,2.394-4.669,3.59
				c2.817-0.854,6.278-2.928,7.67-5.661C95.263,138.561,95.532,133.431,91.04,131.602L91.04,131.602z"/>
		</g>
	</g>
</g>
<g id="Layer_2">
</g>
</svg>
