<?xml version="1.0" encoding="utf-8"?>
<!-- Generator: Adobe Illustrator 16.0.0, SVG Export Plug-In . SVG Version: 6.00 Build 0)  -->
<!DOCTYPE svg PUBLIC "-//W3C//DTD SVG 1.1//EN" "http://www.w3.org/Graphics/SVG/1.1/DTD/svg11.dtd">
<svg version="1.1" id="Layer_1" xmlns="http://www.w3.org/2000/svg" xmlns:xlink="http://www.w3.org/1999/xlink" x="0px" y="0px"
	 width="64.353px" height="118.116px" viewBox="0 0 64.353 118.116" enable-background="new 0 0 64.353 118.116"
	 xml:space="preserve">
<g>
	<g>
		<path d="M31.142,9.851c11.772,15.514,14.974,37.512,13.402,56.441c-0.811,9.763-3.486,19.558-8.664,27.921
			c-5.193,8.388-13.416,13.077-22.422,16.478c-2.552,0.964-2.3,4.89,0.665,4.911c23.775,0.174,34.683-26.293,37.098-46.138
			c2.548-20.934-1.406-46.637-16.054-62.718C33.231,4.62,29.371,7.516,31.142,9.851L31.142,9.851z"/>
	</g>
</g>
<g>
	<g>
		<path d="M31.369,2.628c-0.884,8.708,4.095,16.35,11.278,20.882c5.702,3.598,17.246,6.074,21.492-0.928
			c0.514-0.846,0.072-2.256-0.989-2.433c-5.546-0.922-10.596,0.541-15.981-2.094c-6.411-3.136-9.534-9.364-10.582-16.133
			C36.093-1.263,31.646-0.111,31.369,2.628L31.369,2.628z"/>
	</g>
</g>
<g>
	<g>
		<path d="M27.63,97.362c-1.947,0.726-2.484,0.692-5.046,1.315c-0.382,0.093-3.149,0.543-1.241,0.359
			c-0.499,0.048-3.241-0.234-1.092,0.105c-0.417-0.074-0.829-0.173-1.234-0.295c1.058,0.485,1.172,0.526,0.341,0.124
			c-2.186-1.082,0.441,0.63-0.543-0.271c-2.19-1.697-2.486-1.923-0.888-0.678c-0.272-0.236-0.527-0.491-0.764-0.764
			c0.87,1.199,1.06,1.392,0.567,0.576c0.546,1.44,0.688,1.693,0.426,0.76c0.303,0.93,0.301,1.858-0.005,2.785
			c0.258-0.929,0.136-0.767-0.367,0.487c0.197-0.416,0.424-0.815,0.681-1.198c-0.702,0.857-0.681,0.866,0.062,0.025
			c0.949-1.032,1.102-1.057,1.861-1.641c0.448-0.344,3.432-1.779,1.241-0.933c0.427-0.15,0.862-0.27,1.306-0.359
			c-1.438,0.151-1.65,0.209-0.634,0.171c-1.515-0.271-1.777-0.301-0.785-0.089c0.951,0.312,0.716,0.199-0.705-0.337
			c1.335,0.651-1.479-1.57,0.224,0.222c-0.873-1.199-1.036-1.386-0.491-0.56c1.072,1.685-0.685-2.09-0.033-0.17
			c0.842,2.479,0.049-1.221,0.113,0.396c0.063,1.575,0.597-2.085-0.077,0.528c-0.33,0.965-0.247,0.811,0.249-0.462
			c-0.2,0.4-0.424,0.786-0.672,1.159c1.563-2.515-1.698,1.289,0.34-0.268c-0.446,0.32-0.91,0.615-1.389,0.884
			c1.075-0.365,1.167-0.39,0.276-0.074c-2.474,0.892,1.196,0.079-0.065,0.09c2.542-0.021,4.374,1.578,5.369,4.152
			c-0.823-2.13,0.059,1.949-0.028,0.355c-0.135-2.451-0.405,1.67-0.107,0.021c0.128-0.709,0.358-1.396,0.597-2.073
			c-0.918,2.606-0.041,0.259,0.327-0.368c1.272-2.167-0.656,0.627,0.386-0.531c0.409-0.453,2.525-1.996,0.53-0.592
			c0.475-0.334,2.958-1.389,0.755-0.548c0.428-0.151,0.863-0.279,1.305-0.385c2.214-0.59-1.906,0.073,0.5-0.05
			c-2.837-2.16-5.675-4.321-8.513-6.481c0.41,1.563,0.272,1.034-0.445,2.162c0.115-0.358,0.351-0.603,0.707-0.733
			c-0.891,0.507-0.943,0.554-0.155,0.141c0.955-0.088,0.904-0.113-0.153-0.077c1.224,0.348,0.66,0.302-1.691-0.138
			c-9.754-0.565-11.484,11.839-3.399,15.809c6.156,3.022,13.16,0.999,17.743-3.842c4.608-4.869,5.747-11.645,4.419-18.015
			c-0.795-3.811-4.775-6.481-8.513-6.481c-8.14,0.001-14.686,4.019-19.322,10.5c-3.869,5.409-4.985,13.361-1.888,19.333
			c4.171,8.041,13.906,8.045,20.956,4.232c7.953-4.302,11.85-13.221,10.39-21.941c-1.397-8.351-8.206-13.387-16.167-14.452
			c-3.752-0.503-8.104,1.268-11.196,3.211c-3.382,2.127-7.651,5.563-9.915,10.05c-4.38,8.679-0.328,18.344,8.586,21.799
			c6.5,2.52,15.571,0.808,20.385-4.203c2.185-2.273,2.806-5.042,3.016-8.072C33.967,99.054,30.48,96.301,27.63,97.362L27.63,97.362z
			"/>
	</g>
</g>
</svg>
