<?xml version="1.0" encoding="utf-8"?>
<!-- Generator: Adobe Illustrator 16.0.0, SVG Export Plug-In . SVG Version: 6.00 Build 0)  -->
<!DOCTYPE svg PUBLIC "-//W3C//DTD SVG 1.1//EN" "http://www.w3.org/Graphics/SVG/1.1/DTD/svg11.dtd">
<svg version="1.1" xmlns="http://www.w3.org/2000/svg" xmlns:xlink="http://www.w3.org/1999/xlink" x="0px" y="0px"
	 width="565.039px" height="218.966px" viewBox="0 0 565.039 218.966" enable-background="new 0 0 565.039 218.966"
	 xml:space="preserve">
<g id="Layer_2">
	<path fill="#C2B59B" stroke="#C2B59B" stroke-miterlimit="10" d="M553.091,175.737c0,7.18-5.372,13-12,13H28.471
		c-6.627,0-12-5.82-12-13v-78c0-7.18,5.373-13,12-13h512.62c6.628,0,12,5.82,12,13V175.737z"/>
	<g>
		<g>
			<path fill="#FCF9CE" d="M42.836,112.005c7.418-2.777,13.528-1.208,21.004,0.077c1.333,0.229,2.381-1.259,1.357-2.331
				c-6.283-6.573-16.566-5.257-24.173-2.044C38.577,108.741,40.349,112.936,42.836,112.005L42.836,112.005z"/>
		</g>
	</g>
	<g>
		<g>
			<path fill="#FCF9CE" d="M87.211,109.706c3.833,0.155,7.667,0.31,11.5,0.465c3.835,0.155,8.342,0.627,11.929-0.878
				c1.526-0.64,1.526-2.471,0-3.111c-3.223-1.352-6.881-0.918-10.321-0.891c-4.369,0.035-8.742,0.301-13.108,0.478
				C84.673,105.871,84.673,109.604,87.211,109.706L87.211,109.706z"/>
		</g>
	</g>
	<g>
		<g>
			<path fill="#FCF9CE" d="M141.211,112.542c4.958,0.14,9.917,0.169,14.875,0.354c4.721,0.177,9.411,1.47,14.125,1.235
				c1.465-0.073,1.799-1.785,0.704-2.599c-7.693-5.713-20.823-2.951-29.704-2.601C138.889,109.024,138.881,112.476,141.211,112.542
				L141.211,112.542z"/>
		</g>
	</g>
	<g>
		<g>
			<path fill="#FCF9CE" d="M55.211,137.351c4.496-0.557,8.917-0.692,13.442-0.444c4.339,0.237,8.643,1.106,12.965,0.308
				c1.255-0.232,1.55-2.263,0.366-2.799c-7.486-3.39-19.58-3.211-27.202-0.233C53.231,134.788,53.266,137.592,55.211,137.351
				L55.211,137.351z"/>
		</g>
	</g>
	<g>
		<g>
			<path fill="#FCF9CE" d="M123.211,133.651c6.751,0.901,14.224,1.597,21,0.836c1.994-0.224,2.346-2.698,0.465-3.438
				c-6.578-2.588-14.568-2.144-21.465-1.227C120.75,130.15,120.752,133.323,123.211,133.651L123.211,133.651z"/>
		</g>
	</g>
	<g>
		<g>
			<path fill="#FCF9CE" d="M93.71,155.557c5.306,0.962,11.652,0.908,16.851-0.554c1.253-0.353,1.253-2.179,0-2.531
				c-5.199-1.462-11.545-1.516-16.851-0.554C91.902,152.246,91.902,155.229,93.71,155.557L93.71,155.557z"/>
		</g>
	</g>
	<g>
		<g>
			<path fill="#FCF9CE" d="M168.608,152.926c3.521,0.514,7.058,0.658,10.604,0.899c3.566,0.243,7.13,1.113,10.654,0.285
				c2.06-0.483,2.433-3.496,0.588-4.498c-3.064-1.664-6.425-1.626-9.849-1.7c-4.017-0.087-8.02,0.059-11.997,0.637
				C166.431,148.865,166.432,152.608,168.608,152.926L168.608,152.926z"/>
		</g>
	</g>
	<g>
		<g>
			<path fill="#FCF9CE" d="M368.211,113.585c3.74,0.091,7.455,0.314,11.167-0.241c0.604-0.09,0.604-1.123,0-1.213
				c-3.712-0.556-7.427-0.333-11.167-0.241C367.119,111.917,367.119,113.558,368.211,113.585L368.211,113.585z"/>
		</g>
	</g>
	<g>
		<g>
			<path fill="#FCF9CE" d="M424.211,111.05c4.515,0.447,9.005,1.047,13.527,1.433c3.559,0.304,7.053,1.314,10.411-0.14
				c1.034-0.448,1.254-2.224,0.376-2.92c-2.682-2.127-5.805-2.014-9.151-2.057c-5.116-0.066-10.089,0.559-15.163,1.06
				C422.522,108.591,422.523,110.882,424.211,111.05L424.211,111.05z"/>
		</g>
	</g>
	<g>
		<g>
			<path fill="#FCF9CE" d="M514.372,112.897c-0.093,0.078-1.756,0.38,0.125,0.225c0.753-0.063,1.501-0.05,2.256-0.083
				c2.736-0.118,5.503,0.412,8.196,0.811c4.044,0.6,9.61,2.773,13.611,1.152c0.698-0.283,1.347-1.182,0.784-1.928
				c-3.304-4.389-11.142-4.56-16.119-5.093c-4.269-0.457-8.992-0.511-11.431,2.928C510.645,112.531,513.04,114.015,514.372,112.897
				L514.372,112.897z"/>
		</g>
	</g>
	<g>
		<g>
			<path fill="#FCF9CE" d="M399.211,141.749c3.942,0.285,7.813,0.122,11.75-0.12c3.418-0.21,7.329,0.324,10.599-0.626
				c1.07-0.312,1.323-1.834,0.313-2.398c-6.092-3.411-16.176,0.421-22.662,1.121C397.926,139.864,397.892,141.653,399.211,141.749
				L399.211,141.749z"/>
		</g>
	</g>
	<g>
		<g>
			<path fill="#FCF9CE" d="M468.211,139.815c3.651,0.031,7.306-0.156,10.956-0.214c3.383-0.052,7.646,0.923,10.762-0.637
				c0.809-0.404,0.929-1.633,0.288-2.233c-2.514-2.352-6.664-1.783-9.838-1.714c-4.063,0.088-8.107,0.518-12.168,0.642
				C465.538,135.74,465.526,139.792,468.211,139.815L468.211,139.815z"/>
		</g>
	</g>
	<g>
		<g>
			<path fill="#FCF9CE" d="M528.211,142.624c2.694,0.001,5.385,0.021,8.077,0.156c2.414,0.121,4.913,0.897,7.25,0.144
				c0.795-0.256,1.312-1.441,0.543-2.057c-1.955-1.564-4.193-1.574-6.64-1.783c-3.065-0.263-6.157-0.232-9.23-0.233
				C525.778,138.85,525.778,142.623,528.211,142.624L528.211,142.624z"/>
		</g>
	</g>
	<g>
		<g>
			<path fill="#FCF9CE" d="M410.75,160.658c7.329-3.666,16.329,0.825,23.956-1.128c1.809-0.463,1.744-3.089,0-3.586
				c-7.938-2.261-18.134-1.825-25.032,2.872C408.537,159.59,409.514,161.276,410.75,160.658L410.75,160.658z"/>
		</g>
	</g>
	<g>
		<g>
			<path fill="#FCF9CE" d="M522.211,162.46c2.692,0.017,5.385,0.033,8.077,0.05c2.426,0.015,4.962,0.336,7.265-0.533
				c1.22-0.46,1.22-2.019,0-2.479c-2.303-0.869-4.839-0.548-7.265-0.533c-2.692,0.017-5.385,0.033-8.077,0.05
				C519.99,159.028,519.99,162.446,522.211,162.46L522.211,162.46z"/>
		</g>
	</g>
	<g>
		<g>
			<path fill="#999965" d="M43.579,153.031c5.807,1.305,13.345,0.952,19.003-0.949c1.328-0.446,1.328-2.243,0-2.689
				c-5.658-1.901-13.196-2.254-19.003-0.949C41.302,148.955,41.302,152.52,43.579,153.031L43.579,153.031z"/>
		</g>
	</g>
	<g>
		<g>
			<path fill="#999965" d="M130.706,152.53c3.909-0.904,7.942-0.672,11.826-1.633c1.15-0.284,1.151-2.036,0-2.32
				c-4.217-1.039-8.613-0.604-12.814,0.367C127.381,149.484,128.372,153.07,130.706,152.53L130.706,152.53z"/>
		</g>
	</g>
	<g>
		<g>
			<path fill="#999965" d="M163.211,133.542c5.645,0.265,11.911,1.223,17.363-0.486c1.304-0.408,1.304-2.229,0-2.637
				c-5.453-1.709-11.718-0.751-17.363-0.486C160.885,130.042,160.885,133.433,163.211,133.542L163.211,133.542z"/>
		</g>
	</g>
	<g>
		<g>
			<path fill="#999965" d="M91.211,132.323c2.014,0.029,3.997,0.489,6,0.48c0.99-0.004,1.332-1.131,0.754-1.82
				c-1.65-1.969-4.416-1.861-6.754-1.832C89.166,129.177,89.167,132.294,91.211,132.323L91.211,132.323z"/>
		</g>
	</g>
	<g>
		<g>
			<path fill="#999965" d="M189.211,109.515c2.059,0.072,4.035,0.223,6.023,0.799c2.014,0.583,3.835,1.488,5.977,1.256
				c1.089-0.118,2.208-1.096,1.767-2.319c-1.949-5.407-10.386-5.186-14.664-3.048C186.653,107.033,187.545,109.457,189.211,109.515
				L189.211,109.515z"/>
		</g>
	</g>
	<g>
		<g>
			<path fill="#999965" d="M401.775,109.319c3.197,0.617,7.026,0.907,10.002-0.614c0.731-0.374,0.731-1.562,0-1.936
				c-2.976-1.521-6.805-1.231-10.002-0.614C400.204,106.458,400.204,109.016,401.775,109.319L401.775,109.319z"/>
		</g>
	</g>
	<g>
		<g>
			<path fill="#999965" d="M361.495,140.766c5.276-0.756,10.742-0.03,15.942-1.211c0.811-0.185,0.812-1.451,0-1.635
				c-5.33-1.207-11.234-0.407-16.509,0.789C359.555,139.021,360.174,140.955,361.495,140.766L361.495,140.766z"/>
		</g>
	</g>
	<g>
		<g>
			<path fill="#999965" d="M440.619,138.214c4.585-1.023,9.417-0.181,13.92-1.29c1.177-0.29,1.178-2.084,0-2.373
				c-4.547-1.117-10.212-0.348-14.734,0.71C437.878,135.711,438.697,138.643,440.619,138.214L440.619,138.214z"/>
		</g>
	</g>
	<g>
		<g>
			<path fill="#999965" d="M471.211,110.159c3.017-0.232,5.861,0.02,8.845,0.503c3.008,0.488,5.814,1.817,8.835,2.235
				c1.209,0.167,1.971-1.029,1.171-2.011c-4.305-5.282-13.259-4.794-19.229-3.521C469.274,107.699,469.609,110.282,471.211,110.159
				L471.211,110.159z"/>
		</g>
	</g>
	<g>
		<g>
			<path fill="#999965" d="M463.87,155.977c3.903,0.62,8.845,1.134,12.64-0.158c1.067-0.363,1.067-1.799,0-2.162
				c-3.795-1.292-8.736-0.778-12.64-0.158C462.637,153.693,462.637,155.781,463.87,155.977L463.87,155.977z"/>
		</g>
	</g>
	<g>
		<g>
			<path fill="#999965" d="M501.287,139.319c3.236,1.375,6.638,3.016,10.23,2.525c0.888-0.121,1.057-1.371,0.507-1.92
				c-2.431-2.421-6.103-3.162-9.325-3.954C500.759,135.494,499.315,138.481,501.287,139.319L501.287,139.319z"/>
		</g>
	</g>
	<g>
		<g>
			<path fill="#999965" d="M338.714,78.234c-1.897-1.896-3.779-3.792-6.255-4.922c-0.567-0.259-1.05,0.516-0.496,0.85
				c2.167,1.306,3.967,3.3,5.745,5.078C338.358,79.889,339.363,78.883,338.714,78.234L338.714,78.234z"/>
		</g>
	</g>
</g>
<g id="Layer_1">
	<g id="XMLID_1_">
		<g>
			<path fill="#669966" d="M25.687,85.041c-2.11-0.18-4.18-0.49-6.14-1.51c12.65-11.19,27.3-17.15,43.58-22.89l0.16,0.32
				c47-23.37,102.42-42.72,159.89-54.87c82.6-16.67,160.04,6.82,227.16,32.58c40.01,15.15,73.57,33.34,105.83,53.79
				c-23.22-2.2-46.229-3.06-69.11-3.06c-55.96,0-111.199,5.14-167.079,8.37c-72.28,3.78-143.271-2.28-214.26-5.31
				c-27.1-1.51-52.91-7.58-80.02-7.58L25.687,85.041z"/>
		</g>
		<g>
			<path fill="none" stroke="#669966" stroke-miterlimit="10" d="M46.347,69.731c5.51-2.98,11.16-5.92,16.94-8.77
				c47-23.37,102.42-42.72,159.89-54.87c82.6-16.67,160.04,6.82,227.16,32.58c40.01,15.15,73.57,33.34,105.83,53.79
				c-23.22-2.2-46.229-3.06-69.11-3.06c-55.96,0-111.199,5.14-167.079,8.37c-72.28,3.78-143.271-2.28-214.26-5.31
				c-27.1-1.51-52.91-7.58-80.02-7.58"/>
			<path fill="none" stroke="#669966" stroke-miterlimit="10" d="M21.597,85.071c2.96,0.43,5.95,1.35,8.65,0.38
				c-1.52-0.22-3.05-0.28-4.56-0.41c-2.11-0.18-4.18-0.49-6.14-1.51c12.65-11.19,27.3-17.15,43.58-22.89"/>
		</g>
	</g>
	<g>
		<g>
			<path fill="#99CB99" d="M273.562,7.282c-1.888,7.558-0.731,15.451,1.858,22.673c0.312,0.868,1.566,0.73,1.611-0.218
				c0.34-7.252-1.921-14.344-0.171-21.545C277.382,6.049,274.096,5.141,273.562,7.282L273.562,7.282z"/>
		</g>
	</g>
	<g>
		<g>
			<path fill="#99CB99" d="M273.368,53.737c0.041,3.342-0.217,6.834,0.369,10.131c0.084,0.472,0.865,0.472,0.949,0
				c0.586-3.297,0.328-6.789,0.369-10.131C275.069,52.649,273.354,52.649,273.368,53.737L273.368,53.737z"/>
		</g>
	</g>
	<g>
		<g>
			<path fill="#99CB99" d="M231.855,15.945c-2.813,5.933-4.432,12.22-4.605,18.792c-0.029,1.115,1.569,1.268,1.888,0.255
				c1.846-5.863,2.75-11.872,5.429-17.463C235.439,15.711,232.722,14.118,231.855,15.945L231.855,15.945z"/>
		</g>
	</g>
	<g>
		<g>
			<path fill="#99CB99" d="M243.878,40.37c-1.059,5.255-2.805,10.984-2.604,16.368c0.032,0.857,1.337,1.376,1.747,0.473
				c2.229-4.908,2.505-10.842,3.524-16.105C246.881,39.365,244.23,38.619,243.878,40.37L243.878,40.37z"/>
		</g>
	</g>
	<g>
		<g>
			<path fill="#99CB99" d="M188.637,22.163c-3.077,3.155-6.154,6.184-8.438,9.983c-0.605,1.006,0.597,2.208,1.603,1.603
				c3.799-2.284,6.828-5.36,9.983-8.438C193.844,23.305,190.644,20.105,188.637,22.163L188.637,22.163z"/>
		</g>
	</g>
	<g>
		<g>
			<path fill="#99CB99" d="M143.762,39.968c-3.86,2.91-8.307,5.33-10.895,9.568c-0.237,0.389,0.309,0.805,0.626,0.483
				c3.343-3.391,7.335-5.742,11.168-8.513C145.588,40.836,144.674,39.281,143.762,39.968L143.762,39.968z"/>
		</g>
	</g>
	<g>
		<g>
			<path fill="#99CB99" d="M99.366,51.892c-2,2-4,4-6,6c-1.994,1.994-4.345,4.028-5.721,6.514c-0.321,0.58,0.318,1.219,0.897,0.897
				c2.22-1.229,4.065-3.272,5.848-5.055c2.222-2.222,4.444-4.444,6.667-6.667C102.147,52.492,100.457,50.801,99.366,51.892
				L99.366,51.892z"/>
		</g>
	</g>
	<g>
		<g>
			<path fill="#99CB99" d="M161.265,59.118c-4.598,2.396-9.643,6.37-11.904,11.122c-0.434,0.912,0.435,1.78,1.347,1.347
				c4.71-2.238,7.828-6.765,12.449-9.231C165.295,61.216,163.404,58.004,161.265,59.118L161.265,59.118z"/>
		</g>
	</g>
	<g>
		<g>
			<path fill="#99CB99" d="M195.341,58.229c-2.038,2.937-4.903,5.034-6.696,8.178c-0.36,0.63,0.542,1.382,1.03,0.795
				c2.33-2.797,5.308-4.931,7.406-7.955C197.825,58.175,196.077,57.169,195.341,58.229L195.341,58.229z"/>
		</g>
	</g>
	<g>
		<g>
			<path fill="#99CB99" d="M306.366,13.583c2.17,2.615,4.569,4.989,7.05,7.307c2.33,2.179,4.801,4.654,7.5,6.354
				c0.492,0.31,1.12-0.308,0.802-0.802c-1.739-2.701-4.431-4.896-6.708-7.146c-2.419-2.391-4.812-4.752-6.952-7.403
				C307.092,10.697,305.386,12.401,306.366,13.583L306.366,13.583z"/>
		</g>
	</g>
	<g>
		<g>
			<path fill="#99CB99" d="M354.399,18.549c4.246,4.508,8.873,9.005,14.327,12.018c0.98,0.542,1.883-0.7,1.165-1.509
				c-4.083-4.598-9.347-7.988-13.867-12.132C354.933,15.925,353.38,17.468,354.399,18.549L354.399,18.549z"/>
		</g>
	</g>
	<g>
		<g>
			<path fill="#99CB99" d="M425.499,46.45c2.495,2.482,5.793,6.519,9.495,7.079c0.888,0.134,1.467-0.977,0.632-1.5
				c-1.444-0.904-2.879-1.655-4.211-2.745c-1.596-1.305-3.038-2.802-4.49-4.259C426.006,44.103,424.577,45.532,425.499,46.45
				L425.499,46.45z"/>
		</g>
	</g>
	<g>
		<g>
			<path fill="#99CB99" d="M482.277,66.336c3.093,2.208,5.984,4.659,8.835,7.167c2.586,2.276,5.291,4.774,8.726,5.59
				c1.111,0.264,2.335-0.993,1.588-2.066c-1.985-2.851-4.972-4.822-7.714-6.893c-3.158-2.384-6.244-4.837-9.565-6.996
				C482.117,61.819,480.367,64.972,482.277,66.336L482.277,66.336z"/>
		</g>
	</g>
	<g>
		<g>
			<path fill="#99CB99" d="M421.75,67.526c4.628,2.035,7.723,4.944,10.914,8.758c0.513,0.612,1.492-0.043,1.293-0.752
				c-1.42-5.036-6.983-7.928-11.503-9.676C421.491,65.483,420.805,67.111,421.75,67.526L421.75,67.526z"/>
		</g>
	</g>
	<g>
		<g>
			<path fill="#99CB99" d="M372.998,62.447c1.153,2.311,2.414,4.555,3.805,6.731c1.242,1.944,2.719,4.461,4.829,5.55
				c1.063,0.549,2.064-0.534,1.571-1.571c-0.935-1.969-2.672-3.634-3.896-5.443c-1.444-2.135-2.704-4.396-3.882-6.688
				C374.594,59.41,372.191,60.833,372.998,62.447L372.998,62.447z"/>
		</g>
	</g>
	<g>
		<g>
			<path fill="#99CB99" d="M333.139,61.364c2.977,4.943,5.587,10.659,9.642,14.804c0.419,0.428,1.204-0.005,1.019-0.593
				c-1.75-5.526-5.556-10.514-8.516-15.465C334.463,58.737,332.31,59.988,333.139,61.364L333.139,61.364z"/>
		</g>
	</g>
	<g>
		<g>
			<path fill="#99CB99" d="M296.571,55.737c0.507,5.263-0.78,11.137,0.782,16.237c0.26,0.849,1.457,0.849,1.717,0
				c1.563-5.1,0.275-10.974,0.782-16.237C300.055,53.623,296.368,53.623,296.571,55.737L296.571,55.737z"/>
		</g>
	</g>
	<g>
		<g>
			<path fill="#99CB99" d="M251.653,68.827c-1.212,2.405-2.032,4.912-2.698,7.517c-0.67,2.623-1.586,5.674-1.244,8.394
				c0.173,1.377,1.985,2.176,2.795,0.757c2.505-4.389,2.212-10.167,4.263-14.846C255.683,68.565,252.717,66.714,251.653,68.827
				L251.653,68.827z"/>
		</g>
	</g>
	<g>
		<g>
			<path fill="#99CB99" d="M228.283,64.809c-4.63,3.922-7.751,10.839-7.103,16.928c0.098,0.917,1.422,1.536,1.922,0.521
				c2.631-5.353,3.565-10.971,7.243-15.858C231.299,65.132,229.342,63.913,228.283,64.809L228.283,64.809z"/>
		</g>
	</g>
	<g>
		<g>
			<path fill="#99CB99" d="M61.124,67.421c-3.391,1.179-6.715,3.446-9.161,6.068c-0.311,0.333,0.16,0.798,0.497,0.497
				c2.628-2.341,5.501-4.697,8.839-5.932C61.69,67.909,61.527,67.281,61.124,67.421L61.124,67.421z"/>
		</g>
	</g>
</g>
<g id="Layer_3">
	<ellipse fill="#C2B59B" stroke="#C2B59B" stroke-miterlimit="10" cx="284.211" cy="106.737" rx="78" ry="35"/>
</g>
<g id="Layer_4">
	<path stroke="#000000" stroke-miterlimit="10" d="M272.531,159.889c0,7.648-5.373,13.849-12,13.849h-14.64
		c-6.627,0-12-6.2-12-13.849v-39.302c0-7.649,5.373-13.85,12-13.85h14.64c6.627,0,12,6.201,12,13.85V159.889z"/>
	<path stroke="#000000" stroke-miterlimit="10" d="M333.532,159.889c0,7.648-5.373,13.849-12,13.849h-14.641
		c-6.627,0-12-6.2-12-13.849v-39.302c0-7.649,5.373-13.85,12-13.85h14.641c6.627,0,12,6.201,12,13.85V159.889z"/>
</g>
<g id="Layer_5">
	<g id="XMLID_2_">
		<g>
			<path fill="#6D6E71" d="M355.673,175.835c10.106-1.873,21.801-3.854,26.119,0.58c17.063,16.176-9.188,18.872-19.688,20.22
				C321.076,200.585,338.913,168.516,355.673,175.835z"/>
		</g>
		<g>
			<path fill="none" stroke="#6D6E71" stroke-miterlimit="10" d="M355.673,175.835c-5.276,0.984-10.106,1.928-13.257,1.928"/>
			<path fill="none" stroke="#6D6E71" stroke-miterlimit="10" d="M355.673,175.835c-16.761-7.319-34.598,24.75,6.431,20.8
				c10.501-1.348,36.751-4.044,19.688-20.22C377.474,171.98,365.78,173.962,355.673,175.835z"/>
			<path fill="none" stroke="#6D6E71" stroke-miterlimit="10" d="M356.854,176.415c-0.394-0.216-0.787-0.418-1.181-0.58"/>
		</g>
	</g>
	<g id="XMLID_3_">
		<g>
			<path fill="#6D6E71" d="M195.589,178.188c9.592-2.076,20.691-4.273,24.789,0.643c16.194,17.93-8.72,20.918-18.685,22.412
				C162.753,205.621,179.682,170.075,195.589,178.188z"/>
		</g>
		<g>
			<path fill="none" stroke="#6D6E71" stroke-miterlimit="10" d="M195.589,178.188c-5.007,1.091-9.591,2.137-12.581,2.137"/>
			<path fill="none" stroke="#6D6E71" stroke-miterlimit="10" d="M195.589,178.188c-15.907-8.113-32.836,27.433,6.104,23.055
				c9.965-1.494,34.879-4.482,18.685-22.412C216.28,173.915,205.181,176.112,195.589,178.188z"/>
			<path fill="none" stroke="#6D6E71" stroke-miterlimit="10" d="M196.71,178.831c-0.374-0.239-0.747-0.463-1.121-0.643"/>
		</g>
	</g>
	<g id="XMLID_4_">
		<g>
			<path fill="#6D6E71" d="M406.168,177.022c6.47-0.421,12.824,0.299,18.731,1.479c6.924,1.533,23.847,2.3,22.309,12.265
				c-1.538,9.964-19.231,10.73-26.154,9.197c-6.924-0.766-25.386-6.132-23.848-16.097c0.47-3.296,3.277-5.733,6.085-6.576
				C404.253,177.168,405.214,177.084,406.168,177.022z"/>
		</g>
		<g>
			<path fill="none" stroke="#666766" stroke-miterlimit="10" d="M407.976,177.735c-0.515-0.383-1.131-0.621-1.808-0.713
				c-0.893-0.138-1.885-0.03-2.877,0.269c-2.808,0.843-5.615,3.28-6.085,6.576c-1.538,9.965,16.924,15.331,23.848,16.097
				c6.923,1.533,24.616,0.767,26.154-9.197c1.538-9.965-15.385-10.731-22.309-12.265c-5.907-1.181-12.262-1.9-18.731-1.479
				c-0.954,0.062-1.915,0.146-2.877,0.269c-1,0.115-2.008,0.261-3.008,0.444"/>
		</g>
	</g>
	<g id="XMLID_5_">
		<g>
			<path fill="#6D6E71" d="M472.009,179.881c9.233-3.175,27.245-6.51,28.169,7.597c1.044,14.055-22.965,10.86-30.271,12.138
				c-6.785,1.278-12.005,1.278-18.79-2.556c3.132-5.749,15.136-17.249,20.877-17.249L472.009,179.881z"/>
		</g>
		<g>
			<path fill="none" stroke="#58595B" stroke-miterlimit="10" d="M468.863,181.089c0.855-0.371,1.926-0.792,3.146-1.208
				c9.233-3.175,27.245-6.51,28.169,7.597c1.044,14.055-22.965,10.86-30.271,12.138c-6.785,1.278-12.005,1.278-18.79-2.556
				c3.132-5.749,15.136-17.249,20.877-17.249"/>
		</g>
	</g>
	<g id="XMLID_6_">
		<g>
			<path fill="#6D6E71" d="M511.875,178.355c8.015-2.549,15.415-5.267,24.227-2.528c7.368,2.036,23.86,5.43,27.721,12.556
				c4.912,9.501-16.843,13.573-23.159,14.252c-9.124,1.357-21.756-6.447-29.125-11.198c-3.86-2.375-6.316-5.429-3.86-9.841
				c0.411-0.923,0.927-1.798,1.548-2.419C510.118,178.912,511.001,178.634,511.875,178.355z"/>
		</g>
		<g>
			<path fill="none" stroke="#6D6E71" stroke-miterlimit="10" d="M512.942,178.882c-0.372-0.258-0.727-0.432-1.066-0.526
				c-1.031-0.295-1.916,0.088-2.649,0.821c-0.621,0.621-1.137,1.496-1.548,2.419c-2.456,4.412,0,7.466,3.86,9.841
				c7.369,4.751,20.001,12.556,29.125,11.198c6.316-0.679,28.071-4.751,23.159-14.252c-3.86-7.126-20.353-10.52-27.721-12.556
				c-8.812-2.738-16.212-0.021-24.227,2.528c-0.874,0.278-1.758,0.557-2.649,0.821c-0.049,0.017-0.095,0.03-0.144,0.044"/>
		</g>
	</g>
	<g id="XMLID_7_">
		<g>
			<path fill="#58595B" d="M278.94,155.724c12.633-1.791,24.885-6.478,37.521-0.901c15.287,7.017,29.352,35.084,7.338,43.578
				c-9.173,3.693-19.568,2.585-29.047,3.323c-10.701,0.37-21.402,2.586-32.104,2.955c-14.37,0-47.391-13.664-29.352-36.931
				c11.007-14.033,30.575-14.402,45.557-12.926L278.94,155.724z"/>
		</g>
		<g>
			<path fill="none" stroke="#58595B" stroke-miterlimit="10" d="M278.854,154.822c-14.982-1.477-34.55-1.107-45.557,12.926
				c-18.039,23.267,14.982,36.931,29.352,36.931c10.701-0.369,21.402-2.585,32.104-2.955c9.479-0.738,19.874,0.37,29.047-3.323
				c22.014-8.494,7.949-36.562-7.338-43.578c-12.637-5.576-24.889-0.89-37.521,0.901c-3.26,0.458-6.546,0.728-9.87,0.576
				c-1.223,0-2.752-0.369-3.975-0.369"/>
		</g>
	</g>
	<g>
		<g>
			<path fill="#333333" d="M247.725,181.251c1.092-1.267,1.928-2.712,3.021-3.979c-0.356,0-0.713,0-1.069,0
				c2.229,2.649,3.568,6.646-0.483,8.282c-3.323,1.341-6.652-0.735-7.753-3.911c-1.76-5.075,1.045-8.811,6.133-8.941
				c3.652-0.094,7.046,1.373,10.639,1.645c0.604,0.046,0.833-0.863,0.308-1.136c-3.974-2.056-10.949-3.492-15.214-1.567
				c-4.85,2.187-5.023,8.851-2.345,12.862c2.189,3.278,6.86,3.883,10.094,1.918c4.125-2.507,2.163-7.354-0.308-10.222
				c-0.253-0.293-0.817-0.299-1.069,0c-1.08,1.282-1.899,2.739-2.979,4.021C246.1,180.934,247.11,181.964,247.725,181.251
				L247.725,181.251z"/>
		</g>
	</g>
	<g>
		<g>
			<path fill="#333333" d="M266.278,188.804c1.398-1.411,1.913-2.822,4.109-3.43c-0.278-0.212-0.557-0.425-0.835-0.637
				c0.22,1.672,0.613,3.813-0.708,5.133c-1.464,1.464-4.775,1.125-6.632,1.141c0.233,0.178,0.467,0.355,0.7,0.533
				c-1.493-5.014,0.027-11.055,6.175-11.182c2.218-0.046,4.354,1.143,5.519,3.011c1.686,2.703,0.381,5.521,0.216,8.364
				c-0.024,0.424,0.52,0.484,0.728,0.197c3.8-5.244-0.052-12.438-6.132-12.815c-2.505-0.155-5.287,0.987-6.828,2.987
				c-2.2,2.855-2.041,6.52-1.078,9.824c0.09,0.31,0.374,0.534,0.7,0.533c2.543-0.007,5.547,0.102,7.638-1.588
				c1.785-1.443,1.336-4.378,0.999-6.314c-0.06-0.346-0.494-0.562-0.812-0.461c-1.363,0.429-2.571,0.926-3.356,2.171
				c-0.469,0.745-0.144,1.787-0.549,2.419C266.072,188.781,266.204,188.878,266.278,188.804L266.278,188.804z"/>
		</g>
	</g>
	<g>
		<g>
			<path fill="#333333" d="M272.687,170.212c1.037-0.831,2.168-1.568,3.525-1.694c-0.251-0.329-0.502-0.658-0.752-0.987
				c-0.43,1.985-1.361,5.495-4.091,4.815c-1.564-0.39-2.76-2.125-2.862-3.667c-0.164-2.478,3.282-5.102,5.351-5.704
				c3.728-1.086,5.209,2.683,6.949,4.999c0.27,0.359,0.859,0.263,0.873-0.236c0.108-3.876-3.861-6.937-7.529-6.61
				c-3.385,0.301-7.016,3.858-7.438,7.211c-0.316,2.509,1.95,4.998,4.194,5.687c3.746,1.148,5.506-3.258,6.057-6.08
				c0.088-0.446-0.212-1.049-0.752-0.987c-1.729,0.196-3.321,0.976-4.475,2.306C271.159,169.927,272.017,170.749,272.687,170.212
				L272.687,170.212z"/>
		</g>
	</g>
	<g>
		<g>
			<path fill="#333333" d="M293.648,171.174c0.667-0.587,1.64-1.558,2.563-1.669c-0.247-0.324-0.493-0.647-0.74-0.972
				c-0.773,2.199-2.448,6.708-5.549,4.743c-2.002-1.269-2.434-4.31-1.44-6.291c1.597-3.188,7.03-4.466,10.003-2.869
				c3.75,2.015,3.43,7.044,3.273,10.621c-0.019,0.428,0.664,0.65,0.845,0.229c1.882-4.4,0.511-10.541-4.142-12.614
				c-3.744-1.668-9.997,0.428-11.636,4.314c-1.235,2.93-0.11,6.75,2.755,8.285c3.927,2.104,6.6-2.99,7.371-6.01
				c0.149-0.586-0.373-1.071-0.944-0.944c-1.29,0.287-2.369,1.356-3.232,2.304C292.236,170.893,293.051,171.698,293.648,171.174
				L293.648,171.174z"/>
		</g>
	</g>
	<g>
		<g>
			<path fill="#333333" d="M291.105,184.556c0.319,0.239,0.44,0.234,0.361-0.016c-0.452-2.535-0.534-2.2,0.926-2.178
				c1.921,0.029,1.261-0.286,1.37,1.458c0.095,1.533,0.04,4.367-1.97,4.637c-2.718,0.363-5.422-3.011-5.963-5.322
				c-0.412-1.763,0.759-3.046,2.208-3.816c1.364-0.724,3.007-0.884,4.513-0.995c2.271-0.169,3.293,2.225,4.037,4.032
				c1.142,2.771,1.108,6.019-0.183,8.721c-1.754,3.672-4.916,2.91-8.193,3.208c-0.454,0.041-0.611,0.58-0.229,0.845
				c2.687,1.854,6.546,0.563,8.566-1.681c2.238-2.484,2.369-6.21,1.771-9.311c-0.385-2.002-1.393-3.871-2.59-5.492
				c-1.271-1.722-1.844-1.505-3.938-1.338c-2.474,0.197-5.182,0.804-6.736,2.887c-2.445,3.277,1.431,7.958,4.312,9.325
				c5.511,2.613,6.042-4.314,5.474-7.956c-0.044-0.279-0.365-0.483-0.63-0.479c-1,0.016-2,0.031-3,0.046
				c-0.277,0.005-0.504,0.184-0.585,0.446c-0.325,1.045-1.003,3.092,0.303,3.744c0.286,0.143,0.625-0.09,0.542-0.417
				c-0.019-0.074-0.037-0.148-0.057-0.222C291.383,184.559,291.215,184.475,291.105,184.556L291.105,184.556z"/>
		</g>
	</g>
	<g>
		<g>
			<path fill="#333333" d="M310.67,181.278c-0.389-0.362-0.734-0.526-1.274-0.496c-2.225,0.125-1.14-1.949,0.127-2.806
				c1.16-0.786,3.289-1.921,4.37-0.435c1.833,2.521,0.1,7.119-1.297,9.413c-3.105,5.099-8.458,2.09-10.229-2.617
				c-1.412-3.753,1.864-6.949,4.753-8.693c2.865-1.729,5.989-2.021,9.19-2.546c0.401-0.065,0.312-0.609,0-0.723
				c-6.904-2.524-19.205,5.334-15.36,13.34c2.816,5.864,9.29,8.122,13.139,2.112c1.832-2.86,4.043-10.393-0.204-12.353
				c-2.344-1.081-5.008,0.918-6.731,2.281c-1.07,0.846-1.095,3.288-0.015,4.227c1.021,0.886,1.793-0.12,2.745,0.313
				C310.517,182.585,311.245,181.816,310.67,181.278L310.67,181.278z"/>
		</g>
	</g>
	<g id="XMLID_8_">
		<g>
			<path fill="#6D6E71" d="M121.495,176.076c7.022-2.549,13.505-5.267,21.225-2.528c6.456,2.036,20.905,5.43,24.287,12.556
				c4.304,9.501-14.756,13.573-20.29,14.252c-7.993,1.357-19.061-6.447-25.517-11.198c-3.382-2.375-5.534-5.429-3.382-9.841
				c0.36-0.923,0.812-1.798,1.356-2.419C119.955,176.633,120.729,176.354,121.495,176.076z"/>
		</g>
		<g>
			<path fill="none" stroke="#6D6E71" stroke-miterlimit="10" d="M122.429,176.603c-0.326-0.258-0.636-0.432-0.935-0.526
				c-0.904-0.295-1.678,0.088-2.321,0.821c-0.544,0.621-0.996,1.496-1.356,2.419c-2.152,4.412,0,7.466,3.382,9.841
				c6.456,4.751,17.523,12.556,25.517,11.198c5.534-0.679,24.594-4.751,20.29-14.252c-3.382-7.126-17.831-10.52-24.287-12.556
				c-7.72-2.738-14.203-0.021-21.225,2.528c-0.765,0.278-1.54,0.557-2.321,0.821c-0.043,0.017-0.083,0.03-0.126,0.044"/>
		</g>
	</g>
	<g id="XMLID_9_">
		<g>
			<path fill="#6D6E71" d="M70.261,178.988c6.469-0.421,12.824,0.299,18.731,1.479c6.923,1.533,23.847,2.3,22.309,12.265
				c-1.539,9.964-19.231,10.73-26.155,9.197c-6.923-0.766-25.386-6.132-23.847-16.097c0.469-3.296,3.277-5.733,6.085-6.576
				C68.346,179.134,69.308,179.05,70.261,178.988z"/>
		</g>
		<g>
			<path fill="none" stroke="#666766" stroke-miterlimit="10" d="M72.069,179.701c-0.515-0.383-1.131-0.621-1.808-0.713
				c-0.892-0.138-1.885-0.03-2.877,0.269c-2.808,0.843-5.616,3.28-6.085,6.576c-1.539,9.965,16.924,15.331,23.847,16.097
				c6.923,1.533,24.616,0.767,26.155-9.197c1.539-9.965-15.385-10.731-22.309-12.265c-5.908-1.181-12.262-1.9-18.731-1.479
				c-0.954,0.062-1.916,0.146-2.877,0.269c-1,0.115-2.008,0.261-3.008,0.444"/>
		</g>
	</g>
	<g id="XMLID_10_">
		<g>
			<path fill="#6D6E71" d="M19.143,179.216c10.119-1.874,21.814-3.855,26.132,0.58c17.063,16.176-9.188,18.872-19.688,20.22
				C-15.429,203.966,2.395,171.91,19.143,179.216z"/>
		</g>
		<g>
			<path fill="none" stroke="#6D6E71" stroke-miterlimit="10" d="M19.143,179.216c-5.263,0.984-10.106,1.928-13.244,1.928"/>
			<path fill="none" stroke="#6D6E71" stroke-miterlimit="10" d="M19.143,179.216c-16.748-7.306-34.572,24.75,6.444,20.8
				c10.5-1.348,36.75-4.044,19.688-20.22C40.957,175.36,29.262,177.342,19.143,179.216z"/>
			<path fill="none" stroke="#6D6E71" stroke-miterlimit="10" d="M20.337,179.796c-0.394-0.216-0.801-0.418-1.194-0.58"/>
		</g>
	</g>
	<g id="XMLID_11_">
		<g>
			<path fill="#414042" d="M471.263,198.372c1.756-15.362,6.387-33.064,16.13-40.784c13.374-10.753,21.175,14.211,24.519,28.037
				c2.229,8.833,4.18,18.051,6.408,27.269c-8.637,0.768-17.274,0.384-25.912,2.304c-7.801,1.536-16.16,3.072-24.519,2.688
				C468.316,212.586,469.4,204.348,471.263,198.372z"/>
		</g>
		<g>
			<path fill="none" stroke="#414042" stroke-miterlimit="10" d="M471.263,198.372c0.565-1.82,1.204-3.426,1.92-4.682"/>
			<path fill="none" stroke="#414042" stroke-miterlimit="10" d="M471.263,198.372c1.756-15.362,6.387-33.064,16.13-40.784
				c13.374-10.753,21.175,14.211,24.519,28.037c2.229,8.833,4.18,18.051,6.408,27.269c-8.637,0.768-17.274,0.384-25.912,2.304
				c-7.801,1.536-16.16,3.072-24.519,2.688C468.316,212.586,469.4,204.348,471.263,198.372z"/>
			<path fill="none" stroke="#414042" stroke-miterlimit="10" d="M470.675,204.828c0.14-2.078,0.335-4.244,0.588-6.456"/>
		</g>
	</g>
	<g id="XMLID_12_">
		<g>
			<path fill="#414042" d="M97.162,217.004c-1.517-0.299-3.058-0.512-4.591-0.512c-1.573,0-3.134,0.223-4.643,0.813
				c-5.859,0.37-11.606,0.921-17.814,0.718c-10.434-0.328-20.868-1.312-30.901,0.328c3.21-13.446,6.822-34.765,20.869-43.947
				c16.052-10.167,26.085,14.758,30.099,23.285c3.21,6.888,6.421,13.447,10.033,20.006C99.216,217.45,98.193,217.207,97.162,217.004
				z"/>
		</g>
		<g>
			<path fill="none" stroke="#414042" stroke-miterlimit="10" d="M99.007,217.04c-0.618-0.02-1.236-0.033-1.846-0.036
				c-3.163-0.036-6.212,0.108-9.234,0.302c-5.859,0.37-11.606,0.921-17.814,0.718c-10.434-0.328-20.868-1.312-30.901,0.328
				c3.21-13.446,6.822-34.765,20.869-43.947c16.052-10.167,26.085,14.758,30.099,23.285c3.21,6.888,6.421,13.447,10.033,20.006
				c-0.995-0.245-2.019-0.488-3.05-0.691c-1.517-0.299-3.058-0.512-4.591-0.512c-1.573,0-3.134,0.223-4.643,0.813
				c-0.052,0.02-0.104,0.042-0.157,0.063"/>
		</g>
	</g>
</g>
</svg>
