<?xml version="1.0" encoding="utf-8"?>
<!-- Generator: Adobe Illustrator 16.0.0, SVG Export Plug-In . SVG Version: 6.00 Build 0)  -->
<!DOCTYPE svg PUBLIC "-//W3C//DTD SVG 1.1//EN" "http://www.w3.org/Graphics/SVG/1.1/DTD/svg11.dtd">
<svg version="1.1" id="Layer_1" xmlns="http://www.w3.org/2000/svg" xmlns:xlink="http://www.w3.org/1999/xlink" x="0px" y="0px"
	 width="558.858px" height="387.77px" viewBox="0 0 558.858 387.77" enable-background="new 0 0 558.858 387.77"
	 xml:space="preserve">
<g id="XMLID_1_">
	<g>
		<path fill="#6FC067" d="M233.241,365.018c-33.79,11.79-86.09,29.13-115.2,6.43c-2.65-2.06-5.1-4.46-7.34-7.22
			c-21.46,2.79-36.46,19.79-58.46,22.79c-20,2-40-8-48-26c-7.64-16.23-2.51-34.29,5.8-48.83l0.27,0.15
			c2.54-4.7,7.07-7.62,9.22-12.19c0.52-2.939,1.09-5.87,1.7-8.79c0.61-2.92,1.27-5.82,1.97-8.72c0.93-3.86,1.93-7.69,3.02-11.51
			c-6.78-64.69,30.49-131.48,85.77-164.46c3.25-1.94,6.52-3.78,9.24-5.73c42.01-61.92,123.01-121.92,200.01-92.92
			c5.33,2,9.33,5.56,12.56,10c1.61,2.22,3.021,4.67,4.32,7.25c63.12,5.75,114.12,37.75,149.12,93.75c7.5,12.5,8.75,26.56,4.48,39.26
			c-0.851,2.54-1.931,5.02-3.211,7.43c-1.27,1.31-2.27,3.31-1.27,4.31c20,18,40,35,58,55c12.6,15,13.32,35.76,4.97,52.13
			c-1.39,2.73-2.739,5.12-2.939,6.43c19.97,23.44,11.97,62.44-16.03,75.44c-18.75,8.25-36.94,3-52.03-8.16
			c-2.52-1.859-4.649-3.54-6-4.479c-15.97,8.64-29.97,22.64-47.97,27.64c-14,3.5-27,0.5-37.38-6.62c-2.59-1.79-5.021-3.83-7.26-6.09
			c-2.36-2.29-5.36-4.29-7.36-3.29c-38.5,3.93-85.64,31.32-122.03,15.23c-3.3-1.471-6.52-3.29-9.64-5.521
			C239.241,366.018,236.241,364.018,233.241,365.018z"/>
	</g>
	<g>
		<path fill="none" stroke="#6FC067" stroke-miterlimit="10" d="M9.831,313.298c0.15-0.33,0.31-0.65,0.48-0.96
			c2.54-4.7,7.07-7.62,9.22-12.19c0.52-2.939,1.09-5.87,1.7-8.79c0.61-2.92,1.27-5.82,1.97-8.72c0.93-3.86,1.93-7.69,3.02-11.51
			c-6.78-64.69,30.49-131.48,85.77-164.46c3.25-1.94,6.52-3.78,9.24-5.73c42.01-61.92,123.01-121.92,200.01-92.92
			c5.33,2,9.33,5.56,12.56,10c1.61,2.22,3.021,4.67,4.32,7.25c63.12,5.75,114.12,37.75,149.12,93.75c7.5,12.5,8.75,26.56,4.48,39.26
			c-0.851,2.54-1.931,5.02-3.211,7.43c-1.27,1.31-2.27,3.31-1.27,4.31c20,18,40,35,58,55c12.6,15,13.32,35.76,4.97,52.13
			c-1.39,2.73-2.739,5.12-2.939,6.43c19.97,23.44,11.97,62.44-16.03,75.44c-18.75,8.25-36.94,3-52.03-8.16
			c-2.52-1.859-4.649-3.54-6-4.479c-15.97,8.64-29.97,22.64-47.97,27.64c-14,3.5-27,0.5-37.38-6.62c-2.59-1.79-5.021-3.83-7.26-6.09
			c-2.36-2.29-5.36-4.29-7.36-3.29c-38.5,3.93-85.64,31.32-122.03,15.23c-3.3-1.471-6.52-3.29-9.64-5.521
			c-2.33-1.71-5.33-3.71-8.33-2.71c-33.79,11.79-86.09,29.13-115.2,6.43c-2.65-2.06-5.1-4.46-7.34-7.22
			c-21.46,2.79-36.46,19.79-58.46,22.79c-20,2-40-8-48-26c-7.64-16.23-2.51-34.29,5.8-48.83c0.4-0.68,0.79-1.36,1.2-2.03"/>
	</g>
</g>
<g>
	<g>
		<path fill="#8AC651" d="M191.102,92.064c-3.575,3.691-6.806,7.75-8.852,12.49c-0.488,1.13,0.82,2.39,1.804,1.392
			c3.47-3.522,6.438-7.496,9.932-10.998C195.845,93.084,192.933,90.173,191.102,92.064L191.102,92.064z"/>
	</g>
</g>
<g>
	<g>
		<path fill="#8AC651" d="M238.365,100.994c1.245,5.857,3.329,12.537,7.952,16.646c1.107,0.984,2.502-0.235,1.951-1.505
			c-2.345-5.403-4.958-10.334-6.197-16.163C241.556,97.548,237.851,98.576,238.365,100.994L238.365,100.994z"/>
	</g>
</g>
<g>
	<g>
		<path fill="#8AC651" d="M207.323,135.366c0.049,3.918,0.367,7.731,0.703,11.628c0.089,1.026,1.505,1.026,1.594,0
			c0.336-3.897,0.654-7.71,0.703-11.628C210.347,133.432,207.298,133.432,207.323,135.366L207.323,135.366z"/>
	</g>
</g>
<g>
	<g>
		<path fill="#8AC651" d="M324.463,124.831c1.887,0.958,3.68,2.029,5.279,3.424c1.475,1.287,2.646,2.875,4.065,4.219
			c0.565,0.536,1.741,0.011,1.41-0.821c-1.682-4.229-5.544-6.987-9.478-9.008C324.29,121.9,323.008,124.093,324.463,124.831
			L324.463,124.831z"/>
	</g>
</g>
<g>
	<g>
		<path fill="#8AC651" d="M310.415,83.133c7.876,3.994,8.271,13.432,12.612,20.208c0.655,1.021,2.186,0.36,1.928-0.813
			c-1.828-8.326-4.622-18.13-13.073-21.905C310.205,79.874,308.72,82.273,310.415,83.133L310.415,83.133z"/>
	</g>
</g>
<g>
	<g>
		<path fill="#8AC651" d="M254.204,169.938c-1.299,6.014-3.718,11.655-5.43,17.548c-0.243,0.834,1.006,1.383,1.414,0.596
			c2.87-5.545,4.98-11.406,6.276-17.521C256.776,169.088,254.523,168.46,254.204,169.938L254.204,169.938z"/>
	</g>
</g>
<g>
	<g>
		<path fill="#8AC651" d="M371.42,171.787c1.224,3.622,2.373,7.289,5.616,9.596c0.644,0.458,1.455-0.426,1.059-1.058
			c-1.786-2.849-2.914-6.106-3.962-9.286C373.567,169.323,370.839,170.066,371.42,171.787L371.42,171.787z"/>
	</g>
</g>
<g>
	<g>
		<path fill="#8AC651" d="M400.437,130.961c4.468,5.53,9.521,11.396,15.922,14.74c1.248,0.652,2.308-0.846,1.449-1.877
			c-4.561-5.481-10.054-10.109-14.553-15.68C401.64,126.144,398.839,128.982,400.437,130.961L400.437,130.961z"/>
	</g>
</g>
<g>
	<g>
		<path fill="#8AC651" d="M402.674,208.335c3.24,5.375,6.339,12.395,11.489,16.213c0.658,0.488,1.639-0.319,1.378-1.059
			c-2.101-5.966-6.636-11.489-9.871-16.905C404.523,204.667,401.517,206.415,402.674,208.335L402.674,208.335z"/>
	</g>
</g>
<g>
	<g>
		<path fill="#8AC651" d="M303.436,212.11c-0.105,6.605-2.037,12.068-3.951,18.275c-0.362,1.176,1.234,2.122,2.076,1.208
			c4.817-5.225,5.634-12.647,5.672-19.483C307.246,209.66,303.475,209.665,303.436,212.11L303.436,212.11z"/>
	</g>
</g>
<g>
	<g>
		<path fill="#8AC651" d="M160.345,230.173c-0.608,2.926-1.427,5.81-2.409,8.632c-0.956,2.749-2.481,5.229-3.506,7.939
			c-0.369,0.974,0.921,1.435,1.567,0.912c4.699-3.804,7.041-10.697,8.28-16.4C164.835,228.69,160.879,227.604,160.345,230.173
			L160.345,230.173z"/>
	</g>
</g>
<g>
	<g>
		<path fill="#8AC651" d="M124.74,200.845c3.32,4.275,7.531,9.981,12.573,12.257c1.08,0.487,2.059-0.492,1.571-1.571
			c-1.15-2.548-3.333-4.629-5.217-6.658c-1.963-2.116-3.821-4.324-5.541-6.641C126.268,195.728,122.826,198.38,124.74,200.845
			L124.74,200.845z"/>
	</g>
</g>
<g>
	<g>
		<path fill="#8AC651" d="M220.785,229.218c1.967,1.905,3.885,4.252,6.276,5.613c0.636,0.362,1.356-0.358,0.994-0.994
			c-1.361-2.391-3.708-4.309-5.613-6.276C221.389,226.475,219.698,228.166,220.785,229.218L220.785,229.218z"/>
	</g>
</g>
<g>
	<g>
		<path fill="#8AC651" d="M314.501,169.087c-0.086,4.472-0.656,9.364,1.125,13.571c0.43,1.014,2.242,1.014,2.672,0
			c1.781-4.208,1.211-9.099,1.125-13.571C319.361,165.914,314.563,165.914,314.501,169.087L314.501,169.087z"/>
	</g>
</g>
<g>
	<g>
		<path fill="#8AC651" d="M272.379,236.1c-1.101,4.759-1.65,9.851-0.598,14.657c0.217,0.987,1.772,0.986,1.989,0
			c1-4.549,0.672-9.233,1.728-13.798C275.968,234.929,272.85,234.067,272.379,236.1L272.379,236.1z"/>
	</g>
</g>
<g>
	<g>
		<path fill="#8AC651" d="M182.189,170.803c-0.488,1.522-1.03,2.988-1.803,4.39c-0.365,0.662-0.576,1.368-0.967,2.021
			c-0.397,0.665-0.812,1.21-1.045,1.959c-0.313,1.005,0.733,2.107,1.758,1.758c3.611-1.228,5.321-5.651,6.486-8.907
			C187.613,169.245,183.094,167.978,182.189,170.803L182.189,170.803z"/>
	</g>
</g>
<g>
	<g>
		<path fill="#8AC651" d="M134.665,139.974c-1.331,3.012-2.581,6.418-1.527,9.695c0.418,1.3,2.074,1.194,2.531,0
			c0.936-2.443,1.894-4.967,3.125-7.282C140.263,139.621,135.888,137.207,134.665,139.974L134.665,139.974z"/>
	</g>
</g>
<g>
	<g>
		<path fill="#8AC651" d="M93.727,253.335c-1.266,4.956-3.406,10.586-2.847,15.752c0.166,1.536,2.224,2.409,3.101,0.84
			c2.527-4.523,3.137-10.326,4.356-15.32C99.068,251.613,94.49,250.347,93.727,253.335L93.727,253.335z"/>
	</g>
</g>
<g>
	<g>
		<path fill="#8AC651" d="M140.092,300.482c0,3.046-0.445,6.585,0.543,9.509c0.249,0.735,1.243,0.735,1.491,0
			c0.988-2.924,0.543-6.463,0.543-9.509C142.67,298.82,140.092,298.82,140.092,300.482L140.092,300.482z"/>
	</g>
</g>
<g>
	<g>
		<path fill="#8AC651" d="M218.013,295.831c0,3.622-0.572,7.929,1.082,11.259c0.509,1.024,2.203,1.024,2.712,0
			c1.653-3.33,1.082-7.637,1.082-11.259C222.888,292.688,218.013,292.688,218.013,295.831L218.013,295.831z"/>
	</g>
</g>
<g>
	<g>
		<path fill="#8AC651" d="M356.833,289.47c-1.128,3.474-3.192,8.14-1.489,11.687c0.434,0.904,1.854,0.839,2.307,0
			c0.786-1.454,0.966-3.027,1.343-4.622c0.479-2.027,1.147-3.998,1.818-5.969C361.669,288.047,357.653,286.945,356.833,289.47
			L356.833,289.47z"/>
	</g>
</g>
<g>
	<g>
		<path fill="#8AC651" d="M303.877,296.683c1.483,2.807,3.857,5.188,6.973,6.048c1.027,0.283,1.992-1.135,1.095-1.881
			c-1.981-1.644-3.959-3.559-5.153-5.87C305.793,293.048,302.859,294.758,303.877,296.683L303.877,296.683z"/>
	</g>
</g>
<g>
	<g>
		<path fill="#8AC651" d="M358.04,237.692c0.019,3.784-0.02,8.136,3.762,10.172c0.955,0.515,1.767-0.482,1.379-1.379
			c-1.179-2.723-1.26-5.863-1.25-8.793C361.939,235.184,358.027,235.184,358.04,237.692L358.04,237.692z"/>
	</g>
</g>
<g>
	<g>
		<path fill="#8AC651" d="M428.852,284.159c-1.296,2.506-2.906,4.789-4.536,7.085c-1.486,2.096-2.954,4.283-3.039,6.913
			c-0.034,1.049,1.338,1.989,2.257,1.295c2.04-1.54,3.403-3.747,4.874-5.815c1.633-2.297,3.263-4.563,4.573-7.063
			C434.41,283.843,430.268,281.423,428.852,284.159L428.852,284.159z"/>
	</g>
</g>
<g>
	<g>
		<path fill="#8AC651" d="M348.659,191.16c-1.412,3.285-1.413,6.293-0.133,9.597c0.379,0.979,1.608,0.978,1.988,0
			c0.214-0.55,0.418-1.08,0.548-1.658c0.042-0.188,0.434-0.951,0.541-1.366c0.361-1.396,0.465-2.896,1.103-4.207
			C354.041,190.783,349.832,188.431,348.659,191.16L348.659,191.16z"/>
	</g>
</g>
<g>
	<g>
		<path fill="#8AC651" d="M465.435,217.56c-0.395,0.395-0.861,0.795-1.114,1.302c-0.225,0.449-0.162,0.908-0.105,1.388
			c0.063,0.543,0.779,0.542,0.844,0c0.035-0.298,0.051-0.665,0.187-0.938c0.198-0.396,0.612-0.717,0.918-1.023
			C466.634,217.818,465.904,217.089,465.435,217.56L465.435,217.56z"/>
	</g>
</g>
<g>
	<g>
		<path fill="#8AC651" d="M492.282,273.346c-1.183,3.549-2.659,7.085-2.861,10.857c-0.045,0.843,1.072,1.019,1.485,0.402
			c2.107-3.147,3.038-6.917,4.224-10.475C495.733,272.319,492.881,271.549,492.282,273.346L492.282,273.346z"/>
	</g>
</g>
<g>
	<g>
		<path fill="#8AC651" d="M444.572,178.83c-1.241,4.167-1.816,8.375-0.833,12.662c0.264,1.15,1.963,1.091,2.26,0
			c1.031-3.789,2.502-7.51,3.817-11.217C450.982,176.987,445.578,175.455,444.572,178.83L444.572,178.83z"/>
	</g>
</g>
<g>
	<g>
		<path fill="#8AC651" d="M461.309,263.171c-0.76,1.657-1.107,3.276-1.333,5.079c-0.22,1.746,0.371,3.13,1.002,4.693
			c0.528,1.312,2.137,1.309,2.666,0c0.495-1.223,0.94-2.209,1.169-3.524c0.216-1.239,0.295-2.557,0.826-3.717
			c0.57-1.242,0.366-2.69-0.899-3.431C463.649,261.633,461.878,261.928,461.309,263.171L461.309,263.171z"/>
	</g>
</g>
<g>
	<g>
		<path fill="#8AC651" d="M164.921,134.488c-1.229,1.3-1.851,3.109-0.952,4.757c0.275,0.504,1.061,0.502,1.336,0
			c0.549-1.001,0.554-2.134,1.373-3C167.777,135.081,166.023,133.321,164.921,134.488L164.921,134.488z"/>
	</g>
</g>
<g>
	<g>
		<path fill="#8AC651" d="M105.322,172.9c1.144,4.567,2.136,9.354,5.296,12.997c0.604,0.696,1.495-0.189,1.178-0.909
			c-1.808-4.103-3.037-8.396-4.123-12.736C107.291,170.728,104.94,171.375,105.322,172.9L105.322,172.9z"/>
	</g>
</g>
<g>
	<g>
		<path fill="#8AC651" d="M69.504,227.227c0.065,3.955,2.339,9.334,6.406,10.59c0.981,0.304,1.908-0.685,1.643-1.643
			c-0.881-3.185-3.618-5.435-3.83-8.947C73.56,224.534,69.459,224.488,69.504,227.227L69.504,227.227z"/>
	</g>
</g>
<g>
	<g>
		<path fill="#8AC651" d="M46.698,290.987c2.424,4.671,5.67,10.184,10.382,12.813c1.025,0.572,2.113-0.558,1.571-1.571
			c-2.478-4.637-6.223-8.439-8.634-13.181C48.895,286.841,45.557,288.788,46.698,290.987L46.698,290.987z"/>
	</g>
</g>
<g>
	<g>
		<path fill="#8AC651" d="M253.018,69.762c0.159,0.296,0.326,0.583,0.506,0.867c0.306,0.484,0.989,0.484,1.295,0
			c0.18-0.284,0.347-0.571,0.506-0.867c0.476-0.883-0.114-2.01-1.153-2.01S252.542,68.879,253.018,69.762L253.018,69.762z"/>
	</g>
</g>
<g>
	<g>
		<path fill="#8AC651" d="M347.599,81.878c0.095,4.757,0.642,11.851,4.866,14.885c0.855,0.614,1.723-0.395,1.584-1.218
			c-0.36-2.133-1.2-4.217-1.738-6.319c-0.616-2.403-0.846-4.874-0.868-7.348C351.42,79.4,347.55,79.399,347.599,81.878
			L347.599,81.878z"/>
	</g>
</g>
<g>
	<g>
		<path fill="#8AC651" d="M271.987,99.781c3.447,4.466,8.011,8.647,13.437,10.524c0.614,0.212,0.885-0.654,0.415-0.985
			c-4.492-3.168-8.864-6.044-12.274-10.461C272.855,97.939,271.266,98.848,271.987,99.781L271.987,99.781z"/>
	</g>
</g>
<g>
	<g>
		<path fill="#8AC651" d="M274.578,62.538c-3.781,1.418-6.847,4.539-7.448,8.602c-0.143,0.968,0.923,1.785,1.724,1.003
			c0.962-0.938,1.981-1.851,2.854-2.869c1.084-1.263,2.321-2.382,3.917-2.939C278.018,65.499,276.947,61.649,274.578,62.538
			L274.578,62.538z"/>
	</g>
</g>
<g>
	<g>
		<path fill="#8AC651" d="M227.737,71.413c0.294,4.121,1.582,9.574,4.725,12.407c0.792,0.713,2.163,0.033,1.841-1.072
			c-1.049-3.604-2.543-7.528-2.535-11.335C231.774,68.795,227.553,68.838,227.737,71.413L227.737,71.413z"/>
	</g>
</g>
<g>
	<g>
		<path fill="#8AC651" d="M286.617,144.782c1.98,2.023,3.81,4.176,5.534,6.421c1.393,1.813,2.604,3.582,4.44,4.963
			c0.886,0.666,1.998-0.426,1.756-1.35c-0.588-2.252-1.919-3.999-3.332-5.823c-1.828-2.361-3.747-4.637-5.846-6.763
			C287.531,140.571,284.988,143.118,286.617,144.782L286.617,144.782z"/>
	</g>
</g>
<g>
	<g>
		<path fill="#8AC651" d="M190.002,269.467c0.78,2.582,2.143,4.951,3.885,7.003c1.627,1.916,4.339,4.587,7.069,4.077
			c0.714-0.133,0.865-0.958,0.617-1.515c-0.85-1.904-3.321-3.13-4.768-4.593c-1.638-1.655-3.153-3.563-4.046-5.732
			C192.08,267.055,189.455,267.653,190.002,269.467L190.002,269.467z"/>
	</g>
</g>
<g>
	<g>
		<path fill="#8AC651" d="M210.312,184.434c0.149,0.964,1.044,1.636,2,1.542c0.634-0.063,0.888-1.064,0.162-1.197
			c-0.32-0.059-0.402-0.11-0.456-0.311c-0.019-0.099-0.02-0.094-0.003,0.016c-0.006-0.053-0.006-0.106-0.006-0.16
			c0-0.041,0.003-0.081,0.008-0.121c0.059-0.47-0.439-0.867-0.867-0.867C210.535,183.336,210.228,183.887,210.312,184.434
			L210.312,184.434z"/>
	</g>
</g>
<g>
	<g>
		<path fill="#8AC651" d="M241.808,283.041c0.068,3.409,1.349,8.75,4.808,10.293c0.762,0.341,1.739-0.047,1.728-0.991
			c-0.019-1.605-0.91-2.882-1.566-4.303c-0.746-1.615-1.137-3.221-1.173-4.999C245.556,280.596,241.759,280.591,241.808,283.041
			L241.808,283.041z"/>
	</g>
</g>
<g>
	<g>
		<path fill="#8AC651" d="M173.249,318.576c-1.217,6.104-1.91,12.712,1.003,18.45c0.486,0.958,1.743,0.388,1.834-0.497
			c0.587-5.653-0.09-11.288,0.869-16.932C177.364,317.19,173.737,316.127,173.249,318.576L173.249,318.576z"/>
	</g>
</g>
<g>
	<g>
		<path fill="#8AC651" d="M282.163,312.11c0.051,0.566,0.094,1.11,0.365,1.62c0.318,0.599,0.948,1.001,1.498,1.354
			c0.629,0.403,1.429-0.396,1.026-1.026c-0.25-0.391-0.559-0.755-0.776-1.164c0.1,0.188,0.007-0.007-0.006-0.06
			c0.06,0.244,0.007,0.012,0.006-0.055c-0.004-0.223,0.024-0.447,0.044-0.669C284.444,310.72,282.037,310.721,282.163,312.11
			L282.163,312.11z"/>
	</g>
</g>
<g>
	<g>
		<path fill="#8AC651" d="M442.065,298.842c-1.381,1.246-2.451,2.729-3.393,4.328c-0.783,1.33-1.448,3.143-1.042,4.682
			c0.187,0.707,1.076,1.336,1.816,1.031c1.437-0.592,2.155-1.75,3.061-2.951c0.959-1.273,1.797-2.586,2.839-3.809
			C447.278,299.857,444.307,296.819,442.065,298.842L442.065,298.842z"/>
	</g>
</g>
<g>
	<g>
		<path fill="#6FC067" d="M405.74,83.783c-0.31-0.002-0.619-0.005-0.929-0.008c-1.531-0.112-3.225,0.938-3.942,2.261
			c-3.097,5.714,0.55,12.944,3.473,17.95c2.722,4.661,7.675,11.482,13.783,11.502c1.537,0.005,2.389-1.41,2.136-2.804
			c-0.829-4.577-4.239-8.918-6.688-12.744c-1.515-2.365-2.897-4.913-3.854-7.556c-0.775-2.142-0.121-4.175-0.875-6.311
			c-0.259,0.979-0.518,1.958-0.776,2.937c0.148-0.156,0.296-0.312,0.444-0.467C410.427,86.526,408.549,82.949,405.74,83.783
			L405.74,83.783z"/>
	</g>
</g>
<g>
	<g>
		<path fill="#6FC067" d="M395.001,82.908c6.878,7.277,12.073,16.875,21.201,21.621c4.328,2.25,8.136-2.968,5.064-6.564
			c-6.266-7.337-12.723-14.946-19.553-21.769C397.37,71.858,390.803,78.465,395.001,82.908L395.001,82.908z"/>
	</g>
</g>
<g>
	<g>
		<path fill="#6FC067" d="M413.477,90.303c-0.209-0.453-0.488-0.936-0.874-1.246c-1.349-1.083-3.516-1.881-5.106-0.659
			c-3.694,2.839-1.537,7.063,0.643,10.117c1.977,2.771,5.512,8.863,9.602,8.5c2.017-0.179,3.961-1.273,4.463-3.397
			c0.874-3.703-2.584-7.195-4.824-9.746c-0.982-1.118-1.957-2.194-3.033-3.223c-0.374-0.357-0.743-0.719-1.107-1.087
			c-0.28-0.284-0.793-0.63-1.18-0.897c-0.255-0.175,1.124,1.154,1.199,1.256c0.142,1.084,0.283,2.168,0.425,3.251
			c0.001-0.005,0.002-0.011,0.003-0.016c-1.354,1.031-2.708,2.063-4.063,3.094c-0.863,0.044-0.996-0.117-1.679-0.416
			C411.721,97.488,415.244,94.137,413.477,90.303L413.477,90.303z"/>
	</g>
</g>
<g>
	<g>
		<path fill="#6FC067" d="M399.935,81.872c-1.063,7.076,0.078,13.888,1.956,20.74c1.012,3.689,2.261,7.315,3.483,10.938
			c1.097,3.249,1.814,6.069,4.86,7.926c2.447,1.492,5.114-0.053,6.043-2.458c1.966-5.098-2.619-12.585-4.217-17.486
			c-1.95-5.981-3.577-12.163-3.494-18.491C408.63,78.196,400.684,76.888,399.935,81.872L399.935,81.872z"/>
	</g>
</g>
<g>
	<g>
		<path fill="#8AC651" d="M418.427,84.488c-1.201,5.297-0.149,12.979,6.151,14.405c1.536,0.348,2.706-0.929,2.422-2.422
			c-0.341-1.793-1.281-3.153-1.881-4.848c-0.659-1.86-0.758-3.442-0.319-5.378C425.74,82.094,419.369,80.332,418.427,84.488
			L418.427,84.488z"/>
	</g>
</g>
<g>
	<g>
		<path fill="#8AC651" d="M368.257,68.85c1.371,5.483,2.586,11.193,6.369,15.567c0.738,0.853,2.001,1.04,3.039,0.803
			c3.77-0.857,1.68-5.185,0.632-7.365c-1.646-3.425-2.431-7.185-3.327-10.855C373.905,62.642,367.168,64.492,368.257,68.85
			L368.257,68.85z"/>
	</g>
</g>
<g>
	<g>
		<path fill="#8AC651" d="M303.246,21.65c-1.458,1.48-2.584,3.214-3.926,4.795c-1.521,1.791-3.799,3.358-3.877,5.864
			c0.125-0.465,0.251-0.93,0.377-1.395c-0.405,0.721-0.571,1.308-0.665,2.126c-0.101,0.875,0.695,1.761,1.497,1.966
			c0.826,0.211,1.465,0.16,2.29-0.032c-0.49,0-0.98,0-1.47,0c2.654,0.474,4.614-1.333,6.223-3.282
			c1.628-1.971,3.19-4.105,4.188-6.464c0.527-1.245,0.566-2.55-0.462-3.579C306.291,20.519,304.375,20.503,303.246,21.65
			L303.246,21.65z"/>
	</g>
</g>
<g>
	<g>
		<path fill="#8AC651" d="M218.347,35.813c5.062,2.922,8.256,7.965,13.146,11.021c0.861,0.538,1.993-0.346,1.704-1.311
			c-1.744-5.827-7.671-10.415-12.969-12.928C218.086,31.579,216.238,34.595,218.347,35.813L218.347,35.813z"/>
	</g>
</g>
<g>
	<g>
		<path fill="#8AC651" d="M140.218,104.569c0.281,0,0.644-0.044,0.896,0.082c0.176,0.088,0.295,0.243,0.459,0.347
			c0.256,0.162,0.507,0.331,0.757,0.5c0.346,0.234,0.812-0.231,0.577-0.577c-0.344-0.507-0.649-0.988-1.19-1.302
			c-0.451-0.261-0.997-0.245-1.5-0.245C139.447,103.373,139.447,104.568,140.218,104.569L140.218,104.569z"/>
	</g>
</g>
<g>
	<g>
		<path fill="#8AC651" d="M78.76,149.417c3.476,4.659,7.38,11.411,13.409,12.887c1.215,0.297,2.182-0.97,1.588-2.066
			c-1.319-2.435-3.26-4.357-5.109-6.383c-2.004-2.196-3.789-4.587-5.578-6.957C81.161,144.367,76.829,146.829,78.76,149.417
			L78.76,149.417z"/>
	</g>
</g>
<g>
	<g>
		<path fill="#8AC651" d="M161.153,359.785c0.018,1.61,0.037,3.22,0.055,4.83c0.017,1.444,0.323,3.729,2.266,3.729
			c1.648,0,2.245-1.86,2.26-3.191c0.02-1.789,0.04-3.578,0.061-5.367C165.828,356.792,161.12,356.792,161.153,359.785
			L161.153,359.785z"/>
	</g>
</g>
<g>
	<g>
		<path fill="#8AC651" d="M68.881,345.397c-1.962,3.255-3.824,6.569-5.779,9.827c-1.938,3.229-4.582,6.488-4.804,10.374
			c-0.062,1.079,1.127,1.942,2.136,1.627c3.604-1.125,5.72-4.521,7.593-7.597c2.204-3.621,4.18-7.378,6.318-11.038
			C76.41,345.059,70.984,341.907,68.881,345.397L68.881,345.397z"/>
	</g>
</g>
<g>
	<g>
		<path fill="#8AC651" d="M28.305,335.81c-1.06,3.478-2.418,9.36,0.254,12.378c0.584,0.659,1.802,0.658,2.387,0
			c1.258-1.418,1.349-3.105,1.533-4.931c0.209-2.075,0.415-4.005,1.046-6.008C34.578,333.913,29.321,332.478,28.305,335.81
			L28.305,335.81z"/>
	</g>
</g>
<g>
	<g>
		<path fill="#8AC651" d="M108.002,335.023c1.137,1.136,2.864,2.9,4.646,2.083c0.473-0.218,0.396-0.916,0-1.154
			c-0.487-0.293-0.895-0.519-1.291-0.94c-0.536-0.57-1.158-1.073-1.714-1.629C108.584,332.324,106.943,333.965,108.002,335.023
			L108.002,335.023z"/>
	</g>
</g>
<g>
	<g>
		<path fill="#8AC651" d="M292.429,353.481c0.772,2.1,1.839,3.979,3.457,5.546c1.572,1.523,4.145,2.87,6.343,2.147
			c0.844-0.276,1.396-1.304,0.861-2.117c-0.871-1.33-2.294-2.183-3.479-3.238c-1.112-0.989-1.835-2.284-2.301-3.684
			C296.279,349.035,291.307,350.432,292.429,353.481L292.429,353.481z"/>
	</g>
</g>
<g>
	<g>
		<path fill="#8AC651" d="M240.083,337.692c0.176,5.479,5.224,10.934,11.012,9.63c1.106-0.248,1.534-1.823,0.683-2.585
			c-2.584-2.313-6.703-2.881-6.772-7.045C244.952,334.52,239.98,334.521,240.083,337.692L240.083,337.692z"/>
	</g>
</g>
<g>
	<g>
		<path fill="#8AC651" d="M331.732,336.529c-0.231,3.347,1.042,6.462,3.363,8.873c2.655,2.759,7.532,3.781,10.624,1.28
			c1.156-0.935,1.077-3.078,0-4.027c-0.983-0.866-2.073-1.044-3.109-1.62c-0.81-0.45-2.122-0.874-2.523-1.187
			c-1.467-1.144-2.26-2.961-3.376-4.668C335.218,332.895,331.917,333.869,331.732,336.529L331.732,336.529z"/>
	</g>
</g>
<g>
	<g>
		<path fill="#8AC651" d="M421.449,338.563c-2.048,3.152-4.292,6.563-4.815,10.346c-0.175,1.26,0.983,2.515,2.271,1.747
			c3.483-2.075,5.328-5.912,7.522-9.183C428.5,338.384,423.471,335.451,421.449,338.563L421.449,338.563z"/>
	</g>
</g>
<g>
	<g>
		<path fill="#8AC651" d="M520.017,322.169c-3.718,2.628-6.405,6.672-4.614,11.302c0.606,1.567,2.49,1.496,3.119,0
			c0.517-1.231,1.038-2.273,1.798-3.343c0.713-1.003,1.876-1.817,2.891-2.494C526.606,325.369,523.336,319.823,520.017,322.169
			L520.017,322.169z"/>
	</g>
</g>
<g>
	<g>
		<path fill="#8AC651" d="M521.44,243.659c-0.844,3.536-2.451,18.446,3.661,18.446s4.505-14.91,3.661-18.446
			C527.896,240.027,522.308,240.027,521.44,243.659L521.44,243.659z"/>
	</g>
</g>
<g>
	<g>
		<path fill="#8AC651" d="M487.159,214.436c-0.396,3.522-1.265,8.086,1.442,10.918c0.847,0.885,2.386,0.885,3.232,0
			c2.707-2.832,1.838-7.396,1.442-10.918C492.834,210.501,487.602,210.501,487.159,214.436L487.159,214.436z"/>
	</g>
</g>
</svg>
