<?xml version="1.0" encoding="utf-8"?>
<!-- Generator: Adobe Illustrator 16.0.0, SVG Export Plug-In . SVG Version: 6.00 Build 0)  -->
<!DOCTYPE svg PUBLIC "-//W3C//DTD SVG 1.1//EN" "http://www.w3.org/Graphics/SVG/1.1/DTD/svg11.dtd">
<svg version="1.1" id="Layer_1" xmlns="http://www.w3.org/2000/svg" xmlns:xlink="http://www.w3.org/1999/xlink" x="0px" y="0px"
	 width="129.226px" height="235.755px" viewBox="0 0 129.226 235.755" enable-background="new 0 0 129.226 235.755"
	 xml:space="preserve">
<g id="XMLID_1_">
	<g>
		<path fill="#808285" d="M64.84,222.33c-32.79,41.05-96.54-27.78-42.29-39.32C7.13,179.64,0.5,163.89,0.5,146.35
			c0-24.79,13.24-53.16,33.67-55.2C12.08,66.74,30.69,21.39,67.9,23.71C73.65,13.85,88.7,0.5,101.95,0.5c5.5,0,10.69,2.3,14.78,8.1
			h-1.16c22.09,12.79,15.12,45.34-11.63,43.02c10.47,5.81,13.96,27.91,13.96,38.37c-1.17,19.77-15.12,24.42-29.069,34.89
			c16.27,19.76,11.619,51.16-11.631,61.62C93.47,201.92,78.19,213.561,64.84,222.33z"/>
	</g>
	<g>
		<path fill="none" stroke="#666766" stroke-miterlimit="10" d="M64.84,222.33c-4.78,3.14-9.311,5.91-12.061,8.36"/>
		<path fill="none" stroke="#666766" stroke-miterlimit="10" d="M64.84,222.33c-32.79,41.05-96.54-27.78-42.29-39.32
			C7.13,179.64,0.5,163.89,0.5,146.35c0-24.79,13.24-53.16,33.67-55.2C12.08,66.74,30.69,21.39,67.9,23.71
			C73.65,13.85,88.7,0.5,101.95,0.5c5.5,0,10.69,2.3,14.78,8.1h-1.16c22.09,12.79,15.12,45.34-11.63,43.02
			c10.47,5.81,13.96,27.91,13.96,38.37c-1.17,19.77-15.12,24.42-29.069,34.89c16.27,19.76,11.619,51.16-11.631,61.62
			C93.47,201.92,78.19,213.561,64.84,222.33z"/>
		<path fill="none" stroke="#666766" stroke-miterlimit="10" d="M65.57,221.391c-0.239,0.319-0.479,0.63-0.729,0.939"/>
	</g>
</g>
<g>
	<g>
		<path fill="#CCCCCC" d="M41.232,173.793c5.033-4.318,8.096-10.961,7.033-17.634c-0.985-6.188-5.902-13.286-12.927-12.709
			c-1.788,0.147-2.922,1.885-2.034,3.544c2.159,4.032,6.185,6.519,6.675,11.453c0.459,4.62-0.701,9.164-1.686,13.635
			C37.903,173.856,39.894,174.94,41.232,173.793L41.232,173.793z"/>
	</g>
</g>
<g>
	<g>
		<path fill="#CCCCCC" d="M78.601,68.646c-7.507,5.435-16.402,17.059-10.544,26.583c0.657,1.069,2.018,0.502,2.162-0.585
			c0.6-4.5,0.448-8.854,2.265-13.123c1.732-4.075,4.903-7.313,8.333-10.003C82.446,70.239,80.278,67.432,78.601,68.646
			L78.601,68.646z"/>
	</g>
</g>
<g>
	<g>
		<path fill="#CCCCCC" d="M71.782,165.971c5.278-4.761,8.177-10.499,9.112-17.549c0.883-6.655,1.035-14.83-3.491-20.263
			c-0.906-1.087-2.964-0.513-3.231,0.853c-1.121,5.708,0.471,11.913,0.313,17.738c-0.168,6.191-1.853,12.769-3.643,18.673
			C70.67,165.988,71.381,166.332,71.782,165.971L71.782,165.971z"/>
	</g>
</g>
<g>
	<g>
		<path fill="#CCCCCC" d="M94.64,21.005c-0.298-0.017-0.597-0.034-0.895-0.051c0.799,0.458,1.599,0.917,2.397,1.375
			c-2.652-4.588-10.297-1.226-13.597,0.923c-4.173,2.719-7.872,8.739-6.22,13.811c0.53,1.629,2.273,1.914,3.525,0.931
			c2.722-2.136,4.425-5.468,7.096-7.761c1.306-1.121,2.817-1.814,4.45-2.303c1.867-0.56,3.878-0.792,4.745-2.797
			c-0.799,0.458-1.599,0.917-2.397,1.375c0.298-0.03,0.597-0.06,0.895-0.089C98.078,26.076,98.172,21.208,94.64,21.005L94.64,21.005
			z"/>
	</g>
</g>
</svg>
