<?xml version="1.0" encoding="utf-8"?>
<!-- Generator: Adobe Illustrator 16.0.0, SVG Export Plug-In . SVG Version: 6.00 Build 0)  -->
<!DOCTYPE svg PUBLIC "-//W3C//DTD SVG 1.1//EN" "http://www.w3.org/Graphics/SVG/1.1/DTD/svg11.dtd">
<svg version="1.1" id="Layer_1" xmlns="http://www.w3.org/2000/svg" xmlns:xlink="http://www.w3.org/1999/xlink" x="0px" y="0px"
	 width="223.53px" height="238.13px" viewBox="0 0 223.53 238.13" enable-background="new 0 0 223.53 238.13" xml:space="preserve">
<g id="XMLID_1_">
	<g>
		<path fill="#808285" d="M98.442,32.09c18.42-38.63,100.05-48.11,84.88,7.53c60.46-5.82,46.51,137.2-5.82,116.27
			c44.29,43.47,2.95,81.74-34.63,81.74c-15.7,0-30.74-6.68-38.62-22.43c-30.24,20.93-75.58,27.899-96.51-10.471
			c-20.93-36.04,6.97-70.93,39.53-86.04c-38.37-6.98-20.93-56.98-4.65-77.91C52.042,28.54,88.132,17.82,98.442,32.09z"/>
	</g>
	<g>
		<path fill="none" stroke="#BCBEC0" stroke-miterlimit="10" d="M98.442,32.09c-2.76,5.77-4.1,12.19-3.5,19.15"/>
		<path fill="none" stroke="#BCBEC0" stroke-miterlimit="10" d="M98.442,32.09c-10.31-14.27-46.4-3.55-55.82,8.69
			c-16.28,20.93-33.72,70.93,4.65,77.91c-32.56,15.11-60.46,50-39.53,86.04c20.93,38.37,66.27,31.4,96.51,10.471
			c7.88,15.75,22.92,22.43,38.62,22.43c37.58,0,78.92-38.27,34.63-81.74c52.33,20.93,66.28-122.09,5.82-116.27
			C198.492-16.02,116.862-6.54,98.442,32.09z"/>
		<path fill="none" stroke="#BCBEC0" stroke-miterlimit="10" d="M100.762,46.59c1.11-6.42,0.11-11.15-2.32-14.5"/>
	</g>
</g>
<g>
	<g>
		<path fill="#BCBEC0" d="M63.433,151.125c9.289-9.13,20.532-1.501,25.542,8.125c2.615,5.024,3.224,11.001,1.565,16.403
			c-2.364,7.7-10.101,11.055-15.614,16.034c-1.292,1.167-0.291,3.48,1.417,3.421c9.69-0.337,17.727-8.022,21.132-16.66
			c3.03-7.688,1.092-16.494-2.863-23.439c-6.844-12.018-24.695-20.494-33.497-5.673C60.249,150.792,62.24,152.297,63.433,151.125
			L63.433,151.125z"/>
	</g>
</g>
<g>
	<g>
		<path fill="#BCBEC0" d="M179.715,61.081c-7.846-4.276-18.844,0.562-24.531,6.419c-5.732,5.905-7.762,14.576-6.46,22.552
			c1.333,8.169,6.285,15.137,13.291,19.452c4.211,2.594,9.269,3.623,14.127,4.005c4.713,0.371,14.046,0.473,16.331-4.5
			c0.956-2.079,0.441-3.944-1.387-5.291c-3.387-2.494-9.006-0.124-12.968-0.046c-3.594,0.07-7.235-0.629-10.471-2.216
			c-5.379-2.639-8.924-7.246-10.34-13.033c-1.278-5.23,0.132-11.094,3.621-15.178c5.067-5.932,12.354-5.346,18.786-8.582
			C181.102,63.965,181.03,61.798,179.715,61.081L179.715,61.081z"/>
	</g>
</g>
<g>
	<g>
		<path fill="#BCBEC0" d="M101.154,86.897c6.836,7.182,3.307,14.497-4.252,19.353c-3.271,2.101-0.432,6.851,3.02,5.167
			c9.94-4.851,16.351-22.17,2.292-26.341C101.14,84.757,100.419,86.126,101.154,86.897L101.154,86.897z"/>
	</g>
</g>
<g>
	<g>
		<path fill="#BCBEC0" d="M154.867,183.713c10.776-4.414,9.063-18.736,2.938-26.142c-5.735-6.934-22.115-10.224-26.315,0.144
			c-0.477,1.176,0.708,2.392,1.831,2.403c3.246,0.034,6.227-1.652,9.561-1.604c3.336,0.048,6.461,1.496,8.886,3.729
			c2.41,2.219,3.642,5.337,3.704,8.566c0.073,3.758-2.316,6.651-3.458,10.05C151.489,182.417,153.234,184.382,154.867,183.713
			L154.867,183.713z"/>
	</g>
</g>
</svg>
