<?xml version="1.0" encoding="utf-8"?>
<!-- Generator: Adobe Illustrator 16.0.0, SVG Export Plug-In . SVG Version: 6.00 Build 0)  -->
<!DOCTYPE svg PUBLIC "-//W3C//DTD SVG 1.1//EN" "http://www.w3.org/Graphics/SVG/1.1/DTD/svg11.dtd">
<svg version="1.1" id="Layer_1" xmlns="http://www.w3.org/2000/svg" xmlns:xlink="http://www.w3.org/1999/xlink" x="0px" y="0px"
	 width="595.28px" height="841.89px" viewBox="0 0 595.28 841.89" enable-background="new 0 0 595.28 841.89" xml:space="preserve">
<g id="XMLID_1_">
	<g>
		<path fill="#939598" d="M227.96,213.9c10.67-17.98,33.77-34.53,47.44-37.74c36.041-8.14,83.72,20.93,74.41,60.47
			c-4.649,22.09-23.25,36.04-40.689,47.67c116.28-43.02,109.3,156.98,8.14,127.91c-24.42-6.98-41.86-26.74-56.98-45.35
			c2.32,48.84-52.33,84.88-93.02,54.65c-52.33-39.53-17.45-87.21,31.39-102.32c-33.72-5.82-61.63-39.54-37.21-72.1
			C175.38,228.5,202.71,215.85,227.96,213.9z"/>
	</g>
	<g>
		<path fill="none" stroke="#939598" stroke-miterlimit="10" d="M227.96,213.9c6.34-0.49,12.54-0.3,18.37,0.63"/>
		<path fill="none" stroke="#939598" stroke-miterlimit="10" d="M227.96,213.9c10.67-17.98,33.77-34.53,47.44-37.74
			c36.041-8.14,83.72,20.93,74.41,60.47c-4.649,22.09-23.25,36.04-40.689,47.67c116.28-43.02,109.3,156.98,8.14,127.91
			c-24.42-6.98-41.86-26.74-56.98-45.35c2.32,48.84-52.33,84.88-93.02,54.65c-52.33-39.53-17.45-87.21,31.39-102.32
			c-33.72-5.82-61.63-39.54-37.21-72.1C175.38,228.5,202.71,215.85,227.96,213.9z"/>
		<path fill="none" stroke="#939598" stroke-miterlimit="10" d="M223.07,237.79c-2.16-7.54,0.13-15.86,4.89-23.89"/>
	</g>
</g>
<g>
	<g>
		<path fill="#BCBEC0" d="M273.568,228.403c-27.229,11.115,0.67,40.005,17.442,45.519c3.072,1.01,4.377-3.819,1.329-4.821
			c-11.541-3.794-38.725-27.188-17.442-35.876C277.84,232.023,276.554,227.184,273.568,228.403L273.568,228.403z"/>
	</g>
</g>
<g>
	<g>
		<path fill="#BCBEC0" d="M325.229,322.576c-13.257-20.56-46.512,12.031-28.345,28.61c2.376,2.168,5.922-1.357,3.535-3.535
			c-13.129-11.982,11.597-36.348,20.491-22.552C322.651,327.798,326.98,325.294,325.229,322.576L325.229,322.576z"/>
	</g>
</g>
<g>
	<g>
		<path fill="#BCBEC0" d="M227.721,276.337c8.753,0.304,10.067,11.388,9.988,18.124c-0.088,7.529-2.247,18.015-8.924,22.566
			c-2.647,1.804-0.149,6.139,2.523,4.317c13.363-9.108,19.023-49.223-3.587-50.007C224.495,271.226,224.506,276.226,227.721,276.337
			L227.721,276.337z"/>
	</g>
</g>
<g>
	<g>
		<path fill="#BCBEC0" d="M215.535,358.163c3.313-3.45,6.662-5.301,11.155-2.958c3.821,1.992,6.792,6.083,9.337,9.429
			c1.925,2.53,6.271,0.044,4.317-2.523c-3.459-4.546-7.348-9.83-12.831-12.05c-6.069-2.458-11.227,0.104-15.514,4.568
			C209.767,356.953,213.298,360.493,215.535,358.163L215.535,358.163z"/>
	</g>
</g>
</svg>
