<?xml version="1.0" encoding="utf-8"?>
<!-- Generator: Adobe Illustrator 16.0.0, SVG Export Plug-In . SVG Version: 6.00 Build 0)  -->
<!DOCTYPE svg PUBLIC "-//W3C//DTD SVG 1.1//EN" "http://www.w3.org/Graphics/SVG/1.1/DTD/svg11.dtd">
<svg version="1.1" id="Layer_1" xmlns="http://www.w3.org/2000/svg" xmlns:xlink="http://www.w3.org/1999/xlink" x="0px" y="0px"
	 width="389.553px" height="404.343px" viewBox="0 0 389.553 404.343" enable-background="new 0 0 389.553 404.343"
	 xml:space="preserve">
<path fill="none" stroke="#FFF200" stroke-width="11" stroke-miterlimit="10" d="M337.962,214.919
	c-56.038,11.921-56.549,17.842-37.969,48.539c-20.539-19.174-21.987-13.572-21.792-0.334c-1.975-1.219-3.54-0.527-4.946,1.089
	c-1.407,1.616-2.657,4.155-1.951,4.722c-4.747,6.873-7.829,11.59,7.913,8.91c-22.601,11.553-26.377,15.706,10.882,30.969
	c-45.425-7.6-49.813-4.092-52.719,35.83c-4.544-34.891-7.432-33.134-17.596-10.047c4.242-19.859,1.211-18.389-7.809-6.703
	c2.738-9.029-0.511-7.844-4.134-2.74c1.224-1.59,2.071,0.738,6.283,5.465c-5.131-2.215-10.01-3.004-13.863-2.885
	c-11.561,0.354-13.896,8.867-7.316,41.27c-23.271-43.203-30.349-43.938-56.191-25.568c8.115-14.111,7.89-19.732,3.328-22.236
	c-2.281-1.252-5.646-1.725-8.961-1.365c-0.991-2.834-2.663-4.701-1.282-0.137c-5.94-8.188-8.829-9.943-5.718,4.861
	c-10.559-19.836-14.949-23.344-28.513,16.168c5.399-47.175,1.623-51.328-44.876-52.676c39.641-7.525,36.559-12.242,18.759-24.414
	c13.759,4.732,12.509,2.193,4.353-4.223c5.75,2.814,4.594,1.754,0.014-0.377c2.702-3.27,1.981-7.61-0.371-8.098
	c-2.351-0.486-6.333,2.881-13.573,12.418c12.52-30.596,12.01-36.517-49.014-35.426c61.023-13.173,61.533-19.094,44.045-45.939
	c9.724,7.661,14.948,10.091,17.627,9.01c2.68-1.082,2.814-5.675-1.059-9.469c5.751-1.607,7.494-2.415,0.996,0.831
	c9.491-6.595,10.741-9.134-4.651-5.729c19.433-10.845,22.514-15.562-7.806-28.592c37.179,4.158,40.956,0.004,26.717-34.376
	c22.404,26.718,26.793,23.209,32.504,1.527c1.738,16.651,4.626,14.895,9.954,5.61c0.398,6.09,3.236,4.651,6.058,3.208
	c3.459-1.213,6.903-2.431,7.745-4.755c0.842-2.324-0.917-5.754-7.734-11.582c27.303,8.859,34.38,8.124,25.41-56.696
	c23.467,64.82,30.544,65.555,58.462,47.59c-9.498,13.842-9.734,19.372-5.734,21.94c2,1.284,5.06,1.828,8.004,1.629
	c1.592,2.62,3.607,4.407,2.656-0.988c5.855,8.938,8.743,10.694,8.577-5.723c7.615,21.448,12.004,24.957,33.177-3.563
	c-13.007,36.182-9.23,40.335,28.804,37.289c-31.176,11.919-28.094,16.636-9.807,28.67c-14.246-4.595-12.996-2.055-4.819,5.124
	c-5.688-3.549-4.448-2.459,0.126,0.204c-2.696,2.738-2.059,7.05,0.489,7.965c2.549,0.915,7.007-1.566,15.199-9.331
	C281.414,208.837,281.924,214.758,337.962,214.919z"/>
</svg>
