<?xml version="1.0" encoding="utf-8"?>
<!-- Generator: Adobe Illustrator 16.0.0, SVG Export Plug-In . SVG Version: 6.00 Build 0)  -->
<!DOCTYPE svg PUBLIC "-//W3C//DTD SVG 1.1//EN" "http://www.w3.org/Graphics/SVG/1.1/DTD/svg11.dtd">
<svg version="1.1" xmlns="http://www.w3.org/2000/svg" xmlns:xlink="http://www.w3.org/1999/xlink" x="0px" y="0px"
	 width="578.684px" height="162.144px" viewBox="0 0 578.684 162.144" enable-background="new 0 0 578.684 162.144"
	 xml:space="preserve">
<g id="Layer_2">
	<g id="XMLID_1_">
		<g>
			<path fill="#F1F2F2" d="M496.79,2.601c29.503,3.98,51.97,27.85,19.668,42.77c-32.301,13.92-81.461-1-116.57-3.98
				c-37.478-2.42-71.275,8.17-103.625,20.2c1.116-15.69-5.235-27.13-16.204-35.39c31.714,4.23,61.167,3.94,93.136-1.72
				C411.121,16.521,454.655-3.37,496.79,2.601z"/>
			<path fill="#F1F2F2" d="M296.263,61.59c0,0.16-0.02,0.33-0.029,0.5c-3.415,37.21-62.576,41.86-88.751,45.351
				c-26.038,4.43-59.366,11.58-85.326,1.81c-8.063-3.04-15.422-7.71-21.625-14.6c-21.792-23.66-15.46-45.23,0.695-61.49
				c0,0,0.01-0.02,0.02-0.02c15.373-8.53,30.882-17.15,46.783-23.45l-0.195-0.5c1.614-0.64,3.19-1.38,4.707-2.23
				c41.264-2.34,99.486-1.89,127.52,19.24C291.028,34.46,297.379,45.9,296.263,61.59z"/>
			<path fill="#F1F2F2" d="M100.53,94.651c6.204,6.89,13.563,11.56,21.625,14.6c-38.329,13.32-72.401,35.33-110.377,49.35
				c15.93-17.439,35.275-27.909,53.476-43.02c-14.786,6.97-34.131,17.44-51.196,15.11c9.1-16.28,27.31-27.9,39.825-41.86
				C36.81,90,20.889,95.811,2.679,92.321c17.065-22.09,51.206-34.88,75.101-46.51c7.799-3.99,15.607-8.31,23.445-12.65
				C85.07,49.42,78.739,70.991,100.53,94.651z"/>
		</g>
		<g>
			<path fill="none" stroke="#BCBEC0" stroke-width="3" stroke-miterlimit="10" d="M101.245,33.141c1.36-1.37,2.789-2.71,4.286-4"/>
			<path fill="none" stroke="#BCBEC0" stroke-width="3" stroke-miterlimit="10" d="M152.539,6.96
				c41.264-2.34,99.486-1.89,127.52,19.24c10.969,8.26,17.32,19.7,16.204,35.39c0,0.16-0.02,0.33-0.029,0.5
				c-3.415,37.21-62.576,41.86-88.751,45.351c-26.038,4.43-59.366,11.58-85.326,1.81c-8.063-3.04-15.422-7.71-21.625-14.6
				c-21.792-23.66-15.46-45.23,0.695-61.49"/>
			<path fill="none" stroke="#BCBEC0" stroke-width="3" stroke-miterlimit="10" d="M274.882,25.471c1.732,0.26,3.454,0.5,5.176,0.73
				c31.714,4.23,61.167,3.94,93.136-1.72c37.927-7.96,81.461-27.85,123.596-21.88c29.503,3.98,51.97,27.85,19.668,42.77
				c-32.301,13.92-81.461-1-116.57-3.98c-37.478-2.42-71.275,8.17-103.625,20.2c-7.662,2.85-15.245,5.78-22.78,8.64"/>
			<path fill="none" stroke="#BCBEC0" stroke-width="3" stroke-miterlimit="10" d="M154.006,7.44c-1.996,0.71-3.993,1.46-5.979,2.25
				c-15.901,6.3-31.41,14.92-46.783,23.45c-0.01,0-0.02,0.02-0.02,0.02c-7.838,4.34-15.646,8.66-23.445,12.65
				C53.884,57.44,19.744,70.23,2.679,92.321c18.21,3.49,34.131-2.32,51.206-3.49c-12.515,13.96-30.725,25.58-39.825,41.86
				c17.065,2.33,36.41-8.141,51.196-15.11c-18.201,15.11-37.546,25.58-53.476,43.02c37.976-14.02,72.048-36.029,110.377-49.35
				c3.004-1.06,6.037-2.05,9.1-2.979c30.715-9.301,64.856-10.46,96.707-12.79c17.075-1.16,30.726-2.32,45.521-10.46"/>
		</g>
	</g>
</g>
<g id="Layer_3">
	<g>
		<g>
			<path d="M514.416,22.349c6.271,8.235,17.291,12.45,26.906,15.452c9.634,3.008,19.382,3.789,29.255,5.467
				c0-4.161,0-8.322,0-12.482c-8.73,1.213-18.096-3.759-26.448-5.733c-9.72-2.297-20.842,0.063-28.43,6.539
				c-7.482,6.385,3.844,18.01,10.871,10.872c5.344-5.427,13.555-2.693,20.265-1.584c8.28,1.368,17.032,3.411,25.463,2.621
				c6.865-0.643,9.296-10.971,1.721-12.713c-8.615-1.981-16.883-4.613-25.26-7.455c-4.094-1.389-7.928-3.207-11.833-5.039
				c-4.733-2.22-8.851-5.52-13.723-7.373C517.102,8.598,510.347,17.004,514.416,22.349L514.416,22.349z"/>
		</g>
	</g>
	<g>
		<g>
			<path d="M497.879,30.497c5.314,0,9.75-4.435,9.75-9.75s-4.436-9.75-9.75-9.75s-9.75,4.435-9.75,9.75
				S492.564,30.497,497.879,30.497L497.879,30.497z"/>
		</g>
	</g>
	<g>
		<g>
			<path fill="#F9EF6B" d="M525.264,7.664c-0.038-0.014-0.076-0.028-0.114-0.043c0.854,0.36,1.706,0.72,2.559,1.08
				c-0.892-0.387-0.837-0.617-2.602-1.103c-1.871-0.514-3.754-0.486-5.623,0.014c-3.813,1.021-6.895,4.03-7.943,7.844
				c-1.056,3.84,0.056,8.041,2.869,10.854c3.542,3.542,9.192,4.279,13.52,1.745c3.393-1.988,5.525-5.699,5.525-9.633
				c-0.006-2.014-0.514-3.891-1.523-5.631c-0.581-0.752-1.163-1.505-1.744-2.258C528.795,9.15,527.153,8.194,525.264,7.664
				L525.264,7.664z"/>
		</g>
	</g>
	<g>
		<g>
			<path d="M108.786,103.729c-5.701,8.19-13.03,15.438-20.145,22.388c-3.317,3.241-6.782,6.331-10.289,9.364
				c-3.364,2.91-7.178,5.475-9.77,9.131c-0.47,0.663,0.317,1.736,1.095,1.422c8.122-3.28,15.213-11.488,21.392-17.49
				c7.462-7.248,13.649-15.178,18.984-24.072C110.547,103.647,109.319,102.963,108.786,103.729L108.786,103.729z"/>
		</g>
	</g>
	<g>
		<g>
			<path d="M85.919,128.522c-6.209-0.168-13.144,2.287-18.933,4.266c-2.511,0.859-12.973,4.156-11.853,8.229
				c0.283,1.031,1.577,1.786,2.568,1.045c2.359-1.764,4.642-3.268,7.309-4.551c6.805-3.273,14.139-4.447,21.195-6.871
				C87.347,130.249,87.167,128.555,85.919,128.522L85.919,128.522z"/>
		</g>
	</g>
	<g>
		<g>
			<path d="M84.56,130.1c-0.416,5.482-1.6,10.224-3.749,15.274c-1.357,3.192-3.418,6.229-3.688,9.726
				c-0.055,0.701,0.903,1.045,1.36,0.563c2.693-2.835,3.957-7.18,5.361-10.8c1.797-4.632,3.03-9.787,2.435-14.764
				C86.149,129.013,84.645,128.976,84.56,130.1L84.56,130.1z"/>
		</g>
	</g>
	<g>
		<g>
			<path d="M84.565,91.993c-7.961,5.15-15.207,11.313-22.307,17.57c-3.7,3.262-7.404,6.516-11.137,9.738
				c-3.262,2.816-7.039,5.453-9.39,9.105c-0.612,0.951,0.416,2.479,1.553,2.02c7.749-3.125,14.42-11.15,20.542-16.67
				c7.396-6.668,14.744-13.42,21.59-20.659C85.952,92.532,85.254,91.546,84.565,91.993L84.565,91.993z"/>
		</g>
	</g>
	<g>
		<g>
			<path d="M57.419,113.444c-5.101-0.555-10.482,1.881-15.063,3.828c-4.342,1.845-10.04,4.299-12.842,8.3
				c-0.506,0.724,0.339,1.868,1.183,1.538c4.182-1.641,7.962-4.488,12.012-6.463c4.85-2.365,9.732-3.957,15.018-4.932
				C59.112,115.459,58.614,113.574,57.419,113.444L57.419,113.444z"/>
		</g>
	</g>
	<g>
		<g>
			<path d="M58.056,115.095c-3.035,6.927-3.124,15.052-5.345,22.31c-0.224,0.732,0.707,1.195,1.228,0.715
				c5.834-5.385,4.438-15.129,5.944-22.254C60.105,114.817,58.534,114.006,58.056,115.095L58.056,115.095z"/>
		</g>
	</g>
</g>
</svg>
