<?xml version="1.0" encoding="utf-8"?>
<!-- Generator: Adobe Illustrator 16.0.0, SVG Export Plug-In . SVG Version: 6.00 Build 0)  -->
<!DOCTYPE svg PUBLIC "-//W3C//DTD SVG 1.1//EN" "http://www.w3.org/Graphics/SVG/1.1/DTD/svg11.dtd">
<svg version="1.1" id="Layer_1" xmlns="http://www.w3.org/2000/svg" xmlns:xlink="http://www.w3.org/1999/xlink" x="0px" y="0px"
	 width="146.204px" height="211.081px" viewBox="0 0 146.204 211.081" enable-background="new 0 0 146.204 211.081"
	 xml:space="preserve">
<g id="XMLID_2_">
	<g>
		<path fill="#F1F2F2" d="M144.125,51.292c1,32,3,50-17,77c-17.57,24.41-37.05,52.63-59.37,74.42c-15.56-6.01-47.07,0.76-61.63,6.58
			c-13-15,4-33,19-38c-15-16,8-44,23-50v-1c-30-16,12-44,27-48v-1c-17.6-15.65,13.57-33.21,28.98-30.23
			c0.01,0.08,0.01,0.15,0.02,0.23h1c-0.33-0.09-0.67-0.16-1.02-0.23c-0.841-10.9-1.881-25.08,6.079-33.78
			c4.601-5.03,12.021-7.18,18.431-4.83c6.14,2.25,10.609,3.55,12.529,8.38C141.365,23.981,143.185,37.202,144.125,51.292z"/>
	</g>
	<g>
		<path fill="none" stroke="#BCBEC0" stroke-width="3" stroke-miterlimit="10" d="M66.125,204.292c0.54-0.52,1.09-1.05,1.63-1.58
			c22.32-21.79,41.8-50.01,59.37-74.42c20-27,18-45,17-77c-0.94-14.09-2.76-27.31-2.98-40.46c-0.01-0.85-0.02-1.69-0.02-2.54"/>
		<path fill="none" stroke="#BCBEC0" stroke-width="3" stroke-miterlimit="10" d="M104.105,41.062
			c-15.41-2.98-46.581,14.58-28.98,30.23v1c-15,4-57,32-27,48v1c-15,6-38,34-23,50c-15,5-32,23-19,38
			c14.56-5.82,46.07-12.59,61.63-6.58c0.47,0.18,0.93,0.37,1.37,0.58"/>
		<path fill="none" stroke="#BCBEC0" stroke-width="3" stroke-miterlimit="10" d="M104.105,41.062c0.01,0.08,0.01,0.15,0.02,0.23h1
			C104.795,41.202,104.455,41.131,104.105,41.062z"/>
		<path fill="none" stroke="#BCBEC0" stroke-width="3" stroke-miterlimit="10" d="M142.125,15.622c-0.13-1.92-0.46-3.48-0.98-4.79
			c-1.92-4.83-6.39-6.13-12.529-8.38c-6.41-2.35-13.83-0.2-18.431,4.83c-7.96,8.7-6.92,22.88-6.079,33.78"/>
	</g>
</g>
<g>
	<g>
		<path fill="#BCBEC0" d="M119.445,81.888c-11.302-6.997-20.079,15.313-11.23,22.105c0.579,0.444,1.393-0.287,1.193-0.917
			c-1.214-3.843-1.09-8.21,0.004-12.072c1.382-4.881,4.443-6.524,9.213-6.087C120.319,85.072,120.727,82.682,119.445,81.888
			L119.445,81.888z"/>
	</g>
</g>
<g>
	<g>
		<path fill="#BCBEC0" d="M107.788,102.128c-2.066-1.608-3.613-2.7-6.356-2.044c-2.461,0.588-4.323,2.745-5.715,4.707
			c-2.785,3.928-4.87,11.159-1.982,15.521c0.526,0.795,1.997,0.57,1.922-0.521c-0.347-5.041,2.805-20.506,10.995-16.19
			C107.55,104.074,108.662,102.809,107.788,102.128L107.788,102.128z"/>
	</g>
</g>
<g>
	<g>
		<path fill="#BCBEC0" d="M94.416,117.737c-5.16-1.321-9.629,1.87-12.634,5.849c-3.117,4.13-6.64,10.838-6.188,16.206
			c0.081,0.964,1.392,1.481,1.922,0.521c2.036-3.692,2.999-7.895,5.194-11.58c2.771-4.652,6.167-8.086,11.706-8.886
			C95.523,119.686,95.398,117.989,94.416,117.737L94.416,117.737z"/>
	</g>
</g>
<g>
	<g>
		<path fill="#BCBEC0" d="M76.287,139.704c-9.453-2.725-16.678,12.358-10.792,19.218c0.553,0.644,1.462,0.071,1.521-0.63
			c0.289-3.453-0.15-6.682,0.867-10.101c1.208-4.063,4.227-6.709,8.404-7.312C76.915,140.789,76.821,139.858,76.287,139.704
			L76.287,139.704z"/>
	</g>
</g>
<g>
	<g>
		<path fill="#BCBEC0" d="M65.937,156.662c-13.402-2.731-21.483,20.801-7.019,23.883c0.715,0.152,1.382-0.752,0.76-1.306
			c-3.726-3.315-6-6.944-4.643-12.041c1.335-5.013,5.732-7.691,10.591-8.234C66.84,158.828,67.335,156.947,65.937,156.662
			L65.937,156.662z"/>
	</g>
</g>
<g>
	<g>
		<path fill="#BCBEC0" d="M114.188,58.728c-6.505-7.196-22.708,7.349-11.789,13.305c0.114-0.876,0.229-1.751,0.344-2.627
			c-8.291,2.874-25.719,13.779-13.246,22.461c0.209-0.773,0.419-1.546,0.628-2.319c-11.703,0.272-20.505,11.539-14.429,22.288
			c0.215-0.526,0.429-1.054,0.643-1.58c-8.728,1.793-20.238,11.431-12.52,20.343c0.167-0.635,0.335-1.27,0.503-1.904
			c-10.104,3.335-17.469,11.355-9.806,21.208c0.23-0.874,0.461-1.748,0.692-2.622c-9.378,1.699-18.245,9.253-16.225,19.465
			c0.261-0.641,0.521-1.281,0.782-1.922c-7.077,3.27-8.184,14.942,0.485,16.826c1.476,0.32,2.618-1.918,1.084-2.57
			c-5.293-2.252-4.752-8.949,0.149-11.316c0.707-0.341,0.934-1.218,0.782-1.922c-1.906-8.835,5.92-14.456,13.775-15.535
			c0.948-0.131,1.499-1.554,0.937-2.305c-6.26-8.376-0.341-14.183,7.949-17.109c0.822-0.29,1.105-1.244,0.503-1.904
			c-7.184-7.877,4.251-15.605,11.48-16.657c0.715-0.104,0.942-1.032,0.643-1.58c-2.372-4.337-2.68-8.493-0.436-12.933
			c2.51-4.965,7.997-5.922,13.007-5.779c1.309,0.038,1.604-1.661,0.628-2.319c-10.345-6.978,6.497-15.842,12.754-17.539
			c1.254-0.34,1.354-1.958,0.344-2.627c-6.587-4.363,4.483-11.869,9.372-9.571C114.036,60.362,114.815,59.422,114.188,58.728
			L114.188,58.728z"/>
	</g>
</g>
</svg>
