<?xml version="1.0" encoding="utf-8"?>
<!-- Generator: Adobe Illustrator 16.0.0, SVG Export Plug-In . SVG Version: 6.00 Build 0)  -->
<!DOCTYPE svg PUBLIC "-//W3C//DTD SVG 1.1//EN" "http://www.w3.org/Graphics/SVG/1.1/DTD/svg11.dtd">
<svg version="1.1" id="Layer_1" xmlns="http://www.w3.org/2000/svg" xmlns:xlink="http://www.w3.org/1999/xlink" x="0px" y="0px"
	 width="146.204px" height="211.081px" viewBox="0 0 146.204 211.081" enable-background="new 0 0 146.204 211.081"
	 xml:space="preserve">
<g id="XMLID_3_">
	<g>
		<path fill="#F1F2F2" d="M144.125,159.789c1-32,3-50-17-77c-17.57-24.41-37.05-52.63-59.37-74.42
			c-15.56,6.01-47.07-0.76-61.63-6.58c-13,15,4,33,19,38c-15,16,8,44,23,50v1c-30,16,12,44,27,48v1
			c-17.6,15.65,13.57,33.211,28.98,30.23c0.01-0.08,0.01-0.15,0.02-0.23h1c-0.33,0.091-0.67,0.16-1.02,0.23
			c-0.841,10.9-1.881,25.08,6.079,33.78c4.601,5.029,12.021,7.18,18.431,4.83c6.14-2.25,10.609-3.551,12.529-8.38
			C141.365,187.099,143.185,173.879,144.125,159.789z"/>
	</g>
	<g>
		<path fill="none" stroke="#BCBEC0" stroke-width="3" stroke-miterlimit="10" d="M66.125,6.789c0.54,0.52,1.09,1.05,1.63,1.58
			c22.32,21.79,41.8,50.01,59.37,74.42c20,27,18,45,17,77c-0.94,14.091-2.76,27.311-2.98,40.461c-0.01,0.85-0.02,1.689-0.02,2.539"
			/>
		<path fill="none" stroke="#BCBEC0" stroke-width="3" stroke-miterlimit="10" d="M104.105,170.019
			c-15.41,2.98-46.581-14.58-28.98-30.23v-1c-15-4-57-32-27-48v-1c-15-6-38-34-23-50c-15-5-32-23-19-38
			c14.56,5.82,46.07,12.59,61.63,6.58c0.47-0.18,0.93-0.37,1.37-0.58"/>
		<path fill="none" stroke="#BCBEC0" stroke-width="3" stroke-miterlimit="10" d="M104.105,170.019c0.01-0.08,0.01-0.15,0.02-0.23h1
			C104.795,169.879,104.455,169.949,104.105,170.019z"/>
		<path fill="none" stroke="#BCBEC0" stroke-width="3" stroke-miterlimit="10" d="M142.125,195.459c-0.13,1.92-0.46,3.479-0.98,4.79
			c-1.92,4.829-6.39,6.13-12.529,8.38c-6.41,2.35-13.83,0.199-18.431-4.83c-7.96-8.7-6.92-22.88-6.079-33.78"/>
	</g>
</g>
<g>
	<g>
		<path fill="#BCBEC0" d="M118.625,126.164c-4.934,0.452-7.613-1.257-9.213-6.088c-1.237-3.733-1.182-8.343-0.004-12.071
			c0.199-0.631-0.614-1.362-1.193-0.917c-8.849,6.792-0.071,29.102,11.23,22.104C120.727,128.399,120.319,126.008,118.625,126.164
			L118.625,126.164z"/>
	</g>
</g>
<g>
	<g>
		<path fill="#BCBEC0" d="M106.651,107.479c-8.19,4.315-11.342-11.149-10.995-16.19c0.075-1.091-1.396-1.315-1.922-0.521
			c-2.998,4.53-0.611,11.381,1.982,15.521c1.353,2.158,3.316,3.856,5.715,4.707c2.579,0.914,4.463-0.571,6.356-2.045
			C108.662,108.271,107.55,107.005,106.651,107.479L106.651,107.479z"/>
	</g>
</g>
<g>
	<g>
		<path fill="#BCBEC0" d="M94.416,91.234c-5.132-0.741-8.496-3.729-11.193-8.021c-2.477-3.942-3.503-8.449-5.707-12.445
			c-0.53-0.961-1.841-0.443-1.922,0.521c-0.426,5.071,2.788,11.397,5.595,15.419c3.01,4.313,7.721,8.046,13.228,6.636
			C95.398,93.091,95.523,91.394,94.416,91.234L94.416,91.234z"/>
	</g>
</g>
<g>
	<g>
		<path fill="#BCBEC0" d="M76.287,70.201c-4.003-0.578-6.639-2.874-8.146-6.576c-1.453-3.567-0.817-7.157-1.125-10.837
			c-0.059-0.701-0.968-1.273-1.521-0.63c-5.886,6.859,1.339,21.943,10.792,19.217C76.821,71.222,76.915,70.291,76.287,70.201
			L76.287,70.201z"/>
	</g>
</g>
<g>
	<g>
		<path fill="#BCBEC0" d="M65.625,52.116c-5.104-0.57-8.919-3.255-10.591-8.234c-1.658-4.939,1.106-8.893,4.643-12.042
			c0.623-0.554-0.045-1.458-0.76-1.306c-14.464,3.083-6.383,26.614,7.019,23.883C67.335,54.133,66.84,52.252,65.625,52.116
			L65.625,52.116z"/>
	</g>
</g>
<g>
	<g>
		<path fill="#BCBEC0" d="M113.223,151.1c-4.889,2.298-15.959-5.207-9.372-9.57c1.011-0.67,0.91-2.287-0.344-2.627
			c-6.257-1.697-23.099-10.562-12.754-17.539c0.976-0.658,0.681-2.357-0.628-2.32c-4.573,0.131-8.281-0.577-11.673-3.868
			c-4.083-3.961-3.336-10.386-0.898-14.844c0.3-0.548,0.072-1.476-0.643-1.58c-7.23-1.052-18.664-8.781-11.48-16.657
			c0.603-0.661,0.319-1.615-0.503-1.905c-8.29-2.926-14.209-8.733-7.949-17.109c0.562-0.751,0.011-2.173-0.937-2.304
			c-7.855-1.08-15.681-6.7-13.775-15.535c0.152-0.705-0.076-1.581-0.782-1.922c-4.901-2.367-5.443-9.064-0.149-11.316
			c1.534-0.653,0.392-2.891-1.084-2.57c-8.669,1.884-7.562,13.556-0.485,16.826c-0.261-0.641-0.521-1.281-0.782-1.922
			C36.963,54.548,45.83,62.101,55.208,63.8c-0.23-0.874-0.461-1.748-0.692-2.621c-7.663,9.852-0.297,17.873,9.806,21.208
			c-0.168-0.635-0.335-1.27-0.503-1.905c-7.719,8.913,3.792,18.55,12.52,20.344c-0.214-0.527-0.428-1.053-0.643-1.58
			c-6.076,10.748,2.726,22.016,14.429,22.288c-0.209-0.773-0.419-1.547-0.628-2.32c-12.473,8.683,4.955,19.588,13.246,22.461
			c-0.115-0.875-0.229-1.751-0.344-2.627c-10.919,5.955,5.284,20.501,11.789,13.305C114.815,151.658,114.036,150.718,113.223,151.1
			L113.223,151.1z"/>
	</g>
</g>
</svg>
