<?xml version="1.0" encoding="utf-8"?>
<!-- Generator: Adobe Illustrator 16.0.0, SVG Export Plug-In . SVG Version: 6.00 Build 0)  -->
<!DOCTYPE svg PUBLIC "-//W3C//DTD SVG 1.1//EN" "http://www.w3.org/Graphics/SVG/1.1/DTD/svg11.dtd">
<svg version="1.1" xmlns="http://www.w3.org/2000/svg" xmlns:xlink="http://www.w3.org/1999/xlink" x="0px" y="0px"
	 width="481.617px" height="252.11px" viewBox="0 0 481.617 252.11" enable-background="new 0 0 481.617 252.11"
	 xml:space="preserve">
<g id="Layer_4">
	<g>
		<g>
			<path fill="#F9ED32" d="M186.633,94.863c7.03-21.105,29.615-31.437,50.722-29.904c10.156,0.737,20.004,4.988,27.256,12.14
				c12.432,12.26,11.91,29.372,9.01,45.372c-1.029,5.673,7.644,8.098,8.678,2.393c1.88-10.367,3.165-20.592,1.224-31.05
				c-1.424-7.67-5.499-14.82-10.425-20.764c-8.348-10.074-20.983-15.25-33.669-16.882c-25.76-3.313-53.108,11.189-61.474,36.304
				C176.115,97.992,184.809,100.341,186.633,94.863L186.633,94.863z"/>
		</g>
	</g>
	<g>
		<g>
			<path fill="#F9ED32" d="M209.621,62.47c-1.347,5.068,2.52,11.646,4.583,16.092c3.387,7.301,9.17,13.896,10.256,22.104
				c0.75,5.667,9.759,5.741,9,0c-0.961-7.263-4.05-13.358-7.67-19.647c-1.908-3.314-3.822-6.621-5.157-10.215
				c-0.541-1.455-2.53-5.2-2.333-5.941C219.792,59.247,211.11,56.866,209.621,62.47L209.621,62.47z"/>
		</g>
	</g>
	<g>
		<g>
			<path fill="#F9ED32" d="M261.779,71.818c-11.822,11.127-19.021,26.065-30.667,37.333c-4.177,4.042,2.193,10.399,6.364,6.364
				c11.651-11.273,18.853-26.214,30.666-37.333C272.376,74.197,266,67.845,261.779,71.818L261.779,71.818z"/>
		</g>
	</g>
	<g>
		<g>
			<path d="M253.24,196.554c15.161,15.938,38.035,19.663,58.357,25.384c13.632,3.837,27.396,7.204,41.217,10.282
				c6.892,1.535,13.797,3.01,20.703,4.479c6.191,1.316,13.074,3.741,19.443,3.005c1.293-0.149,1.949-1.795,0.692-2.555
				c-4.982-3.01-11.314-3.64-16.924-4.876c-6.891-1.52-13.777-3.057-20.656-4.63c-13.173-3.014-26.328-6.121-39.389-9.592
				c-10.833-2.878-21.717-5.784-32.446-9.029c-10.226-3.093-21.44-6.733-29.557-13.909
				C253.702,194.246,252.327,195.594,253.24,196.554L253.24,196.554z"/>
		</g>
	</g>
	<g>
		<g>
			<path d="M241.431,208.344c11.043,6.625,21.958,12.059,33.92,16.833c12.601,5.03,25.232,9.977,38.133,14.194
				c13.069,4.273,26.392,7.42,39.975,9.534c6.73,1.047,13.487,1.783,20.268,2.4c6.532,0.594,13.358,1.451,19.83,0.032
				c1.4-0.307,1.066-2.061,0-2.509c-5.605-2.356-11.896-2.794-17.884-3.519c-6.829-0.827-13.652-1.762-20.454-2.785
				c-12.988-1.952-25.693-5.055-38.213-9.001c-12.338-3.889-24.402-8.611-36.407-13.411c-12.293-4.915-25.584-8.72-37.108-15.291
				C241.2,203.517,239.178,206.992,241.431,208.344L241.431,208.344z"/>
		</g>
	</g>
</g>
<g id="Layer_1">
	<rect x="215.379" y="107.333" stroke="#000000" stroke-miterlimit="10" width="237.209" height="90.698"/>
	<rect x="24.833" y="125.938" stroke="#000000" stroke-miterlimit="10" width="219.767" height="113.954"/>
	<g>
		<g>
			<path d="M442.124,112.821c2.579,0,2.579-4,0-4S439.544,112.821,442.124,112.821L442.124,112.821z"/>
		</g>
	</g>
	<rect x="154.333" y="89.891" stroke="#000000" stroke-miterlimit="10" width="94.767" height="47.674"/>
	<rect x="406.077" y="2.682" stroke="#000000" stroke-miterlimit="10" width="26.744" height="123.256"/>
</g>
<g id="Layer_2">
	<path stroke="#000000" stroke-miterlimit="10" d="M267.069,211.309c0,5.353-2.265,9.691-5.059,9.691H242.02
		c-2.794,0-5.058-4.339-5.058-9.691l0,0c0-5.353,2.264-9.692,5.058-9.692h19.991C264.804,201.617,267.069,205.956,267.069,211.309
		L267.069,211.309z"/>
	<g id="XMLID_1_">
		<g>
			<path d="M253.96,227.003c3,1.66,14.33,6.33,13,10.66c-1.11,3.9-15.24,2.92-22.39,2.29l0.06-0.62c-1-4-5.67-4.67-7.67-8
				c-3.67-5.33-2-18.67-1.33-25.33c1.66-12,5.33-13,16.66-10c-1.65,1.93-4.91,7.28-2.76,8.88c-6.021-0.79-6.51,4.45-5.9,10.78
				C244.291,222.333,248.291,224.003,253.96,227.003z"/>
		</g>
		<g>
			<path fill="none" stroke="#000000" stroke-miterlimit="10" d="M249.531,204.883c-2.15-1.6,1.109-6.95,2.76-8.88
				c-11.33-3-15-2-16.66,10c-0.67,6.66-2.34,20,1.33,25.33c2,3.33,6.67,4,7.67,8"/>
			<path fill="none" stroke="#000000" stroke-miterlimit="10" d="M249.541,204.883c0.63,0.08,1.33,0.23,2.09,0.45
				C250.661,205.393,249.98,205.223,249.541,204.883z"/>
			<line fill="none" stroke="#000000" stroke-miterlimit="10" x1="249.541" y1="204.883" x2="249.531" y2="204.883"/>
			<path fill="none" stroke="#000000" stroke-miterlimit="10" d="M241.291,239.663c0.72,0.06,1.86,0.17,3.28,0.29
				c7.15,0.63,21.28,1.61,22.39-2.29c1.33-4.33-10-9-13-10.66c-5.67-3-9.67-4.67-10.33-11.34c-0.61-6.33-0.12-11.57,5.9-10.78"/>
		</g>
	</g>
	<g id="XMLID_2_">
		<g>
			<path d="M453.35,107.723c19.98,20.65,39.92,41.97,18.61,70.61c-5.33,7.33-13.33,14-20.67,20.67c0.67-17.34,0-35.34-2-52.67
				c-0.66-7.33-2-15.33-0.66-22.67C449.911,118.553,453.64,113.433,453.35,107.723z"/>
		</g>
		<g>
			<path fill="none" stroke="#000000" stroke-miterlimit="10" d="M453.35,107.723c-0.01-0.24-0.029-0.48-0.06-0.72"/>
			<path fill="none" stroke="#000000" stroke-miterlimit="10" d="M453.35,107.723c19.98,20.65,39.92,41.97,18.61,70.61
				c-5.33,7.33-13.33,14-20.67,20.67c0.67-17.34,0-35.34-2-52.67c-0.66-7.33-2-15.33-0.66-22.67
				C449.911,118.553,453.64,113.433,453.35,107.723z"/>
			<path fill="none" stroke="#000000" stroke-miterlimit="10" d="M453.291,107.663c0.02,0.02,0.04,0.04,0.06,0.06"/>
		</g>
	</g>
	<g>
		<rect x="0.5" y="125.938" width="48.667" height="19.062"/>
		<path d="M1,143.894c0.347-0.429,0.674-0.837,1.021-1.237l0.76-0.878l0.76-0.789c0.507-0.544,1.014-1.005,1.521-1.49
			c0.507-0.5,1.014-0.924,1.521-1.362c1.014-0.915,2.027-1.635,3.042-2.431c1.014-0.676,2.028-1.443,3.042-2.044
			c2.028-1.255,4.056-2.301,6.083-3.166c1.014-0.427,2.028-0.824,3.042-1.165c1.014-0.342,2.028-0.666,3.042-0.915
			c2.028-0.546,4.056-0.908,6.083-1.139c1.014-0.12,2.028-0.187,3.042-0.236c0.507-0.02,1.014-0.036,1.521-0.038
			c0.507-0.016,1.014,0.004,1.521,0.098c1.014,0.173,2.027,0.625,3.042,1.331c0.507,0.342,1.014,0.789,1.521,1.272l0.76,0.841
			c0.253,0.279,0.507,0.55,0.76,0.918l0.761,1.03l0.76,1.204c0.253,0.377,0.507,0.87,0.76,1.329l0.38,0.696l0.38,0.821l0.761,1.652
			l0.38,0.838l0.38,1c0.253,0.691,0.507,1.278,0.76,2.054l0.761,2.412l-0.5,0.5v-19.062l0.5,0.5H0.5l0.5-0.5V143.894z M0,144.817
			v-18.879v-0.5h0.5h48.667h0.5v0.5V145l-0.5,0.5l-0.761,2.412c-0.253,0.776-0.507,1.363-0.76,2.054l-0.38,1l-0.38,0.838
			l-0.761,1.652l-0.38,0.821l-0.38,0.696c-0.253,0.459-0.507,0.952-0.76,1.329l-0.76,1.204l-0.761,1.03
			c-0.253,0.368-0.507,0.64-0.76,0.918l-0.76,0.841c-0.507,0.483-1.014,0.93-1.521,1.272c-1.014,0.706-2.028,1.157-3.042,1.331
			c-0.507,0.094-1.014,0.114-1.521,0.098c-0.507-0.002-1.014-0.018-1.521-0.038c-1.014-0.049-2.028-0.116-3.042-0.236
			c-2.028-0.231-4.056-0.593-6.083-1.139c-1.014-0.25-2.027-0.573-3.042-0.915c-1.014-0.341-2.028-0.738-3.042-1.165
			c-2.028-0.865-4.056-1.911-6.083-3.166c-1.014-0.601-2.028-1.368-3.042-2.044c-1.014-0.796-2.028-1.517-3.042-2.431
			c-0.507-0.438-1.014-0.862-1.521-1.362c-0.507-0.484-1.014-0.946-1.521-1.49l-0.76-0.789l-0.76-0.878
			c-0.507-0.585-1.014-1.15-1.521-1.842L0,144.817z"/>
	</g>
</g>
<g id="Layer_3">
	<rect x="267.069" y="107.333" fill="#F9ED32" stroke="#F9ED32" stroke-miterlimit="10" width="7.226" height="90.698"/>
	<rect x="333.984" y="107.003" fill="#F9ED32" stroke="#F9ED32" stroke-miterlimit="10" width="6.811" height="91.028"/>
	<rect x="400.518" y="107.003" fill="#F9ED32" stroke="#F9ED32" stroke-miterlimit="10" width="5.559" height="91.349"/>
	<rect x="274.294" y="107.333" fill="#FBB040" stroke="#FBB040" stroke-miterlimit="10" width="4" height="90.698"/>
	<rect x="340.794" y="107.333" fill="#FBB040" stroke="#FBB040" stroke-miterlimit="10" width="4.333" height="90.698"/>
	<rect x="396.627" y="107.003" fill="#FBB040" stroke="#FBB040" stroke-miterlimit="10" width="3.891" height="91.349"/>
	<path fill="#F9ED32" stroke="#F9ED32" stroke-miterlimit="10" d="M441.128,6.583c0,3.36-2.724,6.083-6.083,6.083H402.71
		c-3.359,0-6.083-2.724-6.083-6.083l0,0c0-3.359,2.724-6.083,6.083-6.083h32.335C438.405,0.5,441.128,3.224,441.128,6.583
		L441.128,6.583z"/>
	<rect x="349.295" y="78" fill="#F9ED32" stroke="#F9ED32" stroke-miterlimit="10" width="43.666" height="28.333"/>
	<rect x="333.984" y="78.5" fill="#F9ED32" stroke="#F9ED32" stroke-miterlimit="10" width="0" height="0"/>
	<rect x="349.295" y="102.253" fill="#FBB040" stroke="#FBB040" stroke-miterlimit="10" width="43.666" height="4.08"/>
	<rect x="366.335" y="56.958" fill="#F9ED32" stroke="#F9ED32" stroke-miterlimit="10" width="12.5" height="21.542"/>
	<g>
		<g>
			<path fill="#F9ED32" d="M350.96,81.333c-4.536-0.178-8.996,0.798-13.549,0.644c-4.582-0.155-9.177-1.307-13.767-0.577
				c-4.429,0.705-14.347,4.758-11.858,11.171c2.475,6.377,8.943,6.716,14.94,6.01c3.828-0.451,7.522-1.29,11.385-1.521
				c5.713-0.342,11.463-0.083,17.182-0.061c2.58,0.01,2.579-3.99,0-4c-7.01-0.027-14.006-0.246-21,0.333
				c-4.794,0.397-9.373,2.061-14.252,1.4c-1.99-0.27-4.796-1.536-4.338-4.325c0.291-1.77,2.663-3.007,4.039-3.777
				c3.292-1.843,7.438-1.526,11.051-1.256c3.294,0.246,6.521,0.691,9.834,0.625c3.472-0.069,6.85-0.803,10.333-0.667
				C353.541,85.434,353.531,81.434,350.96,81.333L350.96,81.333z"/>
		</g>
	</g>
	<rect x="154.333" y="92.708" fill="#FBB040" stroke="#FBB040" stroke-miterlimit="10" width="94.767" height="4.999"/>
</g>
<g id="Layer_5">
	<g>
		<g>
			<path d="M136.951,76.606c-4.99,2.816-9.801,8.842-8.974,14.88c0.368,2.687,2.875,3.975,5.3,4.208
				c4.173,0.4,9.113-2.221,12.306-4.634c4.798-3.627,7.641-10.492,2.98-15.431c-5.458-5.784-13.9-0.633-18.017,3.957
				c-1.717,1.914,1.103,4.752,2.828,2.828c2.603-2.901,8.052-7.556,12.082-4.218c3.572,2.959,0.336,7.725-2.429,9.815
				c-1.531,1.158-11.188,6.617-11.191,1.889c-0.003-4,3.921-8.027,7.134-9.84C141.216,78.792,139.2,75.336,136.951,76.606
				L136.951,76.606z"/>
		</g>
	</g>
	<g>
		<g>
			<path d="M145.429,89.595c2.649,0.708,5.08,1.911,7.522,3.132c2.3,1.149,4.327-2.301,2.019-3.454
				c-2.741-1.37-5.505-2.74-8.478-3.535C143.997,85.071,142.939,88.929,145.429,89.595L145.429,89.595z"/>
		</g>
	</g>
	<g>
		<g>
			<path d="M143.529,76.748c-4.014,6.133-6.745,13.176-12.588,17.899c-0.502,0.405,0.21,1.108,0.707,0.707
				c5.911-4.777,8.684-11.896,12.745-18.101C144.747,76.711,143.88,76.21,143.529,76.748L143.529,76.748z"/>
		</g>
	</g>
	<g>
		<g>
			<path d="M133.708,80.765c4.687,2.767,8.646,6.567,13.333,9.333c0.557,0.329,1.06-0.536,0.505-0.863
				c-4.688-2.766-8.647-6.567-13.333-9.333C133.656,79.573,133.153,80.438,133.708,80.765L133.708,80.765z"/>
		</g>
	</g>
</g>
</svg>
