<?xml version="1.0" encoding="utf-8"?>
<!-- Generator: Adobe Illustrator 16.0.0, SVG Export Plug-In . SVG Version: 6.00 Build 0)  -->
<!DOCTYPE svg PUBLIC "-//W3C//DTD SVG 1.1//EN" "http://www.w3.org/Graphics/SVG/1.1/DTD/svg11.dtd">
<svg version="1.1" id="Layer_1" xmlns="http://www.w3.org/2000/svg" xmlns:xlink="http://www.w3.org/1999/xlink" x="0px" y="0px"
	 width="205.087px" height="339.945px" viewBox="0 0 205.087 339.945" enable-background="new 0 0 205.087 339.945"
	 xml:space="preserve">
<g id="XMLID_2_">
	<g>
		<path fill="#359A46" d="M71.078,152.405c-7.5,6.31-16.32,8.06-25.76,5.54c-17-3-41-21-22-38c-38-15-25-53,13-51
			c-32-17,17-39,32-42c-8-34,37-27,55-23c21,4,62-5,53,33c44,5,33,48-8,44c19,16,5,50-20,44c5.91,28.56-41.31,27.75-58.46,25.01
			c-3.33-0.54-6.6-2.44-9.89-2.59C75.948,147.186,73.908,150.025,71.078,152.405z"/>
	</g>
	<g>
		<path fill="none" stroke="#0E9948" stroke-miterlimit="10" d="M45.318,157.945c9.44,2.52,18.26,0.77,25.76-5.54
			c2.83-2.38,4.87-5.22,8.89-5.04c3.29,0.15,6.56,2.05,9.89,2.59c17.15,2.74,64.37,3.55,58.46-25.01c25,6,39-28,20-44
			c41,4,52-39,8-44c9-38-32-29-53-33c-18-4-63-11-55,23c-15,3-64,25-32,42c-38-2-51,36-13,51
			C4.318,136.945,28.318,154.945,45.318,157.945z"/>
	</g>
</g>
<g>
	<g>
		<path fill="#653614" d="M73.318,66.945c-1.994,87.708-3.993,175.455-10,263c-0.374,5.444,4.832,10,10,10
			c5.733,0,9.627-4.563,10-10c6.007-87.545,8.006-175.292,10-263C93.612,54.041,73.611,54.069,73.318,66.945L73.318,66.945z"/>
	</g>
</g>
<g>
	<g>
		<path fill="#653614" d="M93.953,113.993c4.824-9.638,14.476-14.855,24.052-20.17c10.837-6.015,22.468-11.968,30.385-21.806
			c3.414-4.243,4.163-9.979,0-14.143c-3.542-3.542-10.72-4.253-14.143,0c-7.402,9.2-18.319,14.192-28.612,19.947
			c-11.384,6.365-22.943,14.075-28.951,26.077C70.928,115.396,88.179,125.527,93.953,113.993L93.953,113.993z"/>
	</g>
</g>
<g>
	<g>
		<path fill="#653614" d="M77.977,138.303c-1.117-0.379-1.265-0.392-0.446-0.039c-0.968-0.434-1.857-1.04-2.738-1.624
			c1.184,0.786-1.634-1.462-1.458-1.302c-0.87-0.795-1.67-1.666-2.472-2.527c-2.733-2.935-4.493-5.53-6.908-8.914
			c-3.161-4.426-8.655-6.532-13.682-3.587c-4.38,2.566-6.761,9.237-3.587,13.682c6.79,9.509,14.163,20.161,25.977,23.595
			C85.073,161.197,90.336,141.896,77.977,138.303L77.977,138.303z"/>
	</g>
</g>
</svg>
