<?xml version="1.0" encoding="utf-8"?>
<!-- Generator: Adobe Illustrator 16.0.0, SVG Export Plug-In . SVG Version: 6.00 Build 0)  -->
<!DOCTYPE svg PUBLIC "-//W3C//DTD SVG 1.1//EN" "http://www.w3.org/Graphics/SVG/1.1/DTD/svg11.dtd">
<svg version="1.1" xmlns="http://www.w3.org/2000/svg" xmlns:xlink="http://www.w3.org/1999/xlink" x="0px" y="0px"
	 width="231.711px" height="408.688px" viewBox="0 0 231.711 408.688" enable-background="new 0 0 231.711 408.688"
	 xml:space="preserve">
<g id="Layer_2">
	<g id="XMLID_1_">
		<g>
			<path fill="#0E9948" d="M202.675,52.513c51.16,2.32,24.41,105.81-9.311,106.97c3.761,12.61,3.311,26.56-6.359,36.4
				c-8.58,8.729-21.29,12.42-33.11,13.88c-12.02,1.479-24.67,0.95-36.39-2.19c-1.88-0.51-3.771-1-5.59-1.699
				c-1.431-0.54-2.87-1.561-4.44-1.08c-2.79,0.859-5.56,4.25-8.11,5.779c-6.12,3.69-12.84,5.2-19.95,4.73
				c-17.44-1.17-36.05-16.28-27.91-34.89c-51.16,24.42-65.11-53.49-36.04-81.39c-34.89-47.68,34.88-90.7,75.58-59.31
				C103.835-28.887,186.395,3.673,202.675,52.513z"/>
		</g>
		<g>
			<path fill="none" stroke="#0E9948" stroke-miterlimit="10" d="M79.415,215.303c7.11,0.47,13.83-1.04,19.95-4.73
				c2.55-1.529,5.32-4.92,8.11-5.779c1.57-0.48,3.01,0.54,4.44,1.08c1.819,0.699,3.71,1.189,5.59,1.699
				c11.72,3.141,24.37,3.67,36.39,2.19c11.82-1.46,24.53-5.15,33.11-13.88c9.67-9.84,10.12-23.79,6.359-36.4
				c33.721-1.16,60.471-104.65,9.311-106.97c-16.28-48.84-98.84-81.4-111.63-12.8c-40.7-31.39-110.47,11.63-75.58,59.31
				c-29.07,27.9-15.12,105.811,36.04,81.39C43.365,199.023,61.975,214.133,79.415,215.303z"/>
		</g>
	</g>
</g>
<g id="Layer_1">
	<g>
		<g>
			<path fill="#653614" d="M104.298,87.393c-0.08,104.087-12.739,207.622-15.116,311.627c-0.295,12.905,19.706,12.876,20,0
				c2.376-104.006,15.035-207.541,15.115-311.627C124.308,74.495,104.308,74.496,104.298,87.393L104.298,87.393z"/>
		</g>
	</g>
	<g>
		<g>
			<path fill="#653614" d="M111.64,186.57c53.536,12.693,92.357-48.722,99.511-94.194c0.847-5.38-1.291-10.735-6.984-12.301
				c-4.802-1.321-11.452,1.592-12.301,6.984c-3.206,20.376-11.871,40.377-24.588,56.485c-6.664,8.441-14.036,15.324-23.289,20.28
				c-8.292,4.441-17.795,5.65-27.032,3.46C104.415,164.311,99.093,183.595,111.64,186.57L111.64,186.57z"/>
		</g>
	</g>
	<g>
		<g>
			<path fill="#653614" d="M99.85,143.973c0.294-0.387,2.541-2.23,0.763-1.19c-2.262,1.323,1.755-0.53-1.015,0.325
				c-2.505,0.773-2.656,0.681-4.952,0.867c-2.442,0.198-4.901,0.163-7.347,0.08c-1.229-0.042-2.456-0.145-3.681-0.247
				c0.303,0.025-3.584-0.462-2.023-0.227c-8.763-1.323-15.896-5.609-21.887-12.871c-10.632-12.888-9.295-35.202-6.698-51.125
				c0.877-5.375-1.313-10.741-6.984-12.301c-4.825-1.328-11.422,1.597-12.301,6.984c-4.114,25.21-4.209,53.395,14.22,73.305
				c9.156,9.892,21.4,14.591,34.471,16.114c12.02,1.399,26.816,0.736,34.703-9.62c3.312-4.349,0.686-11.179-3.588-13.682
				C108.396,137.377,103.145,139.646,99.85,143.973L99.85,143.973z"/>
		</g>
	</g>
</g>
</svg>
