<?xml version="1.0" encoding="utf-8"?>
<!-- Generator: Adobe Illustrator 16.0.0, SVG Export Plug-In . SVG Version: 6.00 Build 0)  -->
<!DOCTYPE svg PUBLIC "-//W3C//DTD SVG 1.1//EN" "http://www.w3.org/Graphics/SVG/1.1/DTD/svg11.dtd">
<svg version="1.1" id="wheel1" xmlns="http://www.w3.org/2000/svg" xmlns:xlink="http://www.w3.org/1999/xlink" x="0px" y="0px"
	 width="188.977px" height="205.112px" viewBox="0 0 188.977 205.112" enable-background="new 0 0 188.977 205.112"
	 xml:space="preserve">
<g>
	<g>
		<path fill="#670B16" d="M33.961,28.841C3.208,46.936-3.752,84.327,1.682,117.169c5.538,33.47,25.839,66.329,57.222,80.987
			c32.785,15.313,74.962,3.919,100.324-20.282c24.368-23.251,33.369-61.021,28.456-93.516
			c-4.587-30.342-23.762-58.317-50.084-73.963C98.019-13.133,52.427,6.639,22.394,36.245c-3.314,3.268,1.025,9.13,5.027,6.516
			C49.65,28.24,73.017,11.616,100.739,12.027c23.565,0.349,45.421,16.192,59.236,34.417c20.472,27.006,25.608,64.76,11.139,95.667
			c-15.157,32.375-47.74,51.47-83.042,51.747c-35.986,0.283-61.194-27.915-73.1-59.539C2.044,99.98,5.233,56.801,36.694,33.516
			C39.431,31.49,37.043,27.028,33.961,28.841L33.961,28.841z"/>
	</g>
</g>
<g>
	<g>
		<path fill="#670B16" d="M24.861,55.712C11.213,66.803,8.283,86.592,10.6,103.046c2.718,19.303,12.604,37.21,24.659,52.22
			c11.533,14.359,26.816,26.867,44.481,32.675c15.636,5.142,33.668,2.224,48.184-4.976c28.732-14.248,43.436-46.762,45.704-77.438
			c2.343-31.689-11.781-63.927-41.036-78.424c-18.946-9.388-40.671-10.877-60.563-3.594C51.34,31.084,32.896,45.966,18.37,62.221
			c-3.646,4.079,1.788,9.31,5.916,5.916c19.862-16.329,40.141-34.936,66.819-38.172c19.599-2.377,40.679,5.041,54.569,19.04
			c21.876,22.046,23.476,57.943,12.277,85.434c-11.208,27.513-40.573,51.077-71.691,44.594
			c-17.873-3.724-32.977-16.752-44.455-30.312c-12.359-14.6-21.826-32.996-24.181-52.12c-1.786-14.507,2.267-26.582,10.494-38.374
			C29.569,56.146,26.553,54.337,24.861,55.712L24.861,55.712z"/>
	</g>
</g>
<g>
	<g>
		<path fill="#670B16" d="M73.539,98.717c-9.73,12.832,9.473,20.348,19.448,21.17c11.274,0.929,24.985-5.573,23.366-18.805
			c-1.373-11.224-12.254-18.67-22.806-19.878c-5.834-0.667-11.441,1.841-15.807,5.527c-4.23,3.571-10.338,13.861-7.869,19.299
			c0.368,0.811,1.596,1.07,2.309,0.605c2.232-1.453,2.596-3.695,3.757-6.037c1.274-2.57,3.181-4.685,5.21-6.67
			c3.07-3.003,6.668-4.311,10.908-4.407c6.582-0.149,13.97,4.408,16.168,10.732c5.808,16.712-34.988,17.536-32.981-1.075
			C75.351,98.164,74.015,98.088,73.539,98.717L73.539,98.717z"/>
	</g>
</g>
<g>
	<g>
		<path fill="#670B16" d="M86.109,97.96c-4.262,4.966-0.671,11.246,5.109,12.625c4.314,1.029,11.85-2.169,11.73-7.393
			c-0.099-4.308-5.776-5.968-9.111-6.78c-2.963-0.722-9.153-1.939-11.457,0.82c-0.51,0.61-0.568,1.703,0.271,2.104
			c4.298,2.055,9.626,1.257,14.027,3.361c0.486,0.233,1.363,0.935,1.35,0.896c-0.079-0.238,0.12-0.458-0.196,0.063
			c-0.364,0.601-1.153,1.07-1.714,1.454c-1.973,1.351-4.154,1.297-6.147,0.061c-2.061-1.278-1.704-3.633-0.982-5.533
			C89.598,98.034,87.208,96.682,86.109,97.96L86.109,97.96z"/>
	</g>
</g>
<g>
	<g>
		<path fill="#670B16" d="M92.181,27.249c-1.698,8.432-2.83,17.118-4.084,25.636c-1.41,9.571-2.956,19.761-1.149,29.377
			c0.781,4.157,7.298,2.421,6.373-1.757c-2.113-9.544-0.182-20.122,1.191-29.643c1.051-7.285,3.911-16.268,2.497-23.614
			C96.543,24.84,92.662,24.862,92.181,27.249L92.181,27.249z"/>
	</g>
</g>
<g>
	<g>
		<path fill="#670B16" d="M103.851,29.771c-1.824,4.767-2.528,10.013-3.832,14.952c-1.451,5.5-3.125,10.937-4.604,16.429
			c-1.48,5.496-2.679,11.089-3.501,16.721c-0.611,4.19-1.469,8.801,1.523,12.194c0.589,0.667,1.519,0.347,1.976-0.255
			c2.683-3.53,1.827-8.705,2.12-12.915c0.381-5.467,1.58-10.828,2.836-16.148c2.291-9.7,7.003-20.513,6.489-30.572
			C106.768,28.388,104.461,28.176,103.851,29.771L103.851,29.771z"/>
	</g>
</g>
<g>
	<g>
		<path fill="#670B16" d="M106.06,86.606c5.626-8.304,8.48-18.67,12.897-27.747c4.649-9.557,9.891-18.916,14.071-28.687
			c0.97-2.268-2.195-4.29-3.4-1.987c-4.933,9.429-9.072,19.355-13.429,29.063c-4.12,9.181-10.147,18.744-11.688,28.705
			C104.365,86.893,105.498,87.437,106.06,86.606L106.06,86.606z"/>
	</g>
</g>
<g>
	<g>
		<path fill="#670B16" d="M112.54,85.303c5.354-7.922,9.654-16.463,14.511-24.697c2.508-4.252,5.378-8.088,8.296-12.046
			c2.371-3.217,6.782-6.315,7.32-10.38c0.126-0.95-0.944-1.41-1.696-1.292c-3.431,0.538-5.458,4.398-7.42,7.017
			c-3.19,4.259-5.71,9.094-8.33,13.723c-4.999,8.831-9.357,18.077-13.131,27.487C111.981,85.386,112.393,85.521,112.54,85.303
			L112.54,85.303z"/>
	</g>
</g>
<g>
	<g>
		<path fill="#670B16" d="M114.927,98.863c2.616,1.569,6.075-1.271,8.554-2.22c4.917-1.882,9.99-3.426,15.044-4.893
			c5.321-1.545,10.696-2.857,16.146-3.863c3.864-0.714,9.887-0.533,12.547-3.819c0.422-0.521,0.535-1.271,0-1.779
			c-2.786-2.642-7.579-1.82-11.06-1.181c-5.97,1.098-11.847,2.576-17.623,4.443c-5.307,1.716-10.42,3.926-15.427,6.369
			c-2.683,1.309-8.362,2.784-8.573,6.258C114.518,98.455,114.699,98.726,114.927,98.863L114.927,98.863z"/>
	</g>
</g>
<g>
	<g>
		<path fill="#670B16" d="M112.855,107.893c4.119,1.206,8.735-0.014,12.855-0.819c5.553-1.086,11.011-2.907,16.445-4.463
			c5.493-1.574,11.017-2.986,16.628-4.077c5.158-1.002,10.587-0.532,15.289-3.08c1.007-0.545,0.907-1.98,0-2.55
			c-4.229-2.655-8.905-1.99-13.666-1.277c-5.668,0.85-11.165,2.244-16.662,3.849c-5.469,1.596-10.884,3.361-16.373,4.888
			c-4.838,1.346-10.543,1.83-14.941,4.281C111.059,105.409,111.41,107.47,112.855,107.893L112.855,107.893z"/>
	</g>
</g>
<g>
	<g>
		<path fill="#670B16" d="M112.407,113.717c1.751,3.156,5.105,4.098,8.342,5.252c5.349,1.906,10.578,4.119,15.729,6.5
			c8.572,3.963,17.14,10.186,26.428,12.239c1.23,0.272,2.669-1.114,1.791-2.33c-5.684-7.871-16.047-12.207-24.666-15.986
			c-4.659-2.042-9.406-3.872-14.2-5.569c-4.112-1.456-8.863-3.75-13.041-1.565C112.266,112.531,112.135,113.228,112.407,113.717
			L112.407,113.717z"/>
	</g>
</g>
<g>
	<g>
		<path fill="#670B16" d="M107.858,120.219c0.665,3.438,6.579,5.316,9.338,6.843c5.353,2.961,10.798,5.743,16.37,8.267
			c5.261,2.383,10.685,4.39,16.247,5.945c4.437,1.24,11.139,3.036,15.136-0.033c0.57-0.438,0.923-1.374,0.249-1.933
			c-3.263-2.708-8.218-2.985-12.246-3.945c-6.02-1.434-11.839-3.75-17.498-6.217c-5.151-2.247-10.163-4.811-15.125-7.443
			c-2.776-1.473-7.6-5.599-10.847-4.343C108.227,117.845,107.599,118.876,107.858,120.219L107.858,120.219z"/>
	</g>
</g>
<g>
	<g>
		<path fill="#670B16" d="M102.616,122.375c2.217,9.655,8.999,17.688,14.745,25.49c3.063,4.157,5.999,8.405,8.657,12.833
			c1.894,3.155,3.074,8.595,6.997,9.614c0.519,0.135,1.05-0.084,1.328-0.541c2.083-3.418-0.979-7.531-2.678-10.567
			c-2.529-4.522-5.64-8.685-8.797-12.779c-6.349-8.234-12.509-16.674-19.019-24.769
			C103.354,121.041,102.464,121.716,102.616,122.375L102.616,122.375z"/>
	</g>
</g>
<g>
	<g>
		<path fill="#670B16" d="M96.643,120.778c-5.668,8.449,1.605,22.557,5.473,30.388c2.791,5.65,6.213,10.943,9.894,16.048
			c2.782,3.859,5.814,8.787,9.992,11.231c2.434,1.423,4.643-1.314,3.592-3.591c-1.833-3.973-5.523-7.333-8.106-10.841
			c-3.434-4.665-6.531-9.596-9.374-14.64c-2.707-4.803-4.931-9.843-6.552-15.112c-1.366-4.441-1.682-9.223-3.55-13.482
			C97.755,120.191,96.938,120.338,96.643,120.778L96.643,120.778z"/>
	</g>
</g>
<g>
	<g>
		<path fill="#670B16" d="M82.689,117.541c-3.482,3.468-4.99,8.729-6.738,13.225c-2.217,5.7-4.177,11.49-6.096,17.296
			c-1.923,5.819-3.704,11.675-5.276,17.599c-1.315,4.955-4.389,12.106-2.388,17.107c0.591,1.478,2.438,2.281,3.702,0.978
			c3.48-3.59,3.679-9.815,4.847-14.506c1.476-5.928,3.135-11.819,4.836-17.686c1.704-5.873,3.631-11.676,5.354-17.542
			c1.469-5.004,3.891-10.539,3.299-15.832C84.146,117.433,83.294,116.938,82.689,117.541L82.689,117.541z"/>
	</g>
</g>
<g>
	<g>
		<path fill="#670B16" d="M87.624,116.975c-3.457,1.615-4.388,7.698-5.317,11.003c-1.706,6.065-2.803,12.32-3.89,18.52
			c-1.049,5.979-1.905,11.981-2.782,17.987c-0.675,4.623-3.518,11.944-1.838,16.393c0.681,1.803,2.888,2.647,4.387,1.158
			c3.28-3.259,3.092-9.968,3.695-14.321c0.801-5.783,1.462-11.578,2.093-17.381c0.668-6.143,1.473-12.254,2.687-18.315
			c0.52-2.596,1.175-5.161,1.919-7.701c0.638-2.175,1.778-4.251,1.095-6.509C89.395,116.889,88.446,116.591,87.624,116.975
			L87.624,116.975z"/>
	</g>
</g>
<g>
	<g>
		<path fill="#670B16" d="M70.182,108.219c-7.396,3.785-14.421,8.426-21.803,12.314c-6.535,3.441-15.531,7.653-19.295,14.334
			c-1.314,2.333,1.269,4.746,3.554,3.554c3.357-1.75,6.142-4.599,9.242-6.775c3.494-2.452,7.254-4.525,10.988-6.582
			c6.792-3.74,15.057-7.154,20.064-13.282C74.545,109.809,72.566,106.999,70.182,108.219L70.182,108.219z"/>
	</g>
</g>
<g>
	<g>
		<path fill="#670B16" d="M74.431,112.644c-3.652,1.654-6.877,4.789-10.056,7.214c-3.86,2.945-7.633,5.993-11.312,9.163
			c-3.978,3.426-7.739,7.088-11.232,11.007c-2.274,2.551-6.094,5.889-5.032,9.573c0.176,0.612,0.836,1.255,1.529,1.165
			c3.654-0.48,5.161-4.202,7.367-6.873c3.339-4.043,7.152-7.691,11.021-11.218c3.426-3.123,7.017-6.066,10.578-9.032
			c3.228-2.688,7.079-5.152,9.568-8.565C78.031,113.474,75.861,111.996,74.431,112.644L74.431,112.644z"/>
	</g>
</g>
<g>
	<g>
		<path fill="#670B16" d="M62.886,37.423c-2.674,1.8-1.174,6.088-0.626,8.663c1.162,5.461,3.342,10.759,5.681,15.805
			c2.704,5.835,5.886,11.447,9.303,16.891c2.105,3.354,5.296,10.587,9.531,11.4c1.396,0.268,2.518-0.59,2.63-2.004
			c0.303-3.799-4.359-8.096-6.371-11.123c-3.278-4.93-6.306-10.037-9.107-15.251c-2.52-4.691-4.875-9.553-6.626-14.583
			c-0.943-2.709-0.893-8.219-3.532-9.799C63.515,37.271,63.139,37.253,62.886,37.423L62.886,37.423z"/>
	</g>
</g>
<g>
	<g>
		<path fill="#670B16" d="M51.203,47.421c4.925,7.668,10.839,14.731,15.911,22.323c2.904,4.345,5.659,8.797,8.082,13.429
			c1.604,3.067,2.538,6.731,4.682,9.456c0.76,0.966,2.736,0.729,3.221-0.415c2.993-7.064-6.006-17.82-9.616-23.23
			c-5.591-8.379-11.529-17.161-18.415-24.545C53.166,42.398,49.688,45.062,51.203,47.421L51.203,47.421z"/>
	</g>
</g>
<g>
	<g>
		<path fill="#670B16" d="M27.858,63.648c6.833,7.599,14.387,14.5,22.51,20.697c6.13,4.676,16.91,13.338,25.293,11.047
			c0.839-0.229,1.315-1.491,0.555-2.103c-3.085-2.479-7.176-3.67-10.699-5.422c-4.439-2.208-8.556-5.057-12.535-7.995
			c-7.868-5.808-14.912-12.653-22.186-19.163C28.798,58.92,26.063,61.651,27.858,63.648L27.858,63.648z"/>
	</g>
</g>
<g>
	<g>
		<path fill="#670B16" d="M17.316,75.179c0.126-0.12,0.253-0.24,0.38-0.36c-0.893,0.425-1.408,1.733-1.081,2.656
			c3.404,9.611,15.443,14.628,24.035,18.354c5.67,2.459,11.508,4.47,17.488,6.032c4.204,1.099,9.088,2.163,13.086-0.147
			c1.183-0.683,1.118-2.371,0-3.069c-3.085-1.926-6.627-2.657-10.146-3.49c-5.255-1.244-10.37-3.034-15.419-4.931
			c-5.21-1.958-10.268-4.338-15.066-7.158c-3.372-1.981-7.353-4.141-9.681-7.403c-0.593-0.832-1.596-1.435-2.655-1.081
			c0.314,0.029,0.629,0.058,0.943,0.086C18.716,73.745,17.341,74.213,17.316,75.179L17.316,75.179z"/>
	</g>
</g>
<g>
	<g>
		<path fill="#670B16" d="M48.828,31.241c5.734,0.051,10.164-2.265,15.485-4.144c5.888-2.079,11.885-3.688,18.055-4.655
			c12.201-1.911,28.039-3.504,39.202,2.579c8.645,4.71,15.525,11.979,24.343,16.474c3.539,1.804,7.198,3.349,10.594,5.425
			c0.543,0.332,2.431,2.159,2.201,1.57c0.289,0.743,1.129,3.688,2.519,5.29c1.811,2.088,4.764,1.947,7.029,0.907
			c5.381-2.47,4.745-9.408,1.829-13.494c-3.066-4.297-7.848-6.812-12.533-8.971c-3.638-1.675-7.706-2.718-10.994-5.069
			c-5.662-4.048-11.653-8.141-17.743-11.517c-13.622-7.552-29.242-4.858-43.938-2.764c-7.048,1.005-14.329,2.77-20.799,5.809
			c-6.168,2.897-12.238,5.655-15.735,11.712C48.127,30.767,48.401,31.237,48.828,31.241L48.828,31.241z"/>
	</g>
</g>
<g>
	<g>
		<path fill="#670B16" d="M154.007,45.679c-0.189,4.501,4.278,9.671,6.152,13.667c2.751,5.863,4.318,12.306,5.818,18.579
			c2.985,12.49,4.442,25.627,3.746,38.456c-0.742,13.667-4.988,26.987-12.77,38.264c-4.112,5.961-9.663,10.967-15.509,15.174
			c-2.703,1.945-5.558,3.664-8.37,5.441c-3.507,2.216-5.687,4.254-8.535,7.132c-2.378,2.402,0.059,6.048,3.146,5.406
			c4.066-0.845,6.848-1.582,10.627-3.575c3.425-1.806,6.69-3.93,9.881-6.115c6.753-4.627,12.358-10.167,17.341-16.634
			c9.245-11.996,13.534-27.12,15.114-41.964c1.528-14.367-0.63-29.01-4.008-42.972c-1.733-7.169-4.378-14.073-7.784-20.613
			c-2.368-4.547-6.723-12.366-12.53-12.566C155.024,43.313,154.059,44.449,154.007,45.679L154.007,45.679z"/>
	</g>
</g>
<g>
	<g>
		<path fill="#670B16" d="M53.386,24.963c-7.79,1.943-15.29,9.9-20.663,15.481c-3.291,3.417-6.404,6.989-9.451,10.623
			c-2.325,2.772-5.177,5.517-4.258,9.388c0.314,1.324,1.542,2.05,2.814,2.142c3.511,0.255,5.71-2.766,7.778-5.196
			c2.725-3.203,5.427-6.426,8.187-9.6c2.797-3.217,5.704-6.387,8.651-9.464c3.008-3.14,6.793-5.384,9.794-8.475
			C58.305,27.734,56.234,24.252,53.386,24.963L53.386,24.963z"/>
	</g>
</g>
<g>
	<g>
		<path fill="#670B16" d="M57.529,27.594c-2.841,0.614-5.892,0.14-8.802,0.744c-2.78,0.577-4.953,1.853-7.309,3.384
			c-5.035,3.271-9.476,7.432-13.509,11.852c-3.778,4.141-7.069,8.773-10.221,13.397c-3.125,4.583-7.808,10.086-8.997,15.568
			c-0.952,4.387,3.875,6.887,7.168,4.173c3.723-3.067,5.936-8.505,8.502-12.544c2.84-4.47,5.865-8.823,9.226-12.918
			c3.324-4.049,6.979-7.895,11.134-11.103c2.152-1.662,4.523-2.949,6.59-4.721c2.04-1.75,4.311-4.627,6.814-5.662
			C59.44,29.221,58.982,27.28,57.529,27.594L57.529,27.594z"/>
	</g>
</g>
<g>
	<g>
		<path fill="#670B16" d="M29.055,40.434c-5.632-4.261-12.922,10.809-14.51,13.94c-1.906,3.758-9.904,17.547-4.158,20.913
			c5.193,3.042,9.823-14.343,10.973-16.93c1.79-4.026,4.198-7.562,6.344-11.371C28.614,45.372,31.232,42.082,29.055,40.434
			L29.055,40.434z"/>
	</g>
</g>
<g>
	<g>
		<path fill="#670B16" d="M6.733,74.455c-3.453,7.479-1.55,17.677-0.601,25.571c1.119,9.298,3.188,18.425,6.058,27.335
			c2.831,8.789,6.765,17.192,11.833,24.912c2.49,3.793,5.314,7.37,8.126,10.927c2.856,3.613,5.799,8.85,10.678,9.606
			c2.482,0.385,4.62-0.987,4.762-3.627c0.212-3.95-2.197-6.432-4.577-9.337c-3.066-3.743-6.055-7.532-8.842-11.488
			c-5.119-7.268-8.943-15.438-12.16-23.7c-3.244-8.333-5.503-17.034-7.215-25.8c-1.53-7.835-0.757-17.034-3.874-24.398
			C10.234,72.828,7.449,72.905,6.733,74.455L6.733,74.455z"/>
	</g>
</g>
<g>
	<g>
		<path fill="#670B16" d="M12.008,133.658c1.875,3.213,3.248,6.876,4.71,10.289c1.539,3.593,3.89,6.92,5.99,10.197
			c4.237,6.612,8.627,13.183,13.788,19.117c4.981,5.729,10.77,10.777,17.283,14.689c6.345,3.811,17.195,7.539,24.04,3.278
			c1.945-1.21,1.864-3.873,0-5.1c-3.099-2.04-6.572-2.183-10.136-2.784c-3.806-0.644-7.192-2.084-10.492-4.034
			c-6.315-3.733-11.521-9.144-16.262-14.667c-4.669-5.44-9.007-11.084-13.219-16.884c-4.202-5.787-9.295-10.16-14.21-15.252
			C12.743,131.725,11.466,132.729,12.008,133.658L12.008,133.658z"/>
	</g>
</g>
<g>
	<g>
		<path fill="#670B16" d="M44.605,169.179c1.74,15.183,19.993,22.567,32.911,24.782c7.566,1.298,15.25,1.374,22.855,0.405
			c9.823-1.25,19.232-4.893,28.718-7.611c5.891-1.688,3.285-11.064-2.523-9.152c-7.935,2.611-15.854,5.861-24.07,7.463
			c-6.595,1.285-13.454,1.257-20.125,0.702c-6.888-0.573-13.768-2.478-19.996-5.46c-6.314-3.024-10.121-7.41-14.83-12.347
			C46.583,166.952,44.429,167.645,44.605,169.179L44.605,169.179z"/>
	</g>
</g>
<g>
	<g>
		<path fill="#670B16" d="M45.463,169.693c1.738,5.226,5.896,9.185,10.37,12.25c4.349,2.979,10.817,7.034,16.315,6.338
			c3.52-0.445,5.418-4.944,1.907-7.04c-3.972-2.369-8.655-3.365-12.735-5.684c-4.449-2.527-8.563-5.544-13.016-8.047
			C46.892,166.716,44.909,168.026,45.463,169.693L45.463,169.693z"/>
	</g>
</g>
<g>
	<g>
		<path fill="#670B16" d="M95.819,25.987c-1.625,4.178-0.081,9.514-0.757,14.021c-0.713,4.751-2.119,9.417-3.458,14.019
			c-1.929,6.629-6.545,19.175-1.091,24.966c0.885,0.939,2.767,1.067,3.63,0c2.731-3.379,2.458-7.573,3.281-11.696
			c1.049-5.253,2.812-10.363,4.128-15.553c1.793-7.076,5.172-21.419-1.385-26.905C98.581,23.512,96.558,24.087,95.819,25.987
			L95.819,25.987z"/>
	</g>
</g>
<g>
	<g>
		<path fill="#670B16" d="M132.094,36.831c-3.802,0.903-4.813,5.377-6.101,8.615c-2.17,5.452-4.574,10.806-7.077,16.111
			c-4.538,9.617-10.743,18.711-13.454,29.107c-0.492,1.887,1.836,3.23,3.232,1.881c7.792-7.527,11.871-17.804,16.229-27.477
			c2.145-4.76,4.134-9.59,6.041-14.449c1.475-3.755,4.955-9.624,2.121-13.385C132.838,36.906,132.514,36.731,132.094,36.831
			L132.094,36.831z"/>
	</g>
</g>
<g>
	<g>
		<path fill="#670B16" d="M108.422,87.403c1.98-3.884,3.727-7.465,6.307-11.034c2.453-3.394,5.126-6.721,6.721-10.634
			c1.723-4.226,2.997-8.601,4.636-12.86c1.853-4.815,5.139-8.5,7.456-12.986c0.633-1.225-0.659-2.66-1.924-1.924
			c-7.515,4.376-11.228,15.961-14.366,23.563c-3.35,8.116-13.411,15.47-13.35,24.652C103.917,88.5,107.295,89.614,108.422,87.403
			L108.422,87.403z"/>
	</g>
</g>
<g>
	<g>
		<path fill="#670B16" d="M132.996,41.347c1.477-1.19,3.133-2.157,4.5-3.471c0.626-0.601,1.123-1.266,1.619-1.975
			c0.632-0.903,0.505-1.705,0.584-2.723c0.068-0.889-0.928-1.56-1.735-1.322c-0.81,0.238-1.568,0.208-2.23,0.828
			c-0.599,0.562-1.178,1.095-1.7,1.73c-1.213,1.475-2.174,3.107-3.373,4.596C129.316,40.676,131.33,42.69,132.996,41.347
			L132.996,41.347z"/>
	</g>
</g>
<g>
	<g>
		<path fill="#670B16" d="M116.042,104.461c4.082,0.772,7.642-0.869,11.479-2.153c4.481-1.5,9.029-2.791,13.605-3.965
			c9.355-2.4,18.657-3.324,28.148-4.796c5.194-0.806,3.599-8.546-1.187-8.77c-9.673-0.452-20.145,2.146-29.421,4.646
			c-4.563,1.229-9.052,2.758-13.502,4.344c-4.116,1.467-8.246,2.671-10.915,6.292C113.148,101.554,114.258,104.124,116.042,104.461
			L116.042,104.461z"/>
	</g>
</g>
<g>
	<g>
		<path fill="#670B16" d="M108,117.806c6.391,4.816,15.74,6.948,23.123,9.941c4.046,1.641,8.148,3.131,12.178,4.817
			c3.56,1.49,6.913,2.595,10.737,1.691c1.784-0.422,2.32-2.436,1.597-3.925c-3.301-6.798-13.603-9.071-20.119-11.551
			c-4.029-1.533-8.174-2.785-12.272-4.12c-4.404-1.435-8.767-3.259-13.415-3.602C105.837,110.764,105.437,115.874,108,117.806
			L108,117.806z"/>
	</g>
</g>
<g>
	<g>
		<path fill="#670B16" d="M92.938,117.244c-2.624,9.361,5.12,20.075,8.504,28.396c2.289,5.625,5.726,10.749,9.024,15.816
			c3.032,4.659,5.794,11.626,11.492,13.375c1.769,0.542,3.475-0.632,4.021-2.284c1.647-4.974-1.895-9.658-4.483-13.658
			c-3.36-5.193-6.832-10.278-9.677-15.782c-4.417-8.545-8.711-16.855-12.102-25.864C98.541,114.118,93.937,113.681,92.938,117.244
			L92.938,117.244z"/>
	</g>
</g>
<g>
	<g>
		<path fill="#670B16" d="M96.158,117.581c-2.857,10.217,8.445,22.845,14.064,30.257c4.024,5.308,7.684,10.994,10.994,16.77
			c3.113,5.433,4.444,13.793,9.691,17.5c1.188,0.839,3.215,0.285,3.849-1.009c2.69-5.498-0.667-11.635-3.063-16.707
			c-2.921-6.184-6.82-11.822-10.96-17.238c-3.744-4.9-7.879-9.474-11.496-14.475c-1.863-2.576-3.417-5.321-5.042-8.045
			c-1.458-2.445-2.255-5.308-3.924-7.591C99.166,115.532,96.722,115.562,96.158,117.581L96.158,117.581z"/>
	</g>
</g>
<g>
	<g>
		<path fill="#670B16" d="M84.828,116.624c-4.197-0.116-6.191,6.345-7.445,9.451c-2.622,6.495-4.592,13.32-6.421,20.075
			c-1.857,6.86-3.489,13.781-5.028,20.719c-1.056,4.762-4.455,12.98-0.144,16.848c0.724,0.65,1.826,1.105,2.805,0.742
			c5.628-2.093,5.543-9.962,6.589-15.04c1.435-6.965,3.037-13.894,4.782-20.787C80.83,145.215,90.423,116.779,84.828,116.624
			L84.828,116.624z"/>
	</g>
</g>
<g>
	<g>
		<path fill="#670B16" d="M77.328,106.331c-4.94,0.047-9.193,4.43-13.188,6.99c-4.816,3.087-9.689,6.085-14.548,9.105
			c-8.489,5.276-21.62,11.018-25.171,21.089c-0.701,1.988,1.367,3.331,3.07,3.07c5.301-0.81,9.799-4.234,14.113-7.209
			c4.716-3.253,9.579-6.295,14.413-9.369c4.834-3.075,9.607-6.235,14.191-9.675c3.643-2.734,8.896-5.651,9.865-10.396
			C80.437,108.154,79.275,106.313,77.328,106.331L77.328,106.331z"/>
	</g>
</g>
<g>
	<g>
		<path fill="#670B16" d="M16.896,71.711c1.203,4.079,7.336,5.377,10.744,7.26c4.708,2.601,9.156,5.721,13.651,8.667
			c4.505,2.953,9.101,5.675,14.009,7.908c4.698,2.138,10.854,4.959,16.019,3.225c3.196-1.073,3.546-4.933,0.89-6.811
			c-4.153-2.938-10.196-3.464-14.847-5.686c-4.842-2.313-9.427-5.22-14.024-7.976c-4.635-2.778-9.332-5.356-14.312-7.469
			c-3.51-1.489-8.317-3.962-11.616-1.069C16.891,70.218,16.704,71.063,16.896,71.711L16.896,71.711z"/>
	</g>
</g>
<g>
	<g>
		<path fill="#670B16" d="M23.705,66.925c1.649,1.339,3.523,2.093,5.334,3.185c2.264,1.365,4.251,3.268,6.208,5.029
			c3.307,2.978,6.559,7.213,10.962,8.541c2.841,0.856,4.864-2.315,3.629-4.721C47.576,74.552,42.6,70.9,38.887,67.751
			c-3.591-3.045-8.875-7.112-13.854-5.856C22.991,62.41,21.92,65.477,23.705,66.925L23.705,66.925z"/>
	</g>
</g>
<g>
	<g>
		<path fill="#670B16" d="M18.634,67.372c3.876,3.231,8.588,5.353,12.874,7.99c3.918,2.411,8.919,7.97,13.819,7.672
			c1.232-0.075,2.42-1.016,2.355-2.355c-0.256-5.29-6.778-8.894-10.786-11.372c-4.99-3.085-11.54-6.52-17.518-4.755
			C18.251,64.884,17.62,66.526,18.634,67.372L18.634,67.372z"/>
	</g>
</g>
<g>
	<g>
		<path fill="#670B16" d="M19.671,71.302c6.327,4.198,10.832,10.805,16.942,15.37c5.129,3.833,13.148,10.711,19.991,8.821
			c1.826-0.505,2.685-2.652,1.744-4.287c-1.766-3.068-4.876-4.271-7.831-6.031c-3.236-1.928-6.421-3.852-9.523-5.997
			c-6.332-4.378-13.176-6.756-20.008-10.123C19.48,68.314,18.268,70.371,19.671,71.302L19.671,71.302z"/>
	</g>
</g>
<g>
	<g>
		<path fill="#670B16" d="M46.474,87.532c-4.328-5.275-9.771-8.204-15.783-11.149c-5.268-2.581-11.83-8.702-17.864-8.533
			c-0.941,0.026-1.9,0.813-1.828,1.828c0.449,6.357,7.93,9.675,12.972,12.028c7.016,3.274,14.073,5.668,21.613,7.354
			C46.522,89.27,47.047,88.231,46.474,87.532L46.474,87.532z"/>
	</g>
</g>
<g>
	<g>
		<path fill="#670B16" d="M54.557,44.162c6.333,2.481,6.447,10.968,11.52,14.729c1.65,1.224,4.275-0.416,4.141-2.376
			c-0.228-3.319-3.072-6.997-5.386-9.284c-2.563-2.533-6.303-4.033-9.733-5.034C53.809,41.819,53.361,43.694,54.557,44.162
			L54.557,44.162z"/>
	</g>
</g>
<g>
	<g>
		<path fill="#670B16" d="M54.064,39.618c-1.791,2.464,1.253,6.298,2.449,8.374c1.607,2.788,2.572,7.761,6.141,8.628
			c0.842,0.205,1.862,0.028,2.463-0.651C69.814,50.653,58.327,33.753,54.064,39.618L54.064,39.618z"/>
	</g>
</g>
<g>
	<g>
		<path fill="#670B16" d="M55.887,38.852c0.377,1.704,1.074,3.19,1.699,4.812c0.71,1.84,1.05,3.713,2.384,5.235
			c1.583,1.805,4.773,0.826,5.328-1.407c0.954-3.839-2.4-8.702-5.18-11.103C58.194,34.729,55.323,36.303,55.887,38.852
			L55.887,38.852z"/>
	</g>
</g>
<g>
	<g>
		<path fill="#670B16" d="M100.133,25.968c-0.379,1.85-0.367,3.709-0.472,5.585c-0.139,2.504-0.377,4.731,0.829,7.032
			c1.156,2.206,4.497,2.076,5.687,0c1.249-2.179,1.207-4.591,1.068-7.032c-0.124-2.176-0.33-4.497-1.681-6.295
			C104.174,23.41,100.707,23.17,100.133,25.968L100.133,25.968z"/>
	</g>
</g>
<g>
	<g>
		<path fill="#670B16" d="M133.036,46.915c1.51-1.43,2.265-3.622,2.983-5.538c0.844-2.246,1.993-4.63,0.507-6.863
			c-0.64-0.961-1.969-1.769-3.165-1.288c-2.583,1.04-3.143,3.029-3.971,5.5c-0.754,2.25-1.545,4.574-1.05,6.949
			C128.789,47.824,131.588,48.285,133.036,46.915L133.036,46.915z"/>
	</g>
</g>
<g>
	<g>
		<path fill="#670B16" d="M150.098,138.399c2.099,0.877,4.408,1.157,6.652,1.452c2.708,0.356,5.328,0.957,8.011,0.254
			c4.126-1.081,3.668-6.604,0-7.888c-2.184-0.764-4.564-0.606-6.856-0.751c-2.611-0.165-5.29-0.301-7.807,0.525
			C146.75,133.091,147.142,137.164,150.098,138.399L150.098,138.399z"/>
	</g>
</g>
<g>
	<g>
		<path fill="#670B16" d="M36.946,146.297c1.746-1.366,3.746-2.108,5.609-3.248c2.165-1.325,4.634-4.293,4.991-6.803
			c0.5-3.517-3.176-6.137-6.072-3.535c-0.899,0.808-1.508,1.779-2.147,2.792c-0.659,1.044-1.524,1.926-2.116,3.015
			c-1.076,1.979-2.094,4.135-2.909,6.24C33.659,146.418,35.861,147.146,36.946,146.297L36.946,146.297z"/>
	</g>
</g>
<g>
	<g>
		<path fill="#670B16" d="M89.853,93.361c0.697,3.624,6.93,5.181,9.434,7.6c3.076,2.972-2.882,5.706-5.044,5.929
			c-3.55,0.367-7.958-1.282-10.025-4.278c-3.733-5.41,6.416-6.873,9.61-6.565c0-2.578,0-5.156,0-7.734
			c-9.971,0.996-12.593,8.104-17.602,15.554c2.068,0,4.135,0,6.203,0c-1.505-2.249-2.241-3.407-1.093-6.133
			c-1.339-0.369-2.678-0.738-4.017-1.107c-1.239,3.891-2.103,7.106-0.39,10.956c1.124,2.526,5.358,1.265,5.175-1.402
			c-0.208-3.024-0.86-5.954-0.695-9c0.139-2.548-3.263-2.554-4.091-0.554c-1.417,3.427-2.634,6.363-1.456,10.009
			c0.793,2.453,4.093,3.667,6.004,1.585c3.791-4.131,5.662-11.543,11.96-12.173c4.88-0.487,5.073-7.593,0-7.734
			c-7.872-0.22-18.428,4.821-17.766,14.031c0.648,9.021,10.583,12.542,18.181,13.268c8.972,0.857,18.242-7.54,14.565-16.851
			c-1.772-4.489-6-7.215-10.48-8.491C95.687,89.516,88.92,88.513,89.853,93.361L89.853,93.361z"/>
	</g>
</g>
<g>
	<g>
		<path fill="#670B16" d="M76.784,94.538c-4.63,2.212-6.042,12.153-2.403,15.663c1.343,1.296,4.207,1.317,5.046-0.65
			c0.91-2.13,0.473-3.845,0.488-6.08c0.016-2.222,1.369-4.074,1.472-6.292C81.502,94.688,78.746,93.601,76.784,94.538L76.784,94.538
			z"/>
	</g>
</g>
</svg>
