<?xml version="1.0" encoding="utf-8"?>
<!-- Generator: Adobe Illustrator 16.0.0, SVG Export Plug-In . SVG Version: 6.00 Build 0)  -->
<!DOCTYPE svg PUBLIC "-//W3C//DTD SVG 1.1//EN" "http://www.w3.org/Graphics/SVG/1.1/DTD/svg11.dtd">
<svg version="1.1" xmlns="http://www.w3.org/2000/svg" xmlns:xlink="http://www.w3.org/1999/xlink" x="0px" y="0px"
	 width="286.208px" height="273.14px" viewBox="0 0 286.208 273.14" enable-background="new 0 0 286.208 273.14"
	 xml:space="preserve">
<g id="Layer_1">
	<g id="XMLID_1_">
		<g>
			<path fill="#346734" d="M285.326,255.903c-18.61-3.49-36.05,3.49-53.49,6.98c-20.93,3.479-43.03,4.649-65.12,6.97
				c-36.05,3.49-75.58,3.49-112.79,1.17c-20.76-2.311-42.65-10.34-53.22-29.75l0.89-0.49c38.38-68.6,69.77-140.689,106.98-209.3
				c13.95-26.74,30.23-45.35,52.33-16.28c27.9,37.21,45.34,86.05,66.28,126.75C245.786,180.323,266.715,217.533,285.326,255.903z"/>
		</g>
		<g>
			<path fill="none" stroke="#346734" stroke-miterlimit="10" d="M1.596,240.783c38.38-68.6,69.77-140.689,106.98-209.3
				c13.95-26.74,30.23-45.35,52.33-16.28c27.9,37.21,45.34,86.05,66.28,126.75c18.6,38.37,39.529,75.58,58.14,113.95
				c-18.61-3.49-36.05,3.49-53.49,6.98c-20.93,3.479-43.03,4.649-65.12,6.97c-36.05,3.49-75.58,3.49-112.79,1.17
				c-20.76-2.311-42.65-10.34-53.22-29.75c-0.1-0.16-0.18-0.33-0.27-0.49"/>
		</g>
	</g>
	<g>
		<g>
			<path fill="#183319" d="M97.396,125.037c-1.741,6.999-8.354,12.369-8.618,19.866c-0.032,0.895,1.113,1.313,1.72,0.713
				c5.443-5.383,7.497-13.076,8.371-20.38C98.971,124.385,97.596,124.232,97.396,125.037L97.396,125.037z"/>
		</g>
	</g>
	<g>
		<g>
			<path fill="#183319" d="M75.678,168.931c-1.947,4.865-4.89,9.247-7.529,13.747c-2.433,4.147-5.822,8.124-6.736,12.938
				c-0.17,0.895,0.716,1.731,1.583,1.218c8.67-5.126,12.382-18.235,14.896-27.292C78.299,168.079,76.214,167.592,75.678,168.931
				L75.678,168.931z"/>
		</g>
	</g>
	<g>
		<g>
			<path fill="#183319" d="M47.786,219.202c-1.769,4.303-4.013,8.283-6.364,12.287c-1.987,3.384-4.235,6.75-4.451,10.747
				c-0.055,1.024,1.279,1.489,1.96,0.813c3.011-2.994,4.541-7.337,6.341-11.128c1.865-3.932,3.67-7.902,5.181-11.984
				C51.08,218.241,48.447,217.593,47.786,219.202L47.786,219.202z"/>
		</g>
	</g>
	<g>
		<g>
			<path fill="#183319" d="M130.442,132.559c-2.166,2.331-2.485,5.775-3.042,8.803c-0.657,3.569-1.217,7.365-0.393,10.94
				c0.279,1.213,2.18,1.533,2.742,0.358c1.408-2.947,1.734-6.21,2.126-9.423c0.391-3.205,1.617-6.843,0.957-10.048
				C132.616,132.143,131.146,131.801,130.442,132.559L130.442,132.559z"/>
		</g>
	</g>
	<g>
		<g>
			<path fill="#183319" d="M120.662,177.352c-1.285,7.366-3.838,15.017-2.907,22.552c0.114,0.923,1.394,1.526,1.922,0.521
				c3.674-7.004,3.7-15.421,2.567-23.072C122.126,176.556,120.797,176.574,120.662,177.352L120.662,177.352z"/>
		</g>
	</g>
	<g>
		<g>
			<path fill="#183319" d="M112.83,223.236c-0.175,4.961-0.997,9.798-1.8,14.686c-0.641,3.903-1.428,8.181,0.072,11.928
				c0.39,0.974,1.663,1.027,2.034,0c1.308-3.616,1.054-7.645,1.431-11.449c0.498-5.028,0.842-10.11,0.841-15.164
				C115.408,221.569,112.889,221.58,112.83,223.236L112.83,223.236z"/>
		</g>
	</g>
	<g>
		<g>
			<path fill="#183319" d="M171.232,141.899c-1.466,4.192,0.006,8.981,1.097,13.127c1.246,4.735,2.983,9.229,5.061,13.636
				c0.373,0.791,1.564,0.365,1.572-0.426c0.046-4.418-1.029-8.291-2.209-12.542c-1.255-4.519-1.583-9.407-3.081-13.795
				C173.26,140.688,171.651,140.703,171.232,141.899L171.232,141.899z"/>
		</g>
	</g>
	<g>
		<g>
			<path fill="#183319" d="M177.778,192.236c-0.793,9.929-0.196,26.303,8.797,32.598c0.987,0.691,1.86-0.598,1.475-1.475
				c-2.289-5.21-4.326-10.189-5.373-15.813c-0.972-5.22-0.941-10.596-2.92-15.578C179.338,190.911,177.872,191.064,177.778,192.236
				L177.778,192.236z"/>
		</g>
	</g>
	<g>
		<g>
			<path fill="#183319" d="M196.468,136.569c0.337,4.094,1.714,7.792,3.357,11.527c1.995,4.535,3.889,9.26,6.777,13.304
				c0.52,0.729,1.899,0.566,1.834-0.497c-0.229-3.736-1.621-6.725-3.279-10.042c-2.396-4.793-4.746-9.582-6.756-14.554
				C198.02,135.363,196.369,135.369,196.468,136.569L196.468,136.569z"/>
		</g>
	</g>
	<g>
		<g>
			<path fill="#183319" d="M208.526,185.492c2.23,8.681,5.733,21.483,13.066,27.271c1.146,0.904,3.531,0.12,2.82-1.642
				c-1.681-4.17-4.219-7.979-6.236-11.999c-2.473-4.926-4.51-9.965-7.894-14.371C209.65,183.928,208.236,184.362,208.526,185.492
				L208.526,185.492z"/>
		</g>
	</g>
	<g>
		<g>
			<path fill="#183319" d="M222.745,233.65c2.178,4.923,4.002,9.909,5.987,14.911c1.466,3.694,3.451,8.092,7.687,9.008
				c0.996,0.216,2.016-0.641,1.7-1.7c-1.303-4.389-4.77-8.378-6.729-12.583c-1.854-3.984-3.752-8.238-7.523-10.758
				C223.111,232.022,222.444,232.972,222.745,233.65L222.745,233.65z"/>
		</g>
	</g>
	<g>
		<g>
			<path fill="#183319" d="M150.164,207.903c-0.162,4.406-0.233,8.815-0.086,13.224c0.126,3.79-0.225,7.875,1.2,11.434
				c0.433,1.079,1.977,1.235,2.351,0c1.116-3.688,0.322-7.641,0.047-11.434c-0.319-4.409-0.719-8.808-0.934-13.224
				C152.661,206.245,150.225,206.238,150.164,207.903L150.164,207.903z"/>
		</g>
	</g>
	<g>
		<g>
			<path fill="#183319" d="M94.972,194.012c-1.979,7.786-7.126,15.654-6.527,23.892c0.066,0.906,1.418,1.494,1.878,0.509
				c3.43-7.352,4.753-16.036,6.276-23.951C96.802,193.404,95.243,192.946,94.972,194.012L94.972,194.012z"/>
		</g>
	</g>
</g>
<g id="Layer_2">
	<g id="XMLID_2_">
		<g>
			<path fill="#183319" d="M129.506,115.203c-13.95-12.79-6.98-48.84-29.07-25.58c-9.54,8.48-19.08,40.16-34.79,29.811
				c5.93-28.95,27.88-60.17,41.77-86.79c8.14-15.11,20.93-34.88,40.7-26.74c17.44,5.81,22.09,29.07,30.23,43.02
				c8.14,17.44,24.42,31.4,29.07,51.17c5.811,20.93-2.33,30.229-19.77,13.949c-11.63-11.63-16.28-34.88-32.56-22.09
				C144.625,101.253,148.116,131.483,129.506,115.203z"/>
		</g>
		<g>
			<path fill="none" stroke="#183319" stroke-miterlimit="10" d="M65.646,119.434c-0.58-0.38-1.17-0.82-1.77-1.32"/>
			<path fill="none" stroke="#183319" stroke-miterlimit="10" d="M65.646,119.434c5.93-28.95,27.88-60.17,41.77-86.79
				c8.14-15.11,20.93-34.88,40.7-26.74c17.44,5.81,22.09,29.07,30.23,43.02c8.14,17.44,24.42,31.4,29.07,51.17
				c5.811,20.93-2.33,30.229-19.77,13.949c-11.63-11.63-16.28-34.88-32.56-22.09c-10.46,9.3-6.97,39.53-25.58,23.25
				c-13.95-12.79-6.98-48.84-29.07-25.58C90.896,98.104,81.355,129.783,65.646,119.434z"/>
			<path fill="none" stroke="#183319" stroke-miterlimit="10" d="M65.556,119.854c0.03-0.141,0.06-0.28,0.09-0.42"/>
		</g>
	</g>
	<g>
		<g>
			<path fill="#183319" d="M122.718,14.928c3.189-2.137,4.599-5.333,8.5-6.714c3.472-1.229,6.983-1.313,10.541-0.468
				c9.676,2.297,13.913,12.506,18.193,20.499c5.292,9.882,11.946,18.924,17.179,28.831c2.557,4.843,4.84,9.837,7.032,14.853
				c2.151,4.923,3.517,11.601,8.539,14.303c1.888,1.016,4.591,0.188,5.096-2.073c1.322-5.914-2.853-11.896-5.224-17.146
				c-2.989-6.619-6.429-12.99-10.129-19.236c-3.351-5.657-7.253-10.963-10.643-16.59c-3.524-5.849-6.369-12.09-10.252-17.723
				c-5.354-7.769-13.769-13.078-23.407-12.682c-6.514,0.268-16.984,5.618-17.211,13.121
				C120.905,14.77,121.973,15.428,122.718,14.928L122.718,14.928z"/>
		</g>
	</g>
</g>
</svg>
