<?xml version="1.0" encoding="utf-8"?>
<!-- Generator: Adobe Illustrator 16.0.0, SVG Export Plug-In . SVG Version: 6.00 Build 0)  -->
<!DOCTYPE svg PUBLIC "-//W3C//DTD SVG 1.1//EN" "http://www.w3.org/Graphics/SVG/1.1/DTD/svg11.dtd">
<svg version="1.1" id="Layer_1" xmlns="http://www.w3.org/2000/svg" xmlns:xlink="http://www.w3.org/1999/xlink" x="0px" y="0px"
	 width="262.642px" height="239.456px" viewBox="0 0 262.642 239.456" enable-background="new 0 0 262.642 239.456"
	 xml:space="preserve">
<g id="XMLID_3_">
	<g>
		<path fill="#183319" d="M7.819,202.226c32.89-58.84,61.07-124.15,100.17-179.46c17-24,34-32,53-6c22,31,38,68,57,101
			c18,33,33,66,44,103c-73,7-166,32-238,8c-11-3-35-14-17-27L7.819,202.226z"/>
	</g>
	<g>
		<path fill="none" stroke="#183319" stroke-miterlimit="10" d="M2.989,210.766c1.62-2.83,3.23-5.68,4.83-8.54
			c32.89-58.84,61.07-124.15,100.17-179.46c17-24,34-32,53-6c22,31,38,68,57,101c18,33,33,66,44,103c-73,7-166,32-238,8
			c-11-3-35-14-17-27"/>
	</g>
</g>
<g>
	<g>
		<path fill="#346734" d="M78.639,112.561c-2.208,4.192-3.809,8.181-5.556,12.619c-2.035,5.17-4.898,10.007-6.467,15.345
			c-0.268,0.913,0.864,1.463,1.515,0.882c7.555-6.739,11.931-18.769,11.266-28.641C79.37,112.388,78.839,112.18,78.639,112.561
			L78.639,112.561z"/>
	</g>
</g>
<g>
	<g>
		<path fill="#346734" d="M58.342,162.887c-1.423,2.458-3.155,4.466-4.178,7.169c-1.505,3.978-3.161,7.88-4.963,11.731
			c-2.732,5.839-7.179,11.767-8.477,18.13c-0.209,1.023,0.906,2.201,1.928,1.481c5.453-3.836,8.357-11.123,11.042-16.985
			c1.495-3.266,2.839-6.603,4.121-9.956c1.506-3.942,1.691-7.08,1.925-11.191C59.783,162.505,58.703,162.263,58.342,162.887
			L58.342,162.887z"/>
	</g>
</g>
<g>
	<g>
		<path fill="#346734" d="M130.658,120.357c1.203,3.53,0.935,8.908,0.963,12.659c0.029,3.691-0.987,8.014,0.374,11.524
			c0.339,0.874,1.33,0.984,1.885,0.246c2.324-3.093,2.328-8.061,2.259-11.771c-0.042-2.19-0.356-4.361-0.738-6.514
			c-0.481-2.711-2.596-4.311-4.114-6.41C131.072,119.797,130.523,119.963,130.658,120.357L130.658,120.357z"/>
	</g>
</g>
<g>
	<g>
		<path fill="#346734" d="M134.239,169.266c-0.279,5.937,0.635,12.073,0.873,18.021c0.214,5.333-0.231,10.555,1.905,15.547
			c0.315,0.737,1.628,0.738,1.943,0c2.346-5.488,1.684-11.425,1.224-17.255c-0.441-5.595-1.332-11.951-4.548-16.691
			C135.217,168.268,134.275,168.501,134.239,169.266L134.239,169.266z"/>
	</g>
</g>
<g>
	<g>
		<path fill="#346734" d="M195.552,118.766c0.298,2.504,0.243,4.879,0.797,7.362c0.631,2.825,2.093,5.707,3.056,8.447
			c1.855,5.281,3.497,11.261,7.224,15.552c0.752,0.867,2.012,0.11,2.08-0.861c0.391-5.594-2.027-11.017-3.884-16.185
			c-0.889-2.474-1.986-4.886-3.015-7.304c-1.319-3.103-3.342-4.847-5.511-7.321C196.062,118.186,195.507,118.387,195.552,118.766
			L195.552,118.766z"/>
	</g>
</g>
<g>
	<g>
		<path fill="#346734" d="M212.552,164.266c0.183,3.215,0.131,6.031,1.521,9.08c1.114,2.442,2.152,5.532,5.059,6.216
			c0.566,0.133,1.235-0.072,1.518-0.618c2.607-5.039-4.673-10.576-6.256-14.927C214.051,163.077,212.488,163.148,212.552,164.266
			L212.552,164.266z"/>
	</g>
</g>
<g>
	<g>
		<path fill="#346734" d="M227.977,196.908c1.313,4.242,2.051,8.732,4.039,12.73c1.779,3.577,3.54,8.361,7.492,9.876
			c0.915,0.351,1.997-0.38,2.229-1.267c1.023-3.911-1.945-7.263-4.086-10.293c-2.803-3.97-6.558-7.036-8.703-11.457
			C228.683,195.952,227.801,196.337,227.977,196.908L227.977,196.908z"/>
	</g>
</g>
<g>
	<g>
		<path fill="#346734" d="M164.364,131.766c-0.132,6.202,2.719,11.669,4.696,17.433c1.979,5.766,3.246,12.454,6.863,17.482
			c1.038,1.441,3.299,0.976,3.378-0.915c0.279-6.674-2.719-13.544-4.932-19.707c-2.013-5.608-3.794-11.517-9.065-14.833
			C164.893,130.967,164.374,131.307,164.364,131.766L164.364,131.766z"/>
	</g>
</g>
<g>
	<g>
		<path fill="#346734" d="M109.513,109.706c0.235,5.461,0.281,10.476-0.774,15.896c-0.909,4.669-2.317,9.434-2.75,14.165
			c-0.121,1.317,1.714,1.97,2.561,1.061c3.638-3.906,5.202-9.976,6.059-15.084c0.912-5.436,1.825-12.106-0.799-17.2
			C112.763,106.512,109.416,107.446,109.513,109.706L109.513,109.706z"/>
	</g>
</g>
<g>
	<g>
		<path fill="#346734" d="M101.333,166.266c-0.85,7.601-3.246,14.906-4.855,22.362c-1.459,6.759-4.071,13.553-2.875,20.52
			c0.174,1.016,1.751,1.445,2.403,0.635c4.763-5.926,5.808-13.922,7.109-21.218c1.334-7.477,0.68-15.029-0.493-22.474
			C102.498,165.3,101.408,165.594,101.333,166.266L101.333,166.266z"/>
	</g>
</g>
<g id="XMLID_4_">
	<g>
		<path fill="#346734" d="M146.989,66.766c-6,9-14,23-26,15c-7-5-8-15-16-16c-16-3-23,14-33,23c7.77-7.8-0.38-2.63,0,0
			c-0.38-2.63-0.59-5.28-0.5-7.94l1.5-2.06c3-8,8-15,12-23c6-15,15-29,27-42c4-4,8-7,12-10c5-2,10-4,15-3c8,1,16,6,21,13
			c16,23,36,44,37,71c0,3-4,5-7,4c-4-3-8-6-12-10c-5-5-8-11-14-16C157.989,58.766,150.989,61.766,146.989,66.766z"/>
	</g>
	<g>
		<path fill="none" stroke="#346734" stroke-miterlimit="10" d="M71.989,88.766c-0.38-2.63-0.59-5.28-0.5-7.94"/>
		<path fill="none" stroke="#346734" stroke-miterlimit="10" d="M71.989,88.766C71.609,86.136,79.759,80.966,71.989,88.766
			L71.989,88.766z"/>
		<path fill="none" stroke="#346734" stroke-miterlimit="10" d="M72.989,78.766c3-8,8-15,12-23c6-15,15-29,27-42c4-4,8-7,12-10
			c5-2,10-4,15-3c8,1,16,6,21,13c16,23,36,44,37,71c0,3-4,5-7,4c-4-3-8-6-12-10c-5-5-8-11-14-16c-6-4-13-1-17,4c-6,9-14,23-26,15
			c-7-5-8-15-16-16c-16-3-23,14-33,23"/>
	</g>
</g>
</svg>
